/* XPM */
char *_full_xpm[] = {
"16 16 256 3",
"000 c gray22",
"001 c None",
"002 c #80A0D0",
"003 c #D8E8F8",
"004 c #808080",
"005 c gray91",
"006 c #98A8D0",
"007 c #D8E0E0",
"008 c #687080",
"009 c #D0D0D0",
"010 c #88A8D8",
"011 c gray66",
"012 c #F0F8F8",
"013 c #A0D8F8",
"014 c #E0F0F8",
"015 c #686868",
"016 c #7888C0",
"017 c #889098",
"018 c #D8F0F8",
"019 c #C8C8C8",
"020 c #7078A8",
"021 c #D0E8F8",
"022 c #90B8E8",
"023 c #A0A0B0",
"024 c gray88",
"025 c #C8D8E8",
"026 c #586070",
"027 c #7080B0",
"028 c #989898",
"029 c #E8F0F8",
"030 c #B0B8D0",
"031 c #707880",
"032 c #D8D8D0",
"033 c #7890C8",
"034 c #888888",
"035 c #B0E0F8",
"036 c #606058",
"037 c #8888B0",
"038 c #788088",
"039 c #E0E0D8",
"040 c #D0D0E0",
"041 c gray44",
"042 c #88B0E8",
"043 c gray69",
"044 c #A8C8F0",
"045 c #605858",
"046 c #80A0C0",
"047 c #808088",
"048 c #B8B8C0",
"049 c #707878",
"050 c #D8F8F8",
"051 c #90C0F0",
"052 c #A0C8F0",
"053 c #8890B8",
"054 c #C8D0E0",
"055 c #6870A0",
"056 c #90C0F8",
"057 c #98A0A0",
"058 c #C0E0F8",
"059 c gray47",
"060 c #7888B8",
"061 c #9898A8",
"062 c #687888",
"063 c #88A8E0",
"064 c #909090",
"065 c #B0C8E8",
"066 c #606060",
"067 c #8090B8",
"068 c #8890A0",
"069 c #D8E0F0",
"070 c #C0C0C0",
"071 c #788898",
"072 c #90B8F0",
"073 c #C8E0F8",
"074 c gray25",
"075 c #7080B8",
"076 c #687078",
"077 c #98D0F8",
"078 c #6870A8",
"079 c #80A0D8",
"080 c #909898",
"081 c #B8D8F8",
"082 c #484848",
"083 c #8098D0",
"084 c #B0B8B8",
"085 c #788080",
"086 c #C0C0D8",
"087 c #808898",
"088 c #7890C0",
"089 c #98A8B0",
"090 c #708098",
"091 c #88B0E0",
"092 c #C0D0F0",
"093 c #90A0B8",
"094 c #C8D0E8",
"095 c black",
"096 c black",
"097 c black",
"098 c black",
"099 c black",
"100 c black",
"101 c black",
"102 c black",
"103 c black",
"104 c black",
"105 c black",
"106 c black",
"107 c black",
"108 c black",
"109 c black",
"110 c black",
"111 c black",
"112 c black",
"113 c black",
"114 c black",
"115 c black",
"116 c black",
"117 c black",
"118 c black",
"119 c black",
"120 c black",
"121 c black",
"122 c black",
"123 c black",
"124 c black",
"125 c black",
"126 c black",
"127 c black",
"128 c black",
"129 c black",
"130 c black",
"131 c black",
"132 c black",
"133 c black",
"134 c black",
"135 c black",
"136 c black",
"137 c black",
"138 c black",
"139 c black",
"140 c black",
"141 c black",
"142 c black",
"143 c black",
"144 c black",
"145 c black",
"146 c black",
"147 c black",
"148 c black",
"149 c black",
"150 c black",
"151 c black",
"152 c black",
"153 c black",
"154 c black",
"155 c black",
"156 c black",
"157 c black",
"158 c black",
"159 c black",
"160 c black",
"161 c black",
"162 c black",
"163 c black",
"164 c black",
"165 c black",
"166 c black",
"167 c black",
"168 c black",
"169 c black",
"170 c black",
"171 c black",
"172 c black",
"173 c black",
"174 c black",
"175 c black",
"176 c black",
"177 c black",
"178 c black",
"179 c black",
"180 c black",
"181 c black",
"182 c black",
"183 c black",
"184 c black",
"185 c black",
"186 c black",
"187 c black",
"188 c black",
"189 c black",
"190 c black",
"191 c black",
"192 c black",
"193 c black",
"194 c black",
"195 c black",
"196 c black",
"197 c black",
"198 c black",
"199 c black",
"200 c black",
"201 c black",
"202 c black",
"203 c black",
"204 c black",
"205 c black",
"206 c black",
"207 c black",
"208 c black",
"209 c black",
"210 c black",
"211 c black",
"212 c black",
"213 c black",
"214 c black",
"215 c black",
"216 c black",
"217 c black",
"218 c black",
"219 c black",
"220 c black",
"221 c black",
"222 c black",
"223 c black",
"224 c black",
"225 c black",
"226 c black",
"227 c black",
"228 c black",
"229 c black",
"230 c black",
"231 c black",
"232 c black",
"233 c black",
"234 c black",
"235 c black",
"236 c black",
"237 c black",
"238 c black",
"239 c black",
"240 c black",
"241 c black",
"242 c black",
"243 c black",
"244 c black",
"245 c black",
"246 c black",
"247 c black",
"248 c black",
"249 c black",
"250 c black",
"251 c black",
"252 c black",
"253 c black",
"254 c black",
"255 c black",
"001001001001001001001001001001001001001001001001",
"001001052051051022022042042010010002002053001001",
"001044021001001001001001001001001001001025053001",
"001051001081058058073021003003014014014001033001",
"001051001090071071087003017017017017017001033001",
"001022001058021003014029029012012012012001016001",
"001022001017089048012070057080028028028001016001",
"001092024007084064015034024001001001001001027001",
"001038041011043011011011059041001011028001027001",
"001074043009064015082000028032034019001001027001",
"001038043015019001036036004005023031057001020001",
"001054004015011061069093045028021050062001055001",
"001083001059041065018035036036013013031001055001",
"001006025001059010077046009024008008070040037001",
"001001006033054031026004030067086086053037001001",
"001001001001001001001001001001001001001001001001"
};
