/* XPM */
static char *diForms_xpm[] = {
"20 20 16 2",
"00 c black",
"01 c none",
"02 c #F800F8",
"03 c #F8F8F8",
"04 c black",
"05 c black",
"06 c black",
"07 c black",
"08 c black",
"09 c black",
"10 c black",
"11 c black",
"12 c black",
"13 c black",
"14 c black",
"15 c black",
"0101010101010101010101010101010101010101",
"0101010101010101010101010101010101010101",
"0101010001000100010001000100010101010101",
"0101000102010201020102010201000101010101",
"0101010201020102010001000102010001010101",
"0101000103010301020103010001000100010101",
"0101010201000100010001000102010201000101",
"0101000102010201020102010201000100010001",
"0101010201020102010201020102010201020101",
"0101000103010301030103010301000100010001",
"0101010201000100010001020102010201020101",
"0101000102010201020102010201000100010001",
"0101010001000100010001000100010201020101",
"0101010100010201020102010201020100010001",
"0101010101000100010001000100010001020101",
"0101010101010001020102010201020102010001",
"0101010101010100010001000100010001000101",
"0101010101010101010101010101010101010101",
"0101010101010101010101010101010101010101",
"0101010101010101010101010101010101010101"
};
