/* XPM */
static char *diQueries_xpm[] = {
"20 20 16 2",
"00 c none",
"01 c black",
"02 c #00F8F8",
"03 c #808080",
"04 c #F8F8F8",
"05 c black",
"06 c black",
"07 c black",
"08 c black",
"09 c black",
"10 c black",
"11 c black",
"12 c black",
"13 c black",
"14 c black",
"15 c black",
"0000000000000000000000000000000000000000",
"0000000000000000000000000000000000000000",
"0000000000010001000100010000000000000000",
"0000000001000300020003000100000000000000",
"0000000100010001000200020001000000000000",
"0000010004000400010003000100010000000000",
"0000000400030004000200020002000100000000",
"0000010003000300010003000100010001000000",
"0000000400030004000200020002000200000000",
"0000010004000400010001000100010001000000",
"0000000300030003000400020002000200000000",
"0000010004000400010001000100010001000000",
"0000000100010001000300040002000200000000",
"0000000001000400040001000100010001000000",
"0000000000010001000100030000000000000000",
"0000000000000100040004000100000000000000",
"0000000000000001000100010000000000000000",
"0000000000000000000000000000000000000000",
"0000000000000000000000000000000000000000",
"0000000000000000000000000000000000000000"
};
