/* XPM */
static char *diRoles_xpm[] = {
"20 20 16 2",
"00 c none",
"01 c black",
"02 c #F8F8F8",
"03 c #F8F800",
"04 c #C0C0C0",
"05 c #808000",
"06 c #00F8F8",
"07 c #808080",
"08 c #0000F8",
"09 c black",
"10 c black",
"11 c black",
"12 c black",
"13 c black",
"14 c black",
"15 c black",
"0000000000000005000700050000000000000000",
"0000000000000500050005000500000000000000",
"0000000100010001000500020005000000000000",
"0000010001000100010002000200050000000000",
"0001000100010002000200020001000500000000",
"0100010007000200020002000800010005000000",
"0001000700020002000100020002000100000000",
"0100010001000200080001000200010001000000",
"0001000700020002000200010001000200010000",
"0000010001000200020001000200010001000100",
"0000000100020002000100010001000100020001",
"0000010001000200020001000100020001000100",
"0000000100020001000100020001000100010000",
"0000010001000200010002000400060002000100",
"0001000300010002000100060001000600010000",
"0100030003000100030003000100060006000000",
"0000000100030001000200010006000100060100",
"0000010003000300010003000300010006000601",
"0000000000010003000100020001000600010006",
"0000000001000300030001000300030001000600"
};
