/* XPM */
static char *diTables_xpm[] = {
"20 20 16 2",
"00 c none",
"01 c black",
"02 c #00F8F8",
"03 c #808080",
"04 c #C0C0C0",
"05 c #0000F8",
"06 c black",
"07 c black",
"08 c black",
"09 c black",
"10 c black",
"11 c black",
"12 c black",
"13 c black",
"14 c black",
"15 c black",
"0000000000000000000000000000000000000000",
"0000000000000000000000000000000000000000",
"0000000100010001000100010001000000000000",
"0000010005000400050004000500010000000000",
"0000000500050005000500050005000100000000",
"0000010002000300020003000200010001000000",
"0000000300030003000300030003000500010000",
"0000010002000300020003000200010001000100",
"0000000300030003000300030003000300050000",
"0000010002000300020003000200010001000100",
"0000000300030003000300030003000300030000",
"0000010002000300020003000200010001000100",
"0000000100010001000100010001000300030000",
"0000000001000200030002000300020001000100",
"0000000000010001000100010001000100030000",
"0000000000000100020003000200030002000100",
"0000000000000001000100010001000100010000",
"0000000000000000000000000000000000000000",
"0000000000000000000000000000000000000000",
"0000000000000000000000000000000000000000"
};
