/* XPM */
static char *diTriggers_xpm[] = {
"20 20 16 2",
"00 c none",
"01 c black",
"02 c #0000F8",
"03 c #808080",
"04 c #C0C0C0",
"05 c #00F8F8",
"06 c black",
"07 c black",
"08 c black",
"09 c black",
"10 c black",
"11 c black",
"12 c black",
"13 c black",
"14 c black",
"15 c black",
"0000000000000000000000000000000000000000",
"0001000100010001000100000000000000000000",
"0000020002000200020001000000000000000000",
"0001000500030005000500000000000000000000",
"0000030003000300030001000000000000000000",
"0001000500030005000500000000000000000000",
"0000030003000300010001000100000000000000",
"0001000500030001000400040001000000000000",
"0000010001000100040004000400010000000000",
"0000000000000004000300010004000100000000",
"0000000000000100040001000100040001000000",
"0000000000000004000100010004000100010000",
"0000000000000100040001000300040004000100",
"0000000000000001000400040004000400010001",
"0000000000000000010004000400040004000400",
"0000000000000000000100010004000400040001",
"0000000000000000000001000400040004000400",
"0000000000000000000000010001000400040001",
"0000000000000000000000000100040004000100",
"0000000000000000000000000001000100010000"
};
