/* XPM */
static char * mng16_xpm[] = {
"16 16 130 2",
"  	c None",
". 	c #D5D5D5",
"+ 	c #BEBEBE",
"@ 	c #B4B5B5",
"# 	c #B3B3B3",
"$ 	c #B8B8B8",
"% 	c #DADADA",
"& 	c #FFF8FF",
"* 	c #B0B0AF",
"= 	c #8F908F",
"- 	c #9FA090",
"; 	c #AFA8A0",
"> 	c #6F6F6F",
", 	c #7C7E7E",
"' 	c #4D5759",
") 	c #3F4848",
"! 	c #262F2F",
"~ 	c #6E7070",
"{ 	c #DFE0DF",
"] 	c #D0D8D0",
"^ 	c #AFB0BF",
"/ 	c #8F90A0",
"( 	c #6F7070",
"_ 	c #60605F",
": 	c #5F5850",
"< 	c #7F787F",
"[ 	c #6C6C6C",
"} 	c #303636",
"| 	c #AC513E",
"1 	c #AF221A",
"2 	c #671E1F",
"3 	c #717676",
"4 	c #EFE8E0",
"5 	c #BFB8BF",
"6 	c #606050",
"7 	c #6F685F",
"8 	c #808070",
"9 	c #737373",
"0 	c #43393A",
"a 	c #B2312B",
"b 	c #FF0000",
"c 	c #6E100F",
"d 	c #807E7F",
"e 	c #E0E0DF",
"f 	c #DFD8D0",
"g 	c #CFD0CF",
"h 	c #C0C0CF",
"i 	c #505050",
"j 	c #6F6860",
"k 	c #707060",
"l 	c #7F807F",
"m 	c #8B8B8B",
"n 	c #2C2C30",
"o 	c #61552D",
"p 	c #778537",
"q 	c #4F573B",
"r 	c #7F7F81",
"s 	c #D0D0CF",
"t 	c #505850",
"u 	c #70706F",
"v 	c #808080",
"w 	c #929292",
"x 	c #343732",
"y 	c #00FF00",
"z 	c #64CA46",
"A 	c #4A9F37",
"B 	c #8F9989",
"C 	c #B0B0B0",
"D 	c #7F8070",
"E 	c #8F8880",
"F 	c #9E9E9E",
"G 	c #383B33",
"H 	c #4BD533",
"I 	c #64EE42",
"J 	c #56B540",
"K 	c #929D8B",
"L 	c #A0A8AF",
"M 	c #B4B4B4",
"N 	c #292A28",
"O 	c #365229",
"P 	c #427532",
"Q 	c #48593C",
"R 	c #C0C7BD",
"S 	c #808090",
"T 	c #FDFDFD",
"U 	c #4A484A",
"V 	c #6B6F6A",
"W 	c #C0C9BB",
"X 	c #F6FFF0",
"Y 	c #FEFFFD",
"Z 	c #C0C8C0",
"` 	c #9F9880",
" .	c #7F7870",
"..	c #A0A090",
"+.	c #30307F",
"@.	c #1F1860",
"#.	c #1F186F",
"$.	c #BFC0C0",
"%.	c #9090A0",
"&.	c #2F2870",
"*.	c #9F9890",
"=.	c #A0A0A0",
"-.	c #B0B0A0",
";.	c #A0A0B0",
">.	c #80809F",
",.	c #9F98AF",
"'.	c #0F0860",
").	c #4F487F",
"!.	c #80808F",
"~.	c #00005F",
"{.	c #7F7890",
"].	c #C0C0B0",
"^.	c #101060",
"/.	c #4F4880",
"(.	c #CFC8BF",
"_.	c #20206F",
":.	c #3F3870",
"<.	c #606880",
"[.	c #7F786F",
"}.	c #70708F",
"|.	c #5F5880",
"1.	c #606080",
"2.	c #AFA89F",
"3.	c #4F507F",
"4.	c #606090",
"5.	c #9F989F",
"6.	c #8F8890",
"7.	c #40407F",
"8.	c #A0A080",
"9.	c #707080",
". + @ # $ %   * * = - ; * - ;   ",
"> , ' ) ! ~ { ] ^ / ( _ : : <   ",
"[ } | 1 2 3 4 { ] 5 : : 6 7 8   ",
"9 0 a b c d e f g h i : j k l   ",
"m n o p q r { f s 5 t 7 u u v   ",
"w x y z A B { { s C t j D u E   ",
"F G H I J K { f s L : k 8 j =   ",
"M N O P Q R { f h S : u D 7 =   ",
"T U V W X Y { f Z = ` `  .j ..  ",
"      * +.@.#.$.%.&.@.&.= *.&.=.",
"    -.@.&.;.>.,.'.).!.~.*.{.'.].",
"    ..^.'./.(._.&.7 ` ~.*._.:.  ",
"    *.../.'.%.~.<.[.}.'.*.~.%.  ",
"  -.).<.&.@.* '.&.|.'.1.|.'.).|.",
"  2.1.3.4.5.  6.3.'.7.8.<.1.<.S ",
"                  9.1.-         "};
