/* XPM */
static char * mng32_xpm[] = {
"32 32 320 2",
"  	c None",
". 	c #B2B2B2",
"+ 	c #656565",
"@ 	c #6D6D6D",
"# 	c #686868",
"$ 	c #616161",
"% 	c #5A5A5A",
"& 	c #515151",
"* 	c #4C4C4C",
"= 	c #5D5D5D",
"- 	c #9D9D9D",
"; 	c #FFF8FF",
"> 	c #CFD0C0",
", 	c #BFB8B0",
"' 	c #90908F",
") 	c #9FA09F",
"! 	c #AFA8A0",
"~ 	c #B0B0A0",
"{ 	c #C0C8BF",
"] 	c #D0D0CF",
"^ 	c #8D8D8D",
"/ 	c #9A9A9A",
"( 	c #909090",
"_ 	c #838383",
": 	c #787878",
"< 	c #707070",
"[ 	c #535353",
"} 	c #424242",
"| 	c #3D3D3D",
"1 	c #C0C8C0",
"2 	c #B0B0AF",
"3 	c #9FA090",
"4 	c #8F8880",
"5 	c #8F888F",
"6 	c #909080",
"7 	c #9F988F",
"8 	c #808870",
"9 	c #70786F",
"0 	c #60605F",
"a 	c #5F504F",
"b 	c #808080",
"c 	c #727272",
"d 	c #505252",
"e 	c #454A4A",
"f 	c #503D3B",
"g 	c #413333",
"h 	c #242626",
"i 	c #202020",
"j 	c #373737",
"k 	c #E0E8E0",
"l 	c #DFE0DF",
"m 	c #C0C0BF",
"n 	c #9098AF",
"o 	c #8F88A0",
"p 	c #8088A0",
"q 	c #7F889F",
"r 	c #808890",
"s 	c #808070",
"t 	c #6F6860",
"u 	c #5F5850",
"v 	c #9F98A0",
"w 	c #818181",
"x 	c #5F5F5F",
"y 	c #484848",
"z 	c #2C2D2D",
"A 	c #3A3330",
"B 	c #C6472E",
"C 	c #CD5E4F",
"D 	c #931E1D",
"E 	c #613535",
"F 	c #272C2C",
"G 	c #3A3A3A",
"H 	c #D0D8D0",
"I 	c #AFB0B0",
"J 	c #5F6070",
"K 	c #50484F",
"L 	c #605850",
"M 	c #9F989F",
"N 	c #5E5E5E",
"O 	c #474747",
"P 	c #2B3030",
"Q 	c #A43C2A",
"R 	c #DB8173",
"S 	c #A8281A",
"T 	c #7F0908",
"U 	c #6F0E0E",
"V 	c #4F4242",
"W 	c #393A3A",
"X 	c #DFD8D0",
"Y 	c #9090A0",
"Z 	c #6F685F",
"` 	c #858585",
" .	c #322F2F",
"..	c #BC4C44",
"+.	c #AA3A31",
"@.	c #8B0803",
"#.	c #780C0C",
"$.	c #681212",
"%.	c #603838",
"&.	c #3E3F3F",
"*.	c #E0E0DF",
"=.	c #9FA0A0",
"-.	c #5F586F",
";.	c #50504F",
">.	c #707060",
",.	c #898989",
"'.	c #5C5C5C",
").	c #464646",
"!.	c #342F2F",
"~.	c #821613",
"{.	c #7B1A11",
"].	c #792415",
"^.	c #6E291A",
"/.	c #60231A",
"(.	c #574141",
"_.	c #414242",
":.	c #CFC8C0",
"<.	c #9F98B0",
"[.	c #505860",
"}.	c #5F585F",
"|.	c #60685F",
"1.	c #6F7060",
"2.	c #505050",
"3.	c #A0A0A0",
"4.	c #8B8B8B",
"5.	c #282A2A",
"6.	c #644437",
"7.	c #70361E",
"8.	c #6D4426",
"9.	c #674828",
"0.	c #635541",
"a.	c #2B2F2E",
"b.	c #454545",
"c.	c #9FA0AF",
"d.	c #8E8E8E",
"e.	c #5B5B5B",
"f.	c #242425",
"g.	c #313534",
"h.	c #625C46",
"i.	c #6E663B",
"j.	c #676B46",
"k.	c #303433",
"l.	c #1A1A1A",
"m.	c #494949",
"n.	c #EFE8EF",
"o.	c #9098A0",
"p.	c #919191",
"q.	c #222222",
"r.	c #1E1F22",
"s.	c #383426",
"t.	c #675A39",
"u.	c #57492C",
"v.	c #2B2C2C",
"w.	c #191A1A",
"x.	c #CFD0CF",
"y.	c #8F909F",
"z.	c #50505F",
"A.	c #50584F",
"B.	c #7F8070",
"C.	c #7F786F",
"D.	c #AFB0AF",
"E.	c #A8A8A8",
"F.	c #404040",
"G.	c #20251D",
"H.	c #2C3E23",
"I.	c #3B4F2E",
"J.	c #477837",
"K.	c #4D8B3C",
"L.	c #415D31",
"M.	c #324B25",
"N.	c #6A7664",
"O.	c #8F8890",
"P.	c #AFAFAF",
"Q.	c #4A4A4A",
"R.	c #3E3D3E",
"S.	c #273321",
"T.	c #406933",
"U.	c #4DC136",
"V.	c #63E042",
"W.	c #5BD93C",
"X.	c #4EB43A",
"Y.	c #4A6A38",
"Z.	c #728668",
"`.	c #7F808F",
" +	c #80806F",
".+	c #B7B7B7",
"++	c #3D3E3F",
"@+	c #2D3A25",
"#+	c #45A732",
"$+	c #5CDB3D",
"%+	c #84F259",
"&+	c #78EA50",
"*+	c #44C62E",
"=+	c #587A44",
"-+	c #798F6C",
";+	c #6F7080",
">+	c #4F505F",
",+	c #5F6050",
"'+	c #BBBBBB",
")+	c #414141",
"!+	c #3C3C3D",
"~+	c #2B3723",
"{+	c #44A536",
"]+	c #4DD133",
"^+	c #68DE45",
"/+	c #5EDA3E",
"(+	c #57B443",
"_+	c #466932",
":+	c #7A916F",
"<+	c #BFC0C0",
"[+	c #60687F",
"}+	c #4F4850",
"|+	c #C0C0C0",
"1+	c #3C3D3D",
"2+	c #232F1D",
"3+	c #4E7541",
"4+	c #38C425",
"5+	c #41CC2C",
"6+	c #48C532",
"7+	c #5A7E45",
"8+	c #3A5E29",
"9+	c #7A8E71",
"0+	c #A0A0BF",
"a+	c #AFA8C0",
"b+	c #606070",
"c+	c #D4D4D4",
"d+	c #2D2D2D",
"e+	c #3C3C3C",
"f+	c #191F17",
"g+	c #223119",
"h+	c #3A532D",
"i+	c #406E32",
"j+	c #446635",
"k+	c #5A754C",
"l+	c #7C9272",
"m+	c #C7D0C1",
"n+	c #989898",
"o+	c #1C1C1C",
"p+	c #111111",
"q+	c #121710",
"r+	c #20271A",
"s+	c #545D50",
"t+	c #C9D9C1",
"u+	c #F2FFEB",
"v+	c #F6FFF1",
"w+	c #FDFFFC",
"x+	c #ABABAB",
"y+	c #272727",
"z+	c #868486",
"A+	c #DFE0DE",
"B+	c #FCFFFA",
"C+	c #F9FFF6",
"D+	c #FBFFF9",
"E+	c #FEFFFD",
"F+	c #AFA89F",
"G+	c #CFC8BF",
"H+	c #C0C8AF",
"I+	c #CFC8B0",
"J+	c #D0D8B0",
"K+	c #F0F0D0",
"L+	c #D0D8BF",
"M+	c #404080",
"N+	c #2F2870",
"O+	c #20206F",
"P+	c #3F387F",
"Q+	c #9090B0",
"R+	c #7F7890",
"S+	c #3F3870",
"T+	c #20286F",
"U+	c #303070",
"V+	c #C0C0AF",
"W+	c #60608F",
"X+	c #5F5880",
"Y+	c #DFE0C0",
"Z+	c #DFD8AF",
"`+	c #00005F",
" @	c #EFE8CF",
".@	c #1F186F",
"+@	c #505080",
"@@	c #A0A08F",
"#@	c #90909F",
"$@	c #DFE0B0",
"%@	c #4F487F",
"&@	c #606090",
"*@	c #6F6890",
"=@	c #4F4880",
"-@	c #F0F8DF",
";@	c #80808F",
">@	c #EFF0DF",
",@	c #CFD0BF",
"'@	c #101060",
")@	c #8F9070",
"!@	c #0F0860",
"~@	c #D0D0AF",
"{@	c #0F085F",
"]@	c #BFB8A0",
"^@	c #D0D0BF",
"/@	c #A0A09F",
"(@	c #40483F",
"_@	c #E0E0BF",
":@	c #AFB0A0",
"<@	c #707890",
"[@	c #CFC8A0",
"}@	c #EFE8D0",
"|@	c #9F9890",
"1@	c #C0C0A0",
"2@	c #808090",
"3@	c #C0C8A0",
"4@	c #40407F",
"5@	c #BFB8AF",
"6@	c #E0E0CF",
"7@	c #6F708F",
"8@	c #AFA8AF",
"9@	c #7F788F",
"0@	c #50507F",
"a@	c #AFA890",
"b@	c #B0B09F",
"c@	c #AFA8B0",
"d@	c #9F987F",
"e@	c #70706F",
"  . + @ @ # $ % & * = -       > , ' ) ! ~ , { ]                 ",
"  ^ / ( _ : < # = [ } | 1 2 ! 3 4 5 6 6 7 5 7 5 8 9 0 a )       ",
"  b c < + d e f g h i j k l m n o p q r b s t u a u u a v       ",
"  w x y z A B C D E F G l H H > 1 I q J K K a u L 0 0 a M       ",
"  _ N O P Q R S T U V W k k l X ] X Y J K a u u 0 Z 0 u )       ",
"  ` = y  ...+.@.#.$.%.&.*.l l X ] *.=.-.K ;.u 0 >.>.Z u )       ",
"  ,.'.).!.~.{.].^./.(._.l l X H :.k <.[.K }.0 |.1.1.>.2.3.      ",
"  4.'.).5.6.7.8.9.0.a.b.*.l H ] :.k c.[.K u 0 >.9 9 >.2.3.      ",
"  d.e.b.f.g.h.i.j.k.l.m.*.l H ] :.n.o.[.;.0 Z >.9 < >.u 3.      ",
"  p.% b.q.r.s.t.u.v.w.* l l H x.x.*.y.z.A.0 >.9 B.C.>.2.D.      ",
"  E.& F.G.H.I.J.K.L.M.N.l l X H x.*.O.z.A.|.>.< 8 < >.A.D.      ",
"  P.Q.R.S.T.U.V.W.X.Y.Z.*.l H H x.*.`.z.2.|.9 B.B. +Z 2.,       ",
"  .+).++@+#+$+%+&+*+=+-+l H H ] x.l ;+>+,+>.9 B.s 9 Z ;.m       ",
"  '+)+!+~+{+]+^+/+(+_+:+*.l H <+x.*.[+}+0 >.< B.s 9 |.;.m       ",
"  |+| 1+2+3+4+5+6+7+8+9+l l X 0+a+1 b+}+0 >. +s s 9 0 ;.m       ",
"  c+d+e+f+g+h+i+j+k+l+m+l H H x.*.y.b+}+Z 9 < B.C.1.0 a ,       ",
"    n+o+p+q+r+s+t+u+v+w+H ] ] l x.b+b+}.9 9 C.C.9 Z 0 a ,       ",
"      x+y+z+A+B+C+D+E+k n.k l l ) F+G+H+I+H+F+8 >.|.8 F+J+K+    ",
"          L+l o M+N+O+N+P+Q+l L+{ R+S+T+T+U+R+V+C.9 H+W+X+X+Y+  ",
"          Z+N+`+`+`+`+`+`+<. @Y .@`+`+`+`+`+`++@F+@@#@`+`+O+ @  ",
"        $@%@`+`+O+&@*@=@P+-@Y `+`+`+N+W+U+`+`+`+2 J+S+`+`+;@    ",
"        $@`+`+`+Y >@,@, I+x.'@`+`+X+@@)@J+`+`+`+3.I+!@`+`+J+    ",
"        ~@{@`+`+'@&@m ]@^@&@`+`+T+/@(@2._@`+`+`+:@<@`+`+S+      ",
"        [@U+{@`+`+`+.@, }@'@`+`+O.>.(@ +]@`+`+!@J+'@`+`+)       ",
"        |@1@2@T+`+`+`+&@{ `+`+'@~ 2.A.3@X+`+`+4@) `+`+.@,@      ",
"      F+@@7 5@6@O+`+`+7@8@`+`+'@H+s 1@F+!@`+`+F+%@`+`+W+^@      ",
"    Z+9@3 1@, o '@`+`+D.D.`+`+`+O.I+O.'@`+`+0@H+'@`+`+R+3.F+F+Y+",
"    1@!@`+'@'@`+`+`+=@/@J+'@`+`+`+'@`+`+`+S+_@r `+`+`+`+`+`+'@I+",
"  H+;+'@`+`+`+!@.@R+:@1.8 D.T+`+`+`+`+`+R+a@3@U+!@!@!@!@!@!@S+  ",
"    V+b@/@( v c@{ ~     < 6 ]@) v '@`+`+R+d@8 /@F+F+F+b@]@5@L+  ",
"                              e@F+R+`+`+!@|@5                   ",
"                                  7 F+b@V+5@                    "};
