/* XPM */
static char * _client_xpm[] = {
"16 16 159 2",
"  	c None",
". 	c #D7D7D6",
"+ 	c #D0CECC",
"@ 	c #D1CCC9",
"# 	c #CDC9C5",
"$ 	c #CCC7C5",
"% 	c #C9C5C2",
"& 	c #C8C3C1",
"* 	c #C7C3BF",
"= 	c #C5C0BC",
"- 	c #C5C2BD",
"; 	c #B2B1AF",
"> 	c #EAE9E8",
", 	c #959EA4",
"' 	c #7AA4C5",
") 	c #8BADC6",
"! 	c #98B5C8",
"~ 	c #9BB5C7",
"{ 	c #90AEC3",
"] 	c #85A6BE",
"^ 	c #82A9C9",
"/ 	c #73A1C9",
"( 	c #A4A2A2",
"_ 	c #E9E7E6",
": 	c #9CA3A7",
"< 	c #77C0F9",
"[ 	c #8FCCF8",
"} 	c #9DD5FD",
"| 	c #9FD7FD",
"1 	c #92CEFA",
"2 	c #82C2F6",
"3 	c #71B5F0",
"4 	c #53A7F1",
"5 	c #B7BCBF",
"6 	c #E2E1E0",
"7 	c #A8A7A6",
"8 	c #6BB6F3",
"9 	c #82BFEF",
"0 	c #8BC5F3",
"a 	c #8AC5F2",
"b 	c #84C1F0",
"c 	c #78B9EE",
"d 	c #69AFE8",
"e 	c #4EA1EA",
"f 	c #BBC5CE",
"g 	c #5D5B59",
"h 	c #DDDDDC",
"i 	c #B6AFA8",
"j 	c #5BAAED",
"k 	c #71B4EC",
"l 	c #77B7EC",
"m 	c #78B7EE",
"n 	c #73B4EB",
"o 	c #6AAFE8",
"p 	c #5DA5E5",
"q 	c #4499E5",
"r 	c #B0C2D2",
"s 	c #666361",
"t 	c #D6D6D6",
"u 	c #BEB5AE",
"v 	c #509DDF",
"w 	c #5EA8E8",
"x 	c #63AAE7",
"y 	c #61A9E6",
"z 	c #58A4E4",
"A 	c #4F9DE1",
"B 	c #3890E1",
"C 	c #A2BDD4",
"D 	c #6F6B68",
"E 	c #CDCDCD",
"F 	c #C6C1BD",
"G 	c #4991D2",
"H 	c #4B9AE2",
"I 	c #509DE1",
"J 	c #509DE2",
"K 	c #4D9BE1",
"L 	c #4797DF",
"M 	c #4091DD",
"N 	c #2B86DD",
"O 	c #90B5D8",
"P 	c #9E9B98",
"Q 	c #FFFFFF",
"R 	c #0176DE",
"S 	c #C9C9C9",
"T 	c #CFCAC3",
"U 	c #3D85C8",
"V 	c #2D8BE1",
"W 	c #318DDF",
"X 	c #318CDF",
"Y 	c #78B3EB",
"Z 	c #82B9EC",
"` 	c #1D7FDD",
" .	c #0975DB",
"..	c #8BB8E3",
"+.	c #D3D1D0",
"@.	c #378EE2",
"#.	c #0076DC",
"$.	c #D3CFCA",
"%.	c #7894B0",
"&.	c #8EADCC",
"*.	c #A0B8CF",
"=.	c #A8BBCD",
"-.	c #DEE3E8",
";.	c #AFC4DF",
">.	c #DCE0E6",
",.	c #E9E8E7",
"'.	c #EAE8E7",
").	c #6096D1",
"!.	c #006AD1",
"~.	c #007CE2",
"{.	c #CECDCC",
"].	c #A4A19E",
"^.	c #938F8B",
"/.	c #898683",
"(.	c #7F7C7A",
"_.	c #D0CFCF",
":.	c #2D63B1",
"<.	c #3871B2",
"[.	c #C2C2C3",
"}.	c #7496BE",
"|.	c #0A61C3",
"1.	c #0068CE",
"2.	c #008DF4",
"3.	c #D3D3D3",
"4.	c #B4B4B4",
"5.	c #C8C8C8",
"6.	c #4873AF",
"7.	c #0046AB",
"8.	c #3B6EB9",
"9.	c #2165BB",
"0.	c #045CC0",
"a.	c #E8E8E8",
"b.	c #E3E3E3",
"c.	c #CECECE",
"d.	c #9A9A9A",
"e.	c #C1C1C1",
"f.	c #8E8F92",
"g.	c #2E65B6",
"h.	c #0344A9",
"i.	c #014CB2",
"j.	c #3A6DB0",
"k.	c #FBFBFB",
"l.	c #FCFCFC",
"m.	c #818181",
"n.	c #C4C4C4",
"o.	c #848484",
"p.	c #CFDCF1",
"q.	c #0543A8",
"r.	c #3A72C6",
"s.	c #7E7E7E",
"t.	c #949494",
"u.	c #939393",
"v.	c #7B7B7B",
"w.	c #B8B8B8",
"x.	c #8C8C8C",
"y.	c #787878",
"z.	c #33599A",
"A.	c #70737A",
"B.	c #858585",
"                                ",
"  . + @ # $ % & * = - ;         ",
"  > , ' ) ! ~ { ] ^ / (         ",
"  _ : < [ } | 1 2 3 4 5         ",
"  6 7 8 9 0 a b c d e f g       ",
"  h i j k l m n o p q r s       ",
"  t u v w x x y z A B C D       ",
"  E F G H I J K L M N O P Q R   ",
"  S T U V W X Y Z `  ...+.@.#.  ",
"    $.%.&.*.=.-.;.>.,.'.).!.~.  ",
"    {.].^./.(._.:.<.[.}.|.1.2.  ",
"          3.4.5.6.7.8.9.0.      ",
"      a.b.c.d.e.f.g.h.i.j.      ",
"      k.l.S m.n.o.p.q.r.s.      ",
"        t.u.v.w.x.y.z.A.B.      ",
"                                "};
