/* XPM */
static char *_copy_xpm[] = {
/* columns rows colors chars-per-pixel */
"16 16 4 1",
". c #808000",
"  c None",
"X c #FFFFFF",
"o c #808080",
/* pixels */
"                ",
"......          ",
".    ..         ",
". .. .X.        ",
".    .XX.       ",
". .. ......     ",
".    .    ..    ",
". .... .. .X.   ",
".   X.    .XX.  ",
".   X. .. ..... ",
"......     XXX.o",
" oooo. ......X.o",
"     .   XXXXX.o",
"     .   XXXXX.o",
"     ..........o",
"      oooooooooo"
};
