/* XPM */
char * _domain_xpm[] = {
"16 16 7 1",
" 	c None",
".	c #FFF8FF",
"+	c #808080",
"@	c #000000",
"#	c #DBDBDB",
"$	c #C0C0C0",
"%	c #D8D8DB",
"                ",
"                ",
"                ",
" ...   +++      ",
" .+++ +...@ ++. ",
".+...@.#$%$@%.+.",
"+.#$@$$%%#@.$%$+",
"+###@$#$%$@$$$$+",
"@#$$$##$$$$$$$$@",
"@$$$+$$$$$+##$+@",
" @$+@$$$$$+@++@ ",
"  @@ @++++@ @@  ",
"      @@@@      ",
"                ",
"                ",
"                "};
