/* XPM */
char * _draw_xpm[] = {
"16 16 11 1",
" 	c #B8E2FF",
".	c #0099FF",
"+	c None",
"@	c #99CCFF",
"#	c #808080",
"$	c #CECEDB",
"%	c #F5F5FF",
"&	c #B8B8DB",
"*	c #F0F0FF",
"=	c #D6D6FF",
"-	c #F9F9FF",
" .... ++++++++++",
".@@@@.##++++++++",
".$%$&.+#++++++++",
".%$%$.+#++++++++",
".$*$=.+#++ .... ",
"@....@+#++.@@@@.",
"+++++++###.$%$=.",
"++++++++++.-$%&.",
"++++++++##.$%$=.",
"++++++++#+.%$*&.",
" .... ++#+@....@",
".@@@@.++#+++++++",
".%$-&.###+++++++",
".$*$=.++++++++++",
"@....@++++++++++",
"++++++++++++++++"};
