/* XPM */
static char * _folder_sys_xpm[] = {
"16 16 139 2",
"  	c None",
". 	c #D4AA40",
"+ 	c #B98600",
"@ 	c #B78400",
"# 	c #B58200",
"$ 	c #C1A15B",
"% 	c #C08F09",
"& 	c #FAF6ED",
"* 	c #FFFFFF",
"= 	c #B17E00",
"- 	c #E7DAB5",
"; 	c #D9BE77",
"> 	c #D1AA44",
", 	c #C99D2F",
"' 	c #C09116",
") 	c #CFA124",
"! 	c #CDA531",
"~ 	c #D3B04A",
"{ 	c #ECE4E4",
"] 	c #F0DBC9",
"^ 	c #F0BCB4",
"/ 	c #EFC5BD",
"( 	c #FFFFE6",
"_ 	c #FFFFDE",
": 	c #FFFFF3",
"< 	c #AF7C00",
"[ 	c #C08D00",
"} 	c #FFFFF2",
"| 	c #FBF7C8",
"1 	c #F1B4A9",
"2 	c #F8865F",
"3 	c #FB9659",
"4 	c #F96B48",
"5 	c #F5C29C",
"6 	c #FFFFD3",
"7 	c #FFFFE7",
"8 	c #AC7900",
"9 	c #C39005",
"0 	c #C39410",
"a 	c #DDC47E",
"b 	c #BD8A00",
"c 	c #F5EDC3",
"d 	c #EFD5C7",
"e 	c #F87757",
"f 	c #FD9B47",
"g 	c #FFF862",
"h 	c #FFE06A",
"i 	c #F66D26",
"j 	c #E0842F",
"k 	c #FFFFDA",
"l 	c #AA7700",
"m 	c #C0900E",
"n 	c #FAF5CA",
"o 	c #FFFFF1",
"p 	c #BB8800",
"q 	c #FFFFDC",
"r 	c #F1BBB0",
"s 	c #FCA260",
"t 	c #FEEA50",
"u 	c #FFCD00",
"v 	c #FEEB3A",
"w 	c #FB7B28",
"x 	c #FA9371",
"y 	c #FFFFD1",
"z 	c #A77400",
"A 	c #C59E34",
"B 	c #EADCAB",
"C 	c #FFFFE5",
"D 	c #F0C2B9",
"E 	c #FA6643",
"F 	c #FCDB53",
"G 	c #FFE51D",
"H 	c #FFEC59",
"I 	c #FDB155",
"J 	c #F2AA5D",
"K 	c #FFFFAA",
"L 	c #A57200",
"M 	c #CEAF5E",
"N 	c #CCA746",
"O 	c #FFFFDD",
"P 	c #FFFCC0",
"Q 	c #FFF477",
"R 	c #EF9E58",
"S 	c #F48329",
"T 	c #FEB257",
"U 	c #FC9C3F",
"V 	c #F96C33",
"W 	c #F9C874",
"X 	c #EDDA64",
"Y 	c #A26F00",
"Z 	c #DAC89C",
"` 	c #BC8913",
" .	c #FBF5B6",
"..	c #B48100",
"+.	c #FFF7B0",
"@.	c #FFEC5E",
"#.	c #FFE958",
"$.	c #D26500",
"%.	c #FF9272",
"&.	c #FFD17A",
"*.	c #FFCF7A",
"=.	c #FFE246",
"-.	c #F0CF3F",
";.	c #A06D00",
">.	c #C7A54E",
",.	c #C69F3B",
"'.	c #B27F00",
").	c #FFF19F",
"!.	c #FFE140",
"~.	c #FFE03A",
"{.	c #FFE034",
"].	c #FFE233",
"^.	c #EED02D",
"/.	c #DDB120",
"(.	c #B6860C",
"_.	c #A87B19",
":.	c #D4C08D",
"<.	c #B88B1A",
"[.	c #B07D00",
"}.	c #FFEF90",
"|.	c #FFE030",
"1.	c #FFE229",
"2.	c #EECB1D",
"3.	c #D2A40F",
"4.	c #B78505",
"5.	c #B07F10",
"6.	c #BB9443",
"7.	c #BE9630",
"8.	c #AD7A00",
"9.	c #F7D94C",
"0.	c #D2A30C",
"a.	c #B48205",
"b.	c #B28118",
"c.	c #BE9748",
"d.	c #E4DAC6",
"e.	c #DFCBA5",
"f.	c #A4750F",
"g.	c #AD801E",
"h.	c #C0A15D",
"                                ",
"                    . + @ # $   ",
"                    % & * * =   ",
"            - ; > , ' * * * =   ",
"        ) ! ~ { ] ^ / ( _ : <   ",
"        [ } | 1 2 3 4 5 6 7 8   ",
"  9 0 a b c d e f g h i j k l   ",
"  m n o p q r s t u v w x y z   ",
"  A B C + y D E F G H I J K L   ",
"  M N O @ P Q R S T U V W X Y   ",
"  Z `  ...+.@.#.$.%.&.*.=.-.;.  ",
"    >.,.'.).=.!.~.{.].^./.(._.  ",
"    :.<.[.}.|.1.2.3.4.5.6.      ",
"      7.8.9.0.a.b.c.d.          ",
"      e.f.g.h.                  ",
"                                "};
