/* XPM */
static char * _folder_xpm[] = {
"16 16 130 2",
"  	c None",
". 	c #CC9200",
"+ 	c #B98600",
"@ 	c #B78400",
"# 	c #B58200",
"$ 	c #A77200",
"% 	c #BE8B00",
"& 	c #FAF6ED",
"* 	c #FFFFFF",
"= 	c #B17E00",
"- 	c #C69000",
"; 	c #C18A00",
"> 	c #C09014",
", 	c #CA9300",
"' 	c #CDA531",
") 	c #D3B04A",
"! 	c #E2CD83",
"~ 	c #F6EFD0",
"{ 	c #FCFCE6",
"] 	c #FFFFF1",
"^ 	c #FFFFE6",
"/ 	c #FFFFDE",
"( 	c #FFFFF3",
"_ 	c #AF7C00",
": 	c #C08D00",
"< 	c #FFFFF2",
"[ 	c #FBF7C8",
"} 	c #F1E7AB",
"| 	c #E6D481",
"1 	c #DFC76B",
"2 	c #DFC665",
"3 	c #DBC25F",
"4 	c #FFFFD3",
"5 	c #FFFFE7",
"6 	c #AC7900",
"7 	c #C38F02",
"8 	c #C39410",
"9 	c #DDC47E",
"0 	c #BD8A00",
"a 	c #F5EDC3",
"b 	c #EADB7A",
"c 	c #EFE385",
"d 	c #F8F092",
"e 	c #FFFA9C",
"f 	c #FFF894",
"g 	c #E7D265",
"h 	c #F9F4AA",
"i 	c #FFFFDA",
"j 	c #AA7700",
"k 	c #BE8B01",
"l 	c #FAF5CA",
"m 	c #BB8800",
"n 	c #FFFFDC",
"o 	c #FFFFA1",
"p 	c #FFFB9C",
"q 	c #FFF994",
"r 	c #FFF78C",
"s 	c #FFF685",
"t 	c #FFF57E",
"u 	c #DFCB5D",
"v 	c #FFFFD1",
"w 	c #A77400",
"x 	c #BC8A04",
"y 	c #EADCAB",
"z 	c #FFFFE5",
"A 	c #FFFD8E",
"B 	c #FFFA89",
"C 	c #FFF682",
"D 	c #FFF47A",
"E 	c #FFF373",
"F 	c #FFF06C",
"G 	c #E3C94C",
"H 	c #FFFFAA",
"I 	c #A57200",
"J 	c #BA8700",
"K 	c #CBA643",
"L 	c #FFFFDD",
"M 	c #FFFCC0",
"N 	c #FFF477",
"O 	c #FFF170",
"P 	c #FFEF6A",
"Q 	c #FFEC63",
"R 	c #FFEA5C",
"S 	c #FFE958",
"T 	c #FEE456",
"U 	c #EDDA64",
"V 	c #A26F00",
"W 	c #B98203",
"X 	c #FBF5B6",
"Y 	c #B48100",
"Z 	c #FFF7B0",
"` 	c #FFEC5E",
" .	c #FFE752",
"..	c #FFE44B",
"+.	c #FFE245",
"@.	c #FFE045",
"#.	c #FFE246",
"$.	c #F0CF3F",
"%.	c #A06D00",
"&.	c #B88608",
"*.	c #C69F3B",
"=.	c #B27F00",
"-.	c #FFF19F",
";.	c #FFE140",
">.	c #FFE03A",
",.	c #FFE034",
"'.	c #FFE233",
").	c #EED02D",
"!.	c #DDB120",
"~.	c #B6860C",
"{.	c #A16E00",
"].	c #B88A18",
"^.	c #B07D00",
"/.	c #FFEF90",
"(.	c #FFE030",
"_.	c #FFE229",
":.	c #EECB1D",
"<.	c #D2A40F",
"[.	c #B78505",
"}.	c #AC7700",
"|.	c #A87100",
"1.	c #BE952E",
"2.	c #AD7A00",
"3.	c #F7D94C",
"4.	c #D2A30C",
"5.	c #B48103",
"6.	c #AC7500",
"7.	c #AA7200",
"8.	c #A47100",
"9.	c #A47000",
"                                ",
"                    . + @ # $   ",
"                    % & * * =   ",
"                - ; > * * * =   ",
"        , ' ) ! ~ { ] ^ / ( _   ",
"        : < [ } | 1 2 3 4 5 6   ",
"  7 8 9 0 a b c d e f g h i j   ",
"  k l ] m n o p q r s t u v w   ",
"  x y z + v A B C D E F G H I   ",
"  J K L @ M N O P Q R S T U V   ",
"    W X Y Z ` S  ...+.@.#.$.%.  ",
"    &.*.=.-.#.;.>.,.'.).!.~.{.  ",
"      ].^./.(._.:.<.[.}.|.      ",
"      1.2.3.4.5.6.7.            ",
"        %.8.9.                  ",
"                                "};
