/* XPM */
static char * _folder_tools_xpm[] = {
"16 16 140 2",
"  	c None",
". 	c #CC9200",
"+ 	c #B98600",
"@ 	c #B78400",
"# 	c #B58200",
"$ 	c #A77200",
"% 	c #BE8B00",
"& 	c #FAF6ED",
"* 	c #FFFFFF",
"= 	c #B17E00",
"- 	c #C69000",
"; 	c #C18A00",
"> 	c #C09014",
", 	c #CA9300",
"' 	c #CDA531",
") 	c #D3B04A",
"! 	c #E2CD83",
"~ 	c #F6EFD0",
"{ 	c #FCFCE6",
"] 	c #FFFFF1",
"^ 	c #FFFFE6",
"/ 	c #FFFFDE",
"( 	c #FFFFF3",
"_ 	c #AF7C00",
": 	c #C08D00",
"< 	c #FFFFF2",
"[ 	c #FBF7C8",
"} 	c #F1E7AB",
"| 	c #E9D991",
"1 	c #F2E9C5",
"2 	c #E6D387",
"3 	c #EADCA3",
"4 	c #FFFFDF",
"5 	c #FFFFE7",
"6 	c #AC7900",
"7 	c #C38F02",
"8 	c #C39410",
"9 	c #DDC47E",
"0 	c #BD8A00",
"a 	c #F5EDC3",
"b 	c #EBDD80",
"c 	c #F7F0BF",
"d 	c #E8E6D6",
"e 	c #A4A3CA",
"f 	c #D2D0CC",
"g 	c #A7A4B9",
"h 	c #C3C2CA",
"i 	c #FFFFE8",
"j 	c #AC7A06",
"k 	c #BE8B01",
"l 	c #FAF5CA",
"m 	c #BB8800",
"n 	c #F7F7CE",
"o 	c #BBBAD1",
"p 	c #ABAAC4",
"q 	c #D8D8E9",
"r 	c #AEAED2",
"s 	c #CDCDE4",
"t 	c #9997B5",
"u 	c #D9D9DB",
"v 	c #C5A765",
"w 	c #BC8A04",
"x 	c #EADCAB",
"y 	c #FFFFE5",
"z 	c #FFFFDA",
"A 	c #D9D8CC",
"B 	c #CDCDE1",
"C 	c #E2E2F1",
"D 	c #DBDBEE",
"E 	c #E3E3F2",
"F 	c #D3D3EA",
"G 	c #B2B2D3",
"H 	c #A4A4C8",
"I 	c #9E9597",
"J 	c #BA8700",
"K 	c #CBA643",
"L 	c #FFFFDD",
"M 	c #FFFDCF",
"N 	c #C6C4BD",
"O 	c #9C9CBF",
"P 	c #DADAED",
"Q 	c #9999B7",
"R 	c #8F8DA0",
"S 	c #ABAACC",
"T 	c #CCCCE7",
"U 	c #9090B8",
"V 	c #A09596",
"W 	c #B98203",
"X 	c #FBF5B6",
"Y 	c #B48100",
"Z 	c #FFFCE2",
"` 	c #9898BB",
" .	c #E9E9F7",
"..	c #D5D5EB",
"+.	c #9291B0",
"@.	c #E9E1BF",
"#.	c #B9B7D1",
"$.	c #C9C9E4",
"%.	c #A3A3CA",
"&.	c #807A91",
"*.	c #B88608",
"=.	c #C69F3B",
"-.	c #B27F00",
";.	c #FFF6C2",
">.	c #AAA6AA",
",.	c #7777A2",
"'.	c #D1D1E8",
").	c #CACAE3",
"!.	c #B5B5DA",
"~.	c #C3C3E2",
"{.	c #C0C0DF",
"].	c #9292BF",
"^.	c #6F6D92",
"/.	c #B88A18",
"(.	c #B07D00",
"_.	c #FFEF93",
":.	c #F7ECB1",
"<.	c #8E8DB1",
"[.	c #C5C5E2",
"}.	c #C8C8E7",
"|.	c #C7C7E3",
"1.	c #BABADC",
"2.	c #B0B0D4",
"3.	c #3A3A70",
"4.	c #BE952E",
"5.	c #AD7A00",
"6.	c #F7D94C",
"7.	c #E8D084",
"8.	c #86829D",
"9.	c #656289",
"0.	c #7978A1",
"a.	c #A4A4CB",
"b.	c #4D4D82",
"c.	c #8D8DBC",
"d.	c #404078",
"e.	c #A06D00",
"f.	c #A47100",
"g.	c #A67305",
"h.	c #404074",
"i.	c #4A4A7B",
"                                ",
"                    . + @ # $   ",
"                    % & * * =   ",
"                - ; > * * * =   ",
"        , ' ) ! ~ { ] ^ / ( _   ",
"        : < [ } | 1 2 3 4 5 6   ",
"  7 8 9 0 a b c d e f g h i j   ",
"  k l ] m / n o p q r s t u v   ",
"  w x y + z A B C D E F G H I   ",
"  J K L @ M N O P Q R S T U V   ",
"    W X Y Z `  ...+.@.#.$.%.&.  ",
"    *.=.-.;.>.,.'.).!.~.{.].^.  ",
"      /.(._.:.<.[.}.|.1.2.3.    ",
"      4.5.6.7.8.9.0.a.b.c.d.    ",
"        e.f.g.    h.i.          ",
"                                "};
