/* XPM */
static char * _folder_params_xpm[] = {
"16 16 141 2",
"  	c None",
". 	c #CC9200",
"+ 	c #B98600",
"@ 	c #B78400",
"# 	c #B58200",
"$ 	c #A77200",
"% 	c #BE8B00",
"& 	c #FAF6ED",
"* 	c #FFFFFF",
"= 	c #B17E00",
"- 	c #C69000",
"; 	c #C18A00",
"> 	c #C09014",
", 	c #CA9300",
"' 	c #CDA531",
") 	c #D3B04A",
"! 	c #E2CD83",
"~ 	c #F6EFD0",
"{ 	c #FCFCE6",
"] 	c #FFFFF1",
"^ 	c #FFFFE6",
"/ 	c #FFFFDE",
"( 	c #FFFFF3",
"_ 	c #AF7C00",
": 	c #C08D00",
"< 	c #FFFFF2",
"[ 	c #FBF7C8",
"} 	c #F1E7AB",
"| 	c #E6D481",
"1 	c #DFC76B",
"2 	c #DFC665",
"3 	c #DBC25F",
"4 	c #FFFFD3",
"5 	c #FFFFE7",
"6 	c #AC7900",
"7 	c #C38F02",
"8 	c #C39410",
"9 	c #DDC47E",
"0 	c #BD8A00",
"a 	c #F5EDC3",
"b 	c #EADB7A",
"c 	c #EFE385",
"d 	c #F8F092",
"e 	c #FFFA9C",
"f 	c #FFF894",
"g 	c #E7D265",
"h 	c #F9F4AA",
"i 	c #FFFFE4",
"j 	c #DDC797",
"k 	c #BE8B01",
"l 	c #FAF5CA",
"m 	c #BB8800",
"n 	c #FFFFDC",
"o 	c #FFFFA1",
"p 	c #FFFB9C",
"q 	c #FFF994",
"r 	c #FFF78C",
"s 	c #FFF685",
"t 	c #FFF57E",
"u 	c #E7D886",
"v 	c #FFFFEA",
"w 	c #2382D3",
"x 	c #BC8A04",
"y 	c #EADCAB",
"z 	c #FFFFE5",
"A 	c #FFFFD1",
"B 	c #FFFD8E",
"C 	c #FFFBA2",
"D 	c #FFF9A6",
"E 	c #FFF47A",
"F 	c #FFF373",
"G 	c #FFF284",
"H 	c #F8F1D1",
"I 	c #4E9BDE",
"J 	c #0476D8",
"K 	c #BA8700",
"L 	c #CBA643",
"M 	c #FFFFDD",
"N 	c #FFFCC0",
"O 	c #FFF477",
"P 	c #FFFACF",
"Q 	c #CAD6C3",
"R 	c #F6F2C8",
"S 	c #FFF8CB",
"T 	c #FFF8C8",
"U 	c #73A4CC",
"V 	c #016AD1",
"W 	c #077CD8",
"X 	c #B98203",
"Y 	c #FBF5B6",
"Z 	c #B48100",
"` 	c #FFF7B0",
" .	c #FFEC5E",
"..	c #3267B0",
"+.	c #3972B1",
"@.	c #C6C5C1",
"#.	c #7496BE",
"$.	c #0A61C3",
"%.	c #066ACA",
"&.	c #5BA4CD",
"*.	c #B88608",
"=.	c #C69F3B",
"-.	c #B27F00",
";.	c #FFF19F",
">.	c #FFE246",
",.	c #FFF5BF",
"'.	c #4B75AD",
").	c #0046AB",
"!.	c #3B6EB9",
"~.	c #2165BB",
"{.	c #045CC0",
"].	c #95AAB1",
"^.	c #CDB277",
"/.	c #B88A18",
"(.	c #B07D00",
"_.	c #FFEF90",
":.	c #FFE030",
"<.	c #FFF6B9",
"[.	c #8F8F8F",
"}.	c #2E65B6",
"|.	c #0344A9",
"1.	c #014CB2",
"2.	c #3B6DAE",
"3.	c #BE952E",
"4.	c #AD7A00",
"5.	c #F7D94C",
"6.	c #D2A30C",
"7.	c #E7D7AF",
"8.	c #858482",
"9.	c #CFDCF1",
"0.	c #0543A8",
"a.	c #3A72C6",
"b.	c #7E7E7E",
"c.	c #A06D00",
"d.	c #A47100",
"e.	c #A47000",
"f.	c #959595",
"g.	c #797979",
"h.	c #33599A",
"i.	c #70737A",
"j.	c #858585",
"                                ",
"                    . + @ # $   ",
"                    % & * * =   ",
"                - ; > * * * =   ",
"        , ' ) ! ~ { ] ^ / ( _   ",
"        : < [ } | 1 2 3 4 5 6   ",
"  7 8 9 0 a b c d e f g h i j   ",
"  k l ] m n o p q r s t u v w   ",
"  x y z + A B C D E F G H I J   ",
"  K L M @ N O P Q R S T U V W   ",
"    X Y Z `  .T ..+.@.#.$.%.&.  ",
"    *.=.-.;.>.,.'.).!.~.{.].^.  ",
"      /.(._.:.<.[.}.|.1.2.      ",
"      3.4.5.6.7.8.9.0.a.b.      ",
"        c.d.e.  f.g.h.i.j.      ",
"                                "};
