/* XPM */
static char *_formsmpl_xpm[] = {
/* columns rows colors chars-per-pixel */
"16 16 5 1",
". c Black",
"o c #C0C0C0",
"X c #0000FF",
"  c None",
"O c #FFFFFF",
/* pixels */
"                ",
"                ",
"  ............. ",
"  .XXXoXXXoXXX. ",
"  .XXXoXXXoXXX. ",
"  .OOO.OOO.OOO. ",
"  ............. ",
"  .OOO.OOO.OOO. ",
"  ............. ",
"  .OOO.OOO.OOO. ",
"  ............. ",
"  .OOO.OOO.OOO. ",
"  ............. ",
"                ",
"                ",
"                "
};
