/* XPM */
static char * _group_xpm[] = {
"16 16 107 2",
"  	c None",
". 	c #C78B00",
"+ 	c #D49B00",
"@ 	c #D19500",
"# 	c #C38800",
"$ 	c #CF9600",
"% 	c #C38D00",
"& 	c #BD8900",
"* 	c #B98100",
"= 	c #B88400",
"- 	c #B48207",
"; 	c #D6A544",
"> 	c #AF7C0D",
", 	c #946400",
"' 	c #B28200",
") 	c #BC8900",
"! 	c #C08D00",
"~ 	c #A36D00",
"{ 	c #AA7200",
"] 	c #986600",
"^ 	c #DCB365",
"/ 	c #FFE0A4",
"( 	c #F9BE6F",
"_ 	c #7D5400",
": 	c #F1AD56",
"< 	c #E8BE73",
"[ 	c #E1AC5C",
"} 	c #A57200",
"| 	c #AB7800",
"1 	c #D38D2C",
"2 	c #FFD390",
"3 	c #FFCB84",
"4 	c #FFBF70",
"5 	c #CD7C16",
"6 	c #FFBD6D",
"7 	c #FFDA9A",
"8 	c #FFD592",
"9 	c #A37004",
"0 	c #A97600",
"a 	c #FFB140",
"b 	c #FFC474",
"c 	c #FFC070",
"d 	c #FFB354",
"e 	c #FFA737",
"f 	c #FFC775",
"g 	c #FFC26F",
"h 	c #9E6600",
"i 	c #AB6F00",
"j 	c #E86D22",
"k 	c #FF9E38",
"l 	c #FFB044",
"m 	c #E56F23",
"n 	c #3B6195",
"o 	c #FFAC4D",
"p 	c #CA8A2F",
"q 	c #6A5B2C",
"r 	c #1B478E",
"s 	c #E76E24",
"t 	c #F88F2F",
"u 	c #E26C22",
"v 	c #B0503A",
"w 	c #BC3510",
"x 	c #BA1100",
"y 	c #2056AA",
"z 	c #005ECA",
"A 	c #AFF0FF",
"B 	c #3182DB",
"C 	c #166FD2",
"D 	c #0F57BD",
"E 	c #D2541B",
"F 	c #E06B23",
"G 	c #EF822A",
"H 	c #F3862B",
"I 	c #E77223",
"J 	c #D65A1D",
"K 	c #CA3508",
"L 	c #682C50",
"M 	c #0E71D1",
"N 	c #206BC5",
"O 	c #0A58B8",
"P 	c #2976C6",
"Q 	c #2067BB",
"R 	c #01369C",
"S 	c #C54215",
"T 	c #D1551B",
"U 	c #DD6521",
"V 	c #E36D24",
"W 	c #D96020",
"X 	c #CE4F1A",
"Y 	c #BD2804",
"Z 	c #77122A",
"` 	c #1F7DD3",
" .	c #2B7AC8",
"..	c #2A79C7",
"+.	c #1E66B9",
"@.	c #0C47A6",
"#.	c #02379C",
"$.	c #C5280B",
"%.	c #BA2A0D",
"&.	c #B52B0D",
"*.	c #B0220B",
"=.	c #A91206",
"-.	c #B20000",
";.	c #004DC8",
">.	c #044CBF",
",.	c #0448B9",
"'.	c #003CB1",
"                                ",
"                                ",
"                                ",
"      . + @ #     $ % & *       ",
"      = - ; > ,   ' ) = ! ~     ",
"    { ] ^ / ( _   : < [ } |     ",
"      1 2 3 4 5   6 7 8 9 0     ",
"      a b c d     e f g h i     ",
"      j k l m     n o p q r     ",
"    s t u v w x y z A B C D     ",
"  E F G H I J K L M N O P Q R   ",
"  S T U V W X Y Z `  ...+.@.#.  ",
"    $.%.&.*.=.-.  ;.>.,.'.      ",
"                                ",
"                                ",
"                                "};
