/* XPM */
static char *_label_xpm[] = {
/* columns rows colors chars-per-pixel */
"16 16 3 1",
". c Black",
"X c #FFFF00",
"  c None",
/* pixels */
"                ",
"                ",
"  .XXXXXXXXXXX. ",
"  .X.........X. ",
"  .X.XXXXXXX.X. ",
"  .X.........X. ",
"  .XXXXXXXXXXX. ",
"  .X.........X. ",
"  .X.XXXXXXX.X. ",
"  .X.........X. ",
"  .XXXXXXXXXXX. ",
"  .X.........X. ",
"  .X.XXXXXXX.X. ",
"                ",
"                ",
"                "
};
