/* XPM */
char * _proc_xpm[] = {
"16 16 123 2",
"  	c None",
". 	c #DEDEE7",
"+ 	c #B8B8D4",
"@ 	c #D7D7E1",
"# 	c #9696BD",
"$ 	c #A8A8C9",
"% 	c #B5B5D5",
"& 	c #D6D6E8",
"* 	c #AAAACF",
"= 	c #C3C3E1",
"- 	c #8F8FB8",
"; 	c #A5A5C2",
"> 	c #D6D6DE",
", 	c #C9C9DC",
"' 	c #9696C0",
") 	c #CDCDE6",
"! 	c #C1C1DB",
"~ 	c #B7B7D8",
"{ 	c #C2C2E0",
"] 	c #B5B5D7",
"^ 	c #7D7DA3",
"/ 	c #E6E6EA",
"( 	c #9B9BBE",
"_ 	c #DFDFF3",
": 	c #D9D9EC",
"< 	c #8A8AB6",
"[ 	c #B2B2D1",
"} 	c #BABAE0",
"| 	c #ACACC0",
"1 	c #B0B0DB",
"2 	c #A0A0C7",
"3 	c #D9D9E2",
"4 	c #8888B4",
"5 	c #5E5E94",
"6 	c #D1D1E8",
"7 	c #C5C5E1",
"8 	c #B5B5DF",
"9 	c #CDCDE9",
"0 	c #A8A8CE",
"a 	c #7B7B9D",
"b 	c #E9E9EA",
"c 	c #B9B9D7",
"d 	c #D5D5E8",
"e 	c #9F9FC7",
"f 	c #D7D7EA",
"g 	c #7575A6",
"h 	c #AAAACC",
"i 	c #B5B5DB",
"j 	c #CECEE8",
"k 	c #8D8DB7",
"l 	c #6F6FA1",
"m 	c #8282A1",
"n 	c #CECEDB",
"o 	c #C1C1DC",
"p 	c #E2E2EF",
"q 	c #CBCBE6",
"r 	c #D7D7EC",
"s 	c #D9D9EE",
"t 	c #CACAE4",
"u 	c #9D9DC3",
"v 	c #515184",
"w 	c #7373A0",
"x 	c #5D5D8B",
"y 	c #D7D7DE",
"z 	c #E4E4E7",
"A 	c #DEDEE3",
"B 	c #7D7DAE",
"C 	c #D3D3E9",
"D 	c #E3E3F1",
"E 	c #7F7FA9",
"F 	c #8686B1",
"G 	c #C2C2DE",
"H 	c #B2B2D5",
"I 	c #71719C",
"J 	c #B5B5C5",
"K 	c #BEBECE",
"L 	c #8484B0",
"M 	c #CECEE3",
"N 	c #B3B3CF",
"O 	c #A6A6BD",
"P 	c #E5E5E8",
"Q 	c #A5A5D0",
"R 	c #CCCCE5",
"S 	c #77779E",
"T 	c #E7E7E8",
"U 	c #8383AE",
"V 	c #AAAACD",
"W 	c #D1D1E6",
"X 	c #9A9AC4",
"Y 	c #B2B2DA",
"Z 	c #BBBBE0",
"` 	c #C9C9E3",
" .	c #BFBFE3",
"..	c #8484B1",
"+.	c #C2C2D0",
"@.	c #CFCFDB",
"#.	c #72729D",
"$.	c #CDCDE5",
"%.	c #CBCBE3",
"&.	c #B6B6D8",
"*.	c #5B5B8E",
"=.	c #6F6F9C",
"-.	c #DFDFE4",
";.	c #7D7DAA",
">.	c #B6B6D7",
",.	c #9C9CC8",
"'.	c #C6C6E7",
").	c #B5B5D6",
"!.	c #A3A3CE",
"~.	c #B8B8DE",
"{.	c #7C7CA0",
"].	c #ADADC5",
"^.	c #A5A5BA",
"/.	c #8989B4",
"(.	c #686898",
"_.	c #9595B0",
":.	c #6C6C9F",
"<.	c #73739A",
"[.	c #E3E3E6",
"}.	c #5C5C88",
"|.	c #7F7FA2",
"1.	c #C8C8D3",
"2.	c #E5E5E6",
"                . + @ # $       ",
"                % & * = - ; >   ",
"              , ' ) ! ~ { ] ^   ",
"          /   ( _ : < [ } # |   ",
"        1 2 3 4 5 6 7 8 9 0 a   ",
"  b ] c * d e f g h i j k l m   ",
"  n o p q r s t u k v w x y z   ",
"  A B C D E F G t H I J K       ",
"  L M 6 N O P Q R - S T         ",
"  U V R W X Y Z `  ...+.        ",
"  @.#.! R $.%.t &.*.=.-.        ",
"    ;.>.,.'.).!.~.{.            ",
"    ].=.^./.(._.:.<.            ",
"        [.}.|.  1.2.            ",
"                                ",
"                                "};
