/* XPM */
char * _repltab_xpm[] = {
"16 16 34 1",
" 	c None",
".	c #0099FF",
"+	c #99CCFF",
"@	c #3DADFF",
"#	c #0085EB",
"$	c #0091F7",
"%	c #DBDBDB",
"&	c #FFFFFF",
"*	c #CECEDB",
"=	c #F0F0FF",
"-	c #D8D8DB",
";	c #F5F5FF",
">	c #C5C5DB",
",	c #E0E0FF",
"'	c #BCBCDB",
")	c #D6D6FF",
"!	c #C9C9DB",
"~	c #D2D2DB",
"{	c #C0C0DB",
"]	c #B8B8DB",
"^	c #E5E5FF",
"/	c #EEEEFF",
"(	c #CBCBDB",
"_	c #E8E8FF",
":	c #BFBFDB",
"<	c #D9D9FF",
"[	c #D1D1FF",
"}	c #C6C6DB",
"|	c #B4B4DB",
"1	c #B2B2DB",
"2	c #C3C3DB",
"3	c #B9B9DB",
"4	c #D4D4FF",
"5	c #CCCCFF",
"                ",
"  ..........    ",
" .+++++++++@.   ",
" .+########$.   ",
" .@............ ",
" .%&.+++++++++@.",
" .%%.+########$.",
" .%&.@..........",
" .*=.%&%&-;>,').",
" .!!.%%%%-~>{'].",
" .>^.%&%&-;>,').",
"  ...*=*/(_:<][.",
"    .!!!!}>']|1.",
"    .>^>^2,3415.",
"     .......... ",
"                "};
