/* XPM */
static char * _role_xpm[] = {
"16 16 122 2",
"  	c None",
". 	c #D0B888",
"+ 	c #B89030",
"@ 	c #B88828",
"# 	c #C09850",
"$ 	c #E0D8C0",
"% 	c #D0D0D0",
"& 	c #B0B0B0",
"* 	c #909090",
"= 	c #A8A8A8",
"- 	c #C8A868",
"; 	c #B08000",
"> 	c #C89800",
", 	c #D0A000",
"' 	c #B08010",
") 	c #282830",
"! 	c #303030",
"~ 	c #081010",
"{ 	c #000000",
"] 	c #E0D0C0",
"^ 	c #A87000",
"/ 	c #B88800",
"( 	c #986800",
"_ 	c #A07008",
": 	c #C88010",
"< 	c #202028",
"[ 	c #384048",
"} 	c #100808",
"| 	c #403000",
"1 	c #282000",
"2 	c #606060",
"3 	c #C0B080",
"4 	c #A87800",
"5 	c #A06800",
"6 	c #E0A860",
"7 	c #F8E0A8",
"8 	c #F8C860",
"9 	c #E0A800",
"0 	c #C89000",
"a 	c #C8A058",
"b 	c #C8B088",
"c 	c #906000",
"d 	c #F8C070",
"e 	c #F8C888",
"f 	c #F8D088",
"g 	c #F8B858",
"h 	c #484848",
"i 	c #B07800",
"j 	c #E0D8D0",
"k 	c #F0B058",
"l 	c #F8A850",
"m 	c #E0E8E8",
"n 	c #986810",
"o 	c #B07000",
"p 	c #A06000",
"q 	c #C0C8A0",
"r 	c #B8B8B0",
"s 	c #705010",
"t 	c #B87000",
"u 	c #F8A028",
"v 	c #F09030",
"w 	c #7070A8",
"x 	c #78D058",
"y 	c #70E870",
"z 	c #688008",
"A 	c #988840",
"B 	c #409020",
"C 	c #28A028",
"D 	c #C0D8B8",
"E 	c #D0D0E0",
"F 	c #1040B0",
"G 	c #1070D0",
"H 	c #0850B8",
"I 	c #B8F8F8",
"J 	c #60A0E0",
"K 	c #0038B0",
"L 	c #287880",
"M 	c #90F890",
"N 	c #88F888",
"O 	c #48C048",
"P 	c #48C848",
"Q 	c #40C840",
"R 	c #409038",
"S 	c #6078B8",
"T 	c #1858B0",
"U 	c #2870C0",
"V 	c #0040A8",
"W 	c #68A8D8",
"X 	c #4880C0",
"Y 	c #1868C0",
"Z 	c #0030A8",
"` 	c #78E878",
" .	c #68E068",
"..	c #50D058",
"+.	c #188810",
"@.	c #2050A8",
"#.	c #1860B0",
"$.	c #2068B8",
"%.	c #2878C8",
"&.	c #0848A8",
"*.	c #0840B8",
"=.	c #40A858",
"-.	c #60E058",
";.	c #58D858",
">.	c #289010",
",.	c #308828",
"'.	c #3860A8",
").	c #0038A0",
"!.	c #1050A8",
"~.	c #2070C0",
"{.	c #80B090",
"].	c #70B860",
"^.	c #60A850",
"/.	c #70B068",
"(.	c #98C098",
"_.	c #90A8D0",
":.	c #5070C0",
"<.	c #3860B8",
"[.	c #3868B8",
"}.	c #5878C0",
"|.	c #88A0D0",
"1.	c #D8D8E0",
"                                ",
"                                ",
"      . + @ # $   % & * =       ",
"    - ; > , > ' * ) ! ~ { *     ",
"  ] ^ / ( _ _ : < [ } | 1 2     ",
"  3 4 5 6 7 7 8 } { 9 , 0 a     ",
"  b ^ c d e f g h ^ 0 / i -     ",
"  j ^ ( k d d l m n o o p q     ",
"    r s t u v w x y z A B C D   ",
"  E F G H I J K L M N O P Q R   ",
"  S T U V W X Y Z ` `  ...Q +.  ",
"  @.#.$.%.&.&.%.*.=.-.;.Q >.,.  ",
"  '.).!.~.%.U T F {.].^./.(.m   ",
"  m _.:.<.[.}.|.1.              ",
"                                ",
"                                "};
