/* XPM */
static char * _sql_top_xpm[] = {
"16 16 132 2",
"  	c None",
". 	c #D7D7E3",
"+ 	c #A4A4C6",
"@ 	c #9F9FC6",
"# 	c #9B9BC4",
"$ 	c #9494C0",
"% 	c #8E8EBC",
"& 	c #8A8AB5",
"* 	c #8B8BB2",
"= 	c #8D8DB0",
"- 	c #C7C7D3",
"; 	c #D1D1E6",
"> 	c #FDFDFF",
", 	c #F1F1FF",
"' 	c #E8E8FF",
") 	c #E0E0FB",
"! 	c #DADAF9",
"~ 	c #D5D5F7",
"{ 	c #C4C4E9",
"] 	c #ACACD7",
"^ 	c #555585",
"/ 	c #9292BF",
"( 	c #8888B5",
"_ 	c #8383B1",
": 	c #7B7BAD",
"< 	c #B1B1D0",
"[ 	c #AEAED0",
"} 	c #7E7EAE",
"| 	c #4F4F83",
"1 	c #404071",
"2 	c #A8A8CF",
"3 	c #4E4E82",
"4 	c #A8A8CD",
"5 	c #7575A8",
"6 	c #555587",
"7 	c #464674",
"8 	c #A6A6D3",
"9 	c #DBDBFF",
"0 	c #CACAF0",
"a 	c #B7B7E3",
"b 	c #B4B4E1",
"c 	c #A3A3D2",
"d 	c #8F8FBE",
"e 	c #3E3E70",
"f 	c #BCBCDC",
"g 	c #8B8BBD",
"h 	c #7777AA",
"i 	c #474779",
"j 	c #A2A2CD",
"k 	c #DEDEFF",
"l 	c #C0C0ED",
"m 	c #A6A6DB",
"n 	c #A5A5D8",
"o 	c #9696CA",
"p 	c #8686BA",
"q 	c #404072",
"r 	c #545487",
"s 	c #3C3C6C",
"t 	c #A8A8D0",
"u 	c #E8E8F9",
"v 	c #DADAF0",
"w 	c #D2D2EA",
"x 	c #CBCBE8",
"y 	c #B5B5DB",
"z 	c #A2A2CF",
"A 	c #434378",
"B 	c #A6A6CB",
"C 	c #7171A4",
"D 	c #4B4B7D",
"E 	c #A0A0CE",
"F 	c #C0C0EE",
"G 	c #A8A8DC",
"H 	c #A5A5D9",
"I 	c #9797CA",
"J 	c #8787BA",
"K 	c #39396B",
"L 	c #BDBDDE",
"M 	c #8E8EC1",
"N 	c #565689",
"O 	c #393969",
"P 	c #A8A8CE",
"Q 	c #E1E1F9",
"R 	c #B6B6E0",
"S 	c #A5A5DA",
"T 	c #8484B7",
"U 	c #47477B",
"V 	c #A6A6CC",
"W 	c #7171A5",
"X 	c #5E5E91",
"Y 	c #4D4D7E",
"Z 	c #9F9FCC",
"` 	c #E3E3FF",
" .	c #DEDEF6",
"..	c #CACAE7",
"+.	c #C4C4E3",
"@.	c #B2B2D8",
"#.	c #A4A4D1",
"$.	c #363668",
"%.	c #AEAED1",
"&.	c #7F7FB2",
"*.	c #6D6DA0",
"=.	c #3B3B6B",
"-.	c #DADAF7",
";.	c #BEBEEB",
">.	c #A7A7DB",
",.	c #8484B8",
"'.	c #4A4A7D",
").	c #B3B3D4",
"!.	c #7A7AAD",
"~.	c #4C4C80",
"{.	c #8484A5",
"].	c #A3A3CC",
"^.	c #EFEFFF",
"/.	c #CDCDE9",
"(.	c #AEAED8",
"_.	c #A1A1D0",
":.	c #8F8FBF",
"<.	c #353568",
"[.	c #9999B9",
"}.	c #707095",
"|.	c #A7A7BC",
"1.	c #C1C1EC",
"2.	c #CFCFF6",
"3.	c #B5B5E3",
"4.	c #B3B3E1",
"5.	c #A4A4D3",
"6.	c #9595C4",
"7.	c #BFBFD4",
"8.	c #9696B9",
"9.	c #8989B3",
"0.	c #7878A8",
"a.	c #71719E",
"                                ",
"          . + @ # $ % & * = -   ",
"          ; > , ' ) ! ~ { ] ^   ",
"  . + @ # / % ( _ : < [ } | 1   ",
"  2 > , ' ) ! ~ { ] 3 4 5 6 7   ",
"  8 9 0 a b c d } | e f g h i   ",
"  j k l m n o p 5 6 q 4 5 r s   ",
"  t u v w x y z g h A B C 5 D   ",
"  E k F G H I J 5 r K L M N O   ",
"  P Q R H S I T C 5 U V W X Y   ",
"  Z `  ...+.@.#.M N $.%.&.*.=.  ",
"  B -.;.>.H o ,.W X '.).!.~.{.  ",
"  ].^./.y (._.:.&.*.<.[.}.|.    ",
"  < 1.2.3.4.5.6.!.~.{.          ",
"    7.8.9.} 0.a.}.|.            ",
"                                "};
