/* XPM */
static char * _srvnrc_xpm[] = {
"16 16 153 2",
"  	c None",
". 	c #ECE4E4",
"+ 	c #F0DBC9",
"@ 	c #F0BCB4",
"# 	c #EFC5BD",
"$ 	c #EDDCDA",
"% 	c #F1B4A9",
"& 	c #FF0000",
"* 	c #E1543C",
"= 	c #CD9B89",
"- 	c #9F89AB",
"; 	c #8A8AB5",
"> 	c #8B8BB2",
", 	c #8D8DB0",
"' 	c #C7C7D3",
") 	c #EFD5C7",
"! 	c #F59343",
"~ 	c #FFF863",
"{ 	c #FEE16D",
"] 	c #EAA8AB",
"^ 	c #D5D5F7",
"/ 	c #C4C4E9",
"( 	c #ACACD7",
"_ 	c #555585",
": 	c #F1BBB0",
"< 	c #FCA260",
"[ 	c #FDEA56",
"} 	c #FFCD00",
"| 	c #FEEC3C",
"1 	c #D6737A",
"2 	c #8F8FBE",
"3 	c #7E7EAE",
"4 	c #4F4F83",
"5 	c #404071",
"6 	c #F0C2B9",
"7 	c #FA6643",
"8 	c #FADC5D",
"9 	c #FFE51D",
"0 	c #FDEB5A",
"a 	c #CF918C",
"b 	c #8686BA",
"c 	c #7575A8",
"d 	c #555587",
"e 	c #464674",
"f 	c #EDD9D6",
"g 	c #F6B18D",
"h 	c #F0884B",
"i 	c #EE6659",
"j 	c #D6AAB8",
"k 	c #A2A2CF",
"l 	c #8B8BBD",
"m 	c #7777AA",
"n 	c #474779",
"o 	c #ECEBEB",
"p 	c #EFD8CC",
"q 	c #C27688",
"r 	c #EE8084",
"s 	c #E1B39E",
"t 	c #BB8EAD",
"u 	c #A7A2D3",
"v 	c #8787BA",
"w 	c #545487",
"x 	c #3C3C6C",
"y 	c #A8A8CE",
"z 	c #E1E1F9",
"A 	c #B6B6E0",
"B 	c #BABAE2",
"C 	c #C8C8D3",
"D 	c #BFBFC1",
"E 	c #9B9B9F",
"F 	c #B5B5B9",
"G 	c #ADADB3",
"H 	c #AFAFB8",
"I 	c #E9E9E9",
"J 	c #9F9FCC",
"K 	c #E3E3FF",
"L 	c #DEDEF6",
"M 	c #ECECF6",
"N 	c #949495",
"O 	c #B1B1B1",
"P 	c #C4C4C4",
"Q 	c #8F8F8F",
"R 	c #7E7E7E",
"S 	c #D7D7D7",
"T 	c #A6A6CB",
"U 	c #DADAF7",
"V 	c #BEBEEB",
"W 	c #CFCFEC",
"X 	c #9E9EA4",
"Y 	c #DEDEDE",
"Z 	c #BBBBBC",
"` 	c #A1A1A2",
" .	c #E0E0E1",
"..	c #E3E3E4",
"+.	c #DADBDE",
"@.	c #8E8E93",
"#.	c #CBCBCC",
"$.	c #A3A3CC",
"%.	c #EFEFFF",
"&.	c #CDCDE9",
"*.	c #D7D7EC",
"=.	c #9F9FA3",
"-.	c #919191",
";.	c #A5A6A9",
">.	c #E6E7EA",
",.	c #E1E1E9",
"'.	c #DBDCE2",
").	c #E0BC35",
"!.	c #E0C662",
"~.	c #8C8F9F",
"{.	c #B1B1D0",
"].	c #C1C1EC",
"^.	c #CFCFF6",
"/.	c #CFCFED",
"(.	c #A7A7AE",
"_.	c #686868",
":.	c #E9EAF3",
"<.	c #F8CA0E",
"[.	c #F5D237",
"}.	c #D1D5E2",
"|.	c #C2930F",
"1.	c #FFFF58",
"2.	c #CAAD30",
"3.	c #EAE9E6",
"4.	c #BFBFD4",
"5.	c #9696B9",
"6.	c #9090B8",
"7.	c #CCCCDA",
"8.	c #6D6D6D",
"9.	c #E5E9F2",
"0.	c #B98400",
"a.	c #FFF351",
"b.	c #EACA43",
"c.	c #958570",
"d.	c #C59000",
"e.	c #FFFF85",
"f.	c #EBCD59",
"g.	c #C8C8C8",
"h.	c #7F8182",
"i.	c #A8A4A7",
"j.	c #AF7A00",
"k.	c #FEEA67",
"l.	c #BCA554",
"m.	c #6E6053",
"n.	c #A98006",
"o.	c #AE953C",
"p.	c #8B8D92",
"q.	c #675A54",
"r.	c #7D570F",
"s.	c #8D826E",
"t.	c #CECFD2",
"u.	c #D1C7C1",
"v.	c #D9D1CB",
"                                ",
"    . + @ # $                   ",
"  . % & & * = - ; > , '         ",
"  ) & ! ~ { & ] ^ / ( _         ",
"  : < [ } | & 1 2 3 4 5         ",
"  6 7 8 9 0 & a b c d e         ",
"  f g h & & i j k l m n         ",
"  o p q r s t u v c w x         ",
"    y z A B C D E F G H I       ",
"    J K L M N O     P Q R S     ",
"    T U V W X Y Z `  ...+.@.#.  ",
"    $.%.&.*.=.-.;.>.,.'.).!.~.  ",
"    {.].^./.(._.:.<.[.}.|.1.2.3.",
"      4.5.6.7.8.9.0.a.b.c.d.e.f.",
"              g.h.i.j.k.l.m.n.o.",
"                g.p.q.r.s.t.u.v."};
