/* XPM */
static char * _srvl_xpm[] = {
"16 16 84 1",
" 	c None",
".	c #D8D8D8",
"+	c #A7A7A7",
"@	c #A3A3A3",
"#	c #9F9F9F",
"$	c #989898",
"%	c #939393",
"&	c #8E8E8E",
"*	c #8F8F8F",
"=	c #909090",
"-	c #C8C8C8",
";	c #ACACAC",
">	c #FDFDFD",
",	c #F2F2F2",
"'	c #EAEAEA",
")	c #E2E2E2",
"!	c #DDDDDD",
"~	c #B0B0B0",
"{	c #5A5A5A",
"]	c #AAAAAA",
"^	c #DEDEDE",
"/	c #CECECE",
"(	c #BBBBBB",
"_	c #B8B8B8",
":	c #A8A8A8",
"<	c #949494",
"[	c #838383",
"}	c #545454",
"|	c #454545",
"1	c #A6A6A6",
"2	c #E1E1E1",
"3	c #C4C4C4",
"4	c #ABABAB",
"5	c #9B9B9B",
"6	c #8B8B8B",
"7	c #7A7A7A",
"8	c #4B4B4B",
"9	c #E9E9E9",
"0	c #DCDCDC",
"a	c #D4D4D4",
"b	c #B9B9B9",
"c	c #7C7C7C",
"d	c #4C4C4C",
"e	c #A5A5A5",
"f	c #C5C5C5",
"g	c #ADADAD",
"h	c #9C9C9C",
"i	c #8C8C8C",
"j	c #595959",
"k	c #414141",
"l	c #E3E3E3",
"m	c #BABABA",
"n	c #898989",
"o	c #767676",
"p	c #505050",
"q	c #E6E6E6",
"r	c #E0E0E0",
"s	c #CDCDCD",
"t	c #C7C7C7",
"u	c #B6B6B6",
"v	c #5B5B5B",
"w	c #3E3E3E",
"x	c #C2C2C2",
"y	c #636363",
"z	c #525252",
"A	c #F0F0F0",
"B	c #D0D0D0",
"C	c #B2B2B2",
"D	c #848484",
"E	c #727272",
"F	c #404040",
"G	c #B4B4B4",
"H	c #D3D3D3",
"I	c #A9A9A9",
"J	c #9A9A9A",
"K	c #7F7F7F",
"L	c #515151",
"M	c #878787",
"N	c #C1C1C1",
"O	c #999999",
"P	c #8D8D8D",
"Q	c #7D7D7D",
"R	c #757575",
"S	c #747474",
"                ",
" .+@#$%&*=-     ",
" ;>,')!.-~{     ",
" ]^/(_:<[}|     ",
" 1234]567{8     ",
" ;90a/b1=cd     ",
" e2fg]hi7jk     ",
" ;lm]]hno7p     ",
" @qrstu:%vw     ",
" ]!x;]5noyz     ",
" +ABbC1<DEF     ",
" GfHm_IJKLM     ",
"  NOP[QRSI      ",
"                ",
"                ",
"                "};
