/* XPM */
static char * _systable_xpm[] = {
"16 16 84 1",
" 	c None",
".	c #0099FF",
"+	c #99CCFF",
"@	c #3DADFF",
"#	c #0085EB",
"$	c #0091F7",
"%	c #DBDBDB",
"&	c #FFFFFF",
"*	c #D8D8DB",
"=	c #F5F5FF",
"-	c #CECEDB",
";	c #EAEAFF",
">	c #C5C5DB",
",	c #E0E0FF",
"'	c #BCBCDB",
")	c #D6D6FF",
"!	c #DCD5D4",
"~	c #E1CCBD",
"{	c #DDAAA7",
"]	c #D8AEB0",
"^	c #CDBDCB",
"/	c #C0C0DB",
"(	c #B8B8DB",
"_	c #FFC3B7",
":	c #F17F59",
"<	c #FD995D",
"[	c #F06243",
"}	c #F4C2A6",
"|	c #CBB5C3",
"1	c #E2C8BA",
"2	c #F17051",
"3	c #FA9945",
"4	c #FEF762",
"5	c #FCDF6B",
"6	c #F4703C",
"7	c #D79695",
"8	c #C1BDD8",
"9	c #FBFBFF",
"0	c #E2ADA3",
"a	c #FEA463",
"b	c #FEEB56",
"c	c #FFCD00",
"d	c #FEEC3C",
"e	c #FB7F3A",
"f	c #DF7B77",
"g	c #E0D5F2",
"h	c #BABADB",
"i	c #D4D4FF",
"j	c #D2D2DB",
"k	c #DCAEAC",
"l	c #F25F3E",
"m	c #FDDE5E",
"n	c #FFE51D",
"o	c #FDEB5A",
"p	c #F8AC5B",
"q	c #DD9F8E",
"r	c #C0B8D2",
"s	c #B9B9DB",
"t	c #B4B4DB",
"u	c #F0F0FF",
"v	c #D2BFC7",
"w	c #F7B396",
"x	c #F68E4E",
"y	c #FDB15D",
"z	c #F8994B",
"A	c #F46B61",
"B	c #CCA1AD",
"C	c #D9D9FF",
"D	c #D1D1FF",
"E	c #C9C9DB",
"F	c #C9C8DA",
"G	c #D1BBBE",
"H	c #DA8E8F",
"I	c #E17371",
"J	c #E2B495",
"K	c #CDA0AC",
"L	c #BEB8D5",
"M	c #B2B2DB",
"N	c #E5E5FF",
"O	c #C5BED4",
"P	c #E2D4EE",
"Q	c #C3BBD0",
"R	c #DBDAFE",
"S	c #CCCCFF",
"                ",
"  ............  ",
" .+++++++++++@. ",
" .+##########$. ",
" .@............ ",
" .%&%&*=-;>,'). ",
" .%%%!~{]^>/'(. ",
" .%&!_:<[}|,'). ",
" .%%12345678'(. ",
" .*90abcdefghi. ",
" .jjklmnopqrst. ",
" .-uvwxyzABC(D. ",
" .EEFGHIJKL(tM. ",
" .>N>NOPQRsiMS. ",
"  ............  ",
"                "};
