/* XPM */
char * _table_xpm[] = { 
"16 16 49 1", 
" 	c None", 
".	c #0099FF", 
"+	c #99CCFF", 
"@	c #3DADFF", 
"#	c #0085EB", 
"$	c #0091F7", 
"%	c #DBDBDB", 
"&	c #FFFFFF", 
"*	c #D8D8DB", 
"=	c #F5F5FF", 
"-	c #CECEDB", 
";	c #EAEAFF", 
">	c #C5C5DB", 
",	c #E0E0FF", 
"'	c #BCBCDB", 
")	c #D6D6FF", 
"!	c #D2D2DB", 
"~	c #C9C9DB", 
"{	c #C0C0DB", 
"]	c #B8B8DB", 
"^	c #D9D9DB", 
"/	c #D6D6DB", 
"(	c #D1D1DB", 
"_	c #CCCCDB", 
":	c #FBFBFF", 
"<	c #F9F9FF", 
"[	c #F0F0FF", 
"}	c #CBCBDB", 
"|	c #E6E6FF", 
"1	c #C3C3DB", 
"2	c #DEDEFF", 
"3	c #BABADB", 
"4	c #D4D4FF", 
"5	c #C7C7DB", 
"6	c #BDBDDB", 
"7	c #B9B9DB", 
"8	c #B4B4DB", 
"9	c #EEEEFF", 
"0	c #E8E8FF", 
"a	c #E1E1FF", 
"b	c #BFBFDB", 
"c	c #D9D9FF", 
"d	c #D1D1FF", 
"e	c #C6C6DB", 
"f	c #C1C1DB", 
"g	c #B2B2DB", 
"h	c #E5E5FF", 
"i	c #DBDBFF", 
"j	c #CCCCFF", 
"                ", 
"  ............  ", 
" .+++++++++++@. ", 
" .+##########$. ", 
" .@............ ", 
" .%&%&*=-;>,'). ", 
" .%%%%*!-~>{']. ", 
" .%&%&*=-;>,'). ", 
" .%%%^/(_~>{']. ", 
" .*:*<![}|1234. ", 
" .!!!(-_5>{678. ", 
" .-[-9}0>abc]d. ", 
" .~~~~e>fb']8g. ", 
" .>h>h1,bi74gj. ", 
"  ............  ", 
"                "}; 
