/* XPM */
char * _transp_xpm[] = {
"16 16 54 1",
" 	c None",
".	c #808080",
"+	c #FFF8FF",
"@	c #F5F5FF",
"#	c #EA5329",
"$	c #ED3A12",
"%	c #F54919",
"&	c #F64B19",
"*	c #F25124",
"=	c #EA3812",
"-	c #FFA94E",
";	c #FFAA4F",
">	c #F45023",
",	c #BFD6CB",
"'	c #459346",
")	c #208A1A",
"!	c #2A9128",
"~	c #65A969",
"{	c #5EBD5E",
"]	c #C4574F",
"^	c #FF7B2E",
"/	c #FE8235",
"(	c #FC5216",
"_	c #F45429",
":	c #8BBD95",
"<	c #459E48",
"[	c #1FA016",
"}	c #60DF40",
"|	c #67DE45",
"1	c #149911",
"2	c #24A522",
"3	c #C3311F",
"4	c #FF7327",
"5	c #DF4430",
"6	c #E84D22",
"7	c #F0F0FF",
"8	c #F2F2FF",
"9	c #28992A",
"0	c #76E84F",
"a	c #A2FF6C",
"b	c #2AAF25",
"c	c #C12B19",
"d	c #E1300D",
"e	c #2CB01D",
"f	c #9CFF68",
"g	c #26AD1F",
"h	c #AC3E3B",
"i	c #CA4849",
"j	c #2C8B29",
"k	c #259524",
"l	c #31A331",
"m	c #31B12D",
"n	c #B59898",
"o	c #D98F9B",
"                ",
"  ...+ @..  ... ",
"  .  .  ..   .  ",
"  .  . .  .  .  ",
"  .  . ....  .  ",
"  ...  .  .  .  ",
"                ",
"                ",
" #$%&*          ",
"  =-;>  ,')!~ { ",
" ]^/(_  :<[}|12 ",
" 345 6  78 90ab ",
" cd  +   +  efg ",
" hi       jjklm ",
" no             ",
" @ @            "};
