/* XPM */
char * _trigger_xpm[] = {
"16 16 75 1",
" 	c None",
".	c #B8E2FF",
"+	c #0099FF",
"@	c #99CCFF",
"#	c #3DADFF",
"$	c #0085EB",
"%	c #0091F7",
"&	c #DBDBDB",
"*	c #FBFBFF",
"=	c #D8D8DB",
"-	c #F5F5FF",
";	c #CECEDB",
">	c #EAEAFF",
",	c #C5C5DB",
"'	c #E0E0FF",
")	c #BCBCDB",
"!	c #D6D6FF",
"~	c #D2D2DB",
"{	c #C9C9DB",
"]	c #C0C0DB",
"^	c #B8B8DB",
"/	c #D9D9DB",
"(	c #D6D6DB",
"_	c #EBEBEB",
":	c #B8B8D4",
"<	c #9696BD",
"[	c #A8A8C9",
"}	c #F9F9FF",
"|	c #B5B5D5",
"1	c #D6D6E8",
"2	c #AAAACF",
"3	c #C3C3E1",
"4	c #8F8FB8",
"5	c #A5A5C2",
"6	c #D6D6DE",
"7	c #D1D1DB",
"8	c #9696C0",
"9	c #CDCDE6",
"0	c #C1C1DB",
"a	c #B7B7D8",
"b	c #C2C2E0",
"c	c #B5B5D7",
"d	c #7D7DA3",
"e	c #F0F0FF",
"f	c #EEEEFF",
"g	c #9B9BBE",
"h	c #DFDFF3",
"i	c #D9D9EC",
"j	c #8A8AB6",
"k	c #B2B2D1",
"l	c #BABAE0",
"m	c #ACACC0",
"n	c #8888B4",
"o	c #5E5E94",
"p	c #D1D1E8",
"q	c #C5C5E1",
"r	c #B5B5DF",
"s	c #CDCDE9",
"t	c #A8A8CE",
"u	c #7B7B9D",
"v	c #E5E5FF",
"w	c #C3C3DB",
"x	c #D7D7EA",
"y	c #7575A6",
"z	c #AAAACC",
"A	c #B5B5DB",
"B	c #CECEE8",
"C	c #8D8DB7",
"D	c #6F6FA1",
"E	c #8282A1",
"F	c #515184",
"G	c #7373A0",
"H	c #5D5D8B",
"I	c #D7D7DE",
"J	c #E4E4E7",
"                ",
" .++++++++++++. ",
" +@@@@@@@@@@@#+ ",
" +@$$$$$$$$$$%+ ",
" +#++++++++++++ ",
" +&*&*=-;>,')!+ ",
" +&&&&=~;{,])^+ ",
" +&*&*=-;**'*!+ ",
" +&&&/(_*:<<[__ ",
" +=*=}~_|123456 ",
" +~~~7;_890abcd ",
" +;e;f_ghijkl<m ",
" +{{{{_nopqrstu ",
" +,v,vwxyzABCDE ",
" .+++++__CFGHIJ ",
"                "};
