/* XPM */
static char * _user_xpm[] = {
"16 16 106 2",
"  	c None",
". 	c #B88600",
"+ 	c #B78400",
"@ 	c #B27E00",
"# 	c #AB7700",
"$ 	c #C69200",
"% 	c #C99600",
"& 	c #C28F00",
"* 	c #BB8800",
"= 	c #B58200",
"- 	c #AA7600",
"; 	c #B17F00",
"> 	c #AF7C00",
", 	c #AA7700",
"' 	c #AA7800",
") 	c #B48100",
"! 	c #AF7D00",
"~ 	c #B07900",
"{ 	c #FFC77F",
"] 	c #FED392",
"^ 	c #FFDA9D",
"/ 	c #EFB768",
"( 	c #A37100",
"_ 	c #AE7B00",
": 	c #A27200",
"< 	c #FFA831",
"[ 	c #FFC77E",
"} 	c #FFD897",
"| 	c #FFD492",
"1 	c #FFD18B",
"2 	c #AC7709",
"3 	c #AB7800",
"4 	c #A16D00",
"5 	c #FFBA68",
"6 	c #FFCA83",
"7 	c #FFC980",
"8 	c #FFC87E",
"9 	c #B07A12",
"0 	c #A77500",
"a 	c #A26900",
"b 	c #FFA937",
"c 	c #FFC26F",
"d 	c #FFBF6F",
"e 	c #FFBE6B",
"f 	c #9F6A00",
"g 	c #AA7200",
"h 	c #6D727A",
"i 	c #FF962B",
"j 	c #FF9E2B",
"k 	c #CE7600",
"l 	c #8B5C00",
"m 	c #615A43",
"n 	c #005CC6",
"o 	c #0062CA",
"p 	c #5CA9EF",
"q 	c #C6F7FF",
"r 	c #A4E8FF",
"s 	c #0047C2",
"t 	c #0B5AC5",
"u 	c #0042C2",
"v 	c #2171C4",
"w 	c #1C71C8",
"x 	c #66A9DE",
"y 	c #AEE5FB",
"z 	c #5798D5",
"A 	c #1361BB",
"B 	c #2873C4",
"C 	c #0F51B1",
"D 	c #025FD0",
"E 	c #2D79C5",
"F 	c #2A7ECC",
"G 	c #1566C3",
"H 	c #64AADF",
"I 	c #044EB3",
"J 	c #2A7AC8",
"K 	c #236CBE",
"L 	c #1C63B7",
"M 	c #0039AC",
"N 	c #0C5BBC",
"O 	c #256EC0",
"P 	c #2B79C8",
"Q 	c #2475C6",
"R 	c #1263BD",
"S 	c #2877C8",
"T 	c #2672C3",
"U 	c #2067BC",
"V 	c #1A5DB5",
"W 	c #073FA3",
"X 	c #0652B6",
"Y 	c #054BAE",
"Z 	c #2871C1",
"` 	c #2876C4",
" .	c #2A76C5",
"..	c #2672C2",
"+.	c #216CBD",
"@.	c #0944A4",
"#.	c #1658B0",
"$.	c #043BA2",
"%.	c #0043AB",
"&.	c #0447AB",
"*.	c #094BAD",
"=.	c #0C4DAD",
"-.	c #0B4BAB",
";.	c #0A45A7",
">.	c #01359A",
",.	c #003098",
"                                ",
"            . + @ #             ",
"          $ % & * = -           ",
"          ; > , ' ) ! ~         ",
"          { ] ^ / ( _ :         ",
"        < [ } | 1 2 3 4         ",
"          5 6 7 8 9 0 a         ",
"          b c d e f g           ",
"          h i j k l m           ",
"        n o p q r s t u         ",
"        v w x y z A B C         ",
"      D E F G H I J K L M       ",
"      N O P Q R S T U V W       ",
"      X Y Z `  ...+.@.#.$.      ",
"        %.&.*.=.-.;.>.,.        ",
"                                "};
