/* XPM */
char * _xml_xpm[] = {
"16 16 54 1",
" 	c None",
".	c #0000FF",
"+	c #FFF8FF",
"@	c #F5F5FF",
"#	c #5EBD5E",
"$	c #24A522",
"%	c #2AAF25",
"&	c #26AD1F",
"*	c #31B12D",
"=	c #149911",
"-	c #A2FF6C",
";	c #9CFF68",
">	c #31A331",
",	c #B59898",
"'	c #AC3E3B",
")	c #C12B19",
"!	c #C3311F",
"~	c #C4574F",
"{	c #EA5329",
"]	c #65A969",
"^	c #67DE45",
"/	c #76E84F",
"(	c #2CB01D",
"_	c #259524",
":	c #D98F9B",
"<	c #CA4849",
"[	c #E1300D",
"}	c #FF7327",
"|	c #FF7B2E",
"1	c #EA3812",
"2	c #ED3A12",
"3	c #2A9128",
"4	c #60DF40",
"5	c #28992A",
"6	c #2C8B29",
"7	c #DF4430",
"8	c #FE8235",
"9	c #FFA94E",
"0	c #F54919",
"a	c #208A1A",
"b	c #1FA016",
"c	c #FC5216",
"d	c #FFAA4F",
"e	c #F64B19",
"f	c #459346",
"g	c #459E48",
"h	c #F2F2FF",
"i	c #E84D22",
"j	c #F45429",
"k	c #F45023",
"l	c #F25124",
"m	c #BFD6CB",
"n	c #8BBD95",
"o	c #F0F0FF",
"                ",
"  . . .   . .   ",
"  . . .. .. .   ",
"   .  . . . .   ",
"  . . .   . .   ",
"  . . .   . ... ",
"                ",
"     + @        ",
" #$%&*          ",
"  =-;> @,')!~ { ",
" ]^/(_  :<[}|12 ",
" 345 6 @   7890 ",
" ab  6      cde ",
" fgh       ijkl ",
" mno            ",
"                "};
