/* XPM */
static char *act_line_xpm[] = {
"9 9 3 1",
" 	c #e0e0e0",
".	c #000000",
"X	c #00FFFF",
"   .     ",
"   ..    ",
"   .X.   ",
"....XX.  ",
".XXXXXX. ",
"....XX.  ",
"   .X.   ",
"   ..    ",
"   .     "};
