/* XPM */
static char *act_line_breakpoint_xpm[] = {
"9 9 4 1",
" 	c #E0E0E0",
".	c #000000",
"X	c #FF0000",
"o	c #00FFFF",
"  .....  ",
" .X..XX. ",
".XX.o.XX.",
"....oo.X.",
".oooooo..",
"....oo.X.",
".XX.o.XX.",
" .X..XX. ",
"  .....  "};
