/* XPM */
char * addtable_xpm[] = {
"16 16 69 1",
" 	c None",
".	c #0099FF",
"+	c #99CCFF",
"@	c #3DADFF",
"#	c #0085EB",
"$	c #0091F7",
"%	c #DBDBDB",
"&	c #FFFFFF",
"*	c #ECECED",
"=	c #FBFBFF",
"-	c #EBEBF1",
";	c #F7F7FF",
">	c #E2E2ED",
",	c #E0E0FF",
"'	c #BCBCDB",
")	c #D6D6FF",
"!	c #EFEFF1",
"~	c #009300",
"{	c #009100",
"]	c #008D00",
"^	c #E8E8F1",
"/	c #C0C0DB",
"(	c #B8B8DB",
"_	c #EDEDED",
":	c #008F00",
"<	c #91F75E",
"[	c #008900",
"}	c #F3F3FF",
"|	c #DEDEED",
"1	c #F1F1F1",
"2	c #008B00",
"3	c #8DF35A",
"4	c #008300",
"5	c #008100",
"6	c #007D00",
"7	c #E4E4F1",
"8	c #D8D8DB",
"9	c #86EC53",
"0	c #7BE148",
"a	c #78DE45",
"b	c #007800",
"c	c #E3E3F1",
"d	c #D4D4FF",
"e	c #D2D2DB",
"f	c #EDEDF1",
"g	c #008700",
"h	c #008500",
"i	c #007A00",
"j	c #007500",
"k	c #007000",
"l	c #B4B4DB",
"m	c #CECEDB",
"n	c #F0F0FF",
"o	c #E7E7ED",
"p	c #F8F8FF",
"q	c #EAEAF1",
"r	c #77DD44",
"s	c #007200",
"t	c #E5E5F1",
"u	c #DCDCED",
"v	c #D1D1FF",
"w	c #C9C9DB",
"x	c #006D00",
"y	c #B2B2DB",
"z	c #C5C5DB",
"A	c #E5E5FF",
"B	c #F1F1FF",
"C	c #DDDDED",
"D	c #CCCCFF",
"                ",
"  ............  ",
" .+++++++++++@. ",
" .+##########$. ",
" .@............ ",
" .%&%&*=-;>,'). ",
" .%%%%!~{]^/'(. ",
" .%&_&!:<[^}|). ",
" .%%1{]234567(. ",
" .8=!]<390abcd. ",
" .eefgh50ijkcl. ",
" .mnopq6rstnuv. ",
" .wwww^jkx7(ly. ",
" .zAzA>}tBCdyD. ",
"  ............  ",
"                "};
