/* XPM */
static char *alog_xpm[] = {
/* columns rows colors chars-per-pixel */
"16 16 115 2",
"u  c #C4DADE",
"}  c #FF832D",
"C  c #FBFBFF",
"e  c #88889C",
"1  c #E8E8F2",
"W  c #98D6FE",
"+. c #AFAFCD",
"4  c #D6D6FF",
"$. c #FF7A27",
"&  c #91919E",
"%. c #FFE171",
"2. c #6A6A76",
"*  c #E8E8FF",
" . c #9191A6",
"$  c #C1C1D1",
"*. c #FC6A21",
"R  c #84D1FF",
"|  c #FF7A34",
"[  c #86898B",
"=. c #7D7D8C",
"<. c #FFDE7F",
"d  c #7C7C7C",
"V  c #C1C1DF",
"Y  c #99999D",
"x  c #6F6E6E",
"N  c #90D5FF",
"0  c #7F8081",
"(  c #ADADC4",
"z  c #96DAFF",
"3. c #73738A",
"#  c #D3D3E0",
"4. c #828A90",
"j  c #EFFEFF",
"9  c #75797B",
"k  c #C2EDF9",
"t  c #72727A",
":  c #F9F9FF",
"i  c #F2FFFF",
":. c #7C7C8E",
"r  c #D4D4FF",
"7  c #ABABAB",
"@. c #B5B5BD",
"X. c #B6B6D5",
"2  c #7C7C9B",
"~  c #ED7B3D",
"+  c #F8F8FB",
"E  c #85D0FE",
"   c None",
",  c #8F8FB0",
"P  c #DBDBE6",
"K  c #6D6C6B",
"y  c #A7A6A7",
"^  c #9898B0",
"L  c #B5B5CE",
",. c #FF7B2A",
"<  c #7B7B94",
"X  c #ABABC3",
"c  c #B4B4C1",
">. c #848497",
";  c #F7F7FB",
"3  c #7A7A89",
"w  c #BDBDC7",
"q  c #969698",
"]  c #79797C",
"a  c #A6E7FF",
"G  c #90CDEF",
"A  c #AAAAC2",
"6  c #ECECF2",
"=  c #FFFFFF",
";. c #8D8DB4",
"s  c #95A7B3",
"p  c #CBF7FF",
"S  c #7B7C80",
"Q  c #8B949A",
"8  c #7E8082",
"F  c #98D5F2",
"n  c #BBE8F8",
"/  c #9F9FB8",
"@  c #D8D8E0",
"&. c #FF8831",
"O  c #D0D0FB",
"%  c #A8A8B9",
"Z  c #E2E2F9",
"h  c #EAFFFF",
"g  c #7D8284",
"M  c #94D0F0",
"D  c #97DDFF",
"b  c #BDEEFF",
"v  c #73787B",
"o. c #BABAC1",
"U  c #FDFDFE",
"T  c #90AABC",
"O. c #A7A7BB",
"l  c #A0DAF6",
"!  c #898C8D",
"J  c #9DD9FE",
"B  c #6F7070",
".  c #A7A7C1",
"-. c #767682",
"_  c #F3F3F8",
"m  c #A9DDF4",
"o  c #9393AA",
"{  c #D6C58C",
"-  c #FCFCFD",
".. c #9393AD",
")  c #D6D6E5",
"1. c #859098",
"`  c #A5A5A6",
">  c #CCCCD7",
"f  c #6B6B6E",
"5  c #7F7F91",
"#. c #C4774D",
"'  c #6E6F71",
"I  c #F2F2F7",
"H  c #82C8F1",
/* pixels */
"                                ",
"            . X o               ",
"          O + @ # $ % &         ",
"          * = = - ; : > , <     ",
"          1 = = = = = 2 3 4 5   ",
"          6 7 8 9 0 q w e r t   ",
"          y u i p a s d   f     ",
"          g h j k l z x         ",
"        c v b n m M N B         ",
"  V C Z A S D F G H J K         ",
"  L P I U Y T R E W Q ! ~       ",
"  ^ / ( ) _ ` x ' ] [ { } |     ",
"       ...X.o.O.+.@.#.$.%.&.*.  ",
"          =.-.;.:.>.    ,.<.1.  ",
"              2.3.        4.    ",
"                                "
};
