/* XPM */ 
static char *asc_xpm[] = { 
"8 8 2 1", 
"0 c black", 
"1 c none", 
"11111111", 
"11000001", 
"11000001", 
"11100011", 
"11100011", 
"11110111", 
"11110111",
"11111111" 
}; 
