/* XPM */
static char *backup_xpm[] = {
/* columns rows colors chars-per-pixel */
"16 16 159 2",
")  c #14950D",
"c  c #844E00",
"2  c #DAD6C8",
"-  c #F3E98C",
"Z. c #AC7100",
"N. c #B57D00",
"=  c #ECDD74",
"j  c #87F35B",
"8. c #996400",
".. c #F8F07E",
"<  c #DDB823",
"'  c #D8A529",
"3. c #C18700",
"m  c #5CDC3D",
"6. c #717F9E",
"]  c #7283B7",
"$  c #BA8A00",
"N  c #83F157",
"e  c #BDC389",
"D. c #B17B00",
"x  c #834D00",
"%. c #AE8616",
"8  c #D6E4A2",
"n. c #B4850C",
";  c #FBF9D5",
"a. c #B77D00",
"O. c #EDDB9E",
"#. c #9C9A99",
"5. c #BD8B0C",
"&. c #C38A00",
"m. c #DFBB29",
"{  c #8D98B9",
"K  c #1F9B15",
",  c #E9CE4D",
"A. c #B38107",
"C. c #B37B00",
"t. c #7E7C75",
"1. c #AD9F7B",
"7  c #83BA6A",
"B. c #93835C",
"z. c #B98000",
"d. c #B98C11",
"@. c #B6C3A1",
"7. c #BC8100",
"h. c #CFA626",
"b  c #659C45",
"<. c #DEBF75",
"h  c #37B525",
"   c None",
"r. c #9F9069",
"+. c #17970D",
"t  c #BB8600",
"A  c #8A5400",
"!  c #C19107",
"L  c #2AA71B",
"X  c #E8D29A",
"J. c #996500",
",. c #D8B53F",
"q  c #1D9C14",
"o  c #C28F1F",
"o. c #E4CB4B",
"f. c #E7CC49",
"v. c #696763",
"*. c #7E8BAE",
"R  c #D6A408",
"P  c #36B423",
"0. c #E7CF4F",
"D  c #B48000",
":. c #E7D254",
"w  c #1D9C1E",
"4. c #BA8500",
" . c #B17900",
"/  c #EDEEB3",
"J  c #59A23E",
"_  c #23A11E",
">. c #E0C33E",
"+  c #D6B86C",
"i  c #A47401",
"l  c #ACAB6C",
"G. c #83662F",
"r  c #CA9D25",
"Q  c #AA7600",
"0  c #D8CD7A",
"c. c #AB862C",
"Z  c #C0A16F",
"k  c #159811",
"@  c #D3BA84",
"B  c #9FFF69",
"M  c #6EE64A",
"v  c #E1C76B",
"X. c #E9D55B",
"-. c #9D6B00",
"n  c #31B420",
"F  c #A37000",
">  c #D0E0C6",
":  c #2CA42E",
"k. c #998961",
"[  c #C58B00",
"S  c #A06900",
"S. c #CB9C0E",
"b. c #A66E00",
"O  c #C29316",
"~  c #FCF78B",
"(  c #A6CB80",
"s. c #966500",
"q. c #DEBE37",
"M. c #CB9F1B",
"}  c #B8890A",
"G  c #CEA620",
"j. c #B88000",
"I  c #8AF65C",
"1  c #DAB01D",
"H. c #9F6B00",
"F. c #917943",
"3  c #C5BA93",
"s  c #0E800A",
"9  c #E7E1A2",
"%  c #A57000",
"i. c #B5881A",
"*  c #EFDD7A",
"p. c #6A7283",
"x. c #B17D00",
"g. c #DDBA2E",
"^  c #F6EC9A",
"z  c #936415",
"W  c #BB9324",
"C  c #1D9414",
"6  c #63922D",
"#  c #C3A35B",
"5  c #9E6D00",
"u  c #9DA6BA",
"e. c #BD8400",
"f  c #1C9C13",
"T  c #BDAD7A",
"E  c #A9B0BA",
"u. c #B38000",
"a  c #C8CB80",
"9. c #E6CF53",
"=. c #B98500",
"&  c #DBC670",
"V  c #85F35A",
"V. c #6E6F6A",
"H  c #FCFDC1",
"d  c #1B9E13",
".  c #CCA11F",
"y. c #BC8300",
"U  c #1B9B12",
"`  c #B0C6B0",
"p  c #A06D00",
"g  c #21A316",
"4  c #C58C00",
"|  c #A36E00",
"l. c #77756E",
"2. c #84837F",
"y  c #BC8C12",
"$. c #C88D00",
";. c #EFDE68",
"Y  c #B7BE77",
"w. c #D2AF34",
/* pixels */
"                                ",
"          . X o O + @ # $ %     ",
"  & * = - ; : > , < 1 2 3 4 5   ",
"  6 7 8 9 0 q w e r t y u i p   ",
"  a s d f g h j k l z x c       ",
"  v b n m M N B V C Z A S D F   ",
"  G H J K L P I U Y T R E W Q   ",
"  ! ~ ^ / ( ) _ ` ' ] [ { } |   ",
"   ...X.o.O.+.@.#.$.%.&.*.=.-.  ",
"    ;.:.>.,.<.1.2.3.4.5.6.7.8.  ",
"    9.0.q.w.e.r.t.y.u.i.p.a.s.  ",
"    d.f.g.h.j.k.l.z.x.c.v.b.    ",
"      n.m.M.N.B.V.C.% Z.        ",
"        A.S.D.F.G.              ",
"          H.J.                  ",
"                                "
};
