/* XPM */
static char *bookmark_xpm[] = {
"7 9 3 1",
" 	c #E0E0E0",
".	c #000000",
"X	c #00FF00",
"       ",
" ..... ",
" .XXX. ",
" .XXX. ",
" .XXX. ",
" .XXX. ",
" .XXX. ",
" ..... ",
"       "};
