/* XPM */
char *break_xpm[] = {
"16 16 256 3",
"000 c #C82008",
"001 c None",
"002 c #F84810",
"003 c #F8F8F8",
"004 c #F83800",
"005 c #F8F0F0",
"006 c #F87040",
"007 c #F8E8E8",
"008 c #F84010",
"009 c #F8D0C8",
"010 c #F86038",
"011 c #F84008",
"012 c #F8E8E0",
"013 c #F84818",
"014 c #B81808",
"015 c #F8C8B8",
"016 c #F85020",
"017 c #F85820",
"018 c #F8D8D0",
"019 c #F8B0A0",
"020 c #D02008",
"021 c #F8C8C0",
"022 c #F86838",
"023 c #F03808",
"024 c #F8E0D8",
"025 c #B01808",
"026 c #E8A8A0",
"027 c #E83010",
"028 c #F85018",
"029 c #E83008",
"030 c #F8D0C0",
"031 c #F86030",
"032 c #E02808",
"033 c #F83810",
"034 c #F0A8A0",
"035 c #D82808",
"036 c #F87038",
"037 c #F85828",
"038 c #E03010",
"039 c #F89070",
"040 c #F03810",
"041 c #F87048",
"042 c #F86028",
"043 c #C02008",
"044 c #F86840",
"045 c #A81010",
"046 c #F8B8A8",
"047 c #F83808",
"048 c #E83810",
"049 c #C81808",
"050 c #D02808",
"051 c #F8F0E8",
"052 c #B81810",
"053 c #E0A0A0",
"054 c #E82808",
"055 c #F88868",
"056 c #C01808",
"057 c #F8B8A0",
"058 c #B01810",
"059 c #E03008",
"060 c #E8A0A0",
"061 c #F8C0B0",
"062 c #D8A0A0",
"063 c #F87858",
"064 c #F8A890",
"065 c black",
"066 c black",
"067 c black",
"068 c black",
"069 c black",
"070 c black",
"071 c black",
"072 c black",
"073 c black",
"074 c black",
"075 c black",
"076 c black",
"077 c black",
"078 c black",
"079 c black",
"080 c black",
"081 c black",
"082 c black",
"083 c black",
"084 c black",
"085 c black",
"086 c black",
"087 c black",
"088 c black",
"089 c black",
"090 c black",
"091 c black",
"092 c black",
"093 c black",
"094 c black",
"095 c black",
"096 c black",
"097 c black",
"098 c black",
"099 c black",
"100 c black",
"101 c black",
"102 c black",
"103 c black",
"104 c black",
"105 c black",
"106 c black",
"107 c black",
"108 c black",
"109 c black",
"110 c black",
"111 c black",
"112 c black",
"113 c black",
"114 c black",
"115 c black",
"116 c black",
"117 c black",
"118 c black",
"119 c black",
"120 c black",
"121 c black",
"122 c black",
"123 c black",
"124 c black",
"125 c black",
"126 c black",
"127 c black",
"128 c black",
"129 c black",
"130 c black",
"131 c black",
"132 c black",
"133 c black",
"134 c black",
"135 c black",
"136 c black",
"137 c black",
"138 c black",
"139 c black",
"140 c black",
"141 c black",
"142 c black",
"143 c black",
"144 c black",
"145 c black",
"146 c black",
"147 c black",
"148 c black",
"149 c black",
"150 c black",
"151 c black",
"152 c black",
"153 c black",
"154 c black",
"155 c black",
"156 c black",
"157 c black",
"158 c black",
"159 c black",
"160 c black",
"161 c black",
"162 c black",
"163 c black",
"164 c black",
"165 c black",
"166 c black",
"167 c black",
"168 c black",
"169 c black",
"170 c black",
"171 c black",
"172 c black",
"173 c black",
"174 c black",
"175 c black",
"176 c black",
"177 c black",
"178 c black",
"179 c black",
"180 c black",
"181 c black",
"182 c black",
"183 c black",
"184 c black",
"185 c black",
"186 c black",
"187 c black",
"188 c black",
"189 c black",
"190 c black",
"191 c black",
"192 c black",
"193 c black",
"194 c black",
"195 c black",
"196 c black",
"197 c black",
"198 c black",
"199 c black",
"200 c black",
"201 c black",
"202 c black",
"203 c black",
"204 c black",
"205 c black",
"206 c black",
"207 c black",
"208 c black",
"209 c black",
"210 c black",
"211 c black",
"212 c black",
"213 c black",
"214 c black",
"215 c black",
"216 c black",
"217 c black",
"218 c black",
"219 c black",
"220 c black",
"221 c black",
"222 c black",
"223 c black",
"224 c black",
"225 c black",
"226 c black",
"227 c black",
"228 c black",
"229 c black",
"230 c black",
"231 c black",
"232 c black",
"233 c black",
"234 c black",
"235 c black",
"236 c black",
"237 c black",
"238 c black",
"239 c black",
"240 c black",
"241 c black",
"242 c black",
"243 c black",
"244 c black",
"245 c black",
"246 c black",
"247 c black",
"248 c black",
"249 c black",
"250 c black",
"251 c black",
"252 c black",
"253 c black",
"254 c black",
"255 c black",
"001001001001001001001001001001001001001001001001",
"001001001001034023023048027027038034001001001001",
"001001001034033006022010010031017054034001001001",
"001001034023006022022010017017016016032034001001",
"001034023006022006006010017017016016016035026001",
"001027022017017010017016002008008008008002000001",
"001038031009003046003015024005055003046008000001",
"001038017024018008003002003024019005018004043001",
"001035017064007039003016003007046018008008056001",
"001035017009007022018016015009063061004002014001",
"001050017002002002002002008004008004008008025001",
"001026020017016016002002002002008008008056062001",
"001001026020016002002002002008008008014062001001",
"001001001060049016002002002002002014053001001001",
"001001001001062014014014025025045062001001001001",
"001001001001001001001001001001001001001001001001"
};
