/* XPM */
char *cliconn_xpm[] = {
"16 16 92 3",
"000 c #580000",
"001 c None",
"002 c #0068C8",
"003 c gray94",
"004 c #D0A000",
"005 c #E8D070",
"006 c #D0D0D0",
"007 c #0040A8",
"008 c #F8F060",
"009 c #C8C8F8",
"010 c gray69",
"011 c #F8F890",
"012 c #D8D0B8",
"013 c #606060",
"014 c #E8C018",
"015 c #3868B8",
"016 c #A0A0A0",
"017 c gray91",
"018 c gray88",
"019 c #909090",
"020 c #F0E060",
"021 c #C0C0C0",
"022 c gray66",
"023 c #F8F068",
"024 c #D8D8D8",
"025 c #806000",
"026 c #F0F0F8",
"027 c #2060B8",
"028 c #B8A840",
"029 c #C8C8C8",
"030 c #2860B0",
"031 c #C0C0C8",
"032 c #A0A0A8",
"033 c #F8F878",
"034 c #C8D8F0",
"035 c #707078",
"036 c #F8F050",
"037 c #0860C0",
"038 c #B88800",
"039 c gray44",
"040 c #4890E0",
"041 c gray72",
"042 c #F8F880",
"043 c #D0D0D8",
"044 c gray47",
"045 c #0078E0",
"046 c #C0A038",
"047 c #808080",
"048 c #4870B0",
"049 c #C8C8C0",
"050 c #E8C848",
"051 c #48B0F8",
"052 c #D8C048",
"053 c #B0A8B0",
"054 c #684800",
"055 c #0070D8",
"056 c #D0B030",
"057 c #606068",
"058 c #C0D0F0",
"059 c #D0D8E0",
"060 c #906808",
"061 c #F8E050",
"062 c #B8B8C0",
"063 c #989898",
"064 c #888888",
"065 c #B8C0C8",
"066 c #0048B0",
"067 c #E0B818",
"068 c #3870C0",
"069 c #585858",
"070 c #3870B0",
"071 c #B8A848",
"072 c #686868",
"073 c #0058C0",
"074 c #707880",
"075 c #68A0E0",
"076 c #E8B000",
"077 c #F0D050",
"078 c #B8B098",
"079 c #784800",
"080 c #3060B0",
"081 c #886838",
"082 c #305898",
"083 c #E8F0F8",
"084 c #887038",
"085 c #F0D858",
"086 c #98B8F0",
"087 c #E0D088",
"088 c #7090B8",
"089 c #9090A0",
"090 c #785818",
"091 c black",
"001001001001001001001001001001001001001001001001",
"001010024018010021041022022001001001001001001001",
"001022006029003001003018029010016001001001001001",
"001064041018017017024029021010019044001001001001",
"001019021006029029024024006006029010044001001001",
"001064016022029018006006029021065041016072001001",
"001044044063018012087029021041050020078035001001",
"001035013010059067008085041010076036008046001001",
"001003013010003009009033077053084004061033014001",
"003003013003003040055009011052089081038005028001",
"058083003003075002045009056028019074079025060001",
"080070021088037002051047054090013069001000001001",
"048007015027073086003001001001001001001001001001",
"003030007066015009003003003003001001001001001001",
"003034007068047003003003001001001001001001001001",
"003003082035003003003001001001001001001001001001"
};
