/* XPM */
static char *clients_xpm[] = {
/* columns rows colors chars-per-pixel */
"16 16 68 1",
"g c #8A857E",
", c #82BFF0",
"N c #7D7A77",
"z c #C7C0BC",
"v c #84A4C3",
"F c #C0C0C0",
"0 c #D3CDC8",
"s c #C3C4C5",
"= c #5EAEF2",
"3 c #D6CEC9",
"1 c #4EA2EE",
"M c #8F8C8B",
"o c #BCBBBA",
"J c #686868",
"* c #7CC1F8",
"2 c #978E88",
"  c None",
"d c #B4BABC",
"K c #5D5D5D",
"f c #BAB9B8",
"S c #707070",
"A c #DADADA",
"b c #94ABC2",
"# c #D0CAC5",
"q c #4B8DCB",
"i c #B3B3B4",
"< c #71B3EB",
"Z c #F6F6F6",
"k c #CFC9C4",
"@ c #B2B2AF",
"8 c #3794E7",
"V c #7E7A76",
"c c #829AB3",
"D c #9E9E9E",
"C c #74706D",
"r c #308BE1",
"H c #777777",
"> c #82C1F1",
"; c #D4CDC8",
"y c #878C92",
"u c #BAB7B7",
": c #6BACE1",
"h c #CDC7C3",
"w c #3893E5",
"t c #127FE4",
"+ c #B6B5B4",
"% c #9DD9FF",
"O c #B9B6B6",
"l c #8F8B89",
"G c #AFAFAF",
"x c #D2CECB",
"m c #9FACBA",
"a c #929EAA",
"$ c #73BDF5",
"X c #B5BABC",
"B c #A8A3A0",
"e c #3A93E3",
"& c #9CD8FF",
"j c #8E8783",
"5 c #63ABEA",
"- c #918B83",
"6 c #66ACE7",
". c #CBC8C6",
"p c #AEB1B1",
"7 c #59A4E3",
"4 c #5C9CD5",
"n c #9BADBD",
"9 c #948F8C",
/* pixels */
"                ",
"    .XoO+@      ",
"    #$%&*=-     ",
"    ;:>,<12     ",
"    3456789     ",
"    0qwerty     ",
" .XouipasdfO+@  ",
" #$%&*=gh$%&*=- ",
" ;:>,<1jk:>,<12 ",
" 345678lz456789 ",
" 0qwerty0qwerty ",
" xcvbnmMxcvbnmM ",
"  NBVC   NBVC   ",
"  ZASD   ZASD   ",
"  FGHJK  FGHJK  ",
"                "
};
