/* XPM */
static char *client32_xpm[] = {
"32 32 256 3",
"000 c #080860",
"001 c #606048",
"002 c #101078",
"003 c #9898C8",
"004 c #303050",
"005 c #909090",
"006 c none",
"007 c #B8B8C8",
"008 c #484848",
"009 c #686888",
"010 c #383890",
"011 c #A0A0D8",
"012 c gray66",
"013 c #484070",
"014 c #D8D8D8",
"015 c gray19",
"016 c #605880",
"017 c #303070",
"018 c #7070B0",
"019 c #8080A8",
"020 c #484878",
"021 c #C0C0D8",
"022 c #484830",
"023 c #7070B8",
"024 c #404090",
"025 c #A8A8E0",
"026 c gray69",
"027 c #5050A0",
"028 c gray94",
"029 c #303028",
"030 c gray44",
"031 c #101068",
"032 c #9090D0",
"033 c #9090A8",
"034 c #C8C8C0",
"035 c #484838",
"036 c #686898",
"037 c #202080",
"038 c #8080C8",
"039 c #989898",
"040 c #4848A0",
"041 c gray88",
"042 c #383830",
"043 c #585888",
"044 c #202070",
"045 c #6868B0",
"046 c #7878B0",
"047 c #484880",
"048 c #D0D0E0",
"049 c gray22",
"050 c #6060B0",
"051 c #484898",
"052 c #A0A0B8",
"053 c #A8A8B8",
"054 c gray91",
"055 c #303020",
"056 c #606050",
"057 c #100860",
"058 c #6868B8",
"059 c #888088",
"060 c #C8C8D0",
"061 c #505040",
"062 c #6060A8",
"063 c #282878",
"064 c #9898B8",
"065 c #888888",
"066 c #505080",
"067 c #D8D8D0",
"068 c #585880",
"069 c #202078",
"070 c #8080C0",
"071 c #8080B0",
"072 c #C0C0C8",
"073 c #6060A0",
"074 c #303088",
"075 c #B0B0E8",
"076 c #9898A8",
"077 c #D8D8E0",
"078 c #282828",
"079 c #686870",
"080 c #181068",
"081 c #808098",
"082 c #D0D0D0",
"083 c gray25",
"084 c #606090",
"085 c #404098",
"086 c #9898D8",
"087 c #B0B0A0",
"088 c #5858A8",
"089 c #D0D0C8",
"090 c #707088",
"091 c #282880",
"092 c #484870",
"093 c #B0B0D8",
"094 c #484840",
"095 c #383888",
"096 c #A0A0E0",
"097 c #D8D8B0",
"098 c black",
"099 c #686848",
"100 c #181870",
"101 c #8888C8",
"102 c #787858",
"103 c #C8C8C8",
"104 c #686090",
"105 c #302870",
"106 c #8888D0",
"107 c #8888A8",
"108 c #484080",
"109 c #585898",
"110 c #282888",
"111 c #8078A8",
"112 c #C8C8E0",
"113 c #404088",
"114 c #A0A0C0",
"115 c #707058",
"116 c #807898",
"117 c #D0D0B8",
"118 c #707090",
"119 c #383878",
"120 c #9898C0",
"121 c #B0B098",
"122 c #505090",
"123 c #F0F0C0",
"124 c #606088",
"125 c #181878",
"126 c #B8B8E8",
"127 c gray72",
"128 c #383828",
"129 c #686850",
"130 c #101060",
"131 c #7878C0",
"132 c #808088",
"133 c #C0C0C0",
"134 c #5858A0",
"135 c #303078",
"136 c #A8A8D8",
"137 c #A0A090",
"138 c #504880",
"139 c #606078",
"140 c #282070",
"141 c #B0B0C8",
"142 c #7878A8",
"143 c #A8A8E8",
"144 c #9898B0",
"145 c #D0D0F0",
"146 c #686868",
"147 c #888898",
"148 c #7070A8",
"149 c #404078",
"150 c #A8A898",
"151 c #D0D8D8",
"152 c #686880",
"153 c #B8B8F0",
"154 c #B8B8B0",
"155 c #505060",
"156 c #181868",
"157 c #8080B8",
"158 c #888890",
"159 c #505098",
"160 c #909070",
"161 c #505088",
"162 c #585878",
"163 c #B8B8E0",
"164 c #8080A0",
"165 c #6868A8",
"166 c #383880",
"167 c #606080",
"168 c #A8A8B0",
"169 c #282820",
"170 c #585840",
"171 c #080870",
"172 c #B8B8C0",
"173 c #606098",
"174 c #989890",
"175 c #484890",
"176 c #202060",
"177 c #C0C0D0",
"178 c #A0A0A8",
"179 c #585868",
"180 c #787890",
"181 c #B8B8A8",
"182 c #B8B8D8",
"183 c #C0C0B8",
"184 c #282818",
"185 c #707050",
"186 c #909068",
"187 c #6868A0",
"188 c #404070",
"189 c #505078",
"190 c #707068",
"191 c #D0D0D8",
"192 c gray47",
"193 c #808090",
"194 c #7070A0",
"195 c #9898D0",
"196 c #A0A0A0",
"197 c #C0C0E8",
"198 c #B0B0A8",
"199 c #080868",
"200 c #B0B0B8",
"201 c #989888",
"202 c #787880",
"203 c #A8A8C8",
"204 c #8888A0",
"205 c #303090",
"206 c #E0E0D8",
"207 c #706888",
"208 c #B0B0D0",
"209 c #C0C0B0",
"210 c #707060",
"211 c #787898",
"212 c #303080",
"213 c #202020",
"214 c #B0B0C0",
"215 c #181818",
"216 c #808060",
"217 c #383870",
"218 c #A0A098",
"219 c #202068",
"220 c #888860",
"221 c #605888",
"222 c #888868",
"223 c #7878A0",
"224 c #202018",
"225 c #505038",
"226 c #101070",
"227 c #A8A8C0",
"228 c #B8B8D0",
"229 c #9890B0",
"230 c #686878",
"231 c #C8C8B0",
"232 c gray3",
"233 c #888880",
"234 c #282870",
"235 c #686858",
"236 c #8890A0",
"237 c #C0C0F0",
"238 c #C0C0A8",
"239 c #807880",
"240 c #383070",
"241 c #101008",
"242 c #181810",
"243 c #808058",
"244 c #282868",
"245 c #585858",
"246 c #A0A0B0",
"247 c #101010",
"248 c #404068",
"249 c black",
"250 c black",
"251 c black",
"252 c black",
"253 c black",
"254 c black",
"255 c black",
"006006006192079079079079079030030030030192030006006006006006006006006006006006006006006006006006",
"006006006082012082014014014014014014014014082034072034034034034082082082014014041041054054028006",
"006006006127005041124176234017119149020066043009090180081107107033064064052052053053026007082127",
"006006006026005041043024018062062062062109027122051024024095074017063037037100100100031095014026",
"006006006127005041009051019050088019019019019046046046046046046046018045036062062062027017014026",
"006006006072005014180017142032003046046046046046018018018018109010074063063063063037037037014026",
"006006006034005014107063090076148046046018018018018045027074091091091074074074091037171100014026",
"006006006082005082033037062018003070018018018018027010074010010010010010010010010063100031014026",
"006006006082005082052100046151060070018018045040024024040040040040040040040040040010037031082178",
"006006006014005034053031019034019018018050027027027027027027027027027088088088088024063031082034",
"006006006041005034141000073052018018050088088088088050050050050050050050050045050040074031082014",
"006006006054005072072031010027045045050045045045045045045045045018018018018018018088010031082014",
"006006006028039133060031010027045018018018018018018131131131131131131038038038038050024002060082",
"006006006054039026048100074027018038038038038038038038038101101101101101032032032018024002072082",
"006006006072178026014044091027131101101101101101032032032032032032086086086086011131027002007034",
"006006006083012012054063091088038003032086086086086086011011011011011025025025025101088100141082",
"015215241232065178054017063088038011011011011011011011011025025075075075075075197052052010052034",
"215098098098192005041076064052141112197025025011163048021007112145197126126126048082041107064034",
"008098098098030127036080000000000000066093093021084080000000000063052126003203066000000066064034",
"098232098232150100000000000000000000111141229057000000000000000000000033149178000000000053048034",
"098232098061066000000105090081081138012052000000000240207180057000000043009081000000063041041082",
"098098098220000000000084065084090043012100000000149139004179138000000108154063000000019041007026",
"098098098216057000000000044081068188081000000031236020155065020000000016026000000000137192087123",
"098098098169192000000000000000090059119000000104034072039209031000000039084000000020022098006006",
"098098098098042065043000000000119117000000000052034178065147000000000097031000000239215232006006",
"098215216042213008174066000000108183000000000065042245150031000000009039000000100160029015042022",
"098220066090005039090000000000079160000000000119005116031000000140231119000000017132132081005102",
"241087000000000000000000000013042042068000000000000000000000063039026000000000000000000000009022",
"078065044000000000000017079042098098001124031000000000000043026005090000000000000000000000174098",
"098213170115115129001042232232098098098215099065043000000044137078061001001001001099099115029098",
"098098098098098098098098098098098098098098098078137000000000016015098098098098098098098098098215",
"098098098098098098098098098098098098098098098098213001099115115215098098098098098098098098098006"
};
