/* XPM */
static char *client16_xpm[] = {
"16 16 256 3",
"000 c #080860",
"001 c #606078",
"002 c none",
"003 c #7878A8",
"004 c #303070",
"005 c #8080A8",
"006 c #484888",
"007 c #A8A8E0",
"008 c #202070",
"009 c #585890",
"010 c #5858A0",
"011 c #9090B0",
"012 c #282888",
"013 c #7070B0",
"014 c #B8B8E8",
"015 c #181868",
"016 c #787870",
"017 c gray66",
"018 c #484078",
"019 c #585888",
"020 c #8888C8",
"021 c #101070",
"022 c #606090",
"023 c #6060B0",
"024 c #A8A8B8",
"025 c #4848A0",
"026 c #7070A0",
"027 c #9898D0",
"028 c #585870",
"029 c #909088",
"030 c #282068",
"031 c #5050A0",
"032 c #B0B0D8",
"033 c #686888",
"034 c #9898B8",
"035 c #404090",
"036 c #6868B0",
"037 c #D8D8D8",
"038 c #101068",
"039 c #707088",
"040 c #808098",
"041 c #504880",
"042 c #7070A8",
"043 c #9898D8",
"044 c #202078",
"045 c #707098",
"046 c gray69",
"047 c #303090",
"048 c #8080C0",
"049 c #C8C8C8",
"050 c #606070",
"051 c #808078",
"052 c #505070",
"053 c #7878B0",
"054 c #9090D0",
"055 c gray72",
"056 c #303088",
"057 c #7878C0",
"058 c #C8C8D0",
"059 c #282870",
"060 c #787070",
"061 c #9898A0",
"062 c #484868",
"063 c #606098",
"064 c #8888B8",
"065 c #686880",
"066 c #C0C0C8",
"067 c #505098",
"068 c #A0A0E0",
"069 c #505078",
"070 c #808080",
"071 c #383878",
"072 c #505088",
"073 c #A8A8D0",
"074 c #787888",
"075 c #8080B0",
"076 c #404098",
"077 c gray44",
"078 c #8080A0",
"079 c #484878",
"080 c #6060A0",
"081 c #7070B8",
"082 c gray88",
"083 c #7878A0",
"084 c #8888B0",
"085 c #706878",
"086 c #C0C0C0",
"087 c #504878",
"088 c #A0A8B8",
"089 c #6060A8",
"090 c #606058",
"091 c #303080",
"092 c #707068",
"093 c #909090",
"094 c #404080",
"095 c #9090B8",
"096 c #706880",
"097 c #C0C0D0",
"098 c #202068",
"099 c #A0A0D8",
"100 c #707078",
"101 c #808088",
"102 c #6868B8",
"103 c #383870",
"104 c black",
"105 c black",
"106 c black",
"107 c black",
"108 c black",
"109 c black",
"110 c black",
"111 c black",
"112 c black",
"113 c black",
"114 c black",
"115 c black",
"116 c black",
"117 c black",
"118 c black",
"119 c black",
"120 c black",
"121 c black",
"122 c black",
"123 c black",
"124 c black",
"125 c black",
"126 c black",
"127 c black",
"128 c black",
"129 c black",
"130 c black",
"131 c black",
"132 c black",
"133 c black",
"134 c black",
"135 c black",
"136 c black",
"137 c black",
"138 c black",
"139 c black",
"140 c black",
"141 c black",
"142 c black",
"143 c black",
"144 c black",
"145 c black",
"146 c black",
"147 c black",
"148 c black",
"149 c black",
"150 c black",
"151 c black",
"152 c black",
"153 c black",
"154 c black",
"155 c black",
"156 c black",
"157 c black",
"158 c black",
"159 c black",
"160 c black",
"161 c black",
"162 c black",
"163 c black",
"164 c black",
"165 c black",
"166 c black",
"167 c black",
"168 c black",
"169 c black",
"170 c black",
"171 c black",
"172 c black",
"173 c black",
"174 c black",
"175 c black",
"176 c black",
"177 c black",
"178 c black",
"179 c black",
"180 c black",
"181 c black",
"182 c black",
"183 c black",
"184 c black",
"185 c black",
"186 c black",
"187 c black",
"188 c black",
"189 c black",
"190 c black",
"191 c black",
"192 c black",
"193 c black",
"194 c black",
"195 c black",
"196 c black",
"197 c black",
"198 c black",
"199 c black",
"200 c black",
"201 c black",
"202 c black",
"203 c black",
"204 c black",
"205 c black",
"206 c black",
"207 c black",
"208 c black",
"209 c black",
"210 c black",
"211 c black",
"212 c black",
"213 c black",
"214 c black",
"215 c black",
"216 c black",
"217 c black",
"218 c black",
"219 c black",
"220 c black",
"221 c black",
"222 c black",
"223 c black",
"224 c black",
"225 c black",
"226 c black",
"227 c black",
"228 c black",
"229 c black",
"230 c black",
"231 c black",
"232 c black",
"233 c black",
"234 c black",
"235 c black",
"236 c black",
"237 c black",
"238 c black",
"239 c black",
"240 c black",
"241 c black",
"242 c black",
"243 c black",
"244 c black",
"245 c black",
"246 c black",
"247 c black",
"248 c black",
"249 c black",
"250 c black",
"251 c black",
"252 c black",
"253 c black",
"254 c black",
"255 c black",
"002002066049002002002002002002002002002002002002",
"002002055041006072072009009009022022022022026002",
"002002055009003003003003003013063031031035056082",
"002002046009003005013013010047047047047012021037",
"002002046009088011013031025031025031025025021037",
"002002017022063013023023023023036036036023008082",
"002002017026035013057057057020048020020057012037",
"002002017005035020054054027027027068068054047049",
"002002029024026073007068032032014014014066011066",
"002077070008000000064005008000000003064015094049",
"002016015030074033005000071028015059039000034049",
"002051030000059001004008061029015018018021002002",
"002002090052000040000041051039000074000033002002",
"002004041008015077015021079000071039000004018046",
"002001052001029002060062015008029085028001085002",
"002002002002002002002051077033002002002002002002"
};
