/* XPM */
char *compact_xpm[] = {
"16 16 256 3",
"000 c gray44",
"001 c None",
"002 c #A0A0C0",
"003 c #F8F8F8",
"004 c #7070A0",
"005 c #D8D8D8",
"006 c #B8B8D0",
"007 c #E8E8F0",
"008 c #808080",
"009 c #A0A0C8",
"010 c #F8F8F0",
"011 c #8888B8",
"012 c #E0E0E8",
"013 c #D8D8E0",
"014 c gray94",
"015 c #686868",
"016 c #9090C0",
"017 c #909090",
"018 c #B0B0A8",
"019 c gray47",
"020 c #A8A8D0",
"021 c #7070A8",
"022 c gray88",
"023 c #D0D0D0",
"024 c #989890",
"025 c gray66",
"026 c #7878A8",
"027 c #C8C8C8",
"028 c #686860",
"029 c #A8A8C8",
"030 c #8080B8",
"031 c #A8A8D8",
"032 c #606060",
"033 c #9090A0",
"034 c gray69",
"035 c #707098",
"036 c #A0A0D0",
"037 c #7878B0",
"038 c #B0B0D8",
"039 c #686890",
"040 c #989898",
"041 c #C0C0C0",
"042 c #888880",
"043 c #9090C8",
"044 c #D0D0E0",
"045 c gray72",
"046 c #9898C0",
"047 c #8888A8",
"048 c #D0D0C8",
"049 c #808090",
"050 c #7878A0",
"051 c #B0B0C8",
"052 c #A0A0D8",
"053 c #9090B8",
"054 c #D0D0D8",
"055 c #585868",
"056 c #686898",
"057 c #C0C0B8",
"058 c #888888",
"059 c #9898D0",
"060 c #9898C8",
"061 c #C8C8C0",
"062 c #606088",
"063 c #6868A0",
"064 c #8080B0",
"065 c #C8C8D8",
"066 c #707088",
"067 c black",
"068 c black",
"069 c black",
"070 c black",
"071 c black",
"072 c black",
"073 c black",
"074 c black",
"075 c black",
"076 c black",
"077 c black",
"078 c black",
"079 c black",
"080 c black",
"081 c black",
"082 c black",
"083 c black",
"084 c black",
"085 c black",
"086 c black",
"087 c black",
"088 c black",
"089 c black",
"090 c black",
"091 c black",
"092 c black",
"093 c black",
"094 c black",
"095 c black",
"096 c black",
"097 c black",
"098 c black",
"099 c black",
"100 c black",
"101 c black",
"102 c black",
"103 c black",
"104 c black",
"105 c black",
"106 c black",
"107 c black",
"108 c black",
"109 c black",
"110 c black",
"111 c black",
"112 c black",
"113 c black",
"114 c black",
"115 c black",
"116 c black",
"117 c black",
"118 c black",
"119 c black",
"120 c black",
"121 c black",
"122 c black",
"123 c black",
"124 c black",
"125 c black",
"126 c black",
"127 c black",
"128 c black",
"129 c black",
"130 c black",
"131 c black",
"132 c black",
"133 c black",
"134 c black",
"135 c black",
"136 c black",
"137 c black",
"138 c black",
"139 c black",
"140 c black",
"141 c black",
"142 c black",
"143 c black",
"144 c black",
"145 c black",
"146 c black",
"147 c black",
"148 c black",
"149 c black",
"150 c black",
"151 c black",
"152 c black",
"153 c black",
"154 c black",
"155 c black",
"156 c black",
"157 c black",
"158 c black",
"159 c black",
"160 c black",
"161 c black",
"162 c black",
"163 c black",
"164 c black",
"165 c black",
"166 c black",
"167 c black",
"168 c black",
"169 c black",
"170 c black",
"171 c black",
"172 c black",
"173 c black",
"174 c black",
"175 c black",
"176 c black",
"177 c black",
"178 c black",
"179 c black",
"180 c black",
"181 c black",
"182 c black",
"183 c black",
"184 c black",
"185 c black",
"186 c black",
"187 c black",
"188 c black",
"189 c black",
"190 c black",
"191 c black",
"192 c black",
"193 c black",
"194 c black",
"195 c black",
"196 c black",
"197 c black",
"198 c black",
"199 c black",
"200 c black",
"201 c black",
"202 c black",
"203 c black",
"204 c black",
"205 c black",
"206 c black",
"207 c black",
"208 c black",
"209 c black",
"210 c black",
"211 c black",
"212 c black",
"213 c black",
"214 c black",
"215 c black",
"216 c black",
"217 c black",
"218 c black",
"219 c black",
"220 c black",
"221 c black",
"222 c black",
"223 c black",
"224 c black",
"225 c black",
"226 c black",
"227 c black",
"228 c black",
"229 c black",
"230 c black",
"231 c black",
"232 c black",
"233 c black",
"234 c black",
"235 c black",
"236 c black",
"237 c black",
"238 c black",
"239 c black",
"240 c black",
"241 c black",
"242 c black",
"243 c black",
"244 c black",
"245 c black",
"246 c black",
"247 c black",
"248 c black",
"249 c black",
"250 c black",
"251 c black",
"252 c black",
"253 c black",
"254 c black",
"255 c black",
"001001001001001001001001001001001001001001001001",
"001001001001038016011016016046016020001001001001",
"001001001001002030026004004004026051001001001001",
"001001001012005065006018042020002002046012001001",
"001001009020020036009002026030026026004023001001",
"001001038016011026004016004047039059056005001001",
"001001020016046001003024015023023025066041001001",
"001001009016002003003001005023027045025000001001",
"001001002016039041027018024019000015015032001001",
"001001002016004008042019015032019055062005001001",
"001001002016016045024018023012012027049023001001",
"001001002011030003014001012005005041025008001001",
"001001002011039023014012045024019000015008001001",
"001001044016033042025008019000008024041001001001",
"001001001001001017008017018005001001001001001001",
"001001001001001001001001001001001001001001001001"
};
