/* XPM */
char *compile_xpm[] = {
"16 16 256 3",
"000 c #308828",
"001 c #D0D0E8",
"002 c None",
"003 c #D0D8E8",
"004 c #9898B8",
"005 c #E0E0F0",
"006 c #C8C8D8",
"007 c #C8C8E0",
"008 c #7878A8",
"009 c #C0C0E0",
"010 c #D8D8E0",
"011 c #F8F8F8",
"012 c #A8A8B8",
"013 c #40A028",
"014 c #D8D8E8",
"015 c #A8A8C8",
"016 c #A0A0C0",
"017 c #B8B8E0",
"018 c gray88",
"019 c #F0F0F8",
"020 c #D0D0D8",
"021 c #308830",
"022 c #B8B8D8",
"023 c #7878A0",
"024 c gray94",
"025 c #A8A8D0",
"026 c #40A830",
"027 c #9898C0",
"028 c #8888B0",
"029 c #E8E8F0",
"030 c #C0C0D0",
"031 c #388838",
"032 c #8080B0",
"033 c #606090",
"034 c #C0C0D8",
"035 c #50B828",
"036 c #A0A0C8",
"037 c #98D090",
"038 c #B8B8C8",
"039 c #409040",
"040 c #A0A0B8",
"041 c #7070A8",
"042 c #B8B8D0",
"043 c #90E860",
"044 c #9090C0",
"045 c #A0C8A0",
"046 c #E0E0E8",
"047 c #D0D0E0",
"048 c #505080",
"049 c #A0A0D0",
"050 c #7070A0",
"051 c #70C840",
"052 c #A8A8C0",
"053 c #C0C0C8",
"054 c #288828",
"055 c #787898",
"056 c #409838",
"057 c #8888A8",
"058 c #388840",
"059 c #68D030",
"060 c #78C060",
"061 c #C8C8D0",
"062 c #50B820",
"063 c #585888",
"064 c #B0B0C0",
"065 c #88E848",
"066 c #90B098",
"067 c #90C090",
"068 c #589860",
"069 c #B0B0D0",
"070 c #68C048",
"071 c #308028",
"072 c #58C038",
"073 c #408840",
"074 c #686890",
"075 c #90C880",
"076 c #288028",
"077 c #70B068",
"078 c #309030",
"079 c #7878B0",
"080 c #80E848",
"081 c #A8C8B0",
"082 c black",
"083 c black",
"084 c black",
"085 c black",
"086 c black",
"087 c black",
"088 c black",
"089 c black",
"090 c black",
"091 c black",
"092 c black",
"093 c black",
"094 c black",
"095 c black",
"096 c black",
"097 c black",
"098 c black",
"099 c black",
"100 c black",
"101 c black",
"102 c black",
"103 c black",
"104 c black",
"105 c black",
"106 c black",
"107 c black",
"108 c black",
"109 c black",
"110 c black",
"111 c black",
"112 c black",
"113 c black",
"114 c black",
"115 c black",
"116 c black",
"117 c black",
"118 c black",
"119 c black",
"120 c black",
"121 c black",
"122 c black",
"123 c black",
"124 c black",
"125 c black",
"126 c black",
"127 c black",
"128 c black",
"129 c black",
"130 c black",
"131 c black",
"132 c black",
"133 c black",
"134 c black",
"135 c black",
"136 c black",
"137 c black",
"138 c black",
"139 c black",
"140 c black",
"141 c black",
"142 c black",
"143 c black",
"144 c black",
"145 c black",
"146 c black",
"147 c black",
"148 c black",
"149 c black",
"150 c black",
"151 c black",
"152 c black",
"153 c black",
"154 c black",
"155 c black",
"156 c black",
"157 c black",
"158 c black",
"159 c black",
"160 c black",
"161 c black",
"162 c black",
"163 c black",
"164 c black",
"165 c black",
"166 c black",
"167 c black",
"168 c black",
"169 c black",
"170 c black",
"171 c black",
"172 c black",
"173 c black",
"174 c black",
"175 c black",
"176 c black",
"177 c black",
"178 c black",
"179 c black",
"180 c black",
"181 c black",
"182 c black",
"183 c black",
"184 c black",
"185 c black",
"186 c black",
"187 c black",
"188 c black",
"189 c black",
"190 c black",
"191 c black",
"192 c black",
"193 c black",
"194 c black",
"195 c black",
"196 c black",
"197 c black",
"198 c black",
"199 c black",
"200 c black",
"201 c black",
"202 c black",
"203 c black",
"204 c black",
"205 c black",
"206 c black",
"207 c black",
"208 c black",
"209 c black",
"210 c black",
"211 c black",
"212 c black",
"213 c black",
"214 c black",
"215 c black",
"216 c black",
"217 c black",
"218 c black",
"219 c black",
"220 c black",
"221 c black",
"222 c black",
"223 c black",
"224 c black",
"225 c black",
"226 c black",
"227 c black",
"228 c black",
"229 c black",
"230 c black",
"231 c black",
"232 c black",
"233 c black",
"234 c black",
"235 c black",
"236 c black",
"237 c black",
"238 c black",
"239 c black",
"240 c black",
"241 c black",
"242 c black",
"243 c black",
"244 c black",
"245 c black",
"246 c black",
"247 c black",
"248 c black",
"249 c black",
"250 c black",
"251 c black",
"252 c black",
"253 c black",
"254 c black",
"255 c black",
"002002002002002002002002002002002002002002002002",
"002002002002002009016009002022016018002002002002",
"002002002002002015019016004015009016002002002002",
"002002017015016015005001006001009004006006002002",
"002002015011019001006010010006009004004008010002",
"002002015017001010005017006001006009006044012002",
"002006004069006005008028016004006009016063006002",
"002032010005006005008002019005005009015074030002",
"002028001001006001004022005031073081001017033002",
"002012041041001006001009002031037077068003038002",
"002002020008001006006009005071075060035056066002",
"002002004009017036009009010076070035059065013002",
"002002006008033033008009001054051059080026045002",
"002002002030064002023036001000043072039018002002",
"002002002002002002016048006000078067002002002002",
"002002002002002002002002002002002002002002002002"
};
