/* XPM */
static char * consist_xpm[] = {
"16 16 130 2",
"  	c None",
". 	c #7F7FB3",
"+ 	c #9090BF",
"@ 	c #9494C1",
"# 	c #9191BE",
"$ 	c #8B8BBA",
"% 	c #8383B1",
"& 	c #7979A8",
"* 	c #606094",
"= 	c #A5A5CE",
"- 	c #FDFDFF",
"; 	c #F1F1FF",
"> 	c #E8E8FF",
", 	c #E0E0FB",
"' 	c #DADAF9",
") 	c #D5D5F7",
"! 	c #C4C4E9",
"~ 	c #ACACD7",
"{ 	c #48487C",
"] 	c #A6A6D3",
"^ 	c #DBDBFF",
"/ 	c #CACAF0",
"( 	c #B7B7E3",
"_ 	c #B4B4E1",
": 	c #A3A3D2",
"< 	c #8F8FBE",
"[ 	c #7E7EAE",
"} 	c #4F4F83",
"| 	c #37376A",
"1 	c #A0A0CC",
"2 	c #DEDEFF",
"3 	c #C0C0ED",
"4 	c #A6A6DB",
"5 	c #A5A5D8",
"6 	c #9696CA",
"7 	c #8686BA",
"8 	c #7575A8",
"9 	c #555587",
"0 	c #3A3A6C",
"a 	c #A7A7D0",
"b 	c #E8E8F9",
"c 	c #DADAF0",
"d 	c #D2D2EA",
"e 	c #CBCBE8",
"f 	c #B5B5DB",
"g 	c #A2A2CF",
"h 	c #B5B5D5",
"i 	c #CBCBDF",
"j 	c #8C8CAC",
"k 	c #9D9DCD",
"l 	c #C0C0EE",
"m 	c #A8A8DC",
"n 	c #A5A5D9",
"o 	c #9797CA",
"p 	c #BFBFDA",
"q 	c #CEB166",
"r 	c #D5B34E",
"s 	c #C5A757",
"t 	c #A4A4CC",
"u 	c #E1E1F9",
"v 	c #B6B6E0",
"w 	c #A5A5DA",
"x 	c #B0B0D7",
"y 	c #D1BE91",
"z 	c #DCB94D",
"A 	c #FEF1A5",
"B 	c #D8B644",
"C 	c #9B9BCB",
"D 	c #E3E3FF",
"E 	c #DEDEF6",
"F 	c #CACAE7",
"G 	c #C4C4E3",
"H 	c #DDDDEE",
"I 	c #DBB751",
"J 	c #DCCF89",
"K 	c #302C1A",
"L 	c #E7DA64",
"M 	c #CF9F11",
"N 	c #A0A0C8",
"O 	c #DADAF7",
"P 	c #BEBEEB",
"Q 	c #A7A7DB",
"R 	c #C0C0E4",
"S 	c #D6BD80",
"T 	c #E0BF4F",
"U 	c #DECE6C",
"V 	c #000000",
"W 	c #EEE044",
"X 	c #E0C21F",
"Y 	c #9B9BC9",
"Z 	c #EFEFFF",
"` 	c #CDCDE9",
" .	c #DFDFEE",
"..	c #D6B044",
"+.	c #F0E084",
"@.	c #FFED60",
"#.	c #FFF62D",
"$.	c #FAF412",
"%.	c #CCA501",
"&.	c #8383BA",
"*.	c #C1C1EC",
"=.	c #CFCFF6",
"-.	c #D1D1EE",
";.	c #D2B367",
">.	c #E2C65F",
",.	c #EDDC6B",
"'.	c #F9E94C",
").	c #D5C93A",
"!.	c #FFF710",
"~.	c #FCF800",
"{.	c #FEFD00",
"].	c #BA8600",
"^.	c #7171A4",
"/.	c #D0D0E1",
"(.	c #D0AD46",
"_.	c #F3E48E",
":.	c #F2E263",
"<.	c #E7D93F",
"[.	c #FDF803",
"}.	c #FFFF00",
"|.	c #CFAC00",
"1.	c #C69A21",
"2.	c #D1AE3C",
"3.	c #D1AA2A",
"4.	c #D1AE1C",
"5.	c #DBB90D",
"6.	c #D3B400",
"7.	c #D2B300",
"8.	c #D1B500",
"9.	c #BA8E00",
"                                ",
"                                ",
"      . + @ # $ % & *           ",
"    = - ; > , ' ) ! ~ {         ",
"    ] ^ / ( _ : < [ } |         ",
"    1 2 3 4 5 6 7 8 9 0         ",
"    a b c d e f g h i j         ",
"    k 2 l m n o p q r s         ",
"    t u v n w x y z A B         ",
"    C D E F G H I J K L M       ",
"    N O P Q R S T U V W X       ",
"    Y Z ` f  ...+.@.V #.$.%.    ",
"    &.*.=.-.;.>.,.'.).!.~.{.].  ",
"        ^./.(._.:.<.V [.}.}.|.  ",
"            1.2.3.4.5.6.7.8.9.  ",
"                                "};
