/* XPM */
static char * cre_srv_xpm[] = {
"16 16 112 2",
"  	c None",
". 	c #8C8CC3",
"+ 	c #7F7FB3",
"@ 	c #9090BF",
"# 	c #9494C1",
"$ 	c #9191BE",
"% 	c #8B8BBA",
"& 	c #8383B1",
"* 	c #7979A8",
"= 	c #606094",
"- 	c #4F4F82",
"; 	c #A5A5CE",
"> 	c #F1F1FF",
", 	c #E8E8FF",
"' 	c #E0E0FB",
") 	c #DADAF9",
"! 	c #D5D5F7",
"~ 	c #C4C4E9",
"{ 	c #ACACD7",
"] 	c #48487C",
"^ 	c #A6A6D3",
"/ 	c #DBDBFF",
"( 	c #CACAF0",
"_ 	c #B7B7E3",
": 	c #B4B4E1",
"< 	c #A3A3D2",
"[ 	c #8F8FBE",
"} 	c #7E7EAE",
"| 	c #4F4F83",
"1 	c #37376A",
"2 	c #A0A0CC",
"3 	c #DEDEFF",
"4 	c #C0C0ED",
"5 	c #A6A6DB",
"6 	c #A5A5D8",
"7 	c #9696CA",
"8 	c #8686BA",
"9 	c #7575A8",
"0 	c #555587",
"a 	c #3A3A6C",
"b 	c #A7A7D0",
"c 	c #E8E8F9",
"d 	c #DADAF0",
"e 	c #D2D2EA",
"f 	c #CBCBE8",
"g 	c #B5B5DB",
"h 	c #A2A2CF",
"i 	c #8B8BBD",
"j 	c #7777AA",
"k 	c #3F3F74",
"l 	c #CBCBDE",
"m 	c #C0C0EE",
"n 	c #A8A8DC",
"o 	c #A5A5D9",
"p 	c #9797CA",
"q 	c #8787BA",
"r 	c #545487",
"s 	c #313164",
"t 	c #009300",
"u 	c #009100",
"v 	c #008D00",
"w 	c #A5A5DA",
"x 	c #8484B7",
"y 	c #7171A4",
"z 	c #444478",
"A 	c #008F00",
"B 	c #91F75E",
"C 	c #008900",
"D 	c #DEDEF6",
"E 	c #CACAE7",
"F 	c #C4C4E3",
"G 	c #B2B2D8",
"H 	c #A4A4D1",
"I 	c #8E8EC1",
"J 	c #565689",
"K 	c #313163",
"L 	c #008B00",
"M 	c #8DF35A",
"N 	c #008300",
"O 	c #008100",
"P 	c #007D00",
"Q 	c #8484B8",
"R 	c #7171A5",
"S 	c #5E5E91",
"T 	c #464679",
"U 	c #86EC53",
"V 	c #7BE148",
"W 	c #78DE45",
"X 	c #007800",
"Y 	c #A1A1D0",
"Z 	c #8F8FBF",
"` 	c #7F7FB2",
" .	c #6D6DA0",
"..	c #323265",
"+.	c #008700",
"@.	c #008500",
"#.	c #007A00",
"$.	c #007500",
"%.	c #007000",
"&.	c #A4A4D3",
"*.	c #9595C4",
"=.	c #7A7AAD",
"-.	c #4C4C80",
";.	c #35356E",
">.	c #77DD44",
",.	c #007200",
"'.	c #7878AB",
").	c #7272A5",
"!.	c #606093",
"~.	c #3A3A6F",
"{.	c #33336B",
"].	c #006D00",
"                                ",
"      . + @ # $ % & * = -       ",
"      ;   > , ' ) ! ~ { ]       ",
"      ^ / ( _ : < [ } | 1       ",
"      2 3 4 5 6 7 8 9 0 a       ",
"      b c d e f g h i j k       ",
"      l 3 m n o p q 9 r s       ",
"    t u v l o w p x y 9 z       ",
"    A B C D E F G H I J K       ",
"u v L M N O P l 7 Q R S T       ",
"v B M U V W X l Y Z `  ...      ",
"+.@.O V #.$.%.l &.*.=.-.;.      ",
"    P >.,.l l '.).!.~.{.        ",
"    $.%.].                      ",
"                                ",
"                                "};
