/* XPM */
char *cut_xpm[] = {
"16 16 64 1",
" 	c None",
".	c #5978BE",
"X	c #C5C7CA",
"o	c #92A6D3",
"O	c #4F71BB",
"+	c #5777BD",
"@	c #7991C8",
"#	c #4468B8",
"$	c #4B6EBA",
"%	c #869CCD",
"&	c #5D7DC3",
"*	c #758DC6",
"=	c #3A61B5",
"-	c #3E64B6",
";	c #B7C1D3",
":	c #476BBA",
">	c #6688CC",
",	c #2F58B2",
"<	c #315BB3",
"1	c #C4C4C6",
"2	c #8CA1CC",
"3	c #3D64B7",
"4	c #4E75C5",
"5	c #325BB4",
"6	c #3762BA",
"7	c #BABCC2",
"8	c #B7BBC5",
"9	c #364975",
"0	c #C7C9CC",
"q	c #C3C5C9",
"w	c #577CC6",
"e	c #192C58",
"r	c #406CC0",
"t	c #3F62AE",
"y	c #192D58",
"u	c #BABDC4",
"i	c #273D6E",
"p	c #A0A9BF",
"a	c #2D5CB8",
"s	c #2655B5",
"d	c #3E64AC",
"f	c #C2C4CA",
"g	c #42588E",
"h	c #C0C2C7",
"j	c #B9BCC4",
"k	c #B3B8C3",
"l	c #B6BBC6",
"z	c #465E95",
"x	c #BBBEC5",
"c	c #C3C3C4",
"v	c #C3C3C3",
"b	c #C1C2C6",
"n	c #334673",
"m	c #294586",
"M	c #6678A0",
"N	c #C2C4C9",
"B	c #304B85",
"V	c #C3C4C6",
"C	c #C4C5C6",
"Z	c #3C558C",
"A	c #C1C1C1",
"S	c #BFC2CA",
"D	c #41588E",
"F	c #425A8F",
"                ",
"       .X       ",
"       .o       ",
"       O+       ",
" .@    #$       ",
" %.&*  =-       ",
"  ;.:> ,<       ",
"   1234567890   ",
"     qwertyuip  ",
"      1asdf  gh ",
"     jekely  zx ",
"     ec evbnmMN ",
"     e  BV uuu  ",
"     eC ZA      ",
"     SDFx       ",
"                "};
