/* XPM */
char * dad_element_xpm[] = {
"16 16 87 1",
" 	c None",
".	c #0037AF",
"+	c #0031B5",
"@	c #0031B4",
"#	c #0034A7",
"$	c #0029A9",
"%	c #002BAB",
"&	c #0941B2",
"*	c #537BC1",
"=	c #3364B5",
"-	c #2159B3",
";	c #1E5EB8",
">	c #093395",
",	c #0037B1",
"'	c #002DB0",
")	c #002DB1",
"!	c #002DA3",
"~	c #0030A6",
"{	c #003AAE",
"]	c #2B4CA3",
"^	c #82B3E5",
"/	c #3987D4",
"(	c #1B7ED9",
"_	c #1890ED",
":	c #08379A",
"<	c #1B49A5",
"[	c #4B75BC",
"}	c #2C61B3",
"|	c #1E58B2",
"1	c #1E5DB8",
"2	c #002A96",
"3	c #000061",
"4	c #292476",
"5	c #1D388E",
"6	c #60ADEE",
"7	c #1884E2",
"8	c #0A88EB",
"9	c #059CFF",
"0	c #033399",
"a	c #3057A9",
"b	c #76ACE2",
"c	c #3283D5",
"d	c #197EDB",
"e	c #1893EF",
"f	c #213E9D",
"g	c #656DB2",
"h	c #000060",
"i	c #03239B",
"j	c #1A42B0",
"k	c #0431A5",
"l	c #012BA3",
"m	c #002EA6",
"n	c #000F86",
"o	c #264BA3",
"p	c #51A3EA",
"q	c #1583E2",
"r	c #088AEC",
"s	c #059FFF",
"t	c #0C2585",
"u	c #0D289B",
"v	c #143FAE",
"w	c #958FD2",
"x	c #00077D",
"y	c #009300",
"z	c #009100",
"A	c #008D00",
"B	c #000080",
"C	c #008F00",
"D	c #91F75E",
"E	c #008900",
"F	c #008B00",
"G	c #8DF35A",
"H	c #008300",
"I	c #008100",
"J	c #007D00",
"K	c #86EC53",
"L	c #7BE148",
"M	c #78DE45",
"N	c #007800",
"O	c #008700",
"P	c #008500",
"Q	c #007A00",
"R	c #007500",
"S	c #007000",
"T	c #77DD44",
"U	c #007200",
"V	c #006D00",
"                ",
"         .+@#$% ",
"         &*=-;> ",
" ,')!~{  ]^/(_: ",
" <[}|1234567890 ",
" abcdefghijklmn ",
" opqrst         ",
" uvwwwx         ",
"   yzA    BBBBB ",
"   CDE    B     ",
" zAFGHIJ  B     ",
" ADGKLMN  BBBB  ",
" OPILQRS  B     ",
"   JTU    B     ",
"   RSV    BBBBB ",
"                "};
