/* XPM */
char * dad_delete_xpm[] = {
"16 16 134 2",
"  	c None",
". 	c #0037AF",
"+ 	c #0031B5",
"@ 	c #0031B4",
"# 	c #0034A7",
"$ 	c #0029A9",
"% 	c #002BAB",
"& 	c #0941B2",
"* 	c #537BC1",
"= 	c #3364B5",
"- 	c #2159B3",
"; 	c #1E5EB8",
"> 	c #093395",
", 	c #0037B1",
"' 	c #002DB0",
") 	c #002DB1",
"! 	c #002DA3",
"~ 	c #0030A6",
"{ 	c #003AAE",
"] 	c #2B4CA3",
"^ 	c #82B3E5",
"/ 	c #3987D4",
"( 	c #1B7ED9",
"_ 	c #1890ED",
": 	c #08379A",
"< 	c #1B49A5",
"[ 	c #4B75BC",
"} 	c #2C61B3",
"| 	c #1E58B2",
"1 	c #1E5DB8",
"2 	c #002A96",
"3 	c #000061",
"4 	c #292476",
"5 	c #1D388E",
"6 	c #60ADEE",
"7 	c #1884E2",
"8 	c #0A88EB",
"9 	c #059CFF",
"0 	c #033399",
"a 	c #3057A9",
"b 	c #76ACE2",
"c 	c #3283D5",
"d 	c #197EDB",
"e 	c #1893EF",
"f 	c #213E9D",
"g 	c #656DB2",
"h 	c #000060",
"i 	c #03239B",
"j 	c #1A42B0",
"k 	c #0431A5",
"l 	c #012BA3",
"m 	c #002EA6",
"n 	c #000F86",
"o 	c #264BA3",
"p 	c #6CB1ED",
"q 	c #89C0F0",
"r 	c #088AEC",
"s 	c #2FAFFF",
"t 	c #8C98C5",
"u 	c #8B88B6",
"v 	c #3B51AE",
"w 	c #AD85A4",
"x 	c #B3333B",
"y 	c #B3262B",
"z 	c #D3A0AD",
"A 	c #CDCDE5",
"B 	c #BF120A",
"C 	c #FF6D39",
"D 	c #BD4D4D",
"E 	c #AB1917",
"F 	c #FF6D2B",
"G 	c #BA2322",
"H 	c #BCBCD7",
"I 	c #003EB4",
"J 	c #0033AE",
"K 	c #002FA8",
"L 	c #002BA3",
"M 	c #0029AA",
"N 	c #9E0000",
"O 	c #FF7D3F",
"P 	c #DD3E1B",
"Q 	c #FF6129",
"R 	c #C31D0C",
"S 	c #F2D9DA",
"T 	c #49498B",
"U 	c #1246A6",
"V 	c #416FBA",
"W 	c #3164B6",
"X 	c #295DB3",
"Y 	c #265FB5",
"Z 	c #0A3698",
"` 	c #B95252",
" .	c #BF2210",
"..	c #FF662D",
"+.	c #F4491C",
"@.	c #B73D3D",
"#.	c #2B4CA0",
"$.	c #7BAFE4",
"%.	c #3182D4",
"&.	c #177BD7",
"*.	c #158FEC",
"=.	c #07359A",
"-.	c #C40000",
";.	c #C5220F",
">.	c #FF672C",
",.	c #FF5D25",
"'.	c #FF5B20",
").	c #BB180A",
"!.	c #E59E9E",
"~.	c #173590",
"{.	c #5EAEF0",
"].	c #1787E4",
"^.	c #0A8BEE",
"/.	c #039DFF",
"(.	c #03349A",
"_.	c #AD0302",
":.	c #FF722C",
"<.	c #D43314",
"[.	c #C12812",
"}.	c #FF4E17",
"|.	c #FF5C15",
"1.	c #BC1813",
"2.	c #0020A1",
"3.	c #1131A2",
"4.	c #001F96",
"5.	c #001A91",
"6.	c #001C93",
"7.	c #00077E",
"8.	c #C30502",
"9.	c #AE0F04",
"0.	c #A20000",
"a.	c #AE0200",
"b.	c #B50501",
"c.	c #C80000",
"                                ",
"                                ",
"                  . + @ # $ %   ",
"                  & * = - ; >   ",
"  , ' ) ! ~ {     ] ^ / ( _ :   ",
"  < [ } | 1 2 3 4 5 6 7 8 9 0   ",
"  a b c d e f g h i j k l m n   ",
"  o p q r s t u                 ",
"  v w x q q y z A               ",
"    B C D E F G H I J J K L M   ",
"    N O P Q R S T U V W X Y Z   ",
"    `  ...+.@.    #.$.%.&.*.=.  ",
"  -.;.>.,.'.).!.  ~.{.].^./.(.  ",
"  _.:.<.[.}.|.1.  2.3.4.5.6.7.  ",
"  8.9.0.  a.b.c.                ",
"                                "};
