/* XPM */
char * dad_edit_xpm[] = {
"16 16 127 2",
"  	c None",
". 	c #0037AF",
"+ 	c #0031B5",
"@ 	c #0031B4",
"# 	c #0034A7",
"$ 	c #0029A9",
"% 	c #002BAB",
"& 	c #0941B2",
"* 	c #537BC1",
"= 	c #3364B5",
"- 	c #2159B3",
"; 	c #1E5EB8",
"> 	c #093395",
", 	c #0037B1",
"' 	c #002DB0",
") 	c #002DB1",
"! 	c #002DA3",
"~ 	c #0030A6",
"{ 	c #003AAE",
"] 	c #2B4CA3",
"^ 	c #82B3E5",
"/ 	c #3987D4",
"( 	c #1B7ED9",
"_ 	c #1890ED",
": 	c #08379A",
"< 	c #1B49A5",
"[ 	c #4B75BC",
"} 	c #2C61B3",
"| 	c #1E58B2",
"1 	c #1E5DB8",
"2 	c #002A96",
"3 	c #000061",
"4 	c #292476",
"5 	c #1D388E",
"6 	c #60ADEE",
"7 	c #1884E2",
"8 	c #0A88EB",
"9 	c #059CFF",
"0 	c #033399",
"a 	c #3057A9",
"b 	c #76ACE2",
"c 	c #3283D5",
"d 	c #197EDB",
"e 	c #1893EF",
"f 	c #213E9D",
"g 	c #CE4939",
"h 	c #B53839",
"i 	c #DECBCE",
"j 	c #1A42B0",
"k 	c #0431A5",
"l 	c #012BA3",
"m 	c #002EA6",
"n 	c #000F86",
"o 	c #264BA3",
"p 	c #51A3EA",
"q 	c #1583E2",
"r 	c #088AEC",
"s 	c #059FFF",
"t 	c #DE9A8C",
"u 	c #FF7142",
"v 	c #DE4929",
"w 	c #AD2829",
"x 	c #0D289B",
"y 	c #143FAE",
"z 	c #0431A6",
"A 	c #002EA4",
"B 	c #A5C39C",
"C 	c #D6D3CE",
"D 	c #F7927B",
"E 	c #DE3821",
"F 	c #ADEB94",
"G 	c #8CFB52",
"H 	c #B5BACE",
"I 	c #8C696B",
"J 	c #003EB4",
"K 	c #0033AE",
"L 	c #002FA8",
"M 	c #002BA3",
"N 	c #0029AA",
"O 	c #BDEBAD",
"P 	c #8CF35A",
"Q 	c #94FB63",
"R 	c #6BDB42",
"S 	c #398231",
"T 	c #1246A6",
"U 	c #416FBA",
"V 	c #3164B6",
"W 	c #295DB3",
"X 	c #265FB5",
"Y 	c #0A3698",
"Z 	c #DEFBD6",
"` 	c #84EB52",
" .	c #9CFB6B",
"..	c #73DB52",
"+.	c #399A21",
"@.	c #B5DBB5",
"#.	c #2B4CA0",
"$.	c #7BAFE4",
"%.	c #3182D4",
"&.	c #177BD7",
"*.	c #158FEC",
"=.	c #07359A",
"-.	c #7BE352",
";.	c #39A229",
">.	c #94C39C",
",.	c #173590",
"'.	c #5EAEF0",
").	c #1787E4",
"!.	c #0A8BEE",
"~.	c #039DFF",
"{.	c #03349A",
"].	c #A5D39C",
"^.	c #42AA29",
"/.	c #84BA84",
"(.	c #0020A1",
"_.	c #1131A2",
":.	c #001F96",
"<.	c #001A91",
"[.	c #001C93",
"}.	c #00077E",
"|.	c #CEBAAD",
"1.	c #52B231",
"2.	c #42B229",
"3.	c #6BB273",
"4.	c #73696B",
"5.	c #948A94",
"6.	c #BDCBC6",
"                                ",
"                  . + @ # $ %   ",
"                  & * = - ; >   ",
"  , ' ) ! ~ {     ] ^ / ( _ :   ",
"  < [ } | 1 2 3 4 5 6 7 8 9 0   ",
"  a b c d e f g h i j k l m n   ",
"  o p q r s t u v w             ",
"  x y z A B C D E h             ",
"        F G B H I J K K L M N   ",
"      O P Q R S H T U V W X Y   ",
"    Z `  ...+.@.  #.$.%.&.*.=.  ",
"  Z -. .-.;.>.    ,.'.).!.~.{.  ",
"  ]. .` ^./.      (._.:.<.[.}.  ",
"  |.1.2.3.                      ",
"  4.5.6.                        ",
"                                "};
