/* XPM */
char * data_import_xpm[] = {
"16 16 56 1",
" 	c None",
".	c #0099FF",
"+	c #99CCFF",
"@	c #3DADFF",
"#	c #0085EB",
"$	c #0091F7",
"%	c #EAEAFF",
"&	c #109A18",
"*	c #6BA26B",
"=	c #7BAA7B",
"-	c #DBDBDB",
";	c #29A229",
">	c #089A08",
",	c #D8D8DB",
"'	c #F5F5FF",
")	c #CECEDB",
"!	c #C5C5DB",
"~	c #D6D6FF",
"{	c #088208",
"]	c #18A210",
"^	c #219A10",
"/	c #29AA18",
"(	c #42C329",
"_	c #84F35A",
":	c #009A00",
"<	c #D2D2DB",
"[	c #C9C9DB",
"}	c #B8B8DB",
"|	c #6BAA6B",
"1	c #31B221",
"2	c #5ADB39",
"3	c #6BE34A",
"4	c #9CFB6B",
"5	c #089208",
"6	c #189A10",
"7	c #39B221",
"8	c #8CF35A",
"9	c #D6D6DB",
"0	c #D1D1DB",
"a	c #CCCCDB",
"b	c #299231",
"c	c #F9F9FF",
"d	c #F0F0FF",
"e	c #CBCBDB",
"f	c #E6E6FF",
"g	c #C3C3DB",
"h	c #D4D4FF",
"i	c #C7C7DB",
"j	c #C0C0DB",
"k	c #B4B4DB",
"l	c #E5E5FF",
"m	c #E0E0FF",
"n	c #BFBFDB",
"o	c #DBDBFF",
"p	c #B9B9DB",
"q	c #CCCCFF",
"                ",
"                ",
"   ............ ",
"   .+++++++++@. ",
"   .+++######$. ",
"   .%&%........ ",
"*= +-;> ,')%!~. ",
" {]^/(_:,<)[!}. ",
" |123_4_5')%!~. ",
"  |67(8>90a[!}. ",
"   +,b>c<defgh. ",
"   .<><0)ai!jk. ",
"   .!l!lgmnopq. ",
"   ............ ",
"                ",
"                "};
