/* XPM */
char * data_export_xpm[] = {
"16 16 56 1",
" 	c None",
".	c #39A239",
"+	c #219A29",
"@	c #84F35A",
"#	c #21A221",
"$	c #0099FF",
"%	c #99CCFF",
"&	c #087908",
"*	c #9CFB6B",
"=	c #8CF35A",
"-	c #29A229",
";	c #299231",
">	c #42C329",
",	c #5AB25A",
"'	c #0085EB",
")	c #29AA18",
"!	c #6BE34A",
"~	c #39B221",
"{	c #3DADFF",
"]	c #219A10",
"^	c #5ADB39",
"/	c #189A10",
"(	c #DBDBDB",
"_	c #D8D8DB",
":	c #F5F5FF",
"<	c #CECEDB",
"[	c #EAEAFF",
"}	c #31B221",
"|	c #6BAA6B",
"1	c #D2D2DB",
"2	c #C9C9DB",
"3	c #84AA8C",
"4	c #63A26B",
"5	c #42795A",
"6	c #D9D9DB",
"7	c #D6D6DB",
"8	c #D1D1DB",
"9	c #CCCCDB",
"0	c #C5C5DB",
"a	c #B8B8DB",
"b	c #FBFBFF",
"c	c #F9F9FF",
"d	c #F0F0FF",
"e	c #CBCBDB",
"f	c #E6E6FF",
"g	c #C3C3DB",
"h	c #D4D4FF",
"i	c #C7C7DB",
"j	c #C0C0DB",
"k	c #B4B4DB",
"l	c #E5E5FF",
"m	c #E0E0FF",
"n	c #BFBFDB",
"o	c #DBDBFF",
"p	c #B9B9DB",
"q	c #CCCCFF",
"            .   ",
"           +@#  ",
" $$$$$$$$%&@*=- ",
" $%%%%%%%&;>@>.,",
" $%'''''%%%)!~  ",
" ${$$$$$$$%]^/  ",
" $( ( _:<[[&}|  ",
" $((((_1<23&4   ",
" $( ( _:<[5[%   ",
" $(((678920a$   ",
" $_b_c1defgh$   ",
" $1118<9i0jk$   ",
" $0l0lgmnopq$   ",
" $$$$$$$$$$$$   ",
"                ",
"                "};
