/* XPM */
static char *data_find_xpm[] = {
"16 16 256 3",
"000 c #484878",
"001 c None",
"002 c #8888B8",
"003 c #D8D8F8",
"004 c #7070A0",
"005 c #D8F0F8",
"006 c #B8B0B0",
"007 c #F8F8F8",
"008 c #787880",
"009 c #E8E8F8",
"010 c #A8A8D0",
"011 c #D8D8F0",
"012 c gray66",
"013 c #D0E8F8",
"014 c #C0C0E8",
"015 c #383868",
"016 c #D0D0E8",
"017 c #A0A0D8",
"018 c #808088",
"019 c #C0C0D0",
"020 c #687080",
"021 c #F0F0F8",
"022 c #9898C0",
"023 c #D8E0F0",
"024 c #888888",
"025 c #C8C8F0",
"026 c gray25",
"027 c #8888B0",
"028 c #505080",
"029 c #B0B0C8",
"030 c #686868",
"031 c gray88",
"032 c #A0A0C8",
"033 c #9898A8",
"034 c #B0C8E8",
"035 c #404070",
"036 c #E0E0F8",
"037 c #8080B8",
"038 c #7070A8",
"039 c #B0B0D8",
"040 c gray44",
"041 c #D8F8F8",
"042 c #9090C0",
"043 c #989898",
"044 c #98D0F8",
"045 c #606060",
"046 c #9898C8",
"047 c #808080",
"048 c #D0D0D0",
"049 c gray47",
"050 c gray69",
"051 c #909090",
"052 c #D0D0F0",
"053 c #404078",
"054 c #D8D8D0",
"055 c #90A0B8",
"056 c #7878A8",
"057 c #D0C8C8",
"058 c #687880",
"059 c #8080A0",
"060 c #C8C8E8",
"061 c gray22",
"062 c #505088",
"063 c #A8A8C8",
"064 c #A0A0C0",
"065 c #B0B0E0",
"066 c #606070",
"067 c #D8D8E8",
"068 c #88A8D8",
"069 c #787070",
"070 c #9090C8",
"071 c #A0D8F8",
"072 c #8888C0",
"073 c #585890",
"074 c #606058",
"075 c #605858",
"076 c #484880",
"077 c #A8A8B8",
"078 c #A0A0B0",
"079 c #788080",
"080 c #B0E0F8",
"081 c #D0D0E0",
"082 c #80A0C0",
"083 c #C0C0E0",
"084 c #686878",
"085 c #9898A0",
"086 c #585050",
"087 c #C0C0C0",
"088 c #A0A0D0",
"089 c #D0D0D8",
"090 c #707880",
"091 c #C8C8C8",
"092 c #8080B0",
"093 c #484848",
"094 c black",
"095 c black",
"096 c black",
"097 c black",
"098 c black",
"099 c black",
"100 c black",
"101 c black",
"102 c black",
"103 c black",
"104 c black",
"105 c black",
"106 c black",
"107 c black",
"108 c black",
"109 c black",
"110 c black",
"111 c black",
"112 c black",
"113 c black",
"114 c black",
"115 c black",
"116 c black",
"117 c black",
"118 c black",
"119 c black",
"120 c black",
"121 c black",
"122 c black",
"123 c black",
"124 c black",
"125 c black",
"126 c black",
"127 c black",
"128 c black",
"129 c black",
"130 c black",
"131 c black",
"132 c black",
"133 c black",
"134 c black",
"135 c black",
"136 c black",
"137 c black",
"138 c black",
"139 c black",
"140 c black",
"141 c black",
"142 c black",
"143 c black",
"144 c black",
"145 c black",
"146 c black",
"147 c black",
"148 c black",
"149 c black",
"150 c black",
"151 c black",
"152 c black",
"153 c black",
"154 c black",
"155 c black",
"156 c black",
"157 c black",
"158 c black",
"159 c black",
"160 c black",
"161 c black",
"162 c black",
"163 c black",
"164 c black",
"165 c black",
"166 c black",
"167 c black",
"168 c black",
"169 c black",
"170 c black",
"171 c black",
"172 c black",
"173 c black",
"174 c black",
"175 c black",
"176 c black",
"177 c black",
"178 c black",
"179 c black",
"180 c black",
"181 c black",
"182 c black",
"183 c black",
"184 c black",
"185 c black",
"186 c black",
"187 c black",
"188 c black",
"189 c black",
"190 c black",
"191 c black",
"192 c black",
"193 c black",
"194 c black",
"195 c black",
"196 c black",
"197 c black",
"198 c black",
"199 c black",
"200 c black",
"201 c black",
"202 c black",
"203 c black",
"204 c black",
"205 c black",
"206 c black",
"207 c black",
"208 c black",
"209 c black",
"210 c black",
"211 c black",
"212 c black",
"213 c black",
"214 c black",
"215 c black",
"216 c black",
"217 c black",
"218 c black",
"219 c black",
"220 c black",
"221 c black",
"222 c black",
"223 c black",
"224 c black",
"225 c black",
"226 c black",
"227 c black",
"228 c black",
"229 c black",
"230 c black",
"231 c black",
"232 c black",
"233 c black",
"234 c black",
"235 c black",
"236 c black",
"237 c black",
"238 c black",
"239 c black",
"240 c black",
"241 c black",
"242 c black",
"243 c black",
"244 c black",
"245 c black",
"246 c black",
"247 c black",
"248 c black",
"249 c black",
"250 c black",
"251 c black",
"252 c black",
"253 c black",
"254 c black",
"255 c black",
"001001001001001001001001001001001001001001001001",
"001001001001001016032022022042002002002002019001",
"001001001001001010007021009036003016014010028001",
"001001001001001017003025039039017002056000035001",
"001001001001001032003014017017042037004028035001",
"001001001001001010009003016025039032002004035001",
"001001001001001014021003039017042037004028015001",
"001001048048050024030018019025022037004004000001",
"001018040012050012012012008008011039002028015001",
"001026050048051030093061043054018077010073000001",
"001024050030091007045045018001078090033022015001",
"001001008030012033023055075043013041058029059001",
"001001001018040034005080086045071071020048001001",
"001001001001069068044082087057084020006001001001",
"001001001001001079066024001001031031001001001001",
"001001001001001001001001001001001001001001001001"
};
