/* XPM */
char *debugRun_xpm[] = {
"16 16 256 3",
"000 c #1848A0",
"001 c None",
"002 c #2060B8",
"003 c #0070D8",
"004 c #70C8F8",
"005 c #0068D0",
"006 c #1898F8",
"007 c #0078E0",
"008 c #90B0D8",
"009 c #0068C8",
"010 c #2878D0",
"011 c #0080E8",
"012 c #B8C8E0",
"013 c #0078D8",
"014 c #5088D0",
"015 c #0088F0",
"016 c #E0E8E8",
"017 c #1050B0",
"018 c #2068C0",
"019 c #5098E0",
"020 c #1068C8",
"021 c #30A0F0",
"022 c #0878D8",
"023 c #98B0D8",
"024 c #2070C8",
"025 c #5878C0",
"026 c #0888E8",
"027 c #78A0D8",
"028 c #0070D0",
"029 c #48A0E0",
"030 c #0088E8",
"031 c #C8D8E8",
"032 c #1848A8",
"033 c #2050A0",
"034 c #7090C8",
"035 c #1058B8",
"036 c #3880D0",
"037 c #D8D8E0",
"038 c #0858B8",
"039 c #3058A8",
"040 c #0090F0",
"041 c #8098C0",
"042 c #1070D0",
"043 c #48A0E8",
"044 c #0080E0",
"045 c #A0B8E0",
"046 c #1048A8",
"047 c #2858B0",
"048 c #6090D0",
"049 c #0860C8",
"050 c #2880D8",
"051 c #2088D8",
"052 c #98B8E0",
"053 c #3080D0",
"054 c #6090D8",
"055 c #1868C0",
"056 c #5898E0",
"057 c #E0E0E8",
"058 c #60A0D8",
"059 c #40B0F8",
"060 c #0060C8",
"061 c #1070C8",
"062 c #2850A8",
"063 c #50A8F0",
"064 c #2890E8",
"065 c #0880E0",
"066 c #3078C8",
"067 c #1868C8",
"068 c #4888D0",
"069 c #7098D0",
"070 c #1060C0",
"071 c #C8D0E0",
"072 c #1058B0",
"073 c #3868B8",
"074 c #88B0D8",
"075 c #4080D0",
"076 c #B0B8D8",
"077 c #1050A8",
"078 c #2868B8",
"079 c #58B0F0",
"080 c #2088E0",
"081 c #90A8D8",
"082 c #4078C8",
"083 c #78A0D0",
"084 c #1878D0",
"085 c #4088D0",
"086 c #D8E0E8",
"087 c #0850B0",
"088 c black",
"089 c black",
"090 c black",
"091 c black",
"092 c black",
"093 c black",
"094 c black",
"095 c black",
"096 c black",
"097 c black",
"098 c black",
"099 c black",
"100 c black",
"101 c black",
"102 c black",
"103 c black",
"104 c black",
"105 c black",
"106 c black",
"107 c black",
"108 c black",
"109 c black",
"110 c black",
"111 c black",
"112 c black",
"113 c black",
"114 c black",
"115 c black",
"116 c black",
"117 c black",
"118 c black",
"119 c black",
"120 c black",
"121 c black",
"122 c black",
"123 c black",
"124 c black",
"125 c black",
"126 c black",
"127 c black",
"128 c black",
"129 c black",
"130 c black",
"131 c black",
"132 c black",
"133 c black",
"134 c black",
"135 c black",
"136 c black",
"137 c black",
"138 c black",
"139 c black",
"140 c black",
"141 c black",
"142 c black",
"143 c black",
"144 c black",
"145 c black",
"146 c black",
"147 c black",
"148 c black",
"149 c black",
"150 c black",
"151 c black",
"152 c black",
"153 c black",
"154 c black",
"155 c black",
"156 c black",
"157 c black",
"158 c black",
"159 c black",
"160 c black",
"161 c black",
"162 c black",
"163 c black",
"164 c black",
"165 c black",
"166 c black",
"167 c black",
"168 c black",
"169 c black",
"170 c black",
"171 c black",
"172 c black",
"173 c black",
"174 c black",
"175 c black",
"176 c black",
"177 c black",
"178 c black",
"179 c black",
"180 c black",
"181 c black",
"182 c black",
"183 c black",
"184 c black",
"185 c black",
"186 c black",
"187 c black",
"188 c black",
"189 c black",
"190 c black",
"191 c black",
"192 c black",
"193 c black",
"194 c black",
"195 c black",
"196 c black",
"197 c black",
"198 c black",
"199 c black",
"200 c black",
"201 c black",
"202 c black",
"203 c black",
"204 c black",
"205 c black",
"206 c black",
"207 c black",
"208 c black",
"209 c black",
"210 c black",
"211 c black",
"212 c black",
"213 c black",
"214 c black",
"215 c black",
"216 c black",
"217 c black",
"218 c black",
"219 c black",
"220 c black",
"221 c black",
"222 c black",
"223 c black",
"224 c black",
"225 c black",
"226 c black",
"227 c black",
"228 c black",
"229 c black",
"230 c black",
"231 c black",
"232 c black",
"233 c black",
"234 c black",
"235 c black",
"236 c black",
"237 c black",
"238 c black",
"239 c black",
"240 c black",
"241 c black",
"242 c black",
"243 c black",
"244 c black",
"245 c black",
"246 c black",
"247 c black",
"248 c black",
"249 c black",
"250 c black",
"251 c black",
"252 c black",
"253 c black",
"254 c black",
"255 c black",
"001001001001001001001001001001001001001001001001",
"001001041039062076001001001001001001001001001001",
"001001033031023047025037001001001001001001001001",
"001001000045027069082000081001001001001001001001",
"001001000074048068036010038073071001001001001001",
"001001000027014036024020005060087034057001001001",
"001001046058085010042005005003003005002012001001",
"001001017056053084005005003003003007011002001001",
"001001017019050022003003007007007011015078001001",
"001001017029051022007007007011015003018012001001",
"001001035029051065011011015015049027016001001001",
"001001035063064026015040003075031001001001001001",
"001001070079021006011055052001001001001001001001",
"001001055004059042048086001001001001001001001001",
"001001008024066012001001001001001001001001001001",
"001001001001001001001001001001001001001001001001"
};
