/* XPM */
char *debugKill_xpm[] = {
"16 16 256 3",
"000 c #282828",
"001 c None",
"002 c #40C020",
"003 c #E8F0E8",
"004 c #A80800",
"005 c #F86820",
"006 c #A0F860",
"007 c gray94",
"008 c gray22",
"009 c #F83000",
"010 c #70D838",
"011 c #607860",
"012 c gray88",
"013 c #D8D8D8",
"014 c gray19",
"015 c #60C830",
"016 c #980800",
"017 c #F87028",
"018 c #A0D8A0",
"019 c #505050",
"020 c #F02800",
"021 c #A0A0A0",
"022 c #D86860",
"023 c #E04818",
"024 c #B0C0B0",
"025 c #281830",
"026 c #28A010",
"027 c #C04808",
"028 c #F85810",
"029 c #A0F868",
"030 c #108008",
"031 c #F84808",
"032 c #58D048",
"033 c #686868",
"034 c #989898",
"035 c #282830",
"036 c #48C020",
"037 c #A00800",
"038 c #F89038",
"039 c #78C078",
"040 c #484848",
"041 c #F83800",
"042 c #88F050",
"043 c #D83010",
"044 c #C0C0C0",
"045 c #201020",
"046 c #40B828",
"047 c #B00800",
"048 c #484048",
"049 c #70D840",
"050 c #585058",
"051 c #D0D0D0",
"052 c #383038",
"053 c #50C828",
"054 c #585858",
"055 c #60C050",
"056 c #C87068",
"057 c #D8E0D8",
"058 c #180820",
"059 c #28A020",
"060 c #C82008",
"061 c #004808",
"062 c #40A838",
"063 c #707870",
"064 c #70B870",
"065 c #302030",
"066 c #58C828",
"067 c #A01000",
"068 c #F89840",
"069 c #889088",
"070 c #606860",
"071 c #E82800",
"072 c #90F858",
"073 c #D83810",
"074 c gray69",
"075 c #30A818",
"076 c #483848",
"077 c #70D038",
"078 c #80E850",
"079 c #D84010",
"080 c #30A828",
"081 c #C85800",
"082 c #70E048",
"083 c gray66",
"084 c gray3",
"085 c #48C830",
"086 c #70D830",
"087 c #C86058",
"088 c black",
"089 c #38B818",
"090 c gray25",
"091 c #50B840",
"092 c #888888",
"093 c #282028",
"094 c #606060",
"095 c #38A838",
"096 c #D03008",
"097 c #186818",
"098 c #80E048",
"099 c #A05050",
"100 c #98F868",
"101 c #50C028",
"102 c #002808",
"103 c #78E048",
"104 c #D86058",
"105 c #083010",
"106 c #50B048",
"107 c black",
"108 c black",
"109 c black",
"110 c black",
"111 c black",
"112 c black",
"113 c black",
"114 c black",
"115 c black",
"116 c black",
"117 c black",
"118 c black",
"119 c black",
"120 c black",
"121 c black",
"122 c black",
"123 c black",
"124 c black",
"125 c black",
"126 c black",
"127 c black",
"128 c black",
"129 c black",
"130 c black",
"131 c black",
"132 c black",
"133 c black",
"134 c black",
"135 c black",
"136 c black",
"137 c black",
"138 c black",
"139 c black",
"140 c black",
"141 c black",
"142 c black",
"143 c black",
"144 c black",
"145 c black",
"146 c black",
"147 c black",
"148 c black",
"149 c black",
"150 c black",
"151 c black",
"152 c black",
"153 c black",
"154 c black",
"155 c black",
"156 c black",
"157 c black",
"158 c black",
"159 c black",
"160 c black",
"161 c black",
"162 c black",
"163 c black",
"164 c black",
"165 c black",
"166 c black",
"167 c black",
"168 c black",
"169 c black",
"170 c black",
"171 c black",
"172 c black",
"173 c black",
"174 c black",
"175 c black",
"176 c black",
"177 c black",
"178 c black",
"179 c black",
"180 c black",
"181 c black",
"182 c black",
"183 c black",
"184 c black",
"185 c black",
"186 c black",
"187 c black",
"188 c black",
"189 c black",
"190 c black",
"191 c black",
"192 c black",
"193 c black",
"194 c black",
"195 c black",
"196 c black",
"197 c black",
"198 c black",
"199 c black",
"200 c black",
"201 c black",
"202 c black",
"203 c black",
"204 c black",
"205 c black",
"206 c black",
"207 c black",
"208 c black",
"209 c black",
"210 c black",
"211 c black",
"212 c black",
"213 c black",
"214 c black",
"215 c black",
"216 c black",
"217 c black",
"218 c black",
"219 c black",
"220 c black",
"221 c black",
"222 c black",
"223 c black",
"224 c black",
"225 c black",
"226 c black",
"227 c black",
"228 c black",
"229 c black",
"230 c black",
"231 c black",
"232 c black",
"233 c black",
"234 c black",
"235 c black",
"236 c black",
"237 c black",
"238 c black",
"239 c black",
"240 c black",
"241 c black",
"242 c black",
"243 c black",
"244 c black",
"245 c black",
"246 c black",
"247 c black",
"248 c black",
"249 c black",
"250 c black",
"251 c black",
"252 c black",
"253 c black",
"254 c black",
"255 c black",
"001001001001001001001001001001001001001001001001",
"001001001001001001012083021057001001001001001001",
"001001001001001069019050048000063001001001001001",
"001001014044092050054019090052093070044000007001",
"001001094011097076040090008000045061011054001001",
"001001001106082105065065025058102036081001001001",
"001001001032006100091006006006010010004027001001",
"001001012085042072006006067004004004043060087001",
"001000008046098103078006016071009031005038073022",
"001074013055010077010006016020041028017068079104",
"001001001018066015015006037004047004023096022001",
"001001001012030053101006006006006006047099012001",
"001001001033024080002075026089059024056001001001",
"001001012084051003039062095064003051088013001001",
"001001001034007001001001001001001001021001001001",
"001001001001001001001001001001001001001001001001"
};
