/* XPM */
char *delete_xpm[] = {
"16 16 256 3",
"000 c #C01810",
"001 c #D03010",
"002 c #1850A8",
"003 c #F86028",
"004 c #C84848",
"005 c #F87028",
"006 c #2080D8",
"007 c #F85820",
"008 c #B82828",
"009 c #C03018",
"010 c #3860A8",
"011 c #D8B0B0",
"012 c #F86838",
"013 c #7898C8",
"014 c #C89090",
"015 c #A02028",
"016 c #F85810",
"017 c #1848A8",
"018 c #F04818",
"019 c #68A8E8",
"020 c #B83030",
"021 c #F84810",
"022 c #0888E8",
"023 c #E0C8C8",
"024 c #F87838",
"025 c #88A0D0",
"026 c #F86828",
"027 c #982830",
"028 c #0878D8",
"029 c #4088D0",
"030 c #B82010",
"031 c #2088E0",
"032 c #70A8E0",
"033 c #A01820",
"034 c #1078D8",
"035 c #2050A8",
"036 c #B81810",
"037 c #D83818",
"038 c #0088E8",
"039 c #E8C0C0",
"040 c #E0A8A8",
"041 c #88A8D8",
"042 c #D89090",
"043 c #885068",
"044 c #B01008",
"045 c #1888E8",
"046 c #68A0D8",
"047 c #3888D8",
"048 c #0098F8",
"049 c #2858A8",
"050 c #8080B0",
"051 c #A82828",
"052 c #2880D0",
"053 c #1088E0",
"054 c #88B0D8",
"055 c #3858A8",
"056 c #6090D0",
"057 c None",
"058 c #586098",
"059 c #083090",
"060 c #C02010",
"061 c #1048A0",
"062 c #0840A0",
"063 c #304090",
"064 c #C03838",
"065 c #1040A0",
"066 c #C07070",
"067 c black",
"068 c black",
"069 c black",
"070 c black",
"071 c black",
"072 c black",
"073 c black",
"074 c black",
"075 c black",
"076 c black",
"077 c black",
"078 c black",
"079 c black",
"080 c black",
"081 c black",
"082 c black",
"083 c black",
"084 c black",
"085 c black",
"086 c black",
"087 c black",
"088 c black",
"089 c black",
"090 c black",
"091 c black",
"092 c black",
"093 c black",
"094 c black",
"095 c black",
"096 c black",
"097 c black",
"098 c black",
"099 c black",
"100 c black",
"101 c black",
"102 c black",
"103 c black",
"104 c black",
"105 c black",
"106 c black",
"107 c black",
"108 c black",
"109 c black",
"110 c black",
"111 c black",
"112 c black",
"113 c black",
"114 c black",
"115 c black",
"116 c black",
"117 c black",
"118 c black",
"119 c black",
"120 c black",
"121 c black",
"122 c black",
"123 c black",
"124 c black",
"125 c black",
"126 c black",
"127 c black",
"128 c black",
"129 c black",
"130 c black",
"131 c black",
"132 c black",
"133 c black",
"134 c black",
"135 c black",
"136 c black",
"137 c black",
"138 c black",
"139 c black",
"140 c black",
"141 c black",
"142 c black",
"143 c black",
"144 c black",
"145 c black",
"146 c black",
"147 c black",
"148 c black",
"149 c black",
"150 c black",
"151 c black",
"152 c black",
"153 c black",
"154 c black",
"155 c black",
"156 c black",
"157 c black",
"158 c black",
"159 c black",
"160 c black",
"161 c black",
"162 c black",
"163 c black",
"164 c black",
"165 c black",
"166 c black",
"167 c black",
"168 c black",
"169 c black",
"170 c black",
"171 c black",
"172 c black",
"173 c black",
"174 c black",
"175 c black",
"176 c black",
"177 c black",
"178 c black",
"179 c black",
"180 c black",
"181 c black",
"182 c black",
"183 c black",
"184 c black",
"185 c black",
"186 c black",
"187 c black",
"188 c black",
"189 c black",
"190 c black",
"191 c black",
"192 c black",
"193 c black",
"194 c black",
"195 c black",
"196 c black",
"197 c black",
"198 c black",
"199 c black",
"200 c black",
"201 c black",
"202 c black",
"203 c black",
"204 c black",
"205 c black",
"206 c black",
"207 c black",
"208 c black",
"209 c black",
"210 c black",
"211 c black",
"212 c black",
"213 c black",
"214 c black",
"215 c black",
"216 c black",
"217 c black",
"218 c black",
"219 c black",
"220 c black",
"221 c black",
"222 c black",
"223 c black",
"224 c black",
"225 c black",
"226 c black",
"227 c black",
"228 c black",
"229 c black",
"230 c black",
"231 c black",
"232 c black",
"233 c black",
"234 c black",
"235 c black",
"236 c black",
"237 c black",
"238 c black",
"239 c black",
"240 c black",
"241 c black",
"242 c black",
"243 c black",
"244 c black",
"245 c black",
"246 c black",
"247 c black",
"248 c black",
"249 c black",
"250 c black",
"251 c black",
"252 c black",
"253 c black",
"254 c black",
"255 c black",
"057057057057057057057057057057057057057057057057",
"057057057057057057057057057057057057057057057057",
"057057057057057057057057057057057057057057057057",
"057057057057057057057057057057057057057057057057",
"057057057057057057057057057057057057057057057057",
"057057057057010049035002017061017055057057057057",
"057057057057010054056029052006031061057057057057",
"057057057057013046029032047034053065057057057057",
"057057040064025041015050019028022062057057057057",
"057057000012043027026033045038048062057057057057",
"057057051024037003036058059059059063057057057057",
"057057011030003018066057057057057057057057057057",
"057042060003007007030039057057057057057057057057",
"057008005001009021016064057057057057057057057057",
"057004044014057020008023057057057057057057057057",
"057057057057057057057057057057057057057057057057"
};
