/* XPM */
char *DeleteCol_xpm[] = {
"16 16 256 3",
"000 c gray44",
"001 c None",
"002 c #F8C058",
"003 c #A0A0B0",
"004 c #B82828",
"005 c #C8C8C8",
"006 c #9898B0",
"007 c #F0F0F8",
"008 c #888888",
"009 c #F8B850",
"010 c #D8D8F8",
"011 c #B07028",
"012 c #E8B0B8",
"013 c #F8F8F8",
"014 c #B08038",
"015 c #808080",
"016 c #A0A0A0",
"017 c #F86028",
"018 c #C0A0A0",
"019 c #E0E0F8",
"020 c gray47",
"021 c #F8A040",
"022 c #C87878",
"023 c #A8A8B0",
"024 c #E8E8F8",
"025 c #686868",
"026 c #D0A888",
"027 c #D0D0F8",
"028 c #B81810",
"029 c #909090",
"030 c #F8D8A0",
"031 c #F87028",
"032 c #F8C890",
"033 c #C8B0B8",
"034 c #B02828",
"035 c #F8C078",
"036 c #B82020",
"037 c #F8B048",
"038 c #F87838",
"039 c #C02010",
"040 c #F8A038",
"041 c #F85810",
"042 c #F0B098",
"043 c #D03010",
"044 c #F8C880",
"045 c #B03030",
"046 c #F0B890",
"047 c #B82010",
"048 c gray69",
"049 c #F89830",
"050 c #F8D098",
"051 c #B0B0B8",
"052 c #A81008",
"053 c #F04818",
"054 c #C04040",
"055 c #C01810",
"056 c #D83818",
"057 c #B87878",
"058 c #F8A840",
"059 c #C03028",
"060 c #F86828",
"061 c #B02020",
"062 c #F86838",
"063 c #F84810",
"064 c #F85820",
"065 c #F8B858",
"066 c #C86858",
"067 c #B87838",
"068 c #C02820",
"069 c #D8B0B8",
"070 c #A82020",
"071 c #C03020",
"072 c #D08888",
"073 c #F8B050",
"074 c #F8C888",
"075 c black",
"076 c black",
"077 c black",
"078 c black",
"079 c black",
"080 c black",
"081 c black",
"082 c black",
"083 c black",
"084 c black",
"085 c black",
"086 c black",
"087 c black",
"088 c black",
"089 c black",
"090 c black",
"091 c black",
"092 c black",
"093 c black",
"094 c black",
"095 c black",
"096 c black",
"097 c black",
"098 c black",
"099 c black",
"100 c black",
"101 c black",
"102 c black",
"103 c black",
"104 c black",
"105 c black",
"106 c black",
"107 c black",
"108 c black",
"109 c black",
"110 c black",
"111 c black",
"112 c black",
"113 c black",
"114 c black",
"115 c black",
"116 c black",
"117 c black",
"118 c black",
"119 c black",
"120 c black",
"121 c black",
"122 c black",
"123 c black",
"124 c black",
"125 c black",
"126 c black",
"127 c black",
"128 c black",
"129 c black",
"130 c black",
"131 c black",
"132 c black",
"133 c black",
"134 c black",
"135 c black",
"136 c black",
"137 c black",
"138 c black",
"139 c black",
"140 c black",
"141 c black",
"142 c black",
"143 c black",
"144 c black",
"145 c black",
"146 c black",
"147 c black",
"148 c black",
"149 c black",
"150 c black",
"151 c black",
"152 c black",
"153 c black",
"154 c black",
"155 c black",
"156 c black",
"157 c black",
"158 c black",
"159 c black",
"160 c black",
"161 c black",
"162 c black",
"163 c black",
"164 c black",
"165 c black",
"166 c black",
"167 c black",
"168 c black",
"169 c black",
"170 c black",
"171 c black",
"172 c black",
"173 c black",
"174 c black",
"175 c black",
"176 c black",
"177 c black",
"178 c black",
"179 c black",
"180 c black",
"181 c black",
"182 c black",
"183 c black",
"184 c black",
"185 c black",
"186 c black",
"187 c black",
"188 c black",
"189 c black",
"190 c black",
"191 c black",
"192 c black",
"193 c black",
"194 c black",
"195 c black",
"196 c black",
"197 c black",
"198 c black",
"199 c black",
"200 c black",
"201 c black",
"202 c black",
"203 c black",
"204 c black",
"205 c black",
"206 c black",
"207 c black",
"208 c black",
"209 c black",
"210 c black",
"211 c black",
"212 c black",
"213 c black",
"214 c black",
"215 c black",
"216 c black",
"217 c black",
"218 c black",
"219 c black",
"220 c black",
"221 c black",
"222 c black",
"223 c black",
"224 c black",
"225 c black",
"226 c black",
"227 c black",
"228 c black",
"229 c black",
"230 c black",
"231 c black",
"232 c black",
"233 c black",
"234 c black",
"235 c black",
"236 c black",
"237 c black",
"238 c black",
"239 c black",
"240 c black",
"241 c black",
"242 c black",
"243 c black",
"244 c black",
"245 c black",
"246 c black",
"247 c black",
"248 c black",
"249 c black",
"250 c black",
"251 c black",
"252 c black",
"253 c black",
"254 c black",
"255 c black",
"001001001001001001001001001001001001001001001001",
"001029029029008008015015015020020020000000000001",
"001029013013013023002002002002003019019010000001",
"001029013013013023002002009009003019019010000001",
"001029013013007023009009009009003019019010025001",
"001029023023023023014014014014003003006006025001",
"001029007007007023009037037037003019019010025001",
"001029007007024048030044037037003019010010025001",
"001016012054007033004042035058006019010010025001",
"001005055062072045060068050058006010010010025001",
"001001070038056017039026067011006006006006025001",
"001048069047017053066032021021006010010027025001",
"001022039017064064028046021049006010027027025001",
"001061031043059063041059032049006027027027025001",
"001054052057001034036018015000000000025025025001",
"001001001001001001001001001001001001001001001001"
};
