/* XPM */
char *delete_row_xpm[] = {
"16 16 256 3",
"000 c gray44",
"001 c None",
"002 c #D0A088",
"003 c #E0E0F8",
"004 c #B02020",
"005 c #D0D0F8",
"006 c #F8D0A0",
"007 c #F8F8F8",
"008 c gray47",
"009 c #A0A0B8",
"010 c #F8A840",
"011 c #D8B0B8",
"012 c #F84810",
"013 c #F8D8A8",
"014 c #A0A0B0",
"015 c #F0F0F8",
"016 c #686868",
"017 c #808080",
"018 c #D8D8F8",
"019 c #C03020",
"020 c #C0C0C0",
"021 c #A8A8B0",
"022 c #9898B0",
"023 c #F8A038",
"024 c #E8E8F8",
"025 c #B07028",
"026 c gray72",
"027 c #F8D8A0",
"028 c #909090",
"029 c #F89830",
"030 c #B02828",
"031 c #888888",
"032 c #B8A0A0",
"033 c #F89838",
"034 c #F87028",
"035 c #E0D0D8",
"036 c #F8C880",
"037 c #B03028",
"038 c #B89050",
"039 c #C03830",
"040 c #F0B098",
"041 c #F8B048",
"042 c #F04818",
"043 c #C8B8C0",
"044 c #F8B850",
"045 c #B82010",
"046 c #F8A848",
"047 c #F85820",
"048 c #B07070",
"049 c #B08038",
"050 c #D03010",
"051 c #F8C870",
"052 c #C87078",
"053 c #C07878",
"054 c #C03838",
"055 c #A0A0A0",
"056 c #F87838",
"057 c #F86028",
"058 c #F8C078",
"059 c #A81008",
"060 c #F8C058",
"061 c #C02010",
"062 c #D08070",
"063 c #F0A880",
"064 c #F85810",
"065 c #C02820",
"066 c #B82828",
"067 c #D83818",
"068 c #F86838",
"069 c #C01810",
"070 c #A82020",
"071 c #F86828",
"072 c black",
"073 c black",
"074 c black",
"075 c black",
"076 c black",
"077 c black",
"078 c black",
"079 c black",
"080 c black",
"081 c black",
"082 c black",
"083 c black",
"084 c black",
"085 c black",
"086 c black",
"087 c black",
"088 c black",
"089 c black",
"090 c black",
"091 c black",
"092 c black",
"093 c black",
"094 c black",
"095 c black",
"096 c black",
"097 c black",
"098 c black",
"099 c black",
"100 c black",
"101 c black",
"102 c black",
"103 c black",
"104 c black",
"105 c black",
"106 c black",
"107 c black",
"108 c black",
"109 c black",
"110 c black",
"111 c black",
"112 c black",
"113 c black",
"114 c black",
"115 c black",
"116 c black",
"117 c black",
"118 c black",
"119 c black",
"120 c black",
"121 c black",
"122 c black",
"123 c black",
"124 c black",
"125 c black",
"126 c black",
"127 c black",
"128 c black",
"129 c black",
"130 c black",
"131 c black",
"132 c black",
"133 c black",
"134 c black",
"135 c black",
"136 c black",
"137 c black",
"138 c black",
"139 c black",
"140 c black",
"141 c black",
"142 c black",
"143 c black",
"144 c black",
"145 c black",
"146 c black",
"147 c black",
"148 c black",
"149 c black",
"150 c black",
"151 c black",
"152 c black",
"153 c black",
"154 c black",
"155 c black",
"156 c black",
"157 c black",
"158 c black",
"159 c black",
"160 c black",
"161 c black",
"162 c black",
"163 c black",
"164 c black",
"165 c black",
"166 c black",
"167 c black",
"168 c black",
"169 c black",
"170 c black",
"171 c black",
"172 c black",
"173 c black",
"174 c black",
"175 c black",
"176 c black",
"177 c black",
"178 c black",
"179 c black",
"180 c black",
"181 c black",
"182 c black",
"183 c black",
"184 c black",
"185 c black",
"186 c black",
"187 c black",
"188 c black",
"189 c black",
"190 c black",
"191 c black",
"192 c black",
"193 c black",
"194 c black",
"195 c black",
"196 c black",
"197 c black",
"198 c black",
"199 c black",
"200 c black",
"201 c black",
"202 c black",
"203 c black",
"204 c black",
"205 c black",
"206 c black",
"207 c black",
"208 c black",
"209 c black",
"210 c black",
"211 c black",
"212 c black",
"213 c black",
"214 c black",
"215 c black",
"216 c black",
"217 c black",
"218 c black",
"219 c black",
"220 c black",
"221 c black",
"222 c black",
"223 c black",
"224 c black",
"225 c black",
"226 c black",
"227 c black",
"228 c black",
"229 c black",
"230 c black",
"231 c black",
"232 c black",
"233 c black",
"234 c black",
"235 c black",
"236 c black",
"237 c black",
"238 c black",
"239 c black",
"240 c black",
"241 c black",
"242 c black",
"243 c black",
"244 c black",
"245 c black",
"246 c black",
"247 c black",
"248 c black",
"249 c black",
"250 c black",
"251 c black",
"252 c black",
"253 c black",
"254 c black",
"255 c black",
"001001001001001001001001001001001001001001001001",
"001028028028028028028028028028028031031031031001",
"001028007007007021015015024024009003003018031001",
"001028007007007021015015024024009003003018017001",
"001031007007015021015024024024009003003018017001",
"001031021021021021021009009009009009022022017001",
"001017060060044049044041041010025023023029008001",
"001017051013044038013036010010025023029029008001",
"001028063039013002066040058010025023029029008001",
"001020069068062037071065006010025023029029000001",
"001026070056067057061043009022022022022022000001",
"001055011045057042052024003018022018018005000001",
"001053061057047047045035003018022018005005016001",
"001004034050019012064039024018022005005005016001",
"001039059048026030004032008016016016016016016001",
"001001001001001001001001001001001001001001001001"
};
