/* XPM */
char * deletetable_xpm[] = {
"16 16 96 2",
"  	c None",
". 	c #0099FF",
"+ 	c #99CCFF",
"@ 	c #3DADFF",
"# 	c #0085EB",
"$ 	c #0091F7",
"% 	c #049BFF",
"& 	c #DBDBDB",
"* 	c #FFFFFF",
"= 	c #EBEBED",
"- 	c #F5F5FF",
"; 	c #D4D4DF",
"> 	c #D8D8E7",
", 	c #E0E0FF",
"' 	c #BCBCDB",
") 	c #D6D6FF",
"! 	c #E1E1E1",
"~ 	c #E6B2B2",
"{ 	c #C13F3F",
"] 	c #ECECEF",
"^ 	c #E0C6CA",
"/ 	c #BC3132",
"( 	c #E8B9BD",
"_ 	c #D4D4E7",
": 	c #B8B8DB",
"< 	c #EFEFEF",
"[ 	c #C21E16",
"} 	c #FF6D39",
"| 	c #D38A8B",
"1 	c #B53837",
"2 	c #FF6D2B",
"3 	c #BD2A29",
"4 	c #F1F1FF",
"5 	c #EDEDED",
"6 	c #AC2A2B",
"7 	c #FF7D3F",
"8 	c #DD3F1C",
"9 	c #FF6129",
"0 	c #C42312",
"a 	c #E0CCD2",
"b 	c #C5C5DE",
"c 	c #D8D8DB",
"d 	c #FBFBFF",
"e 	c #E6E6E8",
"f 	c #E3BDBE",
"g 	c #BF2210",
"h 	c #FF662D",
"i 	c #F4491C",
"j 	c #CA7578",
"k 	c #DFDFEC",
"l 	c #DEDEFF",
"m 	c #BABADB",
"n 	c #D4D4FF",
"o 	c #D2D2DB",
"p 	c #DCDCE3",
"q 	c #DE9496",
"r 	c #C62513",
"s 	c #FF672C",
"t 	c #FF5D25",
"u 	c #FF5B20",
"v 	c #BB1F14",
"w 	c #DECAD2",
"x 	c #C2C2DE",
"y 	c #B9B9DB",
"z 	c #B4B4DB",
"A 	c #CECEDB",
"B 	c #F7F7FF",
"C 	c #B82B2B",
"D 	c #FF722C",
"E 	c #D43415",
"F 	c #C43521",
"G 	c #FF4E17",
"H 	c #FF5C15",
"I 	c #C23734",
"J 	c #ECECFF",
"K 	c #D1D1FF",
"L 	c #C9C9DB",
"M 	c #DFDFEA",
"N 	c #CF4D4D",
"O 	c #B0150B",
"P 	c #CD9095",
"Q 	c #E6E4EC",
"R 	c #BA3233",
"S 	c #BD2B29",
"T 	c #DFC2CD",
"U 	c #BEBEDE",
"V 	c #B2B2DB",
"W 	c #C5C5DB",
"X 	c #E5E5FF",
"Y 	c #DDDDEA",
"Z 	c #F4F4FF",
"` 	c #D1D1E3",
" .	c #DDDDEC",
"..	c #EDEDFF",
"+.	c #BFBFDE",
"@.	c #CCCCFF",
"                                ",
"    . . . . . . . . . . . .     ",
"  . + + + + + + + + + + + @ .   ",
"  . + # # # # # # # # # # $ .   ",
"  . @ . . . . . . % . . . . .   ",
"  . & * & * = - ; - > , ' ) .   ",
"  . & & ! ~ { ] ^ / ( _ ' : .   ",
"  . & * < [ } | 1 2 3 4 ' ) .   ",
"  . & & 5 6 7 8 9 0 a b ' : .   ",
"  . c d e f g h i j k l m n .   ",
"  . o p q r s t u v w x y z .   ",
"  . A B C D E F G H I J : K .   ",
"  . L M N O P Q R S T U z V .   ",
"  . W X Y Z ` ,  ...+.n V @..   ",
"    . . . . . . . . . . . .     ",
"                                "};
