/* XPM */ 
static char *desc_xpm[] = { 
"8 8 2 1", 
"0 c black", 
"1 c none", 
"11111111", 
"11110111", 
"11110111", 
"11100011", 
"11100011", 
"11000001", 
"11000001",
"11111111" 
}; 
