/* XPM */
static char *diConnections_xpm[] = {
"20 20 16 2",
"00 c none",
"01 c #008000",
"02 c #00F8F8",
"03 c #808080",
"04 c black",
"05 c black",
"06 c black",
"07 c black",
"08 c black",
"09 c black",
"10 c black",
"11 c black",
"12 c black",
"13 c black",
"14 c black",
"15 c black",
"0000000000000000000000000000000000000000",
"0000000000000000000000000000000000000000",
"0000000000030003000300000000000000000000",
"0000000003000100010003000000000000000000",
"0000000300030001000100030000000000000000",
"0000030002000200020001000300000000000000",
"0000000200030001000100010003000000000000",
"0000030001000100010001000300030000000000",
"0000000200010001000100020001000300000000",
"0000030002000100010002000300030003000000",
"0000000300020001000200030002000100000000",
"0000000003000200020003000200030003000000",
"0000000000030003000300020003000200000000",
"0000000000000300020002000300020003000000",
"0000000000000003000300030002000300000000",
"0000000000000000030002000200030000000000",
"0000000000000000000300030003000000000000",
"0000000000000000000000000000000000000000",
"0000000000000000000000000000000000000000",
"0000000000000000000000000000000000000000"
};
