/* XPM */
static char *diDiagramms_xpm[] = {
"20 20 16 2",
"00 c none",
"01 c black",
"02 c #F8F8F8",
"03 c #C0C0C0",
"04 c #0000F8",
"05 c black",
"06 c black",
"07 c black",
"08 c black",
"09 c black",
"10 c black",
"11 c black",
"12 c black",
"13 c black",
"14 c black",
"15 c black",
"0000000100010001000000000000000000000000",
"0000000004000400000000000000000000000000",
"0000000100020001000100000000000000000000",
"0000000002000200040000000000000000000000",
"0000000100020001000100010000000000000000",
"0000000002000200010004000100010000000000",
"0000000100010001000100010004000100000000",
"0000000000000300030001000200020001000000",
"0000000000010001000100010002000100010000",
"0000010001000000020001000200020002000100",
"0001000400010001000100010002000100010001",
"0000020002000100010000000200020002000200",
"0001000200010001000000010001000100010001",
"0000020002000100010001000000020002000200",
"0001000200010001000100000001000100010001",
"0000010001000200010000000100000002000200",
"0000000100020001000100010000000100010001",
"0000000001000100020001000000000000000000",
"0000000000010002000100000000000000000000",
"0000000000000100010000000000000000000000"
};
