/* XPM */
static char *diDomains_xpm[] = {
"20 20 16 2",
"00 c none",
"01 c black",
"02 c #C0C0C0",
"03 c #808080",
"04 c #F8F8F8",
"05 c black",
"06 c black",
"07 c black",
"08 c black",
"09 c black",
"10 c black",
"11 c black",
"12 c black",
"13 c black",
"14 c black",
"15 c black",
"0000000000000000000000000000000000000000",
"0000000000000000000000000000000000000000",
"0000000000000000000000000000000000000000",
"0000040000000000010000000000000000000000",
"0004000100000004000400000001040000000000",
"0400040004000400020002000400010400000000",
"0004000200020002000200040002000100000000",
"0100020001000200020001000200020001000000",
"0002000200020002000200020002000100010400",
"0100020003000200020003000200030002000104",
"0001000300020002000200010003000200010001",
"0000010002000300030001000100020003000200",
"0000000100030001000100020001000300020001",
"0000000001000200030003000100010002000300",
"0000000000010003000100010002000100030000",
"0000000000000100000003000300010001000000",
"0000000000000000000000010001000000000000",
"0000000000000000000000000000000000000000",
"0000000000000000000000000000000000000000",
"0000000000000000000000000000000000000000"
};
