/* XPM */
static char *diFolders_xpm[] = {
"20 20 16 2",
"00 c none",
"01 c black",
"02 c #F8F8F8",
"03 c #F8F800",
"04 c #C0C0C0",
"05 c black",
"06 c black",
"07 c black",
"08 c black",
"09 c black",
"10 c black",
"11 c black",
"12 c black",
"13 c black",
"14 c black",
"15 c black",
"0000000000000000000000000000000000000000",
"0000000000000000000000000000000000000000",
"0000000100010001000000000000000000000000",
"0000010004000400010000000000000000000000",
"0001000400040004000100010001000000000000",
"0000020002000200020002000200010000000000",
"0001000300030003000300030003000100000000",
"0000020003000300030003000300010001000000",
"0001000300030003000300030003000300010000",
"0000020003000300030003000300010001000100",
"0001000300030003000300030003000300030000",
"0000020003000300030003000300010001000100",
"0001000300030003000300030003000300030000",
"0000010001000100010001000100030001000100",
"0000000100030003000300030003000300030000",
"0000000001000100010001000100010003000100",
"0000000000010003000300030003000300030000",
"0000000000000100010001000100010001000000",
"0000000000000000000000000000000000000000",
"0000000000000000000000000000000000000000"
};
