/* XPM */
static char *diMenus_xpm[] = {
"20 20 16 2",
"00 c none",
"01 c black",
"02 c #0000F8",
"03 c #C0C0C0",
"04 c #F8F8F8",
"05 c black",
"06 c black",
"07 c black",
"08 c black",
"09 c black",
"10 c black",
"11 c black",
"12 c black",
"13 c black",
"14 c black",
"15 c black",
"0000000000000000000000000000000000000000",
"0000000000000000000000000000000000000000",
"0000000200020001000100010000000000000000",
"0000030002000300030003000300000000000000",
"0000000100010001000100010001000000000000",
"0000000004000400010003000300030000000000",
"0000000100020002000100010001000100000000",
"0000000004000400010001000100030003000000",
"0000000100040004000400040000000000000000",
"0000000001000100010004000100010000000000",
"0000000000010004000200020004000000000000",
"0000000000000100010004000100010001000000",
"0000000000000001000300010002000400000000",
"0000000000000000010001000400010001000000",
"0000000000000000000000010001000200000000",
"0000000000000000000000000100040001000000",
"0000000000000000000000000001000100000000",
"0000000000000000000000000000000000000000",
"0000000000000000000000000000000000000000",
"0000000000000000000000000000000000000000"
};
