/* XPM */
static char *diPictures_xpm[] = {
"20 20 16 2",
"00 c none",
"01 c black",
"02 c #F8F800",
"03 c black",
"04 c black",
"05 c black",
"06 c black",
"07 c black",
"08 c black",
"09 c black",
"10 c black",
"11 c black",
"12 c black",
"13 c black",
"14 c black",
"15 c black",
"0000000000000000000000000000000000000000",
"0000000000000000000000000000000000000000",
"0000000100010001000100010000000000000000",
"0000010002000200020002000100000000000000",
"0000000200020001000200020001000000000000",
"0000010002000200020002000100010000000000",
"0000000200020001000200020002000100000000",
"0000010002000200020002000100010001000000",
"0000000200020001000200020002000200000000",
"0000010002000100010002000100010001000000",
"0000000200020002000200020002000200000000",
"0000010002000200020002000100010001000000",
"0000000100010001000100010002000200000000",
"0000000001000200020002000200010001000000",
"0000000000010001000100010001000200000000",
"0000000000000100020002000200020001000000",
"0000000000000001000100010001000100000000",
"0000000000000000000000000000000000000000",
"0000000000000000000000000000000000000000",
"0000000000000000000000000000000000000000"
};
