/* XPM */
static char *diProcedures_xpm[] = {
"20 20 16 2",
"00 c none",
"01 c black",
"02 c #C0C0C0",
"03 c black",
"04 c black",
"05 c black",
"06 c black",
"07 c black",
"08 c black",
"09 c black",
"10 c black",
"11 c black",
"12 c black",
"13 c black",
"14 c black",
"15 c black",
"0000000100010000000000000000000000000000",
"0000010002000200000000000000000000000000",
"0001000200020002000000000000000000000000",
"0100020001000200020000000000000000000000",
"0002000100010002000100000000000000000000",
"0100020001000100020000000000000000000000",
"0002000200010002000100010000000000000000",
"0000020002000200010002000200000000000000",
"0000000200020001000200020002000000000000",
"0000000001000100020001000200020000000000",
"0000000000000002000100010002000100000000",
"0000000000000100020001000100020002000000",
"0000000000000002000200010002000100010000",
"0000000000000000020002000200010002000200",
"0000000000000000000200020001000200010000",
"0000000000000000000001000100020001000200",
"0000000000000000000000020002000100020001",
"0000000000000000000000000100010002000100",
"0000000000000000000000000002000200010000",
"0000000000000000000000000000010001000000"
};
