/* XPM */
static char *diProgramms_xpm[] = {
"20 20 16 2",
"00 c none",
"01 c black",
"02 c #F8F8F8",
"03 c black",
"04 c black",
"05 c black",
"06 c black",
"07 c black",
"08 c black",
"09 c black",
"10 c black",
"11 c black",
"12 c black",
"13 c black",
"14 c black",
"15 c black",
"0000000000000000000000000000000000000000",
"0000000000000000000000000000000000000000",
"0000000100010001000100010000000000000000",
"0000000002000200020002000000000000000000",
"0000000100010001000200010001000000000000",
"0000000002000100010002000200000000000000",
"0000000100020002000200010001000100000000",
"0000000002000100010002000200020000000000",
"0000000100020002000100010001000100000000",
"0000000002000200020002000200020000000000",
"0000000100010002000100010001000100000000",
"0000000002000200020002000200020000000000",
"0000000100010001000100010001000100000000",
"0000000000000200020002000200020000000000",
"0000000000010001000100010001000100000000",
"0000000000000000020002000200020000000000",
"0000000000000001000100010001000100000000",
"0000000000000000000000000000000000000000",
"0000000000000000000000000000000000000000",
"0000000000000000000000000000000000000000"
};
