/* XPM */
static char *diRelations_xpm[] = {
"20 20 16 2",
"00 c none",
"01 c black",
"02 c #F8F8F8",
"03 c #0000F8",
"04 c black",
"05 c black",
"06 c black",
"07 c black",
"08 c black",
"09 c black",
"10 c black",
"11 c black",
"12 c black",
"13 c black",
"14 c black",
"15 c black",
"0000000000000000000000000000000000000000",
"0000000000000000000000000000000000000000",
"0001000100000000000000010001000000000000",
"0100030000000000000000000300010000000000",
"0002000100010000000000010002000100000000",
"0100020003000000000000000200010001000000",
"0002000100010002000000010002000200010000",
"0100020001000200020001000200010001000100",
"0002000100010002000200010002000200020000",
"0100020002000100020002000200010001000100",
"0002000100010001000200010002000200020000",
"0100020002000200010002000200010001000100",
"0001000100010001000000010001000200020000",
"0000010002000200000000000000020001000100",
"0000000100010001000000000001000100020000",
"0000000001000200000000000000000002000100",
"0000000000010001000000000000000100010000",
"0000000000000000000000000000000000000000",
"0000000000000000000000000000000000000000",
"0000000000000000000000000000000000000000"
};
