/* XPM */
static char *diReplRels_xpm[] = {
"20 20 16 2",
"00 c none",
"01 c black",
"02 c #C0C0C0",
"03 c #F80000",
"04 c #F8F800",
"05 c black",
"06 c black",
"07 c black",
"08 c black",
"09 c black",
"10 c black",
"11 c black",
"12 c black",
"13 c black",
"14 c black",
"15 c black",
"0000000001000100000000000000000000000000",
"0000000000010000000000000000000000000000",
"0000000001000100010000000000000000000000",
"0000000200010002000000000000000000000000",
"0000020002000200020001000000000000000000",
"0001000200020002000100000000000000000000",
"0000030001000100010001000100010000000000",
"0001000300010004000400040001000000000000",
"0000010001000100040004000100010001000000",
"0001000100040001000400010004000100000000",
"0000030001000400010001000400010001000100",
"0001000300040004000100040004000400010000",
"0000010001000400040004000400010001000100",
"0000000100010001000100010001000400040000",
"0000000001000300040004000400040001000100",
"0000000000010001000100010001000100040000",
"0000000000000100030004000400040004000100",
"0000000000000001000100010001000100010000",
"0000000000000000000000000000000000000000",
"0000000000000000000000000000000000000000"
};
