/* XPM */
static char * dis_plug_xpm[] = {
"16 16 142 2",
"  	c None",
". 	c #B7B7B7",
"+ 	c #DBDBDB",
"@ 	c #E3E3E3",
"# 	c #B2B2B2",
"$ 	c #C0C0C0",
"% 	c #BBBBBB",
"& 	c #A8A8A8",
"* 	c #AAAAAA",
"= 	c #A9A9A9",
"- 	c #D6D6D6",
"; 	c #CFCFCF",
"> 	c #F7F7F7",
", 	c #F5F5F5",
"' 	c #E4E4E4",
") 	c #C9C9C9",
"! 	c #B5B5B5",
"~ 	c #A1A1A1",
"{ 	c #8A8A8A",
"] 	c #BDBDBD",
"^ 	c #E5E5E5",
"/ 	c #EBEBEB",
"( 	c #EEEEEE",
"_ 	c #DDDDDD",
": 	c #CACACA",
"< 	c #B3B3B3",
"[ 	c #949494",
"} 	c #7B7B7B",
"| 	c #959595",
"1 	c #C7C7C7",
"2 	c #D5D5D5",
"3 	c #CECECE",
"4 	c #DFDFDF",
"5 	c #DADADA",
"6 	c #D1D1D1",
"7 	c #7D7D7D",
"8 	c #8B8B8B",
"9 	c #A5A5A5",
"0 	c #AEAEAE",
"a 	c #CBCBCB",
"b 	c #E0E1E4",
"c 	c #D7D7DD",
"d 	c #D1D1D3",
"e 	c #C6C6C8",
"f 	c #BDC0C9",
"g 	c #BABBC5",
"h 	c #A5A5A9",
"i 	c #6D6D6E",
"j 	c #7A7A7A",
"k 	c #797979",
"l 	c #9E9E9E",
"m 	c #E2E3E7",
"n 	c #DBD3BA",
"o 	c #E7D88B",
"p 	c #CAC8C7",
"q 	c #C4C4C7",
"r 	c #BCBEC4",
"s 	c #EDCE4B",
"t 	c #F7E464",
"u 	c #BAB298",
"v 	c #70727C",
"w 	c #717171",
"x 	c #D8D8D8",
"y 	c #D7DAE6",
"z 	c #EAC438",
"A 	c #FFFAB6",
"B 	c #F8E88F",
"C 	c #BAB9B9",
"D 	c #B3B0B0",
"E 	c #E9B100",
"F 	c #FFF054",
"G 	c #FFF46E",
"H 	c #C2A53F",
"I 	c #CE9494",
"J 	c #BD3B3B",
"K 	c #ECEDF1",
"L 	c #D6B090",
"M 	c #BE3126",
"N 	c #F3C3AB",
"O 	c #F5E38A",
"P 	c #B0AFB1",
"Q 	c #8D723B",
"R 	c #D4A200",
"S 	c #FEE553",
"T 	c #FFFE83",
"U 	c #EEC11D",
"V 	c #C11912",
"W 	c #FF6D39",
"X 	c #CE8585",
"Y 	c #B23635",
"Z 	c #FF6D2B",
"` 	c #BF2A1F",
" .	c #FFFFCE",
"..	c #DEC44A",
"+.	c #9095A7",
"@.	c #886E3E",
"#.	c #B88C00",
"$.	c #E9D774",
"%.	c #BDAD4D",
"&.	c #9E0000",
"*.	c #FF7D3F",
"=.	c #DD3F1C",
"-.	c #FF6129",
";.	c #C42212",
">.	c #CEAB86",
",.	c #D5B842",
"'.	c #BBAB44",
").	c #979493",
"!.	c #747883",
"~.	c #784A00",
"{.	c #836100",
"].	c #926C0E",
"^.	c #BF2210",
"/.	c #FF662D",
"(.	c #F4491C",
"_.	c #BF696A",
":.	c #B7B3B0",
"<.	c #6C4A05",
"[.	c #785B1B",
"}.	c #63656B",
"|.	c #585859",
"1.	c #5F0000",
"2.	c #C40000",
"3.	c #C5220F",
"4.	c #FF672C",
"5.	c #FF5D25",
"6.	c #FF5B20",
"7.	c #B9180C",
"8.	c #AB1917",
"9.	c #AD0302",
"0.	c #FF722C",
"a.	c #D43314",
"b.	c #C12812",
"c.	c #FF4E17",
"d.	c #FF5C15",
"e.	c #BC1813",
"f.	c #C30502",
"g.	c #AE0F04",
"h.	c #A20000",
"i.	c #AE0200",
"j.	c #B50501",
"k.	c #C80000",
"                                ",
"  . + @ # $ % & *               ",
"  = - ; >   , ' ) ! ~           ",
"  { ] ^ / ( _ : $ < [ }         ",
"  | 1 2 ) 3 4 5 2 6 3 ! 7       ",
"  8 9 0 a b c d a e f g h i     ",
"  j k l m n o p q r s t u v     ",
"  w j x y z A B C D E F G H     ",
"    I J K L M N O P Q R S T U   ",
"    V W X Y Z `  ...+.@.#.$.%.  ",
"    &.*.=.-.;.>.,.'.).!.~.{.].  ",
"      ^./.(._.:.<.[.}.|.  1.    ",
"  2.3.4.5.6.7.8.                ",
"  9.0.a.b.c.d.e.                ",
"  f.g.h.  i.j.k.                ",
"                                "};
