/* XPM */
static char *diSequences_xpm[] = {
"20 20 16 2",
"00 c none",
"01 c black",
"02 c black",
"03 c black",
"04 c black",
"05 c black",
"06 c black",
"07 c black",
"08 c black",
"09 c black",
"10 c black",
"11 c black",
"12 c black",
"13 c black",
"14 c black",
"15 c black",
"0000000000000000000000000000000000000000",
"0001000000000000000000000000000000000000",
"0100000000000000000000000000000000000000",
"0001000100010000000000000000000000000000",
"0000000000000000000000000000000000000000",
"0001000000000100000000000000000000000000",
"0000000000000001000100000000000000000000",
"0001000001000000000000000000000000000000",
"0000000100000000000001000000000000000000",
"0000000001000100000100010000000000000000",
"0000000000000000000001000100000000000000",
"0000000000000000000100000001000000000000",
"0000000000000100010000000100010000000000",
"0000000000000000000000010001000000000000",
"0000000000000000000001000000000001000000",
"0000000000000000000000010000000100000000",
"0000000000000000000000000000010001000000",
"0000000000000000000000000001000000000000",
"0000000000000000000000000000010000000000",
"0000000000000000000000000000000000010001"
};
