/* XPM */
static char *diWWWs_xpm[] = {
"20 20 16 2",
"00 c none",
"01 c black",
"02 c #C0C0C0",
"03 c #F8F800",
"04 c #000080",
"05 c #008000",
"06 c #808080",
"07 c #F8F8F8",
"08 c #0000F8",
"09 c black",
"10 c black",
"11 c black",
"12 c black",
"13 c black",
"14 c black",
"15 c black",
"0000060006000600060006000000000000000000",
"0000000700070007000700020000000000000000",
"0000060003000700030007000700000000000000",
"0000000700070000000000010001000000000000",
"0000060003000000000000000300010000000000",
"0000000700000000000000060002000100000000",
"0000060003000700050008000300010001000000",
"0000000700000006000000040002000200010000",
"0000060003000800050004000300010001000100",
"0000000700020008000400020002000200020000",
"0000060003000200010002000300010001000100",
"0000000700070007000700070002000200020000",
"0000060003000300070003000700010001000100",
"0000000200020002000200020002000200020000",
"0000010001000100010001000100010001000100",
"0000000000020002000200020002000200020000",
"0000000001000100010001000100010001000100",
"0000000000000002000200020002000200020000",
"0000000000000100010001000100010001000100",
"0000000000000000000000000000000000000000"
};
