/* XPM */
static char *dsgnprops_xpm[] = {
"16 16 16 2",
"00 c none",
"01 c black",
"02 c #F8F8F8",
"03 c #808080",
"04 c #C0C0C0",
"05 c #0000F8",
"06 c black",
"07 c black",
"08 c black",
"09 c black",
"10 c black",
"11 c black",
"12 c black",
"13 c black",
"14 c black",
"15 c black",
"00000000000000000000000000000000",
"03030303030303030303030303030300",
"03020505050505050505050205020100",
"03010101010101010101010101010100",
"03040204020402040204020402040100",
"03020402040201010402040204020100",
"03040201020101040204020402040100",
"03020401010104020402040204020100",
"03040204010402040204020402040100",
"03020402040201010402040204020100",
"03040201020101040204020402040100",
"03020401010104020402040204020100",
"03040204010402040204020402040100",
"01010101030101010101010101010100",
"00000000000000000000000000000000",
"00000000000000000000000000000000"
};
