/* XPM */
char *editSQL_xpm[] = {
"16 16 256 3",
"000 c #687898",
"001 c #F8F8F8",
"002 c None",
"003 c #F0F8F8",
"004 c #68B070",
"005 c #E0F0F8",
"006 c #98F868",
"007 c #886868",
"008 c #D0D8E8",
"009 c #D8F8D0",
"010 c #D89888",
"011 c #E8F0F8",
"012 c #80E858",
"013 c #389820",
"014 c #A0B8D8",
"015 c #8898B8",
"016 c #E0E8F8",
"017 c #88F850",
"018 c #B03838",
"019 c #D8D8E8",
"020 c #98F860",
"021 c #D8C8C8",
"022 c #E0F0F0",
"023 c #90F860",
"024 c #7088A8",
"025 c #40B028",
"026 c #6878A0",
"027 c #A0C098",
"028 c #388030",
"029 c #B0C0D8",
"030 c #A0C0A0",
"031 c #D8E8F8",
"032 c #8088A8",
"033 c #D8E0E8",
"034 c #C0C0D8",
"035 c #40A828",
"036 c #8090B0",
"037 c #C8B8A8",
"038 c #607890",
"039 c #C8D8E8",
"040 c #80B880",
"041 c #D84828",
"042 c #D0D0E0",
"043 c #D0E0D8",
"044 c #78E050",
"045 c #9098B0",
"046 c #B0B8C0",
"047 c #607098",
"048 c #A8B8D8",
"049 c #98A0B0",
"050 c #C84838",
"051 c #D8E8E8",
"052 c #C0C8D8",
"053 c #68D840",
"054 c #7888A8",
"055 c #B0B8C8",
"056 c #D83820",
"057 c #E0D0D0",
"058 c #80E850",
"059 c #7880A8",
"060 c #B0D8B0",
"061 c #C8D0E8",
"062 c #A0D098",
"063 c #38A028",
"064 c #D0B8C0",
"065 c #7888B0",
"066 c #C8C8D8",
"067 c #70D850",
"068 c #7080A0",
"069 c #B8E8A8",
"070 c #90C098",
"071 c #A82828",
"072 c #F09078",
"073 c #C8D0D8",
"074 c #88F058",
"075 c #706868",
"076 c #B8C8C0",
"077 c #B8C0D8",
"078 c #50B030",
"079 c #A0A8B0",
"080 c #A8E890",
"081 c #908890",
"082 c #F87040",
"083 c black",
"084 c black",
"085 c black",
"086 c black",
"087 c black",
"088 c black",
"089 c black",
"090 c black",
"091 c black",
"092 c black",
"093 c black",
"094 c black",
"095 c black",
"096 c black",
"097 c black",
"098 c black",
"099 c black",
"100 c black",
"101 c black",
"102 c black",
"103 c black",
"104 c black",
"105 c black",
"106 c black",
"107 c black",
"108 c black",
"109 c black",
"110 c black",
"111 c black",
"112 c black",
"113 c black",
"114 c black",
"115 c black",
"116 c black",
"117 c black",
"118 c black",
"119 c black",
"120 c black",
"121 c black",
"122 c black",
"123 c black",
"124 c black",
"125 c black",
"126 c black",
"127 c black",
"128 c black",
"129 c black",
"130 c black",
"131 c black",
"132 c black",
"133 c black",
"134 c black",
"135 c black",
"136 c black",
"137 c black",
"138 c black",
"139 c black",
"140 c black",
"141 c black",
"142 c black",
"143 c black",
"144 c black",
"145 c black",
"146 c black",
"147 c black",
"148 c black",
"149 c black",
"150 c black",
"151 c black",
"152 c black",
"153 c black",
"154 c black",
"155 c black",
"156 c black",
"157 c black",
"158 c black",
"159 c black",
"160 c black",
"161 c black",
"162 c black",
"163 c black",
"164 c black",
"165 c black",
"166 c black",
"167 c black",
"168 c black",
"169 c black",
"170 c black",
"171 c black",
"172 c black",
"173 c black",
"174 c black",
"175 c black",
"176 c black",
"177 c black",
"178 c black",
"179 c black",
"180 c black",
"181 c black",
"182 c black",
"183 c black",
"184 c black",
"185 c black",
"186 c black",
"187 c black",
"188 c black",
"189 c black",
"190 c black",
"191 c black",
"192 c black",
"193 c black",
"194 c black",
"195 c black",
"196 c black",
"197 c black",
"198 c black",
"199 c black",
"200 c black",
"201 c black",
"202 c black",
"203 c black",
"204 c black",
"205 c black",
"206 c black",
"207 c black",
"208 c black",
"209 c black",
"210 c black",
"211 c black",
"212 c black",
"213 c black",
"214 c black",
"215 c black",
"216 c black",
"217 c black",
"218 c black",
"219 c black",
"220 c black",
"221 c black",
"222 c black",
"223 c black",
"224 c black",
"225 c black",
"226 c black",
"227 c black",
"228 c black",
"229 c black",
"230 c black",
"231 c black",
"232 c black",
"233 c black",
"234 c black",
"235 c black",
"236 c black",
"237 c black",
"238 c black",
"239 c black",
"240 c black",
"241 c black",
"242 c black",
"243 c black",
"244 c black",
"245 c black",
"246 c black",
"247 c black",
"248 c black",
"249 c black",
"250 c black",
"251 c black",
"252 c black",
"253 c black",
"254 c black",
"255 c black",
"002002002002002002002002002002002002002002002002",
"002002015015036036054054024024068052002002002002",
"002002015001001001001001001001036064050018021002",
"002002015001001001001001001001073010082041071002",
"002002036001001001001001001001027001072056018002",
"002002036001001001001001001080017027046007057002",
"002002032001066066052008069074023053028046002002",
"002002032001001001001009012006067013060045002002",
"002002054001034052043044006044063070003000002002",
"002002054001034042062006012035040039011000002002",
"002002059001034019037078025004008014011000002002",
"002002068001077008075081076061014014005000002002",
"002002000001029029079049029048014014005000002002",
"002002047001011011051033005005005016031038002002",
"002002000000000000000000000000000000000000002002",
"002002002002002002002002002002002002002002002002"
};
