/* XPM */
char * elementpopup_xpm[] = {
"16 16 33 1",
" 	c None",
".	c #A8D0F0",
"+	c #0099FF",
"@	c #99CCFF",
"#	c #3DADFF",
"$	c #0085EB",
"%	c #0091F7",
"&	c #FDFDFF",
"*	c #F9F9FF",
"=	c #F3F3FF",
"-	c #EEEEFF",
";	c #EAEAFF",
">	c #E5E5FF",
",	c #E0E0FF",
"'	c #DBDBFF",
")	c #D6D6FF",
"!	c #FBFBFF",
"~	c #000000",
"{	c #808080",
"]	c #F5F5FF",
"^	c #F0F0FF",
"/	c #ECECFF",
"(	c #DEDEFF",
"_	c #D9D9FF",
":	c #D4D4FF",
"<	c #E8E8FF",
"[	c #DCDCFF",
"}	c #D7D7FF",
"|	c #D2D2FF",
"1	c #D1D1FF",
"2	c #E6E6FF",
"3	c #E1E1FF",
"4	c #CFCFFF",
"                ",
"                ",
"                ",
"                ",
"                ",
"                ",
" .++++++++++++. ",
" +@@@@@@@@@@@#+ ",
" ++$$$$$$$$$$%+ ",
" +   &*=-;>,')+ ",
" +!~{*]^/~{(_:+ ",
" +]]]=^-<>,[}|+ ",
" +^~{-/<>~{_)1+ ",
" +;;;;2>3(')|4+ ",
" .++++++++++++. ",
"                "};
