/* XPM */
char *elem_text_xpm[] = {
"16 16 27 3",
"000 c None",
"001 c #A0B8D0",
"002 c #78A8E0",
"003 c #90B0D0",
"004 c #4898E0",
"005 c #88B0D8",
"006 c #4880C8",
"007 c #78A8D0",
"008 c #70B0F0",
"009 c #90C8F8",
"010 c #0050A8",
"011 c #80A8D0",
"012 c #4888D8",
"013 c #88C0F8",
"014 c #2870B8",
"015 c #68A0D0",
"016 c #2880D8",
"017 c #1058B0",
"018 c #78B8F0",
"019 c #4078C0",
"020 c #4090E0",
"021 c #2070C0",
"022 c #3070B8",
"023 c #1058B8",
"024 c #3888D0",
"025 c #1078D8",
"026 c #0848A8",
"000000000000000000000000000000000000000000000000",
"000000000000000000000000000000000000000000000000",
"000000000000000000000000000000000000000000000000",
"000000000000000000000000000000000000000000000000",
"000017021024001000000000000000000001024021017000",
"000017004013012005000000000000005012013004017000",
"000017020018009006007000000007006009018020017000",
"000017020018009009006009009006009009018020017000",
"000017016008002002019009009019002002008016017000",
"000017016008002019011000000011019002008016017000",
"000017025015022003000000000000003022015025017000",
"000026010014001000000000000000000001014010026000",
"000000000000000000000000000000000000000000000000",
"000000000000000000000000000000000000000000000000",
"000000000000000000000000000000000000000000000000",
"000000000000000000000000000000000000000000000000"
};
