/* XPM */
char *elem_r_xpm[] = {
"16 16 42 3",
"000 c None",
"001 c #88C0F8",
"002 c #78B8F0",
"003 c #90C8F8",
"004 c #58A0E8",
"005 c #78B0E8",
"006 c #70B0F0",
"007 c #50A0E8",
"008 c #78A8E0",
"009 c #60A8E8",
"010 c #80B8F0",
"011 c #68A8E8",
"012 c #4880C0",
"013 c #70B0E8",
"014 c #58A0E0",
"015 c #60A8F0",
"016 c #60A0D0",
"017 c #4090E0",
"018 c #4898E0",
"019 c #5098E0",
"020 c #3888D8",
"021 c #4078C0",
"022 c #4088D8",
"023 c #3078C8",
"024 c #4888D8",
"025 c #3888E0",
"026 c #2068B0",
"027 c #2880D8",
"028 c #1058B0",
"029 c #2870C0",
"030 c #3080D8",
"031 c #1878D8",
"032 c #3070B8",
"033 c #2078D8",
"034 c #2078D0",
"035 c #2870B8",
"036 c #0850A8",
"037 c #3088E0",
"038 c #1058A8",
"039 c #0858A8",
"040 c #0050A8",
"041 c #1058B8",
"000000000000000000000000000000000000000000000000",
"000000000000000000000000000000000000000000000000",
"000000000000000000000000000000000000000000000000",
"000000000000000000000000000000000000000000000000",
"000000029029029023023023023023022003000000000000",
"000028004011011006005010006006001024003000000000",
"000028017033030020018019009011002003012003000000",
"000028017033030020017019004011002003003012003000",
"000028027033027020017019004009006008008021003000",
"000028027033027020017018004009006008021003000000",
"000028031027027037017018007009016032003000000000",
"000000040036039036039028028026029003000000000000",
"000000000000000000000000000000000000000000000000",
"000000000000000000000000000000000000000000000000",
"000000000000000000000000000000000000000000000000",
"000000000000000000000000000000000000000000000000"
};
