/* XPM */
char *evaluate_xpm[] = {
"16 16 256 3",
"000 c #282828",
"001 c None",
"002 c #38A838",
"003 c gray94",
"004 c #606860",
"005 c #F8B898",
"006 c #80C8F0",
"007 c #F8F0F0",
"008 c #505050",
"009 c #F88838",
"010 c #A0F860",
"011 c #889898",
"012 c #E8F0E8",
"013 c gray88",
"014 c gray25",
"015 c #F0F8F8",
"016 c #88F050",
"017 c #788078",
"018 c #F8B088",
"019 c #90D0F0",
"020 c gray44",
"021 c #F8E070",
"022 c #78C078",
"023 c #889098",
"024 c #F0B090",
"025 c #A8D8F0",
"026 c gray3",
"027 c #38B818",
"028 c #888888",
"029 c #90D8F8",
"030 c #004808",
"031 c #E0A080",
"032 c #D8D8D8",
"033 c #787068",
"034 c #C8F0F8",
"035 c #707878",
"036 c #40A838",
"037 c #707078",
"038 c #98D0F0",
"039 c #707870",
"040 c #F88030",
"041 c #70B870",
"042 c #D89060",
"043 c #B0C0B0",
"044 c #282028",
"045 c #70D838",
"046 c #707068",
"047 c #C0C0C0",
"048 c #585858",
"049 c #807868",
"050 c gray19",
"051 c #80E048",
"052 c #98D0F8",
"053 c #585058",
"054 c #F8D878",
"055 c #E8A078",
"056 c gray69",
"057 c #181818",
"058 c #50B048",
"059 c #80D0F8",
"060 c #186818",
"061 c #F07830",
"062 c #58D048",
"063 c #787870",
"064 c #E8F8F8",
"065 c #484048",
"066 c #D0C088",
"067 c gray47",
"068 c #A0E0F8",
"069 c #607860",
"070 c #889090",
"071 c #B8E8F8",
"072 c #90D0F8",
"073 c #A0D8F0",
"074 c #201020",
"075 c #48C830",
"076 c gray66",
"077 c #889088",
"078 c #D0D0D0",
"079 c #C0E8F8",
"080 c #807870",
"081 c #D8E0D8",
"082 c #686868",
"083 c #30A828",
"084 c #888880",
"085 c #484848",
"086 c #90C8E8",
"087 c #606060",
"088 c #989898",
"089 c #383038",
"090 c #60C050",
"091 c #108008",
"092 c #70E048",
"093 c #483848",
"094 c #48A040",
"095 c #98D8F8",
"096 c #989078",
"097 c #40B828",
"098 c #A0D8A0",
"099 c gray22",
"100 c #A0A0A0",
"101 c black",
"102 c black",
"103 c black",
"104 c black",
"105 c black",
"106 c black",
"107 c black",
"108 c black",
"109 c black",
"110 c black",
"111 c black",
"112 c black",
"113 c black",
"114 c black",
"115 c black",
"116 c black",
"117 c black",
"118 c black",
"119 c black",
"120 c black",
"121 c black",
"122 c black",
"123 c black",
"124 c black",
"125 c black",
"126 c black",
"127 c black",
"128 c black",
"129 c black",
"130 c black",
"131 c black",
"132 c black",
"133 c black",
"134 c black",
"135 c black",
"136 c black",
"137 c black",
"138 c black",
"139 c black",
"140 c black",
"141 c black",
"142 c black",
"143 c black",
"144 c black",
"145 c black",
"146 c black",
"147 c black",
"148 c black",
"149 c black",
"150 c black",
"151 c black",
"152 c black",
"153 c black",
"154 c black",
"155 c black",
"156 c black",
"157 c black",
"158 c black",
"159 c black",
"160 c black",
"161 c black",
"162 c black",
"163 c black",
"164 c black",
"165 c black",
"166 c black",
"167 c black",
"168 c black",
"169 c black",
"170 c black",
"171 c black",
"172 c black",
"173 c black",
"174 c black",
"175 c black",
"176 c black",
"177 c black",
"178 c black",
"179 c black",
"180 c black",
"181 c black",
"182 c black",
"183 c black",
"184 c black",
"185 c black",
"186 c black",
"187 c black",
"188 c black",
"189 c black",
"190 c black",
"191 c black",
"192 c black",
"193 c black",
"194 c black",
"195 c black",
"196 c black",
"197 c black",
"198 c black",
"199 c black",
"200 c black",
"201 c black",
"202 c black",
"203 c black",
"204 c black",
"205 c black",
"206 c black",
"207 c black",
"208 c black",
"209 c black",
"210 c black",
"211 c black",
"212 c black",
"213 c black",
"214 c black",
"215 c black",
"216 c black",
"217 c black",
"218 c black",
"219 c black",
"220 c black",
"221 c black",
"222 c black",
"223 c black",
"224 c black",
"225 c black",
"226 c black",
"227 c black",
"228 c black",
"229 c black",
"230 c black",
"231 c black",
"232 c black",
"233 c black",
"234 c black",
"235 c black",
"236 c black",
"237 c black",
"238 c black",
"239 c black",
"240 c black",
"241 c black",
"242 c black",
"243 c black",
"244 c black",
"245 c black",
"246 c black",
"247 c black",
"248 c black",
"249 c black",
"250 c black",
"251 c black",
"252 c black",
"253 c black",
"254 c black",
"255 c black",
"001001001001001001001001001001001001001001001001",
"001001001001001001013076100081001001001001001001",
"001001001001001070008053065000035001001001001001",
"001001050047028053048008014089044004047000003001",
"001001087069060093085028028028074030069048001001",
"001001001058092090023063020020028045094001001001",
"001001001062010017017015034068017017045001001001",
"001001013075016017064064079073029049045032001001",
"001000099097051035071071025019019020010014057001",
"001056032090045063029038086006095049010013056001",
"001001001098010017017059059038023028055001001001",
"001001001013091010096033020033028066040005001001",
"001001001082043083010010010027042040021009018001",
"001001013026078012022036002041007024061054011001",
"001001001088003001001001001001001001031023001001",
"001001001001001001001001001001001001001001001001"
};
