/* XPM */
char *exit_xpm[] = {
"16 16 256 3",
"000 c #0098F8",
"001 c None",
"002 c #F0F0F8",
"003 c #F87028",
"004 c #0080E8",
"005 c #F84808",
"006 c #D8D8F8",
"007 c #F89840",
"008 c #D06058",
"009 c #E8E8F8",
"010 c #D0D0F8",
"011 c #D0D0D0",
"012 c #F83800",
"013 c #98C8F8",
"014 c #F89038",
"015 c #A01010",
"016 c #F86820",
"017 c #D06860",
"018 c #A8D0F0",
"019 c #C0C0D0",
"020 c #F83000",
"021 c #A81010",
"022 c #D06060",
"023 c #D84010",
"024 c #F85810",
"025 c #D05850",
"026 c #C8C8D0",
"027 c #F02800",
"028 c #B00808",
"029 c #E04818",
"030 c #C06868",
"031 c #B87070",
"032 c #D83810",
"033 c #A81818",
"034 c #C86868",
"035 c #A80800",
"036 c #D03008",
"037 c #E0E0F8",
"038 c #C82808",
"039 c #D83010",
"040 c #B01008",
"041 c #B00800",
"042 c #E82800",
"043 c #A81008",
"044 c black",
"045 c black",
"046 c black",
"047 c black",
"048 c black",
"049 c black",
"050 c black",
"051 c black",
"052 c black",
"053 c black",
"054 c black",
"055 c black",
"056 c black",
"057 c black",
"058 c black",
"059 c black",
"060 c black",
"061 c black",
"062 c black",
"063 c black",
"064 c black",
"065 c black",
"066 c black",
"067 c black",
"068 c black",
"069 c black",
"070 c black",
"071 c black",
"072 c black",
"073 c black",
"074 c black",
"075 c black",
"076 c black",
"077 c black",
"078 c black",
"079 c black",
"080 c black",
"081 c black",
"082 c black",
"083 c black",
"084 c black",
"085 c black",
"086 c black",
"087 c black",
"088 c black",
"089 c black",
"090 c black",
"091 c black",
"092 c black",
"093 c black",
"094 c black",
"095 c black",
"096 c black",
"097 c black",
"098 c black",
"099 c black",
"100 c black",
"101 c black",
"102 c black",
"103 c black",
"104 c black",
"105 c black",
"106 c black",
"107 c black",
"108 c black",
"109 c black",
"110 c black",
"111 c black",
"112 c black",
"113 c black",
"114 c black",
"115 c black",
"116 c black",
"117 c black",
"118 c black",
"119 c black",
"120 c black",
"121 c black",
"122 c black",
"123 c black",
"124 c black",
"125 c black",
"126 c black",
"127 c black",
"128 c black",
"129 c black",
"130 c black",
"131 c black",
"132 c black",
"133 c black",
"134 c black",
"135 c black",
"136 c black",
"137 c black",
"138 c black",
"139 c black",
"140 c black",
"141 c black",
"142 c black",
"143 c black",
"144 c black",
"145 c black",
"146 c black",
"147 c black",
"148 c black",
"149 c black",
"150 c black",
"151 c black",
"152 c black",
"153 c black",
"154 c black",
"155 c black",
"156 c black",
"157 c black",
"158 c black",
"159 c black",
"160 c black",
"161 c black",
"162 c black",
"163 c black",
"164 c black",
"165 c black",
"166 c black",
"167 c black",
"168 c black",
"169 c black",
"170 c black",
"171 c black",
"172 c black",
"173 c black",
"174 c black",
"175 c black",
"176 c black",
"177 c black",
"178 c black",
"179 c black",
"180 c black",
"181 c black",
"182 c black",
"183 c black",
"184 c black",
"185 c black",
"186 c black",
"187 c black",
"188 c black",
"189 c black",
"190 c black",
"191 c black",
"192 c black",
"193 c black",
"194 c black",
"195 c black",
"196 c black",
"197 c black",
"198 c black",
"199 c black",
"200 c black",
"201 c black",
"202 c black",
"203 c black",
"204 c black",
"205 c black",
"206 c black",
"207 c black",
"208 c black",
"209 c black",
"210 c black",
"211 c black",
"212 c black",
"213 c black",
"214 c black",
"215 c black",
"216 c black",
"217 c black",
"218 c black",
"219 c black",
"220 c black",
"221 c black",
"222 c black",
"223 c black",
"224 c black",
"225 c black",
"226 c black",
"227 c black",
"228 c black",
"229 c black",
"230 c black",
"231 c black",
"232 c black",
"233 c black",
"234 c black",
"235 c black",
"236 c black",
"237 c black",
"238 c black",
"239 c black",
"240 c black",
"241 c black",
"242 c black",
"243 c black",
"244 c black",
"245 c black",
"246 c black",
"247 c black",
"248 c black",
"249 c black",
"250 c black",
"251 c black",
"252 c black",
"253 c black",
"254 c black",
"255 c black",
"001001001001001001001001001001001001001001001001",
"001018000000000000000000000000000000000018001001",
"001000013013013013013013013013013013013000001001",
"001000000004004004004004004004004004004000001001",
"001000011011011011011026026019019002002013001001",
"001000002002002002002002002009037002031037001001",
"001000002002002002002002002009037002035030037001",
"001000002002002002002002033021021021039038017001",
"001000002002002002002002015042020005016014032008",
"001000002002002002002002015027012024003007023025",
"001000002002002002002009033028040040029036008001",
"001000002002002009009009002002002002028008037001",
"001000009009009009037037037006006002034037001001",
"001000037037037037037037006006010002002013001001",
"001018000000000000000000000000000000000018001001",
"001001001001001001001001001001001001001001001001"
};
