/* XPM */
char *explorer_xpm[] = {
"16 16 108 3",
"000 c #585888",
"001 c #F8F8F8",
"002 c #2898E0",
"003 c #F0F8F8",
"004 c #186098",
"005 c #D8E8F8",
"006 c #80A8D8",
"007 c #E8F0F8",
"008 c #7078A0",
"009 c #C0C0C0",
"010 c #38A8F0",
"011 c #E8F0F0",
"012 c #5890B8",
"013 c gray94",
"014 c #A0B0D8",
"015 c #4880A8",
"016 c #B0C8F8",
"017 c #4090E0",
"018 c #2088C0",
"019 c #C8D0F8",
"020 c #70A0C8",
"021 c #505080",
"022 c #B8C8F8",
"023 c #68C0E8",
"024 c #4888B0",
"025 c #D8D8D8",
"026 c #98C0D0",
"027 c #305888",
"028 c #A8C8F8",
"029 c #30A8D8",
"030 c #686898",
"031 c #E0E8F0",
"032 c #606090",
"033 c #C8D8F8",
"034 c #38B8E8",
"035 c #3878B0",
"036 c #A0B8C8",
"037 c #187098",
"038 c #B8C8E0",
"039 c #3098E8",
"040 c #2868A8",
"041 c #E0F0F8",
"042 c #88A8D8",
"043 c #7880A8",
"044 c #C0D0F0",
"045 c #68F0F8",
"046 c #7080B0",
"047 c #D0E8F8",
"048 c #90B0D0",
"049 c #2090D0",
"050 c #686890",
"051 c #C8E0F8",
"052 c #40A8F8",
"053 c #78A8C0",
"054 c #4078A0",
"055 c #B0D8E8",
"056 c #3898E8",
"057 c #3070B0",
"058 c #80A0D0",
"059 c #68C0E0",
"060 c #4888C0",
"061 c #78D0F8",
"062 c #284058",
"063 c #A8D0F0",
"064 c #2098E0",
"065 c #3088C8",
"066 c #C8E8F0",
"067 c #687098",
"068 c #B8D8F8",
"069 c #30B0F0",
"070 c #A0B8E0",
"071 c #406088",
"072 c #B0D0F0",
"073 c #48A0E0",
"074 c #2878C0",
"075 c #7090B0",
"076 c #606898",
"077 c #C0E0F8",
"078 c #38C8F8",
"079 c #90E8F8",
"080 c #30A8F0",
"081 c #486888",
"082 c #A8C0E0",
"083 c #3090D8",
"084 c #70B0D8",
"085 c #2890E0",
"086 c #38A0D8",
"087 c #3090E8",
"088 c #50A0E0",
"089 c #5090C0",
"090 c #204068",
"091 c #A0C0E0",
"092 c #28A0E8",
"093 c #7878A0",
"094 c #C0D0F8",
"095 c #48C0F8",
"096 c #80B0D0",
"097 c #B0C0E8",
"098 c #3088D8",
"099 c #80A0C0",
"100 c #78C8F8",
"101 c #70A8D8",
"102 c #283858",
"103 c #98A8C0",
"104 c #204060",
"105 c #B8D0E0",
"106 c #A8B0C0",
"107 c #98B0D8",
"001001001006006006006006006042058046025013001001",
"001001001006001001001001001001001046020009013001",
"001001001006001001007105096096055046022017009001",
"001001001006012012012012012001034076030030043013",
"001001026012079045078034089001023031003022093001",
"001026012066029018018002092015001007007022008001",
"007012001053037091001074052083075005041022067001",
"012001053069049073088098039052054038005016030001",
"001053095064004004004004004004071038047016032001",
"036061080085004091051051051051051082051016000001",
"024086035039087057091065065065081072077028021001",
"024103106040056039010023023062048068068028021001",
"100099001060027090090102081107044019033028021001",
"003063084101019070014097044044033033033028021001",
"001001001000000000000000000000000000000000000001",
"001001001001001001001001001001001001001001001001"
};
