/* XPM */
char *export_obj_xpm[] = {
"16 16 256 3",
"000 c None",
"001 c #B8C0D8",
"002 c #80F050",
"003 c #F0F8F0",
"004 c #70B070",
"005 c #88B0D8",
"006 c #80F058",
"007 c #88F058",
"008 c #60B860",
"009 c #80A888",
"010 c #E8F0E8",
"011 c #58D838",
"012 c #98F868",
"013 c #68A0D8",
"014 c #C8E8C8",
"015 c #58A0E0",
"016 c #68E048",
"017 c #6090D0",
"018 c #60A068",
"019 c #4088D0",
"020 c #489858",
"021 c #5898D8",
"022 c #40C028",
"023 c #4060B0",
"024 c #38A838",
"025 c #3850A0",
"026 c #4080D0",
"027 c #30B020",
"028 c #407858",
"029 c #3050A8",
"030 c #38B020",
"031 c #209810",
"032 c #384090",
"033 c #3058A8",
"034 c #3860B0",
"035 c #38A038",
"036 c #20A020",
"037 c #30A038",
"038 c #204098",
"039 c #2858A8",
"040 c #1848A8",
"041 c #28A818",
"042 c #189810",
"043 c #289030",
"044 c #2880D0",
"045 c #2850A8",
"046 c #1080E0",
"047 c #2070C8",
"048 c #2050A8",
"049 c #1070D0",
"050 c #2878D0",
"051 c #2080D8",
"052 c #28A028",
"053 c #083090",
"054 c #1850A8",
"055 c #209828",
"056 c #103090",
"057 c #18A010",
"058 c #1048A0",
"059 c #0088E8",
"060 c #087808",
"061 c #0880E8",
"062 c #0878D8",
"063 c #0840A0",
"064 c black",
"065 c black",
"066 c black",
"067 c black",
"068 c black",
"069 c black",
"070 c black",
"071 c black",
"072 c black",
"073 c black",
"074 c black",
"075 c black",
"076 c black",
"077 c black",
"078 c black",
"079 c black",
"080 c black",
"081 c black",
"082 c black",
"083 c black",
"084 c black",
"085 c black",
"086 c black",
"087 c black",
"088 c black",
"089 c black",
"090 c black",
"091 c black",
"092 c black",
"093 c black",
"094 c black",
"095 c black",
"096 c black",
"097 c black",
"098 c black",
"099 c black",
"100 c black",
"101 c black",
"102 c black",
"103 c black",
"104 c black",
"105 c black",
"106 c black",
"107 c black",
"108 c black",
"109 c black",
"110 c black",
"111 c black",
"112 c black",
"113 c black",
"114 c black",
"115 c black",
"116 c black",
"117 c black",
"118 c black",
"119 c black",
"120 c black",
"121 c black",
"122 c black",
"123 c black",
"124 c black",
"125 c black",
"126 c black",
"127 c black",
"128 c black",
"129 c black",
"130 c black",
"131 c black",
"132 c black",
"133 c black",
"134 c black",
"135 c black",
"136 c black",
"137 c black",
"138 c black",
"139 c black",
"140 c black",
"141 c black",
"142 c black",
"143 c black",
"144 c black",
"145 c black",
"146 c black",
"147 c black",
"148 c black",
"149 c black",
"150 c black",
"151 c black",
"152 c black",
"153 c black",
"154 c black",
"155 c black",
"156 c black",
"157 c black",
"158 c black",
"159 c black",
"160 c black",
"161 c black",
"162 c black",
"163 c black",
"164 c black",
"165 c black",
"166 c black",
"167 c black",
"168 c black",
"169 c black",
"170 c black",
"171 c black",
"172 c black",
"173 c black",
"174 c black",
"175 c black",
"176 c black",
"177 c black",
"178 c black",
"179 c black",
"180 c black",
"181 c black",
"182 c black",
"183 c black",
"184 c black",
"185 c black",
"186 c black",
"187 c black",
"188 c black",
"189 c black",
"190 c black",
"191 c black",
"192 c black",
"193 c black",
"194 c black",
"195 c black",
"196 c black",
"197 c black",
"198 c black",
"199 c black",
"200 c black",
"201 c black",
"202 c black",
"203 c black",
"204 c black",
"205 c black",
"206 c black",
"207 c black",
"208 c black",
"209 c black",
"210 c black",
"211 c black",
"212 c black",
"213 c black",
"214 c black",
"215 c black",
"216 c black",
"217 c black",
"218 c black",
"219 c black",
"220 c black",
"221 c black",
"222 c black",
"223 c black",
"224 c black",
"225 c black",
"226 c black",
"227 c black",
"228 c black",
"229 c black",
"230 c black",
"231 c black",
"232 c black",
"233 c black",
"234 c black",
"235 c black",
"236 c black",
"237 c black",
"238 c black",
"239 c black",
"240 c black",
"241 c black",
"242 c black",
"243 c black",
"244 c black",
"245 c black",
"246 c black",
"247 c black",
"248 c black",
"249 c black",
"250 c black",
"251 c black",
"252 c black",
"253 c black",
"254 c black",
"255 c black",
"000000000000000000000000000000000000000000000000",
"000000000000000000000000000003024010000000000000",
"000000000000000000000000000055002036003000000000",
"000000000000000000000000037002012007052003000000",
"000000000000000000000020043022002022035008000000",
"000000000000000000000000000041016030014000000000",
"000000023039048054040058001031011042003000000000",
"000000034005017019044051001057027004000000000000",
"000000033013026047049001009060018000000000000000",
"000000029021050049062001028001000000000000000000",
"000000045015051046061059001063000000000000000000",
"000000025038056056053053053032000000000000000000",
"000000000000000000000000000000000000000000000000",
"000000000000000000000000000000000000000000000000",
"000000000000000000000000000000000000000000000000",
"000000000000000000000000000000000000000000000000"
};
