/* XPM */
char * export_users_xpm[] = {
"16 16 140 2",
"  	c None",
". 	c #39A239",
"+ 	c #219A29",
"@ 	c #84F35A",
"# 	c #21A221",
"$ 	c #087908",
"% 	c #9CFB6B",
"& 	c #8CF35A",
"* 	c #29A229",
"= 	c #299231",
"- 	c #42C329",
"; 	c #5AB25A",
"> 	c #E9E8E4",
", 	c #E9E4DB",
"' 	c #29AA18",
") 	c #6BE34A",
"! 	c #39B221",
"~ 	c #E9E7E0",
"{ 	c #D1A642",
"] 	c #D6A318",
"^ 	c #D2990D",
"/ 	c #CDA13B",
"( 	c #E6E1D7",
"_ 	c #EAE9E7",
": 	c #D9B658",
"< 	c #C48F06",
"[ 	c #E4DED5",
"} 	c #219A10",
"| 	c #5ADB39",
"1 	c #189A10",
"2 	c #D3B882",
"3 	c #B88400",
"4 	c #B48207",
"5 	c #D6A544",
"6 	c #AF7C0D",
"7 	c #BCA36E",
"8 	c #DED2B3",
"9 	c #B28200",
"0 	c #31B221",
"a 	c #6BAA6B",
"b 	c #C6A564",
"c 	c #986600",
"d 	c #DCB365",
"e 	c #FFE0A4",
"f 	c #F9BE6F",
"g 	c #9F834A",
"h 	c #F2D3B4",
"i 	c #F1AD56",
"j 	c #84AA8C",
"k 	c #63A26B",
"l 	c #D7C298",
"m 	c #D38D2D",
"n 	c #FFD390",
"o 	c #FFCB84",
"p 	c #FFBF70",
"q 	c #DAAE76",
"r 	c #F2D2B2",
"s 	c #FFBD6D",
"t 	c #42795A",
"u 	c #FCBB5D",
"v 	c #FFC474",
"w 	c #FFC070",
"x 	c #FFB354",
"y 	c #F2D7B2",
"z 	c #EDE3D7",
"A 	c #FFA93D",
"B 	c #FFC775",
"C 	c #AF770F",
"D 	c #F2C7AC",
"E 	c #E97A36",
"F 	c #FF9E38",
"G 	c #FFB044",
"H 	c #E56F23",
"I 	c #C98D8D",
"J 	c #90B2EE",
"K 	c #416598",
"L 	c #FFAC4D",
"M 	c #CA8A2F",
"N 	c #6A5B2C",
"O 	c #6481AF",
"P 	c #EECDB8",
"Q 	c #E76F26",
"R 	c #F88F2F",
"S 	c #E26C22",
"T 	c #B0503A",
"U 	c #BC3510",
"V 	c #BA1202",
"W 	c #2358AB",
"X 	c #005ECA",
"Y 	c #AFF0FF",
"Z 	c #3182DB",
"` 	c #166FD2",
" .	c #0F57BD",
"..	c #8BA1D1",
"+.	c #D97E55",
"@.	c #E06B23",
"#.	c #EF822A",
"$.	c #F3862B",
"%.	c #E77223",
"&.	c #D65A1D",
"*.	c #CA3508",
"=.	c #682C50",
"-.	c #0E71D1",
";.	c #206BC5",
">.	c #0A58B8",
",.	c #2976C6",
"'.	c #2067BB",
").	c #2A56AA",
"!.	c #C84E24",
"~.	c #D1551B",
"{.	c #DD6521",
"].	c #E36D24",
"^.	c #D96020",
"/.	c #CE4F1A",
"(.	c #BD2804",
"_.	c #77122A",
":.	c #1F7DD3",
"<.	c #2B7AC8",
"[.	c #2A79C7",
"}.	c #1E66B9",
"|.	c #0C47A6",
"1.	c #083C9E",
"2.	c #E1A397",
"3.	c #CF5842",
"4.	c #BB2F13",
"5.	c #B52B0D",
"6.	c #B0220B",
"7.	c #AA1509",
"8.	c #C03C3C",
"9.	c #A194B4",
"0.	c #4A7ED3",
"a.	c #2F69C7",
"b.	c #2E66C2",
"c.	c #446EC2",
"d.	c #7993CC",
"e.	c #CCD2E2",
"f.	c #E9E6E6",
"g.	c #E3CFCF",
"h.	c #E3CDCD",
"i.	c #E9E2E2",
"                        .       ",
"                      + @ #     ",
"                    $ @ % & *   ",
"                  $ = - @ - . ; ",
"                  > , ' ) !     ",
"  ~ { ] ^ / ( _ : < [ } | 1     ",
"  2 3 4 5 6 7 8 9 [ [ $ 0 a     ",
"  b c d e f g h i [ j $ k [     ",
"  l m n o p q r s [ t [ [ [     ",
"    u v w x y z A B [ [ C [     ",
"  D E F G H I J K L M N O       ",
"P Q R S T U V W X Y Z `  ...    ",
"+.@.#.$.%.&.*.=.-.;.>.,.'.).    ",
"!.~.{.].^./.(._.:.<.[.}.|.1.    ",
"2.3.4.5.6.7.8.9.0.a.b.c.d.e.    ",
"    f.g.h.i.                    "};
