/* XPM */
static char *extinfo_xpm[] = {
/* columns rows colors chars-per-pixel */
"16 16 81 1",
", c #B8DCFF",
"I c #6C72A5",
"2 c #CEE7FF",
"i c #FAFAFA",
"L c #DDDDDD",
"v c #7584B7",
"1 c #C7E4FF",
"p c #7B8FC2",
"8 c #7E96C9",
"o c #94C2F5",
"D c #84A4D7",
"7 c #F9F9F9",
"l c #7787BA",
"j c #3E3D3E",
"E c #7A8EC1",
"+ c #90BAED",
"G c #C8C8C8",
"m c #343334",
"S c #707BAE",
"t c #A1A7AD",
"; c #D5E8FD",
"Q c #7686B9",
"  c None",
"# c #8CB2E5",
"H c #E4E4E4",
"T c #7F98CB",
"K c #829FD2",
"M c #DADADA",
"h c #BDC0C3",
"~ c #727EB1",
"% c #88AADD",
"C c #969696",
"a c #F0F7FF",
"P c #F6F6F6",
"c c #D9D9D9",
"J c #6E76A9",
"* c #84A2D5",
"V c #87A9DC",
": c #FFFFFF",
"s c #F2F4F6",
". c #90BBEE",
"r c #7D93C6",
"z c #7E7D7E",
"X c #96C6F9",
"q c #E5F2FF",
"B c #7380B3",
"k c #FEFEFE",
"g c #798BBE",
"R c #7C92C5",
"9 c #CBE5FF",
"O c #92BEF1",
"6 c #E1F0FF",
"> c #CEDAEE",
"y c #535456",
"N c #EAEAEA",
"u c #F7FBFF",
"x c #939393",
"Y c #C4C7DB",
"W c #788ABD",
"4 c #DAEDFF",
"@ c #8EB6E9",
"5 c #DDEEFF",
"b c #F3F9FF",
"= c #6E77AA",
"Z c #727172",
"< c #C0E0FF",
"! c #7482B5",
"f c #FCFCFC",
"3 c #D6EBFF",
"$ c #8AAEE1",
"e c #ECF6FF",
"F c #414041",
"U c #809BCE",
"- c #93C0F3",
"^ c #707AAD",
"n c #F8FAFC",
"0 c #D2E9FF",
"A c #FBFBFB",
"& c #86A6D9",
"d c #DEDEDE",
"w c #E8F4FF",
/* pixels */
"                ",
"  .XoO+@#$%&*=  ",
" -;::::::::::>= ",
" X:,<1234566678 ",
" o:<9035qweee7r ",
" O:1046wtyuuuip ",
" +:236wausd::fg ",
" @:35wahjf:::kl ",
" #:4qeuzxck:::v ",
" $:5wbnmMN::::B ",
" V:6euCZcA::::S ",
" D:6euFGH:::::J ",
" K:6eu:LP:::::I ",
" U>77ifk:::::YI ",
"  T8REWQ!~^JII  ",
"                "
};
