/* XPM */
char *File_save_xpm[] = {
"16 16 256 3",
"000 c black",
"001 c gray100",
"002 c #2A58A0",
"003 c #086CCE",
"004 c #096CCE",
"005 c #1372D1",
"006 c #1372D0",
"007 c #176DC1",
"008 c #1E79D5",
"009 c #1E79D4",
"010 c #1E71C3",
"011 c #247ED7",
"012 c #2072C2",
"013 c #2A82D9",
"014 c #2A82D8",
"015 c #2B83D9",
"016 c #2876C5",
"017 c #3488DC",
"018 c #3489DC",
"019 c #3589DD",
"020 c #3589DC",
"021 c #3689DD",
"022 c #368ADD",
"023 c #317DC8",
"024 c #378ADE",
"025 c #378ADD",
"026 c #3483D2",
"027 c #2F75BB",
"028 c #3A84CD",
"029 c #3E8AD5",
"030 c #3B83CA",
"031 c #4494E2",
"032 c #4493E1",
"033 c #4790D8",
"034 c #478CD0",
"035 c #519CE6",
"036 c #5096DC",
"037 c #5293D4",
"038 c #5FA6EC",
"039 c #5D9BD8",
"040 c #5790C8",
"041 c #609BD8",
"042 c #6CAFF0",
"043 c #66A4E3",
"044 c #6BA9E7",
"045 c #67A2DC",
"046 c #73B1EE",
"047 c #71ACE6",
"048 c #76B3EF",
"049 c #77B3EE",
"050 c #7CB4EF",
"051 c #82BDF7",
"052 c #84BEF8",
"053 c #82B8F1",
"054 c #90C1F1",
"055 c #8AABCD",
"056 c #368BDD",
"057 c #519DE6",
"058 c #5AA3E5",
"059 c #5A9EDF",
"060 c #61A5E2",
"061 c #63A6E5",
"062 c #6CAFEF",
"063 c #6CAEEC",
"064 c #6DAEEB",
"065 c #70AEE6",
"066 c #79B7F3",
"067 c #7CB4EA",
"068 c #8CC5FB",
"069 c #86BBED",
"070 c #98C7F4",
"071 c #A0CDF6",
"072 c #4B98DB",
"073 c #509EE2",
"074 c #60AAE9",
"075 c #5DA5E0",
"076 c #66AAE4",
"077 c #CEE8FE",
"078 c #579ED7",
"079 c #C6E6FE",
"080 c #CAE8FE",
"081 c #CBE8FE",
"082 c #CDE9FE",
"083 c #CFEAFE",
"084 c #D0EAFE",
"085 c #D3EAFC",
"086 c #D4EBFC",
"087 c #D7ECFC",
"088 c #DAEEFD",
"089 c #DCEFFD",
"090 c #C7E7FE",
"091 c #D1EAFC",
"092 c #D4ECFD",
"093 c #D6EDFD",
"094 c #D7EDFD",
"095 c #D9EEFD",
"096 c #DAEEFC",
"097 c #DEF0FC",
"098 c #D1EBFC",
"099 c #E0F1FC",
"100 c #DFF0FB",
"101 c #E2F2FC",
"102 c None",
"103 c #686868",
"104 c #2A82D9",
"105 c #2A82D8",
"106 c #2B83D9",
"107 c #2876C5",
"108 c #3488DC",
"109 c #3489DC",
"110 c #3589DD",
"111 c #3589DC",
"112 c #3689DD",
"113 c #368ADD",
"114 c #317DC8",
"115 c #378ADE",
"116 c #378ADD",
"117 c #3483D2",
"118 c #2F75BB",
"119 c #3A84CD",
"120 c #3E8AD5",
"121 c #3B83CA",
"122 c #4494E2",
"123 c #4493E1",
"124 c #4790D8",
"125 c #478CD0",
"126 c #519CE6",
"127 c #5096DC",
"128 c #5293D4",
"129 c #5FA6EC",
"130 c #5D9BD8",
"131 c #5790C8",
"132 c #609BD8",
"133 c #6CAFF0",
"134 c #66A4E3",
"135 c #6BA9E7",
"136 c #67A2DC",
"137 c #73B1EE",
"138 c #71ACE6",
"139 c #000003",
"140 c black",
"141 c #000001",
"142 c #82BDF7",
"143 c #84BEF8",
"144 c #82B8F1",
"145 c #90C1F1",
"146 c #8AABCD",
"147 c #368BDD",
"148 c gray100",
"149 c black",
"150 c #000080",
"151 c black",
"152 c #63A6E5",
"153 c black",
"154 c black",
"155 c black",
"156 c black",
"157 c black",
"158 c black",
"159 c black",
"160 c black",
"161 c #000005",
"162 c #A0CDF6",
"163 c #6FDA07",
"164 c gray100",
"165 c #F7FF38",
"166 c #6FDA07",
"167 c #54504C",
"168 c black",
"169 c #FFFFFE",
"170 c #230001",
"171 c #000080",
"172 c #700000",
"173 c #000001",
"174 c #000001",
"175 c #6FDD00",
"176 c black",
"177 c #6FD90C",
"178 c #F7B76C",
"179 c #6FDD00",
"180 c black",
"181 c #6FD91C",
"182 c #F7B76C",
"183 c #F741FB",
"184 c #FC9490",
"185 c #F7B787",
"186 c #F713E2",
"187 c #00015F",
"188 c #F712C5",
"189 c #004201",
"190 c yellow",
"191 c #F741FB",
"192 c #FC9490",
"193 c #F7B83F",
"194 c black",
"195 c #000001",
"196 c #B8DBC0",
"197 c #6FD96C",
"198 c #F8C7D7",
"199 c #6FDD00",
"200 c cyan",
"201 c black",
"202 c #986BF8",
"203 c black",
"204 c #000379",
"205 c black",
"206 c #986BF8",
"207 c black",
"208 c #6FD984",
"209 c #9BE448",
"210 c #000088",
"211 c cyan",
"212 c black",
"213 c #000001",
"214 c #6FD998",
"215 c #9B3DAC",
"216 c #000088",
"217 c cyan",
"218 c #000001",
"219 c #6FDAC4",
"220 c #97CB8F",
"221 c #6FDD00",
"222 c cyan",
"223 c #000001",
"224 c #6FDD00",
"225 c #6FEB84",
"226 c black",
"227 c #D84D42",
"228 c black",
"229 c #D60000",
"230 c #280000",
"231 c #100000",
"232 c #100000",
"233 c transparent",
"234 c #000008",
"235 c black",
"236 c #120000",
"237 c #120000",
"238 c #680000",
"239 c #680000",
"240 c black",
"241 c blue",
"242 c #A000FF",
"243 c #CE002A",
"244 c #CE0008",
"245 c #D10009",
"246 c #D00013",
"247 c #C10013",
"248 c #D50017",
"249 c #D4001E",
"250 c #C3001E",
"251 c #D7001E",
"252 c #C20024",
"253 c #D90020",
"254 c #D8002A",
"255 c #D9002A",
"102102102102102102102102102102102102102102102102",
"102068068002068068068068068068068068068042042102",
"102071068002083091086087096089100101001002002103",
"102070052002051051051051051051051099001042042103",
"102054066002080082084085093095089097001042042103",
"102069062002051051051051051051051089001042042103",
"102067038002079090081077098092094088001038045103",
"102047057002051051051051051051051094001035039103",
"102043031002001001001001001001001001001032037103",
"102059025021020017017018018019022022025024034103",
"102036014002014060041044046050002002056013028103",
"102033009002008002002061048053002002018008023103",
"102029006002005002002058063049002002015005016103",
"102026004002003002002073074064002002011004012103",
"102055007002040078072075076065002002030010027103",
"102102103103103103103103103103103103103103103103"
};
