/* XPM */
static char *filenc_xpm[] = {
/* columns rows colors chars-per-pixel */
"16 16 86 1",
"V c #FFF684",
"C c #C69F36",
"Z c #FCD21B",
"y c #F3CC27",
"M c #FDE249",
"t c #FFE838",
"p c #D09B00",
"1 c #C78C00",
"` c #A56E00",
"g c #BA8700",
"= c #FFE847",
"q c #FFF45B",
"u c #F4BF00",
"e c #CD9D1B",
"b c #C98F00",
"6 c #C08300",
"O c #EFD649",
": c #F2D747",
"L c #FFD402",
"j c #F6C802",
"+ c #F9E665",
"( c #F6C500",
"d c #E0CB5C",
"c c #FFFD7E",
"^ c #AD7000",
"T c #976200",
"v c #D3B74A",
"a c #FFD10B",
". c #DBB62E",
"& c #EBCE49",
"  c None",
"N c #ECB800",
"r c #DAA90C",
"/ c #BB8600",
"m c #B88E15",
"F c #F5BE00",
"3 c #EDCB35",
"A c #FFE032",
"X c #E4C844",
"i c #D09F07",
"G c #FFF24E",
"_ c #AB7700",
") c #A56F00",
"D c #ECC11A",
"S c #FFE343",
"2 c #D6AA17",
"0 c #F7C401",
"~ c #956000",
"f c #BD8908",
"n c #C38800",
"9 c #EBC31F",
"H c #A7780B",
"o c #CC9D10",
"l c #B68300",
"Q c #FFCF00",
"P c #FFD510",
"I c #FFE126",
"x c #FFD517",
"% c #E7C42C",
"Y c #BB8700",
"> c #FAD73D",
"z c #E3AA00",
"# c #FAE04B",
"U c #C49001",
"B c #FFE12F",
"! c #DCA700",
"* c #F3D13E",
"$ c #CD9000",
"- c #FFE13F",
"5 c #E6C639",
"w c #F4EA7C",
"s c #FFFF71",
"J c #D29D00",
"@ c #FFF363",
"W c #AA7700",
"E c #B07F00",
"8 c #FEDA2F",
"k c #D5A70C",
"; c #C98E00",
"h c #EAB700",
"4 c #FBDF45",
"K c #FFD000",
"< c #F7CE22",
"R c #B28500",
"7 c #DEB017",
", c #FFEB2C",
/* pixels */
"                ",
"    .Xo         ",
"   O+@#$        ",
"  %&*=-;        ",
"  :> ,<1        ",
" 23  456        ",
" 78 90qwe       ",
" rtyuipasdf     ",
" ghjk  lzxcv    ",
"  bn    mMNBVC  ",
"        ZASDFGH ",
"       JKLPIUYT ",
"       REWQ!~^  ",
"         /()    ",
"          _`    ",
"                "
};
