/* XPM */
char * filter_del_xpm[] = {
"16 16 117 2",
"  	c None",
". 	c #B6B6B6",
"+ 	c #A7A7A7",
"@ 	c #A9A9A9",
"# 	c #AEAEAE",
"$ 	c #ACACAC",
"% 	c #9A9A9A",
"& 	c #757575",
"* 	c #7A7A7A",
"= 	c #787878",
"- 	c #939393",
"; 	c #ADADAD",
"> 	c #C9C9C9",
", 	c #D7D7D7",
"' 	c #E7E7E7",
") 	c #F5F5F5",
"! 	c #FFFFFF",
"~ 	c #F2F2F2",
"{ 	c #9C9C9C",
"] 	c #858585",
"^ 	c #3C3C3C",
"/ 	c #5E5E5E",
"( 	c #777777",
"_ 	c #8E8E8E",
": 	c #C5C5C5",
"< 	c #D3D3D3",
"[ 	c #E1E1E1",
"} 	c #ECECEC",
"| 	c #F8F8F8",
"1 	c #8A8A8A",
"2 	c #303030",
"3 	c #4D4D4D",
"4 	c #696969",
"5 	c #A2A2A2",
"6 	c #C3C3C3",
"7 	c #D4D4D4",
"8 	c #E5E5E5",
"9 	c #6B6B6B",
"0 	c #A1A1A1",
"a 	c #575757",
"b 	c #6D6D6D",
"c 	c #979797",
"d 	c #E0E0E0",
"e 	c #F6F6F6",
"f 	c #FAFAFA",
"g 	c #515151",
"h 	c #EAEAEA",
"i 	c #E3E3E3",
"j 	c #B7B7B7",
"k 	c #9E9E9E",
"l 	c #989898",
"m 	c #868686",
"n 	c #666666",
"o 	c #4A4A4A",
"p 	c #DFDFDF",
"q 	c #F7F7F7",
"r 	c #F0F0F0",
"s 	c #EEEEEE",
"t 	c #E2E2E2",
"u 	c #B9B9B9",
"v 	c #919191",
"w 	c #727272",
"x 	c #5C5C5C",
"y 	c #BF3434",
"z 	c #DDDDDD",
"A 	c #EDD3D3",
"B 	c #BD3232",
"C 	c #EABBBB",
"D 	c #CACACA",
"E 	c #848484",
"F 	c #646464",
"G 	c #595959",
"H 	c #BF120A",
"I 	c #FF6D39",
"J 	c #CD7979",
"K 	c #B23533",
"L 	c #FF6D2B",
"M 	c #BE2B28",
"N 	c #D9D9D9",
"O 	c #737373",
"P 	c #565656",
"Q 	c #9E0000",
"R 	c #FF7D3F",
"S 	c #DD3E1B",
"T 	c #FF6129",
"U 	c #C32211",
"V 	c #D9C5C4",
"W 	c #929292",
"X 	c #5B5B5B",
"Y 	c #BF2210",
"Z 	c #FF662D",
"` 	c #F4491C",
" .	c #C36E6E",
"..	c #5A5A5A",
"+.	c #C5220F",
"@.	c #FF672C",
"#.	c #FF5D25",
"$.	c #FF5B20",
"%.	c #BA1F14",
"&.	c #ECD8D7",
"*.	c #A6A6A6",
"=.	c #585858",
"-.	c #AD0302",
";.	c #FF722C",
">.	c #D43314",
",.	c #C12812",
"'.	c #FF4E17",
").	c #FF5C15",
"!.	c #C53935",
"~.	c #555555",
"{.	c #C30502",
"].	c #AE0F04",
"^.	c #AE0200",
"/.	c #BD211D",
"(.	c #D0AEAE",
"_.	c #7C7C7C",
":.	c #484848",
"                                ",
"        . + @ # $ @ % &         ",
"    $ * = - ; > , ' ) ! ~ {     ",
"  ] ^ / ( _ + : < [ } | ! ! 1   ",
"  _ 2 3 4 ] 5 6 7 8 ~ ! ! ! 9   ",
"    0 9 a b c 6 d e ! f # g     ",
"      h i j 5 k l m n g o       ",
"      p q r s t u v w x         ",
"      y z A B C D E F G         ",
"    H I J K L M N O P           ",
"    Q R S T U V W X             ",
"      Y Z `  .' v ..            ",
"    +.@.#.$.%.&.*.=.            ",
"  -.;.>.,.'.).!.7 ~.            ",
"  {.].    ^./.(._.:.            ",
"                                "};
