/* XPM */
char * filter_add_xpm[] = {
"16 16 97 2",
"  	c None",
". 	c #B6B6B6",
"+ 	c #A7A7A7",
"@ 	c #A9A9A9",
"# 	c #AEAEAE",
"$ 	c #ACACAC",
"% 	c #9A9A9A",
"& 	c #757575",
"* 	c #7A7A7A",
"= 	c #787878",
"- 	c #939393",
"; 	c #ADADAD",
"> 	c #C9C9C9",
", 	c #D7D7D7",
"' 	c #E7E7E7",
") 	c #F5F5F5",
"! 	c #FFFFFF",
"~ 	c #F2F2F2",
"{ 	c #9C9C9C",
"] 	c #858585",
"^ 	c #3C3C3C",
"/ 	c #5E5E5E",
"( 	c #777777",
"_ 	c #8E8E8E",
": 	c #C5C5C5",
"< 	c #D3D3D3",
"[ 	c #E1E1E1",
"} 	c #ECECEC",
"| 	c #F8F8F8",
"1 	c #8A8A8A",
"2 	c #303030",
"3 	c #4D4D4D",
"4 	c #696969",
"5 	c #A2A2A2",
"6 	c #C3C3C3",
"7 	c #D4D4D4",
"8 	c #E5E5E5",
"9 	c #6B6B6B",
"0 	c #A1A1A1",
"a 	c #575757",
"b 	c #6D6D6D",
"c 	c #979797",
"d 	c #E0E0E0",
"e 	c #F6F6F6",
"f 	c #FAFAFA",
"g 	c #515151",
"h 	c #EAEAEA",
"i 	c #E3E3E3",
"j 	c #B7B7B7",
"k 	c #9E9E9E",
"l 	c #989898",
"m 	c #868686",
"n 	c #666666",
"o 	c #4A4A4A",
"p 	c #F7F7F7",
"q 	c #EEEEEE",
"r 	c #DBDBDB",
"s 	c #B9B9B9",
"t 	c #D6D6D6",
"u 	c #CFCFCF",
"v 	c #999999",
"w 	c #DCDCDC",
"x 	c #D0D0D0",
"y 	c #B1B1B1",
"z 	c #D1D1D1",
"A 	c #009300",
"B 	c #009100",
"C 	c #008D00",
"D 	c #E9E9E9",
"E 	c #008F00",
"F 	c #91F75E",
"G 	c #008900",
"H 	c #909090",
"I 	c #E2E2E2",
"J 	c #008B00",
"K 	c #8DF35A",
"L 	c #008300",
"M 	c #008100",
"N 	c #007D00",
"O 	c #9F9F9F",
"P 	c #E6E6E6",
"Q 	c #86EC53",
"R 	c #7BE148",
"S 	c #78DE45",
"T 	c #007800",
"U 	c #9D9D9D",
"V 	c #008700",
"W 	c #008500",
"X 	c #007A00",
"Y 	c #007500",
"Z 	c #007000",
"` 	c #D5D5D5",
" .	c #DADADA",
"..	c #77DD44",
"+.	c #007200",
"@.	c #BEBEBE",
"#.	c #006D00",
"                                ",
"        . + @ # $ @ % &         ",
"    $ * = - ; > , ' ) ! ~ {     ",
"  ] ^ / ( _ + : < [ } | ! ! 1   ",
"  _ 2 3 4 ] 5 6 7 8 ~ ! ! ! 9   ",
"    0 9 a b c 6 d e ! f # g     ",
"      h i j 0 k l m n g o       ",
"        p q r 7 s t t u {       ",
"        v e w x y z A B C       ",
"          0 ) D d r E F G       ",
"            H I B C J K L M N   ",
"            O P C F K Q R S T   ",
"            U D V W M R X Y Z   ",
"            O } `  .N ..+.      ",
"              / b @.Y Z #.      ",
"                                "};
