/* XPM */
char *find_text_xpm[] = {
"16 16 91 3",
"000 c #284098",
"001 c None",
"002 c #989898",
"003 c gray88",
"004 c #2040A0",
"005 c #D8E0E8",
"006 c #A8B8D0",
"007 c #F8F8F8",
"008 c gray44",
"009 c #B8B8C0",
"010 c #E0E0E8",
"011 c #5870B0",
"012 c #D0D8E0",
"013 c #D0D0D0",
"014 c #687078",
"015 c #9898C0",
"016 c #687890",
"017 c #D8D8E8",
"018 c #C8D0E0",
"019 c #707068",
"020 c gray72",
"021 c #D8F0F8",
"022 c #7090C8",
"023 c #C0E0F8",
"024 c #484848",
"025 c #88A0C0",
"026 c #2860B8",
"027 c #90C0F8",
"028 c gray47",
"029 c gray66",
"030 c #7078B8",
"031 c #C8E8F8",
"032 c #606060",
"033 c #909090",
"034 c #4060A8",
"035 c #B0E0F8",
"036 c #888888",
"037 c gray69",
"038 c #E0E0D8",
"039 c #5878C0",
"040 c #C8C8C8",
"041 c #808080",
"042 c #2868C0",
"043 c #C0E8F8",
"044 c #C0C0C0",
"045 c #6078B8",
"046 c #D0D0E0",
"047 c #606068",
"048 c #A0B0C0",
"049 c #6868A8",
"050 c #A0D0F8",
"051 c #787888",
"052 c #989890",
"053 c #7088C8",
"054 c #B0B8D0",
"055 c #203090",
"056 c #2868D0",
"057 c #A0B8D0",
"058 c #B8B8B0",
"059 c #7080C0",
"060 c #686868",
"061 c #6878B0",
"062 c #B0D0F0",
"063 c #E8F0F8",
"064 c #8098C8",
"065 c #D8D8E0",
"066 c #3858B0",
"067 c #5080C8",
"068 c #708088",
"069 c #585858",
"070 c #4060B0",
"071 c #8090C8",
"072 c #5880C0",
"073 c #4860B0",
"074 c #2048A8",
"075 c #A8B0D0",
"076 c #A0A0A0",
"077 c #505098",
"078 c #98C8F8",
"079 c #787880",
"080 c #888890",
"081 c #88B0D8",
"082 c #C0C0D8",
"083 c #505050",
"084 c #A0B8D8",
"085 c #A8A8C0",
"086 c #4060B8",
"087 c #C0D8F8",
"088 c #6070B0",
"089 c #484040",
"090 c black",
"001001001001001001001001001001001001001001001001",
"001001001001001003037036009001001001001001001001",
"001040041033002036036033033028009001001001001001",
"001032041013044037002041008008032028013001001001",
"001083029029002002008024069041007007041076003001",
"001044008028033001003051032069040009018087036001",
"001001040024002020048063062089002057021043068001",
"001001001013060036023031035060028025050078028001",
"001001001001013008027078081002001033016014009001",
"001001001001001013014016028003001001013003001001",
"001001001057070001012042022034046005072039011001",
"001001003039066001001056001034046067003001075001",
"001001039071004001017026053088005026001001001001",
"001006064001000003054045001055012074001001001001",
"001045018017077085061049030015001030073059082001",
"001001001001001001001001001001001001001001001001"
};
