/* XPM */
char *folder_add_xpm[] = {
"16 16 256 3",
"000 c None",
"001 c #F8F070",
"002 c #E0C880",
"003 c #F8F0E8",
"004 c #D8B870",
"005 c #F8F0A8",
"006 c #E0C898",
"007 c #F8F8E0",
"008 c #D0A840",
"009 c #F8E890",
"010 c #E0D080",
"011 c #F8F8C0",
"012 c #E0D060",
"013 c #F8F8A0",
"014 c #F8F8D8",
"015 c #C09830",
"016 c #F8E040",
"017 c #F8F8F8",
"018 c #D8C8A0",
"019 c #F8F090",
"020 c #F0E8D0",
"021 c #D8C068",
"022 c #F8F888",
"023 c #F8F8B8",
"024 c #D8C898",
"025 c #F8F098",
"026 c #F8F0C8",
"027 c #C08800",
"028 c #F8F080",
"029 c #F8F8F0",
"030 c #F8F0B0",
"031 c #F8F8D0",
"032 c #D0C088",
"033 c #E8D878",
"034 c #F8F0C0",
"035 c #F8F898",
"036 c #C8A858",
"037 c #F0D848",
"038 c #E0D8B0",
"039 c #D8C098",
"040 c #F8F890",
"041 c #F0E8B8",
"042 c #D8C058",
"043 c #F8F0A0",
"044 c #C09010",
"045 c #E8E080",
"046 c #C09000",
"047 c #F8E878",
"048 c #F0E0A8",
"049 c #C0A058",
"050 c #F8E030",
"051 c #F0E8C0",
"052 c #D8C060",
"053 c #C8A020",
"054 c #F8E858",
"055 c #E8D8A8",
"056 c #D8C078",
"057 c #F8F8B0",
"058 c #B08000",
"059 c #C89828",
"060 c #C0A048",
"061 c #C8A040",
"062 c #B88800",
"063 c #C8A030",
"064 c #C08808",
"065 c #D0A008",
"066 c #D0B048",
"067 c #A87000",
"068 c #C09008",
"069 c #B88000",
"070 c #C0A860",
"071 c #78E048",
"072 c #B07800",
"073 c #A07008",
"074 c #B89030",
"075 c #B88818",
"076 c #C09838",
"077 c #007800",
"078 c #80E850",
"079 c #B88810",
"080 c #78D840",
"081 c #88F058",
"082 c #90F058",
"083 c #A07000",
"084 c #007000",
"085 c #A87800",
"086 c #A88018",
"087 c #008000",
"088 c #008800",
"089 c #009000",
"090 c #70D840",
"091 c #006800",
"092 c black",
"093 c black",
"094 c black",
"095 c black",
"096 c black",
"097 c black",
"098 c black",
"099 c black",
"100 c black",
"101 c black",
"102 c black",
"103 c black",
"104 c black",
"105 c black",
"106 c black",
"107 c black",
"108 c black",
"109 c black",
"110 c black",
"111 c black",
"112 c black",
"113 c black",
"114 c black",
"115 c black",
"116 c black",
"117 c black",
"118 c black",
"119 c black",
"120 c black",
"121 c black",
"122 c black",
"123 c black",
"124 c black",
"125 c black",
"126 c black",
"127 c black",
"128 c black",
"129 c black",
"130 c black",
"131 c black",
"132 c black",
"133 c black",
"134 c black",
"135 c black",
"136 c black",
"137 c black",
"138 c black",
"139 c black",
"140 c black",
"141 c black",
"142 c black",
"143 c black",
"144 c black",
"145 c black",
"146 c black",
"147 c black",
"148 c black",
"149 c black",
"150 c black",
"151 c black",
"152 c black",
"153 c black",
"154 c black",
"155 c black",
"156 c black",
"157 c black",
"158 c black",
"159 c black",
"160 c black",
"161 c black",
"162 c black",
"163 c black",
"164 c black",
"165 c black",
"166 c black",
"167 c black",
"168 c black",
"169 c black",
"170 c black",
"171 c black",
"172 c black",
"173 c black",
"174 c black",
"175 c black",
"176 c black",
"177 c black",
"178 c black",
"179 c black",
"180 c black",
"181 c black",
"182 c black",
"183 c black",
"184 c black",
"185 c black",
"186 c black",
"187 c black",
"188 c black",
"189 c black",
"190 c black",
"191 c black",
"192 c black",
"193 c black",
"194 c black",
"195 c black",
"196 c black",
"197 c black",
"198 c black",
"199 c black",
"200 c black",
"201 c black",
"202 c black",
"203 c black",
"204 c black",
"205 c black",
"206 c black",
"207 c black",
"208 c black",
"209 c black",
"210 c black",
"211 c black",
"212 c black",
"213 c black",
"214 c black",
"215 c black",
"216 c black",
"217 c black",
"218 c black",
"219 c black",
"220 c black",
"221 c black",
"222 c black",
"223 c black",
"224 c black",
"225 c black",
"226 c black",
"227 c black",
"228 c black",
"229 c black",
"230 c black",
"231 c black",
"232 c black",
"233 c black",
"234 c black",
"235 c black",
"236 c black",
"237 c black",
"238 c black",
"239 c black",
"240 c black",
"241 c black",
"242 c black",
"243 c black",
"244 c black",
"245 c black",
"246 c black",
"247 c black",
"248 c black",
"249 c black",
"250 c black",
"251 c black",
"252 c black",
"253 c black",
"254 c black",
"255 c black",
"000000000000000000000000000000000000000000000000",
"000000000000000000000000000000008069058058049000",
"000000000000000000000000000000027003017017072000",
"000000000000000000038004008059044017017017072000",
"000000000000053063066002020007017007007017085000",
"000000000000027017026048010021021042014007085000",
"000046044056062041033045019013022012005007067000",
"000044026017062007013013022011011011041007073000",
"000015055007069014022022028023089089088011073000",
"000036061007058011001005005005088082088026070000",
"000018075005058005054005089088088081087087077000",
"000000060015072019016009088082081078071080077000",
"000000032075072009050047087087087071077084084000",
"000000000074085037065006006039077090084000000000",
"000000000018073086049000000000084084091000000000",
"000000000000000000000000000000000000000000000000"
};
