/* XPM */
static char * fonts_xpm[] = {
"16 16 77 1",
" 	c None",
".	c #007BE1",
"+	c #0079DE",
"@	c #0084EA",
"#	c #007FE5",
"$	c #007CE5",
"%	c #0075DC",
"&	c #007DE3",
"*	c #0085F5",
"=	c #0071D8",
"-	c #007AE0",
";	c #006BDA",
">	c #0083F1",
",	c #0076DC",
"'	c #0069D8",
")	c #005DC3",
"!	c #0050BD",
"~	c #0046B4",
"{	c #003EAC",
"]	c #00389E",
"^	c #003CA2",
"/	c #0071D7",
"(	c #0067D2",
"_	c #002F9C",
":	c #002A90",
"<	c #005FC6",
"[	c #0075E1",
"}	c #0064CC",
"|	c #006AD0",
"1	c #0061C1",
"2	c #0045AD",
"3	c #00298F",
"4	c #0060C6",
"5	c #005CC0",
"6	c #0039A6",
"7	c #0036A5",
"8	c #002F96",
"9	c #002F95",
"0	c #00278D",
"a	c #005BC9",
"b	c #0057BD",
"c	c #003AA1",
"d	c #00359A",
"e	c #004EB4",
"f	c #001F87",
"g	c #002389",
"h	c #0054C1",
"i	c #004FB5",
"j	c #0064CB",
"k	c #005CC1",
"l	c #00197F",
"m	c #001E84",
"n	c #0049B0",
"o	c #0048AE",
"p	c #003FA6",
"q	c #00298E",
"r	c #00248B",
"s	c #0060C7",
"t	c #0061C8",
"u	c #0061C7",
"v	c #003096",
"w	c #00177D",
"x	c #004DC4",
"y	c #0047B7",
"z	c #0042B1",
"A	c #003CAC",
"B	c #002186",
"C	c #00167B",
"D	c #001077",
"E	c #001278",
"F	c #000B71",
"G	c #00187F",
"H	c #00167D",
"I	c #00147B",
"J	c #00096F",
"K	c #00056C",
"L	c #000271",
"                ",
"          .+    ",
"          @#    ",
"         $%&    ",
"        * =-;   ",
"        >  ,'   ",
"  )!~{]^   /(   ",
"      _:<[}|1   ",
"      23   45   ",
"   67890   ab   ",
"  cd8efg   hi   ",
" 89 jklm   nop  ",
" qrstuvw  xyzA6 ",
" BgC DEEF       ",
"  GHID JKL      ",
"                "};
