/* XPM */
static char *Form3[] = {
"103 72 16 2",
"00 c black",
"01 c #800000",
"02 c #008000",
"03 c #808000",
"04 c #000080",
"05 c #800080",
"06 c #008080",
"07 c #808080",
"08 c none",
"09 c blue",
"10 c green",
"11 c cyan",
"12 c red",
"13 c magenta",
"14 c yellow",
"15 c gray100",
"08080808080808080808080808080808080808080808080808080808080808080808080808080808080808080808080808080808080808080808080808080808080808080808080808080808080808080808080808080808080808080808080808080808080808",
"08080808080808080808080808080808080808080808080808080808080808080808080808080808080808080808080808080808080808080808080808080808080808080808080808080808080808080808080808080808080808080808080808080808080808",
"08080808080808080808080808080808080808080808080808080808080808080808080808080808080808080808080808080808080808080808080808080808080808080808080808080808080808080808080808080808080808080808080808080808080808",
"08080808080808080808080808080808080808080808080808080808080808080808080808080808080808080808080808080808080808080808080808080808080808080808080808080808080808080808080808080808080808080808080808080808080808",
"08080808080808080808080808080808080808080808080808080808080808080808080808080808080808080808080808080808080808080808080808080808080808080808080808080808080808080808080808080808080808080808080808080808080808",
"08080808080808080808080808080808080808080808080808080808080808080808080808080808080808080808080808080808080808080808080808080808080808080808080808080808080808080808080808080808080808080808080808080808080808",
"08080808080000000000000000000000000000000000000000000000000000000000000000000000000000000000000000000000000000000000000000000000000000000000000000000000000000000000000000000000000000000000000000000808080808",
"08080808080015151515151515151515151515151515151515151515151515151515151515151515151515151515151515151515151515151515151515151515151515151515151515151515151515151515151515151515151515151515151515000808080808",
"08080808080015151515151515151515151515151515151515151515151515151515151515151515151515151515151515151515151515151515151515151515151515151515151515151515151515151515151515151515151515151515151515000808080808",
"08080808080015151515151515151515151515151515151515151515151515151515151515151515151515151515151515151515151515151515151515151515151515151515151515151515151515151515151515151515151515151515151515000808080808",
"08080808080015151515151515151515151515151515151515151515151515151515151515151515151515151515151515151515151515151515151515151515151515151515151515151515151515151515151515151515151515151515151515000808080808",
"08080808080015151515151515151507070707070707070707070707070707070707070707070707070707070715151515151500000000000000000000000000000000000000000000000000151515151515151515151515151515151515151515000808080808",
"08080808080015151515151515151507070707070707070707070707070707070707070707070707070707070715151515151500151515151515151515151515151515151515151515151500151515151515151515151515151515151515151515000808080808",
"08080808080015151515151515151507070707070707070707070707070707070707070707070707070707070715151515151500151515151515151515151515151515151515151515151500151515151515151515151515151515151515151515000808080808",
"08080808080015151515151515151507070707070707070707070707070707070707070707070707070707070715151515151500000000000000000000000000000000000000000000000000151515151515151515151515151515151515151515000808080808",
"08080808080015151515151515151515151515151515151515151515151515151515151515151515151515151515151515151515151515151515151515151515151515151515151515151515151515151515151515151515151515151515151515000808080808",
"08080808080015151515151515151515151515151515151515151515151515151515151515151515151515151515151515151515151515151515151515151515151515151515151515151515151515151515151515151515151515151515151515000808080808",
"08080808080015151515151515151515151515151515151515151515151515151515151515151515151515151515151515151515151515151515151515151515151515151515151515151515151515151515151515151515151515151515151515000808080808",
"08080808080015151515151515151515151515151515151515151515151515151515151515151515151515151515151515151515151515151515151515151515151515151515151515151515151515151515151515151515151515151515151515000808080808",
"08080808080015151515151515151507070707070707070707070707070707070707070707151515151515151515151515151500000000000000000000000000000000000000000000151515151515151515151515151515151515151515151515000808080808",
"08080808080015151515151515151507070707070707070707070707070707070707070707151515151515151515151515151500151515151515151515151515151515151515151500151515151515151515151515151515151515151515151515000808080808",
"08080808080015151515151515151507070707070707070707070707070707070707070707151515151515151515151515151500151515151515151515151515151515151515151500151515151515151515151515151515151515151515151515000808080808",
"08080808080015151515151515151507070707070707070707070707070707070707070707151515151515151515151515151500000000000000000000000000000000000000000000151515151515151515151515151515151515151515151515000808080808",
"08080808080015151515151515151515151515151515151515151515151515151515151515151515151515151515151515151515151515151515151515151515151515151515151515151515151515151515151515151515151515151515151515000808080808",
"08080808080015151515151515151515151515151515151515151515151515151515151515151515151515151515151515151515151515151515151515151515151515151515151515151515151515151515151515151515151515151515151515000808080808",
"08080808080015151515151515151515151515151515151515151515151515151515151515151515151515151515151515151515151515151515151515151515151515151515151515151515151515151515151515151515151515151515151515000808080808",
"08080808080015151515151515151515151515151515151515151515151515151515151515151515151515151515151515151515151515151515151515151515151515151515151515151515151515151515151515151515151515151515151515000808080808",
"08080808080015151515151515151507070707070707070707070707070707070707070707070707151515151515151515151500000000000000000000000000000000000000000000000000000000000000000000000000001515151515151515000808080808",
"08080808080015151515151515151507070707070707070707070707070707070707070707070707151515151515151515151500151515151515151515151515151515151515151515151515151515151515151515151515001515151515151515000808080808",
"08080808080015151515151515151507070707070707070707070707070707070707070707070707151515151515151515151500151515151515151515151515151515151515151515151515151515151515151515151515001515151515151515000808080808",
"08080808080015151515151515151507070707070707070707070707070707070707070707070707151515151515151515151500000000000000000000000000000000000000000000000000000000000000000000000000001515151515151515000808080808",
"08080808080015151515151515151515151515151515151515151515151515151515151515151515151515151515151515151515151515151515151515151515151515151515151515151515151515151515151515151515151515151515151515000808080808",
"08080808080015151515151515151515151515151515151515151515151515151515151515151515151515151515151515151515151515151515151515151515151515151515151515151515151515151515151515151515151515151515151515000808080808",
"08080808080015151515151515151515151515151515151515151515151515151515151515151515151515151515151515151515151515151515151515151515151515151515151515151515151515151515151515151515151515151515151515000808080808",
"08080808080015151515151515151515151515151515151515151515151515151515151515151515151515151515151515151515151515151515151515151515151515151515151515151515151515151515151515151515151515151515151515000808080808",
"08080808080015151515151515151507070707070707070707070707070707070707071515151515151515151515151515151500000000000000000000000000000000000000000000000000000000000015151515151515151515151515151515000808080808",
"08080808080015151515151515151507070707070707070707070707070707070707071515151515151515151515151515151500151515151515151515151515151515151515151515151515151515150015151515151515151515151515151515000808080808",
"08080808080015151515151515151507070707070707070707070707070707070707071515151515151515151515151515151500151515151515151515151515151515151515151515151515151515150015151515151515151515151515151515000808080808",
"08080808080015151515151515151507070707070707070707070707070707070707071515151515151515151515151515151500000000000000000000000000000000000000000000000000000000000015151515151515151515151515151515000808080808",
"08080808080015151515151515151515151515151515151515151515151515151515151515151515151515151515151515151515151515151515151515151515151515151515151515151515151515151515151515151515151515151515151515000808080808",
"08080808080015151515151515151515151515151515151515151515151515151515151515151515151515151515151515151515151515151515151515151515151515151515151515151515151515151515151515151515151515151515151515000808080808",
"08080808080015151515151515151515151515151515151515151515151515151515151515151515151515151515151515151515151515151515151515151515151515151515151515151515151515151515151515151515151515151515151515000808080808",
"08080808080015151515151515151515151515151515151515151515151515151515151515151515151515151515151515151515151515151515151515151515151515151515151515151515151515151515151515151515151515151515151515000808080808",
"08080808080015151515151515151507070707070707070707070707070707070707070707070715151515151515151515151500000000000000000000000000000000000000000000000000000000151515151515151515151515151515151515000808080808",
"08080808080015151515151515151507070707070707070707070707070707070707070707070715151515151515151515151500151515151515151515151515151515151515151515151515151500151515151515151515151515151515151515000808080808",
"08080808080015151515151515151507070707070707070707070707070707070707070707070715151515151515151515151500151515151515151515151515151515151515151515151515151500151515151515151515151515151515151515000808080808",
"08080808080015151515151515151507070707070707070707070707070707070707070707070715151515151515151515151500000000000000000000000000000000000000000000000000000000151515151515151515151515151515151515000808080808",
"08080808080015151515151515151515151515151515151515151515151515151515151515151515151515151515151515151515151515151515151515151515151515151515151515151515151515151515151515151515151515151515151515000808080808",
"08080808080015151515151515151515151515151515151515151515151515151515151515151515151515151515151515151515151515151515151515151515151515151515151515151515151515151515151515151515151515151515151515000808080808",
"08080808080015151515151515151515151515151515151515151515151515151515151515151515151515151515151515151515151515151515151515151515151515151515151515151515151515151515151515151515151515151515151515000808080808",
"08080808080015151515151515151507070707070707070707070707070707070707071515151515151515151515151515151500000000000000000000000000000000000000000000000000000000000015151515151515151515151515151515000808080808",
"08080808080015151515151515151507070707070707070707070707070707070707071515151515151515151515151515151500151515151515151515151515151515151515151515151515151515150015151515151515151515151515151515000808080808",
"08080808080015151515151515151507070707070707070707070707070707070707071515151515151515151515151515151500151515151515151515151515151515151515151515151515151515150015151515151515151515151515151515000808080808",
"08080808080015151515151515151507070707070707070707070707070707070707071515151515151515151515151515151500000000000000000000000000000000000000000000000000000000000015151515151515151515151515151515000808080808",
"08080808080015151515151515151515151515151515151515151515151515151515151515151515151515151515151515151515151515151515151515151515151515151515151515151515151515151515151515151515151515151515151515000808080808",
"08080808080015151515151515151515151515151515151515151515151515151515151515151515151515151515151515151515151515151515151515151515151515151515151515151515151515151515151515151515151515151515151515000808080808",
"08080808080015151515151515151515151515151515151515151515151515151515151515151515151515151515151515151515151515151515151515151515151515151515151515151515151515151515151515151515151515151515151515000808080808",
"08080808080015151515151515151515151515151515151515151515151515151515151515151515151515151515151515151515151515151515151515151515151515151515151515151515151515151515151515151515151515151515151515000808080808",
"08080808080015151515151515151507070707070707070707070707070707070707070707070715151515151515151515151500000000000000000000000000000000000000000000000000000000000000000000000000001515151515151515000808080808",
"08080808080015151515151515151507070707070707070707070707070707070707070707070715151515151515151515151500151515151515151515151515151515151515151515151515151515151515151515151515001515151515151515000808080808",
"08080808080015151515151515151507070707070707070707070707070707070707070707070715151515151515151515151500151515151515151515151515151515151515151515151515151515151515151515151515001515151515151515000808080808",
"08080808080015151515151515151507070707070707070707070707070707070707070707070715151515151515151515151500000000000000000000000000000000000000000000000000000000000000000000000000001515151515151515000808080808",
"08080808080015151515151515151515151515151515151515151515151515151515151515151515151515151515151515151515151515151515151515151515151515151515151515151515151515151515151515151515151515151515151515000808080808",
"08080808080015151515151515151515151515151515151515151515151515151515151515151515151515151515151515151515151515151515151515151515151515151515151515151515151515151515151515151515151515151515151515000808080808",
"08080808080015151515151515151515151515151515151515151515151515151515151515151515151515151515151515151515151515151515151515151515151515151515151515151515151515151515151515151515151515151515151515000808080808",
"08080808080000000000000000000000000000000000000000000000000000000000000000000000000000000000000000000000000000000000000000000000000000000000000000000000000000000000000000000000000000000000000000000808080808",
"08080808080808080808080808080808080808080808080808080808080808080808080808080808080808080808080808080808080808080808080808080808080808080808080808080808080808080808080808080808080808080808080808080808080808",
"08080808080808080808080808080808080808080808080808080808080808080808080808080808080808080808080808080808080808080808080808080808080808080808080808080808080808080808080808080808080808080808080808080808080808",
"08080808080808080808080808080808080808080808080808080808080808080808080808080808080808080808080808080808080808080808080808080808080808080808080808080808080808080808080808080808080808080808080808080808080808",
"08080808080808080808080808080808080808080808080808080808080808080808080808080808080808080808080808080808080808080808080808080808080808080808080808080808080808080808080808080808080808080808080808080808080808",
"08080808080808080808080808080808080808080808080808080808080808080808080808080808080808080808080808080808080808080808080808080808080808080808080808080808080808080808080808080808080808080808080808080808080808",
"08080808080808080808080808080808080808080808080808080808080808080808080808080808080808080808080808080808080808080808080808080808080808080808080808080808080808080808080808080808080808080808080808080808080808"
};
