/* XPM */
char *fulltext_xpm[] = {
"16 16 72 3",
"000 c #6C72A5",
"001 c #6C73A6",
"002 c #6E76A9",
"003 c #747CA7",
"004 c #707BAE",
"005 c #727EB1",
"006 c #738699",
"007 c #7A8999",
"008 c #7C8B99",
"009 c #7E8C99",
"010 c #7380B3",
"011 c #7482B5",
"012 c #7584B7",
"013 c #7686B9",
"014 c #7787BA",
"015 c #788ABD",
"016 c #798BBE",
"017 c #7A8EC1",
"018 c #7B8FC2",
"019 c #7C92C5",
"020 c #7D93C6",
"021 c #7E96C9",
"022 c #808D99",
"023 c #838E99",
"024 c #879099",
"025 c #899199",
"026 c #8B9299",
"027 c #8E9499",
"028 c #909499",
"029 c #949799",
"030 c #979899",
"031 c gray60",
"032 c #898EB7",
"033 c #8B92BB",
"034 c #829FD2",
"035 c #84A2D5",
"036 c #84A4D7",
"037 c #87A9DC",
"038 c #99ADD5",
"039 c #99AFD8",
"040 c #8AAEE1",
"041 c #8CB2E5",
"042 c #8EB6E9",
"043 c #90BAED",
"044 c #92BEF1",
"045 c #94C2F5",
"046 c #96C6F9",
"047 c #A6C9F1",
"048 c #A9CDF5",
"049 c #B8DCFF",
"050 c #C4C7DB",
"051 c #CEDAEE",
"052 c #C0E0FF",
"053 c #C7E4FF",
"054 c #CEE7FF",
"055 c #D2E9FF",
"056 c #D5E8FD",
"057 c #D6EBFF",
"058 c #DAEDFF",
"059 c #DDEEFF",
"060 c #E1F0FF",
"061 c #E8F4FF",
"062 c #ECF6FF",
"063 c #F0F7FF",
"064 c #F3F9FF",
"065 c #F7FBFF",
"066 c #F9F9F9",
"067 c gray98",
"068 c #FBFDFF",
"069 c gray99",
"070 c #FEFEFE",
"071 c None",
"071071071071047046045044043042041040035010071071",
"071071071048056070070070070070070070070051033071",
"071047046045044043042041040035010059070070021071",
"048056070070070070070070070070051003027070020071",
"046070049052053054056059059060066021070070018071",
"045070006007009022059025025027066020031070016071",
"044070053056059060061061065065066018070070014071",
"043070007022024061028028030031070016031070012071",
"042070056059061063065070070070070014070070010071",
"041070022025027028031031031031070012031070004071",
"040070059061065070070070070070070010070070002071",
"037070024027028031031031031031070004031070000071",
"036070060061065070070070070070070002070050032071",
"034070024027028031031070031031070000050000071071",
"039051066066066070070070070070050032071071071071",
"071038021020018016014010005000000071071071071071"
};
