/* XPM */
char *fulltext_set_xpm[] = {
"16 16 106 3",
"000 c #70737A",
"001 c #777A7C",
"002 c #0046AB",
"003 c #0344A9",
"004 c #0543A8",
"005 c #014CB2",
"006 c #325A9B",
"007 c #2165BB",
"008 c #2E65B6",
"009 c #3167B6",
"010 c #3B6EB0",
"011 c #3B6EB9",
"012 c #3872B3",
"013 c #045CC0",
"014 c #056BCF",
"015 c #0A61C3",
"016 c #016AD1",
"017 c #0076DD",
"018 c #037FE4",
"019 c #3A72C6",
"020 c #4A75B0",
"021 c #747CA7",
"022 c #727EB1",
"023 c #0D80E3",
"024 c #738699",
"025 c #7A8999",
"026 c #7C8B99",
"027 c #7E8C99",
"028 c #7380B3",
"029 c #7482B5",
"030 c #7584B7",
"031 c #7686B9",
"032 c #7787BA",
"033 c #788ABD",
"034 c #798BBE",
"035 c #7B96A7",
"036 c #7496BE",
"037 c #4A97E6",
"038 c #4BB1FA",
"039 c #7A8EC1",
"040 c #7B8FC2",
"041 c #7C92C5",
"042 c #7D93C6",
"043 c #7E96C9",
"044 c #6FA4E3",
"045 c #808081",
"046 c #808D99",
"047 c #838E99",
"048 c #879099",
"049 c #899199",
"050 c #8B9299",
"051 c #8E9499",
"052 c #909499",
"053 c #949799",
"054 c #979899",
"055 c gray60",
"056 c #8B92BB",
"057 c #829FD2",
"058 c #84A2D5",
"059 c #84A4D7",
"060 c #87A9DC",
"061 c #98ACD5",
"062 c #99AFD7",
"063 c #8AAEE1",
"064 c #8CB2E5",
"065 c #8EB6E9",
"066 c #90BAED",
"067 c #92BEF1",
"068 c #9ABCF2",
"069 c #94C2F5",
"070 c #96C6F9",
"071 c #A6C8F1",
"072 c #A8CCF5",
"073 c #B8DCFF",
"074 c #C5C5C7",
"075 c #C4C7DB",
"076 c #CFCFFF",
"077 c #CEDAEE",
"078 c #C5D6F3",
"079 c #CFDCF1",
"080 c #DBDBFF",
"081 c #C0E0FF",
"082 c #C7E4FF",
"083 c #CEE7FF",
"084 c #D2E9FF",
"085 c #D5E8FD",
"086 c #D6EBFF",
"087 c #DAEDFF",
"088 c #DDEEFF",
"089 c #E1F0FF",
"090 c #E8F4FF",
"091 c #EEF1FD",
"092 c #ECF6FF",
"093 c #F0F0FF",
"094 c #F2F2FF",
"095 c #F0F7FF",
"096 c #F6F6FF",
"097 c #F7F7FF",
"098 c #F3F9FF",
"099 c #F7FBFF",
"100 c #F9F9F9",
"101 c gray98",
"102 c #FBFDFF",
"103 c gray99",
"104 c #FEFEFE",
"105 c None",
"105105105105071070069067066065064063058028105105",
"105105105072085104104104104104104104104077056105",
"105071070069067066065064063058028088104104043105",
"072085104104104104104104104104077021051104042105",
"070104073081082083085088088089100043104104040105",
"069104024025027046088049049051100042055104034105",
"067104082085088089090090099099100040104104032105",
"066104025046048090052052054055104034055104030105",
"065104085088090095099104104104104032104104104023",
"064104046049051052055055055104104030055094037017",
"063104088090099104104104104078091095095044016018",
"060104048051052055055055075009012074036015014038",
"059104089090099104104104104020002011007013068105",
"057104048051052055055104055075008002005010076105",
"062077104104104104104104104104079004019045080105",
"105062043042040034032028022035001006000075105105"
};
