/* XPM */
static char * grid_format_xpm[] = {
"16 16 77 1",
" 	c None",
".	c #0099FF",
"+	c #99CCFF",
"@	c #3DADFF",
"#	c #0085EB",
"$	c #0091F7",
"%	c #DBDBDB",
"&	c #FFFFFF",
"*	c #D8D8DB",
"=	c #F5F5FF",
"-	c #CECEDB",
";	c #EAEAFF",
">	c #C5C5DB",
",	c #E0E0FF",
"'	c #BCBCDB",
")	c #D6D6FF",
"!	c #D2D2DB",
"~	c #C9C9DB",
"{	c #A5BAB7",
"]	c #4FAE48",
"^	c #5FA369",
"/	c #B8B8DB",
"(	c #BAD9CB",
"_	c #5DBC50",
":	c #46C02B",
"<	c #359C31",
"[	c #B3D0B3",
"}	c #85CA80",
"|	c #D5D7D7",
"1	c #D6D6DB",
"2	c #D1D1DB",
"3	c #9ABFA6",
"4	c #5EBF51",
"5	c #3EBC25",
"6	c #36A132",
"7	c #ADB7CA",
"8	c #60BE51",
"9	c #5FCA38",
"0	c #5BBB55",
"a	c #CBD0D4",
"b	c #ABD3B5",
"c	c #60C254",
"d	c #38B91F",
"e	c #3A9F39",
"f	c #D2D9F1",
"g	c #BABADB",
"h	c #D4D4FF",
"i	c #86BE89",
"j	c #3AB71D",
"k	c #40BC1F",
"l	c #3FA535",
"m	c #62BE53",
"n	c #32B61B",
"o	c #409F41",
"p	c #B8BDD2",
"q	c #BDBDDB",
"r	c #B9B9DB",
"s	c #B4B4DB",
"t	c #F0F0FF",
"u	c #8BBF93",
"v	c #2FAF1A",
"w	c #38B71E",
"x	c #2BB114",
"y	c #47A048",
"z	c #DCDFF9",
"A	c #BFBFDB",
"B	c #D9D9FF",
"C	c #D1D1FF",
"D	c #91B89D",
"E	c #289F1F",
"F	c #54A15A",
"G	c #BFC0D8",
"H	c #B2B2DB",
"I	c #E5E5FF",
"J	c #C3C3DB",
"K	c #DBDBFF",
"L	c #CCCCFF",
"                ",
"  ............  ",
" .+++++++++++@. ",
" .+##########$. ",
" .@............ ",
" .%&%&*=-;>,'). ",
" .%%%%*!-~{]^/. ",
" .%&%&*=-(_:<). ",
" .%[}|1234567/. ",
" .*890abcdefgh. ",
" .!ijklmnopqrs. ",
" .-tuvwxyzAB/C. ",
" .~~~DEFGA'/sH. ",
" .>I>IJ,AKrhHL. ",
"  ............  ",
"                "};
