/* XPM */
char * help_xpm[] = {
"16 16 137 2",
"  	c None",
". 	c #CACACA",
"+ 	c #D1D0D0",
"@ 	c #CBCACA",
"# 	c #B7B7B6",
"$ 	c #D7D7D6",
"% 	c #F8F6F4",
"& 	c #F4F2F0",
"* 	c #DFE6EB",
"= 	c #DFE5EB",
"- 	c #F2EFED",
"; 	c #E9E7E5",
"> 	c #AFAFAF",
", 	c #E0DFDF",
"' 	c #F6F4F3",
") 	c #9EBFE0",
"! 	c #78B7F3",
"~ 	c #70B3F4",
"{ 	c #65ABF0",
"] 	c #5AA2E9",
"^ 	c #8DB4DC",
"/ 	c #EDEBE8",
"( 	c #ADACAC",
"_ 	c #D5D4D4",
": 	c #F4F3F2",
"< 	c #8CBCEC",
"[ 	c #8FC6FE",
"} 	c #8CC4FB",
"| 	c #81BCF7",
"1 	c #73B2F1",
"2 	c #65A9EE",
"3 	c #509DE9",
"4 	c #61A0DF",
"5 	c #E9E6E4",
"6 	c #969595",
"7 	c #F4F2F1",
"8 	c #9FC0E1",
"9 	c #8DC4FD",
"0 	c #B6D9FA",
"a 	c #E3EFFB",
"b 	c #FFFFFF",
"c 	c #F3F8FD",
"d 	c #AECFF0",
"e 	c #4193E2",
"f 	c #88B1DA",
"g 	c #D3D1CE",
"h 	c #C4C4C4",
"i 	c #EEECEB",
"j 	c #77B6F3",
"k 	c #86BDF2",
"l 	c #E0EBF7",
"m 	c #D8E4EF",
"n 	c #5E89B2",
"o 	c #5280AD",
"p 	c #4590D9",
"q 	c #3D8FE0",
"r 	c #E2DEDA",
"s 	c #747474",
"t 	c #C8C7C7",
"u 	c #DAE1E6",
"v 	c #7AB1EB",
"w 	c #6A97C6",
"x 	c #6290BD",
"y 	c #689ED2",
"z 	c #D6E3F1",
"A 	c #CBD9E7",
"B 	c #6F97C0",
"C 	c #408AD3",
"D 	c #2C88DE",
"E 	c #D1D5D8",
"F 	c #7B7A79",
"G 	c #BFBFBF",
"H 	c #DADFE6",
"I 	c #64ABF1",
"J 	c #72B1EE",
"K 	c #70ABE5",
"L 	c #6CA5E0",
"M 	c #4176A8",
"N 	c #4081BE",
"O 	c #3D8BD8",
"P 	c #2884DE",
"Q 	c #CED1D5",
"R 	c #727271",
"S 	c #ADADAD",
"T 	c #5AA4EA",
"U 	c #64A8EC",
"V 	c #66AAED",
"W 	c #60A1E1",
"X 	c #4A80B4",
"Y 	c #4588CB",
"Z 	c #438FDC",
"` 	c #378ADD",
" .	c #368CE0",
"..	c #DEDBD8",
"+.	c #5E5E5E",
"@.	c #DEDDDA",
"#.	c #8BB3D9",
"$.	c #509EE9",
"%.	c #57A0E8",
"&.	c #5399E0",
"*.	c #438EDA",
"=.	c #3A8DDE",
"-.	c #2783DC",
";.	c #80ABD4",
">.	c #8F8C89",
",.	c #A2A1A1",
"'.	c #E2E0DD",
").	c #62A3E1",
"!.	c #4294E4",
"~.	c #448ED7",
"{.	c #3673B0",
"].	c #3170AF",
"^.	c #3483D2",
"/.	c #559ADF",
"(.	c #C4C1BC",
"_.	c #5F5E5E",
":.	c #9F9E9E",
"<.	c #DAD8D5",
"[.	c #84AED7",
"}.	c #3E8FDF",
"|.	c #2A7ED0",
"1.	c #257BCF",
"2.	c #358BDE",
"3.	c #7FA9D3",
"4.	c #C2BEBA",
"5.	c #686766",
"6.	c #878686",
"7.	c #A6A2A0",
"8.	c #D1CDC8",
"9.	c #C7CACE",
"0.	c #C5C8CB",
"a.	c #C6C3BE",
"b.	c #85817F",
"c.	c #6A6969",
"d.	c #6E6E6E",
"e.	c #686867",
"f.	c #595858",
"                                ",
"            . + @ #             ",
"        $ % & * = - ; >         ",
"      , ' ) ! ~ { ] ^ / (       ",
"    _ : < [ } | 1 2 3 4 5 6     ",
"    7 8 9 0 a b b c d e f g     ",
"  h i j k l m n o b b p q r s   ",
"  t u ~ v w x y z A B C D E F   ",
"  G H I J K L b b M N O P Q R   ",
"  S 5 T U V W X M Y Z `  ...+.  ",
"    @.#.$.%.&.b b *.=.-.;.>.    ",
"    ,.'.).!.~.{.].^.-./.(._.    ",
"      :.<.[.}.|.1.2.3.4.5.      ",
"        6.7.8.9.0.a.b.+.        ",
"            c.d.e.f.            ",
"                                "};
