/* XPM */
char *http_xpm[] = {
"16 16 176 3",
"000 c #201838",
"001 c #C84810",
"002 c #185898",
"003 c #F8B848",
"004 c #C03810",
"005 c #E08828",
"006 c #787078",
"007 c #C8C8C0",
"008 c #401810",
"009 c #E08820",
"010 c #206088",
"011 c #D0C8C0",
"012 c #786068",
"013 c #D89840",
"014 c #A0A0A0",
"015 c None",
"016 c #204060",
"017 c #E07818",
"018 c #205080",
"019 c #F8C848",
"020 c #A81808",
"021 c #E89830",
"022 c #908888",
"023 c #D0D0C8",
"024 c #404058",
"025 c #D87828",
"026 c #58A0D0",
"027 c #C8C0B8",
"028 c #C85820",
"029 c #E8B038",
"030 c #B0B0A8",
"031 c #181838",
"032 c #D86810",
"033 c #083870",
"034 c #E8B848",
"035 c #884028",
"036 c #E08020",
"037 c #686870",
"038 c #482020",
"039 c #E08028",
"040 c #2868A8",
"041 c #E0B080",
"042 c #807850",
"043 c #E0A838",
"044 c #A09090",
"045 c #403848",
"046 c #D87018",
"047 c #184070",
"048 c #F0D058",
"049 c #B83818",
"050 c #E09028",
"051 c #886060",
"052 c #C8C0C0",
"053 c #505868",
"054 c #E88838",
"055 c #5090C0",
"056 c #F8D060",
"057 c #C86028",
"058 c #F8C840",
"059 c gray69",
"060 c #383850",
"061 c #D86018",
"062 c #184870",
"063 c #E8A838",
"064 c #A85018",
"065 c #A08078",
"066 c #282040",
"067 c #E88820",
"068 c #486068",
"069 c #F8D860",
"070 c #905848",
"071 c #A09898",
"072 c #103858",
"073 c #D06820",
"074 c #206090",
"075 c #F0C040",
"076 c #D89830",
"077 c #909090",
"078 c #483838",
"079 c #E07820",
"080 c #0080C0",
"081 c #E89850",
"082 c #C06828",
"083 c #B8B0B0",
"084 c #182020",
"085 c #D86010",
"086 c #186088",
"087 c #D07840",
"088 c #805828",
"089 c #605060",
"090 c #781010",
"091 c #E09030",
"092 c #387098",
"093 c #A06830",
"094 c #E0A030",
"095 c #6898B8",
"096 c #082850",
"097 c #E87818",
"098 c #585870",
"099 c #F8D058",
"100 c #A82008",
"101 c #807870",
"102 c #704028",
"103 c #E08838",
"104 c #6090B0",
"105 c #F8D858",
"106 c #C87018",
"107 c #B8B0A8",
"108 c #403830",
"109 c #D05010",
"110 c #184878",
"111 c #704830",
"112 c #707880",
"113 c #201818",
"114 c #0060A0",
"115 c #A08058",
"116 c #102848",
"117 c #486070",
"118 c #F0C048",
"119 c #888888",
"120 c #402830",
"121 c #2898C8",
"122 c #382840",
"123 c #085088",
"124 c #E0B040",
"125 c #901000",
"126 c #608090",
"127 c #282828",
"128 c #2878B0",
"129 c #B08848",
"130 c #A8A098",
"131 c #405048",
"132 c #D07018",
"133 c #104068",
"134 c #C87040",
"135 c #B83008",
"136 c #909080",
"137 c #605858",
"138 c #5090B8",
"139 c #B86848",
"140 c #C0C0B8",
"141 c #383848",
"142 c #D06028",
"143 c #185078",
"144 c #A01008",
"145 c #686060",
"146 c #502028",
"147 c #904820",
"148 c #083060",
"149 c #C88038",
"150 c #586868",
"151 c #F8C850",
"152 c #E09830",
"153 c #687058",
"154 c #C07828",
"155 c #A8A0A0",
"156 c #082038",
"157 c #D05810",
"158 c #084880",
"159 c #F8A840",
"160 c #903020",
"161 c #808090",
"162 c #780808",
"163 c #E88028",
"164 c #387898",
"165 c #B06020",
"166 c #78B8D0",
"167 c #103048",
"168 c #104870",
"169 c #984010",
"170 c #603020",
"171 c #3898C8",
"172 c #D0C068",
"173 c #C88028",
"174 c #B0A8A0",
"175 c #A09890",
"015015015015015007161053098112136042101011015015",
"015087103007037170132002040092150048069115011015",
"015142050109125017106047055095126068069069129015",
"041028063124050005064016055166104018068029069071",
"028073152152050005054093164026026128143094075013",
"057036050050005017149062010121171010172048063063",
"134036050067036078116072086080010168153019029043",
"139017050005036102167169111062114133131019075076",
"051049036005067097025163081060123158127034019154",
"044035032036067067147120148033096113173069019137",
"027070004032036005097108156084008159056056088130",
"011065160135157036036036005021021019003082145011",
"015083051090020001061046005036036061165045130011",
"015023174012146162144020020100020038024071007015",
"015015011083022089122000031066060006014027015015",
"015015015015140030071077119077014030027015015015"
};
