/* XPM */
char * import_users_xpm[] = {
"16 16 122 2",
"  	c None",
". 	c #75AD75",
"+ 	c #D8E8D8",
"@ 	c #179C1A",
"# 	c #83B983",
"$ 	c #2CA32F",
"% 	c #0B9909",
"& 	c #0D800A",
"* 	c #1FA016",
"= 	c #209E16",
"- 	c #2AAB1C",
"; 	c #46C32F",
"> 	c #87F35B",
", 	c #059907",
"' 	c #74B274",
") 	c #31B420",
"! 	c #5CDC3D",
"~ 	c #6EE64A",
"{ 	c #83F157",
"] 	c #9FFF69",
"^ 	c #85F35A",
"/ 	c #0A950C",
"( 	c #CF9600",
"_ 	c #C38D00",
": 	c #BD8900",
"< 	c #B98100",
"[ 	c #71B471",
"} 	c #1F9B17",
"| 	c #3AB726",
"1 	c #44C12D",
"2 	c #8AF65C",
"3 	c #089D09",
"4 	c #B2CAC6",
"5 	c #B28200",
"6 	c #BC8900",
"7 	c #B88400",
"8 	c #C08D00",
"9 	c #A36D00",
"0 	c #AA7200",
"a 	c #E4DED5",
"b 	c #2A9734",
"c 	c #0B9C0A",
"d 	c #BDC6DC",
"e 	c #F1AD56",
"f 	c #E8BE73",
"g 	c #E1AC5C",
"h 	c #A57200",
"i 	c #AB7800",
"j 	c #0D9A0F",
"k 	c #FFBF70",
"l 	c #CD7C16",
"m 	c #FFBD6D",
"n 	c #FFDA9A",
"o 	c #FFD592",
"p 	c #A37004",
"q 	c #A97600",
"r 	c #FFB140",
"s 	c #FFB354",
"t 	c #FFA737",
"u 	c #FFC775",
"v 	c #FFC26F",
"w 	c #9E6600",
"x 	c #AB6F00",
"y 	c #E86D22",
"z 	c #FF9E38",
"A 	c #FFB044",
"B 	c #E56F23",
"C 	c #3B6195",
"D 	c #FFAC4D",
"E 	c #CA8A2F",
"F 	c #6A5B2C",
"G 	c #1B478E",
"H 	c #E76E24",
"I 	c #F88F2F",
"J 	c #E26C22",
"K 	c #B0503A",
"L 	c #BC3510",
"M 	c #BA1100",
"N 	c #2056AA",
"O 	c #005ECA",
"P 	c #AFF0FF",
"Q 	c #3182DB",
"R 	c #166FD2",
"S 	c #0F57BD",
"T 	c #D2541B",
"U 	c #E06B23",
"V 	c #EF822A",
"W 	c #F3862B",
"X 	c #E77223",
"Y 	c #D65A1D",
"Z 	c #CA3508",
"` 	c #682C50",
" .	c #0E71D1",
"..	c #206BC5",
"+.	c #0A58B8",
"@.	c #2976C6",
"#.	c #2067BB",
"$.	c #01369C",
"%.	c #C54215",
"&.	c #D1551B",
"*.	c #DD6521",
"=.	c #E36D24",
"-.	c #D96020",
";.	c #CE4F1A",
">.	c #BD2804",
",.	c #77122A",
"'.	c #1F7DD3",
").	c #2B7AC8",
"!.	c #2A79C7",
"~.	c #1E66B9",
"{.	c #0C47A6",
"].	c #02379C",
"^.	c #C5280B",
"/.	c #BA2A0D",
"(.	c #B52B0D",
"_.	c #B0220B",
":.	c #A91206",
"<.	c #B20000",
"[.	c #004DC8",
"}.	c #044CBF",
"|.	c #0448B9",
"1.	c #003CB1",
"                                ",
".                               ",
"+         @                     ",
"  #       $ %                   ",
"  & * = - ; > ,                 ",
"  ' ) ! ~ { ] ^ /   ( _ : <     ",
"    [ } | 1 2 3 4   5 6 7 8 9   ",
"      0 a b c d a   e f g h i   ",
"        a j a k l   m n o p q   ",
"        r a a s     t u v w x   ",
"        y z A B     C D E F G   ",
"      H I J K L M N O P Q R S   ",
"    T U V W X Y Z `  ...+.@.#.$.",
"    %.&.*.=.-.;.>.,.'.).!.~.{.].",
"      ^./.(._.:.<.  [.}.|.1.    ",
"                                "};
