/* XPM */
static char * import_appl_xpm[] = {
"16 16 159 2",
"  	c None",
". 	c #109A18",
"+ 	c #8C8CC3",
"@ 	c #7F7FB3",
"# 	c #9090BF",
"$ 	c #9494C1",
"% 	c #9191BE",
"& 	c #8B8BBA",
"* 	c #8383B1",
"= 	c #7979A8",
"- 	c #606094",
"; 	c #4F4F82",
"> 	c #84BA84",
", 	c #29A229",
"' 	c #089A08",
") 	c #D7D7F9",
"! 	c #F1F1FF",
"~ 	c #E8E8FF",
"{ 	c #E0E0FB",
"] 	c #DADAF9",
"^ 	c #D5D5F7",
"/ 	c #C4C4E9",
"( 	c #ACACD7",
"_ 	c #48487C",
": 	c #088208",
"< 	c #18A210",
"[ 	c #219A10",
"} 	c #29AA18",
"| 	c #42C329",
"1 	c #84F35A",
"2 	c #009A00",
"3 	c #CACAF0",
"4 	c #B7B7E3",
"5 	c #B4B4E1",
"6 	c #A3A3D2",
"7 	c #8F8FBE",
"8 	c #7E7EAE",
"9 	c #4F4F83",
"0 	c #37376A",
"a 	c #73B273",
"b 	c #31B221",
"c 	c #5ADB39",
"d 	c #6BE34A",
"e 	c #9CFB6B",
"f 	c #089208",
"g 	c #A6A6DB",
"h 	c #A5A5D8",
"i 	c #9696CA",
"j 	c #8686BA",
"k 	c #7575A8",
"l 	c #555587",
"m 	c #3A3A6C",
"n 	c #189A10",
"o 	c #39B221",
"p 	c #8CF35A",
"q 	c #B5CBC6",
"r 	c #DADAF0",
"s 	c #D2D2EA",
"t 	c #CBCBE8",
"u 	c #B5B5DB",
"v 	c #A2A2CF",
"w 	c #8B8BBD",
"x 	c #7777AA",
"y 	c #3F3F74",
"z 	c #299231",
"A 	c #DEDEFF",
"B 	c #A8A8DC",
"C 	c #A5A5D9",
"D 	c #9797CA",
"E 	c #8787BA",
"F 	c #545487",
"G 	c #313164",
"H 	c #9E9EC8",
"I 	c #B9B9E2",
"J 	c #B3B2DB",
"K 	c #847BA7",
"L 	c #A5A5DA",
"M 	c #8484B7",
"N 	c #7171A4",
"O 	c #444478",
"P 	c #7B7BB0",
"Q 	c #D0D0F5",
"R 	c #B8B8E2",
"S 	c #A6A6D4",
"T 	c #A5A1CE",
"U 	c #3D5894",
"V 	c #B2B2D8",
"W 	c #A4A4D1",
"X 	c #8E8EC1",
"Y 	c #565689",
"Z 	c #313163",
"` 	c #BBBBE7",
" .	c #B0B0DC",
"..	c #AAAAD7",
"+.	c #A4A4D2",
"@.	c #9C9CCC",
"#.	c #9A99CA",
"$.	c #6A6391",
"%.	c #8484B8",
"&.	c #7171A5",
"*.	c #5E5E91",
"=.	c #464679",
"-.	c #7575A2",
";.	c #C0C0E7",
">.	c #B0B0DB",
",.	c #A9A9D6",
"'.	c #A3A3D1",
").	c #9A9ACB",
"!.	c #9494C5",
"~.	c #8E8EC0",
"{.	c #7B76A9",
"].	c #4A629A",
"^.	c #A1A1D0",
"/.	c #8F8FBF",
"(.	c #7F7FB2",
"_.	c #6D6DA0",
":.	c #323265",
"<.	c #676798",
"[.	c #A8A8D3",
"}.	c #A2A2D0",
"|.	c #9B9BCB",
"1.	c #9393C4",
"2.	c #8A8ABC",
"3.	c #8383B7",
"4.	c #8382B5",
"5.	c #525081",
"6.	c #A4A4D3",
"7.	c #9595C4",
"8.	c #7A7AAD",
"9.	c #4C4C80",
"0.	c #35356E",
"a.	c #9C9CC8",
"b.	c #8F8FBD",
"c.	c #8D8DC1",
"d.	c #7E7EB2",
"e.	c #4E4E7F",
"f.	c #8B8BAA",
"g.	c #7272A5",
"h.	c #606093",
"i.	c #3A3A6F",
"j.	c #33336B",
"k.	c #7777A4",
"l.	c #ACACD6",
"m.	c #9898C1",
"n.	c #636393",
"o.	c #3D3D79",
"p.	c #44447E",
"q.	c #6B6BA0",
"r.	c #8181B4",
"s.	c #7D7DB0",
"t.	c #505086",
"u.	c #4E4E81",
"v.	c #6B6B9A",
"w.	c #434375",
"x.	c #3C3C6C",
"y.	c #35356C",
"z.	c #48487B",
"A.	c #4F4F81",
"B.	c #41417B",
"                                ",
"        .   + @ # $ % & * = - ; ",
">       , ' )   ! ~ { ] ^ / ( _ ",
": < [ } | 1 2 ) 3 4 5 6 7 8 9 0 ",
"a b c d 1 e 1 f ) g h i j k l m ",
"  a n o | p ' q r s t u v w x y ",
"    ) ) z ' ) ) A B C D E k F G ",
"  H I ) ' ) J K A C L D M N k O ",
"  P Q R ) ) S T U A s V W X Y Z ",
"I H `  ...+.@.#.$.A C i %.&.*.=.",
"-.;.>.,.'.).!.~.{.].A ^./.(._.:.",
"<.I [.}.|.1.2.3.4.5.A 6.7.8.9.0.",
"-.( }.a.b.c.E (.d.e.f.g.h.i.j.  ",
"k.l.m.n.o.p.q.r.s.t.            ",
"u.v.w.x.    y.z.A.B.            ",
"                                "};
