/* XPM */
char *indexes_xpm[] = {
"16 16 256 3",
"000 c #0048B0",
"001 c None",
"002 c #3060B0",
"003 c #F8F8F8",
"004 c #0068D0",
"005 c #C0C0C0",
"006 c gray69",
"007 c gray94",
"008 c #0058C0",
"009 c gray72",
"010 c #2090E0",
"011 c #F0E8E0",
"012 c #0078E0",
"013 c #D0D0D0",
"014 c gray66",
"015 c gray88",
"016 c #1048A8",
"017 c #4068B0",
"018 c #0070D8",
"019 c #C8C0B8",
"020 c #989898",
"021 c #F0F0E8",
"022 c #0058B8",
"023 c #C0C0C8",
"024 c #7890A8",
"025 c #F8F0E8",
"026 c #0078D8",
"027 c #E0E0E8",
"028 c #88A0C0",
"029 c #0050B8",
"030 c #1068C8",
"031 c #D8D8D8",
"032 c #A0A0A0",
"033 c #0068C8",
"034 c #3098E8",
"035 c #0070D0",
"036 c #C8C8C8",
"037 c #A0B8E0",
"038 c #0040A8",
"039 c #3070B8",
"040 c #1868C8",
"041 c #989088",
"042 c #E8D8D0",
"043 c #1860C8",
"044 c #B8C8D8",
"045 c #58B0F0",
"046 c #0080F0",
"047 c #D8D0C8",
"048 c #B0A8A8",
"049 c #3870B8",
"050 c #0060C8",
"051 c #3898E8",
"052 c #0850C0",
"053 c #5080B8",
"054 c #E8E0D0",
"055 c #1058B0",
"056 c #B0B8B8",
"057 c #7090C8",
"058 c #0838A0",
"059 c #1080D8",
"060 c #0060C0",
"061 c #40A0E8",
"062 c #8098C8",
"063 c #0048C0",
"064 c #5080C8",
"065 c #0860C8",
"066 c #A09898",
"067 c #E8E0D8",
"068 c #1860C0",
"069 c #B8B8B0",
"070 c #6890C0",
"071 c #0080E8",
"072 c #1878D8",
"073 c #40A8F0",
"074 c #4070C0",
"075 c #60B8F8",
"076 c #4080C8",
"077 c #90D0F8",
"078 c #3078C8",
"079 c #A8B8E0",
"080 c #70C0F8",
"081 c #2860A8",
"082 c #0858B8",
"083 c #4870A8",
"084 c #1060B8",
"085 c #6888C8",
"086 c #1870D0",
"087 c #3088E0",
"088 c #80C8F8",
"089 c #0048A8",
"090 c #2050B0",
"091 c #0060D0",
"092 c #A09888",
"093 c #50B8F8",
"094 c #A8C0E0",
"095 c #2858B0",
"096 c #0058C8",
"097 c black",
"098 c black",
"099 c black",
"100 c black",
"101 c black",
"102 c black",
"103 c black",
"104 c black",
"105 c black",
"106 c black",
"107 c black",
"108 c black",
"109 c black",
"110 c black",
"111 c black",
"112 c black",
"113 c black",
"114 c black",
"115 c black",
"116 c black",
"117 c black",
"118 c black",
"119 c black",
"120 c black",
"121 c black",
"122 c black",
"123 c black",
"124 c black",
"125 c black",
"126 c black",
"127 c black",
"128 c black",
"129 c black",
"130 c black",
"131 c black",
"132 c black",
"133 c black",
"134 c black",
"135 c black",
"136 c black",
"137 c black",
"138 c black",
"139 c black",
"140 c black",
"141 c black",
"142 c black",
"143 c black",
"144 c black",
"145 c black",
"146 c black",
"147 c black",
"148 c black",
"149 c black",
"150 c black",
"151 c black",
"152 c black",
"153 c black",
"154 c black",
"155 c black",
"156 c black",
"157 c black",
"158 c black",
"159 c black",
"160 c black",
"161 c black",
"162 c black",
"163 c black",
"164 c black",
"165 c black",
"166 c black",
"167 c black",
"168 c black",
"169 c black",
"170 c black",
"171 c black",
"172 c black",
"173 c black",
"174 c black",
"175 c black",
"176 c black",
"177 c black",
"178 c black",
"179 c black",
"180 c black",
"181 c black",
"182 c black",
"183 c black",
"184 c black",
"185 c black",
"186 c black",
"187 c black",
"188 c black",
"189 c black",
"190 c black",
"191 c black",
"192 c black",
"193 c black",
"194 c black",
"195 c black",
"196 c black",
"197 c black",
"198 c black",
"199 c black",
"200 c black",
"201 c black",
"202 c black",
"203 c black",
"204 c black",
"205 c black",
"206 c black",
"207 c black",
"208 c black",
"209 c black",
"210 c black",
"211 c black",
"212 c black",
"213 c black",
"214 c black",
"215 c black",
"216 c black",
"217 c black",
"218 c black",
"219 c black",
"220 c black",
"221 c black",
"222 c black",
"223 c black",
"224 c black",
"225 c black",
"226 c black",
"227 c black",
"228 c black",
"229 c black",
"230 c black",
"231 c black",
"232 c black",
"233 c black",
"234 c black",
"235 c black",
"236 c black",
"237 c black",
"238 c black",
"239 c black",
"240 c black",
"241 c black",
"242 c black",
"243 c black",
"244 c black",
"245 c black",
"246 c black",
"247 c black",
"248 c black",
"249 c black",
"250 c black",
"251 c black",
"252 c black",
"253 c black",
"254 c black",
"255 c black",
"001001001001001001001001001001001001001001001001",
"001001031014006020014014014005009001001001001001",
"001001009003003006003014036001020006009009001001",
"001015032007005032003009003003014007003014015001",
"001056047032032032032020014032014001001009036001",
"001052048066013014005013015007001001007019024001",
"001030086049092041025011054054042005028083058001",
"001040077051065081070053039084029063029000016001",
"001040088075093050046046012018004004008000090001",
"001043080045073018046012012018004050008000095001",
"001078045061051012012012018004004050029000002001",
"001076087034010012018018004004050008000038017001",
"001037030072059018018004004050008029000038085001",
"001001094040004004004004008008029055064079001001",
"001001001015057043082043074062044001001001001001",
"001001001001001001001001001001001001001001001001"
};
