/* XPM */
char *Kopirovat_xpm[] = {
"16 16 256 3",
"000 c black",
"001 c gray100",
"002 c #88888D",
"003 c #8E8E91",
"004 c #787879",
"005 c #C4C4C5",
"006 c #AFB2C7",
"007 c #ADB0C4",
"008 c #9DA6DF",
"009 c #858CB4",
"010 c #8A90B7",
"011 c #AAAEC7",
"012 c #A4A8BE",
"013 c #ACB0C7",
"014 c #ABAFC6",
"015 c #B6BAD1",
"016 c #ADB1C7",
"017 c #ACB0C6",
"018 c #AAAEC4",
"019 c #B0B3C6",
"020 c #ABB0C7",
"021 c #ADB2C9",
"022 c #B1B6CD",
"023 c #ADB1C6",
"024 c #B2B6CB",
"025 c #B2B6CA",
"026 c #B0B4C8",
"027 c #B6BACD",
"028 c #AEB4CF",
"029 c #ABB1CA",
"030 c #ACB2CA",
"031 c #B2B8D0",
"032 c #AAAFC5",
"033 c #AEB3C9",
"034 c #AAAFC4",
"035 c #B4B9CE",
"036 c #B3B8CC",
"037 c #B8BDD1",
"038 c #BFC4D8",
"039 c #C2C6D7",
"040 c #818286",
"041 c #ABB1C8",
"042 c #AAB0C7",
"043 c #ACB2C9",
"044 c #ACB2C8",
"045 c #B3B9CF",
"046 c #B3B8CB",
"047 c #BBC0D3",
"048 c #BABFD1",
"049 c #B0B7CE",
"050 c #B5BBCF",
"051 c #B1B7CB",
"052 c #B6BCD0",
"053 c #C2C7D8",
"054 c #BFC4D5",
"055 c #B0BEE8",
"056 c #A7ABB6",
"057 c #C4C5C8",
"058 c #AABBE7",
"059 c #A4A8B2",
"060 c #BFC1C6",
"061 c #D8DFED",
"062 c #F8FAFE",
"063 c #ABBBD5",
"064 c #C8D7F0",
"065 c #F6F9FE",
"066 c #BECEE6",
"067 c #DAE8FC",
"068 c #B4BFCF",
"069 c #E1ECFD",
"070 c #E2EDFD",
"071 c #E9F1FD",
"072 c #EDF3FC",
"073 c #F4F8FE",
"074 c #BFC1C4",
"075 c #C6DDFB",
"076 c #D1E3FC",
"077 c #D5E6FC",
"078 c #D7E7FC",
"079 c #E1EDFD",
"080 c #DFEBFB",
"081 c #E9F2FE",
"082 c #F2F7FE",
"083 c #B2D2F9",
"084 c #B6D5FA",
"085 c #B7D5FA",
"086 c #BAD7FA",
"087 c #A6C0DF",
"088 c #BDD9FA",
"089 c #BED9FA",
"090 c #C0DBFB",
"091 c #C3DCFB",
"092 c #C6DEFB",
"093 c #C8DFFB",
"094 c #CAE0FA",
"095 c #CCE1FA",
"096 c #CDE2FB",
"097 c #D3E5FC",
"098 c #D4E6FC",
"099 c #D2E4FA",
"100 c #D8E8FC",
"101 c #DBEBFE",
"102 c #D9E9FC",
"103 c #DBEAFC",
"104 c #DCEAFB",
"105 c #E2EEFD",
"106 c #E7F1FD",
"107 c #E8F1FC",
"108 c #89A5C3",
"109 c #BAD8FA",
"110 c #C0DBF9",
"111 c #C2DCFA",
"112 c #C2DCF9",
"113 c #C5DEFB",
"114 c #C7DFFB",
"115 c #C7E0FB",
"116 c #CAE2FC",
"117 c #CAE1FB",
"118 c #CDE3FB",
"119 c #CDE2FA",
"120 c #D1E5FC",
"121 c #D0E4FB",
"122 c #D2E5FA",
"123 c #D5E7FC",
"124 c #D8EAFE",
"125 c #D6E8FC",
"126 c #DAEAFC",
"127 c #DCEBFB",
"128 c #E1EFFE",
"129 c #DCEAF9",
"130 c #E1EEFD",
"131 c #E0EDFC",
"132 c #E3EFFD",
"133 c #E6F1FD",
"134 c #EAF3FD",
"135 c #EDF5FE",
"136 c #ECF4FD",
"137 c #EDF4FC",
"138 c #F0F6FD",
"139 c #CEE4FA",
"140 c #D5E8FC",
"141 c #D3E6FA",
"142 c #D9EAFB",
"143 c #DDECFB",
"144 c #DFEDFB",
"145 c #E3F0FD",
"146 c #E5F1FD",
"147 c #EBF4FD",
"148 c #EFF6FD",
"149 c #F2F8FE",
"150 c #7A7B7C",
"151 c #909192",
"152 c #D6EBFE",
"153 c #E6F2FD",
"154 c #419FE5",
"155 c #51AEEE",
"156 c #FAFDFE",
"157 c #C1C1C1",
"158 c None",
"159 c gray47",
"160 c #777777",
"161 c #000005",
"162 c #E9F1FD",
"163 c #6FDA07",
"164 c gray100",
"165 c #F7FF38",
"166 c #6FDA07",
"167 c #54504C",
"168 c black",
"169 c #FFFFFE",
"170 c #360001",
"171 c #000080",
"172 c #700000",
"173 c #000001",
"174 c #000001",
"175 c #6FDD00",
"176 c black",
"177 c #6FD90C",
"178 c #F7B76C",
"179 c #6FDD00",
"180 c black",
"181 c #6FD91C",
"182 c #F7B76C",
"183 c #F741FB",
"184 c #FC9490",
"185 c #F7B787",
"186 c #F713E2",
"187 c #00015F",
"188 c #F712C5",
"189 c #004201",
"190 c yellow",
"191 c #F741FB",
"192 c #FC9490",
"193 c #F7B83F",
"194 c black",
"195 c #000001",
"196 c #BBCB90",
"197 c #6FD96C",
"198 c #F8C7D7",
"199 c #6FDD00",
"200 c cyan",
"201 c black",
"202 c #97A24C",
"203 c black",
"204 c #0003C6",
"205 c black",
"206 c #97A24C",
"207 c black",
"208 c #6FD984",
"209 c #9BE448",
"210 c #000068",
"211 c cyan",
"212 c black",
"213 c #000001",
"214 c #6FD998",
"215 c #9B3DAC",
"216 c #000068",
"217 c cyan",
"218 c #000001",
"219 c #6FDAC4",
"220 c #97CB8F",
"221 c #6FDD00",
"222 c cyan",
"223 c #000001",
"224 c #6FDD00",
"225 c #6FEB84",
"226 c black",
"227 c #BC4D42",
"228 c black",
"229 c #BA0000",
"230 c #280000",
"231 c #100000",
"232 c #100000",
"233 c transparent",
"234 c #000008",
"235 c black",
"236 c #120000",
"237 c #120000",
"238 c #A10000",
"239 c #A10000",
"240 c black",
"241 c blue",
"242 c #8D00FF",
"243 c #910088",
"244 c #79008E",
"245 c #C50078",
"246 c #C700C4",
"247 c #C400AF",
"248 c #DF00AD",
"249 c #B4009D",
"250 c #B70085",
"251 c #C7008A",
"252 c #BE00AA",
"253 c #C700A4",
"254 c #C600AC",
"255 c #D100AB",
"158066047052050035037063057158158158158158158158",
"158051062149148134081087154060074158158158158158",
"158034082072071145131064058009056158158158158158",
"158023136153132144126140152010059158158158158158",
"158026133070104102043027048054039053038068157158",
"158025079127125097044156073138147106061155108157",
"158046103140099118014065137134133130129055008151",
"158036123120119093044082107145069127100098028160",
"158024121094093091041135105080142077122096015160",
"158033116113090088042081143067123076119093045160",
"158011032017016020018146078098139094114111031160",
"158003160160160002012128141119117075112088049160",
"158158158158158158006101095115091110086085020160",
"158158158158158158019124092091089109084083021160",
"158158158158158158007022030030030029029029013004",
"158158158158158158005040160160160160160160150159"
};
