/* XPM */
char * locales_xpm[] = {
"16 16 137 2",
"  	c None",
". 	c #E0E8E8",
"+ 	c #C0D0F0",
"@ 	c #80B8F0",
"# 	c #58A0E8",
"$ 	c #5098D8",
"% 	c #68A0D8",
"& 	c #A8B8D8",
"* 	c #E0E0E8",
"= 	c #E0F0F0",
"- 	c #80D078",
"; 	c #38A8A8",
"> 	c #50B840",
", 	c #40B068",
"' 	c #1890E8",
") 	c #0088D8",
"! 	c #0078D0",
"~ 	c #3880D0",
"{ 	c #B8C8E8",
"] 	c #70D060",
"^ 	c #68D018",
"/ 	c #78C0C0",
"( 	c #80D840",
"_ 	c #70D040",
": 	c #48A0F0",
"< 	c #2090E0",
"[ 	c #0080E0",
"} 	c #0070E0",
"| 	c #187888",
"1 	c #80C890",
"2 	c #60D010",
"3 	c #78C8B8",
"4 	c #98C8F8",
"5 	c #A0D0D8",
"6 	c #78D068",
"7 	c #70B8F8",
"8 	c #3898E0",
"9 	c #189890",
"0 	c #008890",
"a 	c #008030",
"b 	c #4078B0",
"c 	c #D8E0E8",
"d 	c #B8D0E0",
"e 	c #58C810",
"f 	c #50B0D0",
"g 	c #A0C8F8",
"h 	c #A8D0F8",
"i 	c #A0D0F0",
"j 	c #80C0F0",
"k 	c #40A0E8",
"l 	c #1898A0",
"m 	c #089048",
"n 	c #0070B8",
"o 	c #209010",
"p 	c #88A0D0",
"q 	c #78B8A0",
"r 	c #48A8E0",
"s 	c #80D0B0",
"t 	c #90C8F0",
"u 	c #70B8E8",
"v 	c #0888E8",
"w 	c #009000",
"x 	c #50B040",
"y 	c #B8C8D0",
"z 	c #50A878",
"A 	c #50C010",
"B 	c #70D828",
"C 	c #78E038",
"D 	c #68B0F0",
"E 	c #50A8E8",
"F 	c #0880E0",
"G 	c #0080B0",
"H 	c #40A840",
"I 	c #B0D0C0",
"J 	c #0870C8",
"K 	c #48A078",
"L 	c #40B810",
"M 	c #60C830",
"N 	c #68D030",
"O 	c #50A8C8",
"P 	c #60B0E8",
"Q 	c #1088D8",
"R 	c #0078E0",
"S 	c #28B028",
"T 	c #B0D8B8",
"U 	c #3088D8",
"V 	c #58A098",
"W 	c #20B000",
"X 	c #60C818",
"Y 	c #B8D8F0",
"Z 	c #A8C8E8",
"` 	c #B0D0E8",
" .	c #B0E0B0",
"..	c #5898D0",
"+.	c #0068D0",
"@.	c #98B0E0",
"#.	c #008868",
"$.	c #0888A8",
"%.	c #189860",
"&.	c #1090B0",
"*.	c #B0D8F0",
"=.	c #2860B0",
"-.	c #3070B0",
";.	c #B8C0C0",
">.	c #7090B8",
",.	c #0860C0",
"'.	c #288088",
").	c #007890",
"!.	c #4070A8",
"~.	c #0040A8",
"{.	c #3868B8",
"].	c #2060B8",
"^.	c #0058C0",
"/.	c #98B8E0",
"(.	c #B0C0E8",
"_.	c #088050",
":.	c #007858",
"<.	c #0060D0",
"[.	c #888890",
"}.	c #0048B0",
"|.	c #3868A8",
"1.	c #A8C0E0",
"2.	c #308058",
"3.	c #289800",
"4.	c #1060B0",
"5.	c #808080",
"6.	c #C8D8F0",
"7.	c #3870C0",
"8.	c #D8D8E0",
"9.	c #8898C0",
"0.	c #608090",
"a.	c #B0C0D0",
"b.	c #808890",
"c.	c #787878",
"d.	c #305898",
"e.	c #707078",
"f.	c #989898",
"                                ",
"        . + @ # $ % & *         ",
"      = - ; > , ' ) ! ~ {       ",
"    = ] ^ / ( _ : < [ } | {     ",
"  . 1 2 3 4 5 6 7 8 9 0 a b c   ",
"  d e f _ g h i j k l m n o p   ",
"  q > r s g i t u 8 v 0 w x y   ",
"  z A B C C j D E < F G H I J   ",
"  K L M N N O P P Q R S T U }   ",
"  V W L e X < Y Z i `  ...+.R   ",
"  @.#.$.%.&.[ *.=.-.;.>.,.+.P   ",
"  c '.).} } ! ` !.~.{.].^./.    ",
"    (._.:.a <.` [.=.~.}.|.      ",
"      1.2.3.4.1.5.6.~.7.5.      ",
"        8.9.0.a.b.c.d.e.f.      ",
"                                "};
