/* XPM */
static char *locks_xpm[] = {
/* columns rows colors chars-per-pixel */
"16 16 107 2",
")  c #6B6B7C",
"=  c #FBFBFF",
"K  c #9292B1",
"N  c #7E7E8F",
"U  c #AEAEBC",
"w  c #9B9BAF",
"Y  c #AEAEBE",
"4  c #9B9BB1",
"H  c #7E7E96",
".. c #9B9BB5",
";  c #6B6B8C",
".  c #ADADB2",
"i  c #DDDDDF",
"(  c #A4A4B9",
"c  c #99999A",
"+. c #8787A4",
"9  c #6A6A86",
"~  c #737383",
"s  c #B7B7D1",
"J  c #9A9AB4",
"-. c #57577D",
"S  c #B6B6BF",
"[  c #4D4D72",
"*. c #606083",
"=. c #606085",
"#. c #9090B0",
"p  c #BFBFC8",
"I  c #BFBFCB",
"f  c #A2A2AE",
"@  c #EFEFF7",
"|  c #9999B3",
"2  c #EFEFF8",
"o  c #A2A2B2",
"F  c #727288",
"r  c #606090",
"k  c #B5B5C2",
">  c #9999B9",
"_  c #383853",
"n  c #BEBEC4",
"   c None",
":  c #85859E",
"b  c #D1D1D3",
"l  c #ABABBB",
"E  c #9898AF",
"y  c #C8C8E0",
"x  c #8E8EA7",
"7  c #B4B4C4",
"0  c #B3B3B0",
"{  c #84849C",
"'  c #8E8EAE",
"]  c #7B7BA3",
"a  c #AAAABC",
"V  c #9797B4",
"3  c #54547E",
"P  c #838395",
"z  c #A0A0B5",
"#  c #D0D0E0",
";. c #4A4A71",
"}  c #A0A0B7",
"G  c #2C2C41",
"X  c #A9A9B5",
"j  c #BCBCC3",
"%  c #D0D0E5",
"+  c #CFCFD1",
"q  c #9F9FA7",
"%. c #7A7AA3",
"v  c #FFFFFF",
"$  c #C6C6DC",
"m  c #95959F",
"o. c #8383A8",
" . c #8C8CA5",
"d  c #66668D",
"Q  c #8C8CAC",
"Z  c #9E9EA4",
",  c #BCBCD8",
"u  c #BBBBCD",
"B  c #9E9EB4",
"`  c #777787",
"^  c #9E9EB8",
"h  c #CDCDCE",
"*  c #BABAC2",
"O. c #5B5B83",
"M  c #77778C",
"<  c #6E6E90",
"A  c #E0E0E1",
"C  c #646483",
"g  c #D7D7E6",
"6  c #6E6E96",
"R  c #3D3D57",
"e  c #CECEED",
"t  c #9D9DB1",
"1  c #C3C3D0",
"!  c #5A5A81",
"$. c #8A8AAD",
"D  c #B9B9C3",
"-  c #B0B0C7",
"/  c #A6A6B8",
"5  c #CDCDEA",
"W  c #9393B0",
"8  c #D6D6E8",
"X. c #9393B1",
"L  c #636386",
"@. c #9393B3",
"O  c #7F7F93",
"T  c #AFAFC5",
"&  c #7F7F9A",
"&. c #595981",
/* pixels */
"                                ",
"            . X o O             ",
"          + @ # $ % &           ",
"        * = - ; : > , <         ",
"        1 2 3     4 5 6         ",
"        7 8 9 0 q w e r         ",
"        t y u i p a s d         ",
"        f g h j k l z x         ",
"      c v b n m M N B V C       ",
"      Z A S D F G H J K L       ",
"      P I U Y T R E W Q !       ",
"      ~ ^ / ( ) _ ` ' ] [       ",
"        { } |  ...X.o.O.        ",
"          +.@.#.$.%.&.          ",
"            *.=.-.;.            ",
"                                "
};
