/* XPM */
static char *logs_xpm[] = {
/* columns rows colors chars-per-pixel */
"16 16 86 1",
"p c #CCCCE9",
"n c #88889E",
"4 c #454566",
"# c #88889F",
"g c #9B9BAE",
"L c #616175",
"@ c #AEAEC0",
"/ c #61617B",
"Z c #C2C2E7",
"j c #FAFAFE",
"f c #E7E7F8",
"K c #4C4C54",
"F c #A4A4C3",
"* c #74749B",
"S c #737387",
"V c #7D7D9A",
") c #42424A",
"+ c #E6E6ED",
"o c #7D7D9C",
"1 c #F9F9FC",
"N c #F9F9FD",
"U c #7D7D9F",
"H c #D3D3E4",
"P c #C1C1EE",
"G c #C0C0D9",
"d c #D3D3E8",
"= c #D2D2D3",
"z c #B7B7E0",
"J c #EFEFF6",
"q c #EFEFF7",
"C c #ADADD5",
"% c #E5E5E7",
"t c #DCDCED",
"6 c #E6E6FF",
"X c #ACACC3",
"M c #E5E5EF",
"  c None",
"w c #BEBEC8",
"i c #ABABBC",
"$ c #C8C8DD",
"x c #BFBFE3",
"v c #C8C8E3",
", c #D0D0D8",
"r c #DADAED",
"; c #5D5D7F",
"( c #7A7A9E",
"s c #D0D0E6",
"` c #48484F",
"T c #BDBDDC",
"O c #FFFFFF",
"_ c #5C5C72",
"5 c #5C5C75",
"Q c #79799A",
"^ c #8383AD",
"E c #52526D",
"y c #E2E2EF",
"b c #D9D9F4",
". c #9F9FBC",
"- c #6F6F92",
"2 c #FEFEFF",
"R c #8B8B9D",
"0 c #EBEBF5",
"9 c #EBEBF6",
"& c #8282A5",
"Y c #9595B5",
"B c #B1B1BE",
"l c #5B5B7A",
"I c #5A5A68",
"W c #646480",
"h c #A8A8CE",
"D c #8B8BB4",
"! c #6D6D86",
"A c #CECEF2",
"7 c #636376",
"m c #A7A7C4",
"c c #C4C4E2",
"8 c #CDCDE0",
"3 c #E9E9EB",
"a c #CDCDE7",
"k c #C3C3D7",
"< c #FCFCFE",
"> c #8080A3",
": c #D7D7FF",
"~ c #626276",
"u c #F2F2FD",
"e c #CCCCE3",
/* pixels */
"                ",
"      .Xo       ",
"      OOO+@#    ",
"     $OOOOO%&*  ",
"     =OOOOO-;:> ",
"     ,<12O34567 ",
"     890qOw     ",
"     ertyui     ",
"     pasdfg     ",
" hjklzxcvbn     ",
" mMNOBVCZAS     ",
" DFGHJOKLPI     ",
"   UYTREWQ      ",
"     !~^/(      ",
"       )_`      ",
"                "
};
