/* XPM */
static char * message_xpm[] = {
"16 16 114 2",
"  	c None",
". 	c #A2A2D7",
"+ 	c #B0B0DD",
"@ 	c #B3B3DF",
"# 	c #A6A6D7",
"$ 	c #9292C4",
"% 	c #B6B6E5",
"& 	c #E6E6F7",
"* 	c #FEFEFF",
"= 	c #FBFBFF",
"- 	c #F5F5FF",
"; 	c #F0F0FF",
"> 	c #E2E2FF",
", 	c #DDDDFF",
"' 	c #C3C3F3",
") 	c #9494C9",
"! 	c #C1C1EC",
"~ 	c #FFFFFF",
"{ 	c #F4F4FF",
"] 	c #ECECFF",
"^ 	c #E3E3FF",
"/ 	c #DBDBFF",
"( 	c #D7D7FF",
"_ 	c #D2D2FF",
": 	c #D1D1FF",
"< 	c #D3D3FF",
"[ 	c #9595CA",
"} 	c #A2A2D8",
"| 	c #A8A8CC",
"1 	c #A4A4CC",
"2 	c #A2A2CC",
"3 	c #A0A0CC",
"4 	c #9E9ECC",
"5 	c #9C9CCC",
"6 	c #CECEFE",
"7 	c #C8C8FC",
"8 	c #CFCFFC",
"9 	c #7575A8",
"0 	c #B5B5E1",
"a 	c #F8F8FF",
"b 	c #E8E8FF",
"c 	c #E1E1FF",
"d 	c #DEDEFF",
"e 	c #CFCFFF",
"f 	c #CBCBFE",
"g 	c #C4C4F8",
"h 	c #D8D8FD",
"i 	c #8787BA",
"j 	c #B4B4E0",
"k 	c #A1A1CC",
"l 	c #9F9FCC",
"m 	c #9D9DCC",
"n 	c #9A9ACC",
"o 	c #C1C1F5",
"p 	c #DEDEFD",
"q 	c #8A8ABE",
"r 	c #A5A5D6",
"s 	c #DFDFFF",
"t 	c #DADAFF",
"u 	c #D8D8FF",
"v 	c #D5D5FF",
"w 	c #E4E4FF",
"x 	c #E2E2FE",
"y 	c #DFDFFB",
"z 	c #D9D9F8",
"A 	c #7878AE",
"B 	c #8E8EC3",
"C 	c #D9D9FF",
"D 	c #9B9BCC",
"E 	c #C7C7E3",
"F 	c #009300",
"G 	c #009100",
"H 	c #008D00",
"I 	c #CCCCEC",
"J 	c #5E5E92",
"K 	c #9C9CCE",
"L 	c #E6E6FF",
"M 	c #E5E5FF",
"N 	c #E7E7FE",
"O 	c #008F00",
"P 	c #91F75E",
"Q 	c #008900",
"R 	c #D3D3E2",
"S 	c #8B8BBE",
"T 	c #D0D0FF",
"U 	c #EBEBFF",
"V 	c #008B00",
"W 	c #8DF35A",
"X 	c #008300",
"Y 	c #008100",
"Z 	c #007D00",
"` 	c #B6B6EA",
" .	c #D4D4FF",
"..	c #BDBDE9",
"+.	c #D3D3E3",
"@.	c #86EC53",
"#.	c #7BE148",
"$.	c #78DE45",
"%.	c #007800",
"&.	c #8A8ABD",
"*.	c #B6B6E2",
"=.	c #008700",
"-.	c #008500",
";.	c #007A00",
">.	c #007500",
",.	c #007000",
"'.	c #8989BC",
").	c #BCBCED",
"!.	c #7575AC",
"~.	c #77DD44",
"{.	c #007200",
"].	c #6A6A9C",
"^.	c #7171AD",
"/.	c #006D00",
"                                ",
"          . + @ + # $           ",
"      % & * = - ; > , ' )       ",
"    ! ~ = { ] ^ / ( _ : < [     ",
"  } ~ = - | 1 2 3 4 5 6 7 8 9   ",
"  0 ~ a b c d / ( < e f g h i   ",
"  j ~ b c 2 k l m 5 n 7 o p q   ",
"  r b s , t u v _ w x y z ^ A   ",
"  B h , C l m 5 D E F G H I J   ",
"    K , u < v L M N O P Q R     ",
"      S < T M U G H V W X Y Z   ",
"        `  ...+.H P W @.#.$.%.  ",
"        &._ *.  =.-.Y #.;.>.,.  ",
"          '.).!.    Z ~.{.      ",
"            ].^.    >.,./.      ",
"                                "};
