/* XPM */
char *modify_xpm[] = {
"16 16 256 3",
"000 c None",
"001 c #F09078",
"002 c #D84828",
"003 c #F8F8F8",
"004 c #D89888",
"005 c #F87040",
"006 c #D83820",
"007 c #C84838",
"008 c #D8F8D0",
"009 c #B8C8C0",
"010 c #D8C8C8",
"011 c #B8E8A8",
"012 c #A0D098",
"013 c #B03838",
"014 c #C8B8A8",
"015 c #98F868",
"016 c #A8E890",
"017 c #A0C098",
"018 c #B0B8C8",
"019 c #80E850",
"020 c #B0B8C0",
"021 c #90C098",
"022 c #A0C0A0",
"023 c #A82828",
"024 c #80B880",
"025 c #90F860",
"026 c #88F058",
"027 c #90B0D0",
"028 c #B0D8B0",
"029 c #5898E0",
"030 c #908890",
"031 c #88F850",
"032 c #886868",
"033 c #706868",
"034 c #80E858",
"035 c #98F860",
"036 c #40A828",
"037 c #68B070",
"038 c #5890C8",
"039 c #7098C0",
"040 c #302828",
"041 c #70D850",
"042 c #68D840",
"043 c #50B030",
"044 c #6088B8",
"045 c #78E050",
"046 c #283850",
"047 c #40B028",
"048 c #388030",
"049 c #389820",
"050 c #0870D8",
"051 c #384050",
"052 c #2068B0",
"053 c #3870A8",
"054 c #384860",
"055 c #4078B0",
"056 c #082040",
"057 c #283048",
"058 c #1880E0",
"059 c #38A028",
"060 c #1858A8",
"061 c #283848",
"062 c #283040",
"063 c #303840",
"064 c #0860B0",
"065 c #1868C0",
"066 c #0068D0",
"067 c #182848",
"068 c #102040",
"069 c #0860B8",
"070 c #0878E8",
"071 c #101018",
"072 c #102840",
"073 c #000808",
"074 c #1870D0",
"075 c #0070E8",
"076 c #0060C0",
"077 c #000008",
"078 c #0860C0",
"079 c black",
"080 c black",
"081 c black",
"082 c black",
"083 c black",
"084 c black",
"085 c black",
"086 c black",
"087 c black",
"088 c black",
"089 c black",
"090 c black",
"091 c black",
"092 c black",
"093 c black",
"094 c black",
"095 c black",
"096 c black",
"097 c black",
"098 c black",
"099 c black",
"100 c black",
"101 c black",
"102 c black",
"103 c black",
"104 c black",
"105 c black",
"106 c black",
"107 c black",
"108 c black",
"109 c black",
"110 c black",
"111 c black",
"112 c black",
"113 c black",
"114 c black",
"115 c black",
"116 c black",
"117 c black",
"118 c black",
"119 c black",
"120 c black",
"121 c black",
"122 c black",
"123 c black",
"124 c black",
"125 c black",
"126 c black",
"127 c black",
"128 c black",
"129 c black",
"130 c black",
"131 c black",
"132 c black",
"133 c black",
"134 c black",
"135 c black",
"136 c black",
"137 c black",
"138 c black",
"139 c black",
"140 c black",
"141 c black",
"142 c black",
"143 c black",
"144 c black",
"145 c black",
"146 c black",
"147 c black",
"148 c black",
"149 c black",
"150 c black",
"151 c black",
"152 c black",
"153 c black",
"154 c black",
"155 c black",
"156 c black",
"157 c black",
"158 c black",
"159 c black",
"160 c black",
"161 c black",
"162 c black",
"163 c black",
"164 c black",
"165 c black",
"166 c black",
"167 c black",
"168 c black",
"169 c black",
"170 c black",
"171 c black",
"172 c black",
"173 c black",
"174 c black",
"175 c black",
"176 c black",
"177 c black",
"178 c black",
"179 c black",
"180 c black",
"181 c black",
"182 c black",
"183 c black",
"184 c black",
"185 c black",
"186 c black",
"187 c black",
"188 c black",
"189 c black",
"190 c black",
"191 c black",
"192 c black",
"193 c black",
"194 c black",
"195 c black",
"196 c black",
"197 c black",
"198 c black",
"199 c black",
"200 c black",
"201 c black",
"202 c black",
"203 c black",
"204 c black",
"205 c black",
"206 c black",
"207 c black",
"208 c black",
"209 c black",
"210 c black",
"211 c black",
"212 c black",
"213 c black",
"214 c black",
"215 c black",
"216 c black",
"217 c black",
"218 c black",
"219 c black",
"220 c black",
"221 c black",
"222 c black",
"223 c black",
"224 c black",
"225 c black",
"226 c black",
"227 c black",
"228 c black",
"229 c black",
"230 c black",
"231 c black",
"232 c black",
"233 c black",
"234 c black",
"235 c black",
"236 c black",
"237 c black",
"238 c black",
"239 c black",
"240 c black",
"241 c black",
"242 c black",
"243 c black",
"244 c black",
"245 c black",
"246 c black",
"247 c black",
"248 c black",
"249 c black",
"250 c black",
"251 c black",
"252 c black",
"253 c black",
"254 c black",
"255 c black",
"000000000000000000000000000000000000000000000000",
"000000000000000000000000000000000000000000000000",
"000000000000000000000000000000000000000000000000",
"000000000000000000000000000000000000000000000000",
"000000000000000000000000000000000000007013010000",
"000000051046067072068056056063000004005002023000",
"000000054027044055052065058056017000001006013000",
"000000046039053060064069070016031017018032000000",
"000000057038052064076066011026025042048018000000",
"000000057029074050075008019015041049028000000000",
"000000040071073077008045015045059021000000000000",
"000000000000000000012015019036024000000000000000",
"000000000000000000014043047037000000000000000000",
"000000000000000000033030009000000000000000000000",
"000000000000000000000000000000000000000000000000",
"000000000000000000000000000000000000000000000000"
};
