/* XPM */
static char * monitor_xpm[] = {
"16 16 95 2",
"  	c None",
". 	c #8E8E8E",
"+ 	c #969696",
"@ 	c #8C8C8C",
"# 	c #7B7B7B",
"$ 	c #6F6F6F",
"% 	c #989898",
"& 	c #C1C1C0",
"* 	c #B5B5B5",
"= 	c #ABABAE",
"- 	c #AEAEB0",
"; 	c #B0B0B0",
"> 	c #A4A4A3",
", 	c #777777",
"' 	c #A4A4A4",
") 	c #B7B7B7",
"! 	c #ADAFBD",
"~ 	c #E4E5F3",
"{ 	c #FDFDFF",
"] 	c #EFEFFB",
"^ 	c #CFCFD8",
"/ 	c #AFB1B1",
"( 	c #777878",
"_ 	c #979797",
": 	c #B3B3B2",
"< 	c #C5C7D8",
"[ 	c #FE8769",
"} 	c #ECEFFE",
"| 	c #EDEEFF",
"1 	c #EFEFFF",
"2 	c #F9FAFF",
"3 	c #FFFCFA",
"4 	c #F0CEC8",
"5 	c #AAAFB1",
"6 	c #646464",
"7 	c #C3C3C2",
"8 	c #A8A8B3",
"9 	c #FFFFFF",
"0 	c #EDE9FC",
"a 	c #F3502A",
"b 	c #E1ECFF",
"c 	c #F2F3FF",
"d 	c #F4F5FF",
"e 	c #F9ECED",
"f 	c #FF5E2C",
"g 	c #E5D9D6",
"h 	c #898B8B",
"i 	c #858585",
"j 	c #A3A3A4",
"k 	c #F6F6FF",
"l 	c #F3F3FF",
"m 	c #EDF4FF",
"n 	c #FF613B",
"o 	c #EE4C2A",
"p 	c #E9EFFB",
"q 	c #FEFFFF",
"r 	c #FEC9B9",
"s 	c #FF8B68",
"t 	c #A7B0B2",
"u 	c #4C4C4C",
"v 	c #9D9DA1",
"w 	c #F4F4FF",
"x 	c #F7F9FF",
"y 	c #EEDEE4",
"z 	c #483D39",
"A 	c #2C2E2F",
"B 	c #C0C0C5",
"C 	c #FF5527",
"D 	c #CBD5D8",
"E 	c #4F4F4F",
"F 	c #999998",
"G 	c #BBBBBC",
"H 	c #DADADD",
"I 	c #D6D6D7",
"J 	c #D5D5D6",
"K 	c #CBCCCD",
"L 	c #ACACAD",
"M 	c #B8B8B9",
"N 	c #CFCFCF",
"O 	c #CBCDCD",
"P 	c #CCD5D8",
"Q 	c #BBBCBD",
"R 	c #535353",
"S 	c #6B6B6B",
"T 	c #666666",
"U 	c #626262",
"V 	c #5E5E5E",
"W 	c #5D5D5D",
"X 	c #595959",
"Y 	c #585858",
"Z 	c #555555",
"` 	c #505050",
" .	c #474747",
"..	c #434343",
"+.	c #3A3A3A",
"                                ",
"                                ",
"                                ",
"            . + @ # $           ",
"        % & * = - ; > ,         ",
"      ' ) ! ~ { { ] ^ / (       ",
"    _ : < [ } | 1 2 3 4 5 6     ",
"    7 8 9 0 a b c d e f g h     ",
"  i j k l m n o p 9 q r s t u   ",
"  _ v 9 w x y z A B 9 9 C D E   ",
"  F G H I J K / L M N O P Q R   ",
"  S T U V W X Y Z ` u  .....+.  ",
"                                ",
"                                ",
"                                ",
"                                "};
