/* XPM */
char *multi_xpm[] = {
"10 5 256 3",
"000 c black",
"001 c #800000",
"002 c #008000",
"003 c #808000",
"004 c #000080",
"005 c #800080",
"006 c #008080",
"007 c #C0C0C0",
"008 c #C0DCC0",
"009 c #A6CAF0",
"010 c #402000",
"011 c #602000",
"012 c #802000",
"013 c #A02000",
"014 c #C02000",
"015 c #E02000",
"016 c #004000",
"017 c #204000",
"018 c #404000",
"019 c #604000",
"020 c #804000",
"021 c #A04000",
"022 c #C04000",
"023 c #E04000",
"024 c #006000",
"025 c #206000",
"026 c #406000",
"027 c #606000",
"028 c #806000",
"029 c #A06000",
"030 c #C06000",
"031 c #E06000",
"032 c #008000",
"033 c #208000",
"034 c #408000",
"035 c #608000",
"036 c #808000",
"037 c #A08000",
"038 c #C08000",
"039 c #E08000",
"040 c #00A000",
"041 c #20A000",
"042 c #40A000",
"043 c #60A000",
"044 c #80A000",
"045 c #A0A000",
"046 c #C0A000",
"047 c #E0A000",
"048 c #00C000",
"049 c #20C000",
"050 c #40C000",
"051 c #60C000",
"052 c #80C000",
"053 c #A0C000",
"054 c #C0C000",
"055 c #E0C000",
"056 c #00E000",
"057 c #20E000",
"058 c #40E000",
"059 c #60E000",
"060 c #80E000",
"061 c #A0E000",
"062 c #C0E000",
"063 c #E0E000",
"064 c #000040",
"065 c #200040",
"066 c #400040",
"067 c #600040",
"068 c #800040",
"069 c #A00040",
"070 c #C00040",
"071 c #E00040",
"072 c #002040",
"073 c #202040",
"074 c #402040",
"075 c #602040",
"076 c #802040",
"077 c #A02040",
"078 c #C02040",
"079 c #E02040",
"080 c #004040",
"081 c #204040",
"082 c gray25",
"083 c #604040",
"084 c #804040",
"085 c #A04040",
"086 c #C04040",
"087 c #E04040",
"088 c #006040",
"089 c #206040",
"090 c #406040",
"091 c #606040",
"092 c #806040",
"093 c #A06040",
"094 c #C06040",
"095 c #E06040",
"096 c #008040",
"097 c #208040",
"098 c #408040",
"099 c #608040",
"100 c #808040",
"101 c #A08040",
"102 c #C08040",
"103 c #E08040",
"104 c #00A040",
"105 c #20A040",
"106 c #40A040",
"107 c #60A040",
"108 c #80A040",
"109 c #A0A040",
"110 c #C0A040",
"111 c #E0A040",
"112 c #00C040",
"113 c #20C040",
"114 c #40C040",
"115 c #60C040",
"116 c #80C040",
"117 c #A0C040",
"118 c #C0C040",
"119 c #E0C040",
"120 c #00E040",
"121 c #20E040",
"122 c #40E040",
"123 c #60E040",
"124 c #80E040",
"125 c #A0E040",
"126 c #C0E040",
"127 c #E0E040",
"128 c #000080",
"129 c #200080",
"130 c #400080",
"131 c #600080",
"132 c #800080",
"133 c #A00080",
"134 c #C00080",
"135 c #E00080",
"136 c #002080",
"137 c #202080",
"138 c #402080",
"139 c #602080",
"140 c #802080",
"141 c #A02080",
"142 c #C02080",
"143 c #E02080",
"144 c #004080",
"145 c #204080",
"146 c #404080",
"147 c #604080",
"148 c #804080",
"149 c #A04080",
"150 c #C04080",
"151 c #E04080",
"152 c #006080",
"153 c #206080",
"154 c #406080",
"155 c #606080",
"156 c #806080",
"157 c #A06080",
"158 c #C06080",
"159 c #E06080",
"160 c #008080",
"161 c #208080",
"162 c #408080",
"163 c #608080",
"164 c #808080",
"165 c #A08080",
"166 c #C08080",
"167 c #E08080",
"168 c #00A080",
"169 c #20A080",
"170 c #40A080",
"171 c #60A080",
"172 c #80A080",
"173 c #A0A080",
"174 c #C0A080",
"175 c #E0A080",
"176 c #00C080",
"177 c #20C080",
"178 c #40C080",
"179 c #60C080",
"180 c #80C080",
"181 c #A0C080",
"182 c #C0C080",
"183 c #E0C080",
"184 c #00E080",
"185 c #20E080",
"186 c #40E080",
"187 c #60E080",
"188 c #80E080",
"189 c #A0E080",
"190 c #C0E080",
"191 c #E0E080",
"192 c #0000C0",
"193 c #2000C0",
"194 c #4000C0",
"195 c #6000C0",
"196 c #8000C0",
"197 c #A000C0",
"198 c #C000C0",
"199 c #E000C0",
"200 c #0020C0",
"201 c #2020C0",
"202 c #4020C0",
"203 c #6020C0",
"204 c #8020C0",
"205 c #A020C0",
"206 c #C020C0",
"207 c #E020C0",
"208 c #0040C0",
"209 c #2040C0",
"210 c #4040C0",
"211 c #6040C0",
"212 c #8040C0",
"213 c #A040C0",
"214 c #C040C0",
"215 c #E040C0",
"216 c #0060C0",
"217 c #2060C0",
"218 c #4060C0",
"219 c #6060C0",
"220 c #8060C0",
"221 c #A060C0",
"222 c #C060C0",
"223 c #E060C0",
"224 c #0080C0",
"225 c #2080C0",
"226 c #4080C0",
"227 c #6080C0",
"228 c #8080C0",
"229 c #A080C0",
"230 c #C080C0",
"231 c #E080C0",
"232 c #00A0C0",
"233 c #20A0C0",
"234 c #40A0C0",
"235 c #60A0C0",
"236 c #80A0C0",
"237 c #A0A0C0",
"238 c #C0A0C0",
"239 c #E0A0C0",
"240 c #00C0C0",
"241 c #20C0C0",
"242 c #40C0C0",
"243 c #60C0C0",
"244 c #80C0C0",
"245 c #A0C0C0",
"246 c #FFFBF0",
"247 c #A0A0A4",
"248 c #808080",
"249 c blue",
"250 c green",
"251 c cyan",
"252 c red",
"253 c magenta",
"254 c yellow",
"255 c gray100",
"255255255255255255255255255255",
"255000000000255255000000000255",
"000255255255000000255255255000",
"000255255255000000255255255000",
"255000000000255255000000000255"
};
