/* XPM */
static char *network_xpm[] = {
/* columns rows colors chars-per-pixel */
"16 16 151 2",
",  c #69AAEA",
"s. c #C7C0BA",
"'  c #7292BE",
"k  c #9BB3CC",
"&  c #F4EFE9",
"2. c #CAC7C1",
"6. c #2977CA",
"J  c #62A1DE",
"i  c #D1DCE9",
"y. c #D6CEB9",
"!  c #78A9D9",
"/  c #B4C5D5",
"i. c #2C6FC0",
"=. c #1F79CF",
"U  c #A4B9CE",
"m. c #234295",
"-. c #0C6FCF",
"R  c #D3CDC1",
"k. c #39539B",
"a  c #7BB6EC",
"v  c #8EBAE6",
"%. c #003BA4",
"]  c #1953AD",
"1  c #BDD1E7",
"W  c #418ED8",
"0  c #FFFBEF",
"n. c #576FA1",
"7  c #FFF8EF",
"9  c #A3CAEF",
"-  c #0E69CB",
"^  c #E5DFD7",
"<. c #89A5C3",
"}  c #1173D5",
";. c #639ACE",
"g. c #4D74AE",
"<  c #96BFE7",
"w  c #86B3DF",
"x  c #4A97E7",
"P  c #408AD3",
"z. c #9299AE",
"G  c #9FBFDF",
"0. c #206CC1",
"$. c #98A7BC",
"8  c #DBE7F1",
"{  c #1A4398",
"   c None",
"Y  c #EADDCB",
"%  c #F1EFED",
"z  c #205AAF",
" . c #629CD3",
"s  c #F4F0EB",
"+  c #0063CC",
"f. c #627EAE",
";  c #B8DDFF",
"a. c #B4B1B7",
":. c #8BA8C9",
"c. c #6278A8",
"r  c #2C7FD1",
"o. c #B4C0CD",
"f  c #D4DEE7",
"v. c #D3C8B7",
"3. c #7B90B3",
"c  c #75AFE7",
":  c #CEE2F8",
">  c #5FA7EF",
"q. c #0051BB",
"M  c #F0E8DF",
"o  c #5B9CDB",
"`  c #0F62C0",
"E  c #19459D",
"S  c #00339D",
"y  c #3573BF",
"2  c #4B93D9",
"M. c #0036A4",
"w. c #6487B8",
"N. c #002D9D",
"C. c #00218F",
"L  c #7AAAD8",
"F  c #FFEDDB",
"p  c #FFF6E9",
"5. c #9CA1AE",
"O. c #D2D0CD",
"t  c #83A7CD",
"r. c #DBD0BE",
"&. c #2E55A2",
"+. c #377FCA",
"K  c #378BDC",
"4. c #768AAE",
"*  c #4D93D9",
"@  c #80BEFB",
")  c #0A6ECE",
"D  c #5097DE",
"#. c #ABB5C2",
"@. c #D4CDC5",
"8. c #6294C6",
"X. c #C1C9D0",
"B. c #33569E",
"q  c #A8C9E9",
"3  c #D4D9DB",
"V. c #073496",
"u  c #3368B8",
"7. c #8EAAC5",
"x. c #4F72AB",
"9. c #427FC2",
"5  c #0055BF",
"N  c #A1BDDA",
"g  c #EDE8E2",
"l. c #0049B3",
"4  c #A4B8CF",
">. c #D0CBC6",
"X  c #2F87DE",
"u. c #133893",
"b. c #4565A3",
"$  c #7BB2EA",
"m  c #CDD9E4",
"|  c #F9E3CF",
"B  c #87B0D5",
"e. c #8798B6",
"I  c #D3D2D2",
"C  c #E9DDCF",
"#  c #F0F5F9",
"*. c #00258E",
"h. c #002E9C",
"n  c #F9EFE4",
"A  c #E2D7C5",
",. c #7DA0C6",
"=  c #B3C6D9",
"h  c #5798D6",
"j  c #B6C7D8",
"l  c #0857B8",
"V  c #A6BBD1",
"t. c #1547A3",
"[  c #EEDEC3",
"6  c #8AC3FB",
"Q  c #F5E4D5",
"T  c #346AB4",
"b  c #6DACE8",
".. c #D2D1D2",
"d. c #2461B2",
"(  c #C2CBD2",
"H  c #73ABE1",
".  c #4D9AE4",
"~  c #C5CFD8",
"Z  c #3A6FB9",
"d  c #E5E7EA",
"_  c #2D79C9",
"O  c #1A78D4",
"p. c #5685BD",
"j. c #274D9C",
"e  c #0A6FD5",
"1. c #95A5BD",
/* pixels */
"                                ",
"            . X o O +           ",
"        @ # $ % & * = -         ",
"      ; : > , < 1 2 3 4 5       ",
"    6 7 8 9 0 q w e r t y u     ",
"    i p a s d f g h j k l z     ",
"  x c v b n m M N B V C Z A S   ",
"  D F G H J K L P I U Y T R E   ",
"  W Q ! ~ ^ / ( ) _ ` ' ] [ {   ",
"  } |  ...X.o.O.+.@.#.$.%.&.*.  ",
"    =.-.;.:.>.,.<.1.2.3.4.5.    ",
"    6.7.8.9.0.q.w.e.r.t.y.u.    ",
"      i.p.a.s.d.f.g.h.j.k.      ",
"        l.z.x.c.v.b.n.m.        ",
"          M.N.B.V.C.            ",
"                                "
};
