/* XPM */
static char * new_appl_xpm[] = {
"16 14 150 2",
"  	c None",
". 	c #8C8CC3",
"+ 	c #7F7FB3",
"@ 	c #9090BF",
"# 	c #9494C1",
"$ 	c #9191BE",
"% 	c #8B8BBA",
"& 	c #8383B1",
"* 	c #7979A8",
"= 	c #606094",
"- 	c #4F4F82",
"; 	c #A5A5CE",
"> 	c #FDFDFF",
", 	c #F1F1FF",
"' 	c #E8E8FF",
") 	c #E0E0FB",
"! 	c #DADAF9",
"~ 	c #D5D5F7",
"{ 	c #C4C4E9",
"] 	c #ACACD7",
"^ 	c #48487C",
"/ 	c #A6A6D3",
"( 	c #CACAF0",
"_ 	c #B7B7E3",
": 	c #B4B4E1",
"< 	c #A3A3D2",
"[ 	c #8F8FBE",
"} 	c #7E7EAE",
"| 	c #4F4F83",
"1 	c #37376A",
"2 	c #DEDEFF",
"3 	c #8886B1",
"4 	c #7E7EB1",
"5 	c #C6C6CC",
"6 	c #C0C0ED",
"7 	c #A6A6DB",
"8 	c #A5A5D8",
"9 	c #9696CA",
"0 	c #8686BA",
"a 	c #7575A8",
"b 	c #555587",
"c 	c #3A3A6C",
"d 	c #9697C2",
"e 	c #D5D3F5",
"f 	c #C6C6EE",
"g 	c #75719E",
"h 	c #DADAF0",
"i 	c #D2D2EA",
"j 	c #CBCBE8",
"k 	c #B5B5DB",
"l 	c #A2A2CF",
"m 	c #8B8BBD",
"n 	c #7777AA",
"o 	c #3F3F74",
"p 	c #7B7BB1",
"q 	c #D7D7F9",
"r 	c #BEBEE7",
"s 	c #B9B9E2",
"t 	c #B5B1DB",
"u 	c #28559E",
"v 	c #A8A8DC",
"w 	c #A5A5D9",
"x 	c #9797CA",
"y 	c #8787BA",
"z 	c #545487",
"A 	c #313164",
"B 	c #9E9EC8",
"C 	c #C2C2EB",
"D 	c #B6B6E1",
"E 	c #B1B1DC",
"F 	c #B3B2DB",
"G 	c #847BA7",
"H 	c #444478",
"I 	c #7B7BB0",
"J 	c #D0D0F5",
"K 	c #B8B8E2",
"L 	c #B1B1DD",
"M 	c #ABABD6",
"N 	c #A6A6D4",
"O 	c #A5A1CE",
"P 	c #3D5894",
"Q 	c #009300",
"R 	c #009100",
"S 	c #008D00",
"T 	c #313163",
"U 	c #BBBBE7",
"V 	c #B0B0DC",
"W 	c #AAAAD7",
"X 	c #A4A4D2",
"Y 	c #9C9CCC",
"Z 	c #9A99CA",
"` 	c #6A6391",
" .	c #008F00",
"..	c #91F75E",
"+.	c #008900",
"@.	c #7575A2",
"#.	c #C0C0E7",
"$.	c #B0B0DB",
"%.	c #A9A9D6",
"&.	c #A3A3D1",
"*.	c #9A9ACB",
"=.	c #9494C5",
"-.	c #8E8EC0",
";.	c #008B00",
">.	c #8DF35A",
",.	c #008300",
"'.	c #008100",
").	c #007D00",
"!.	c #676798",
"~.	c #A8A8D3",
"{.	c #A2A2D0",
"].	c #9B9BCB",
"^.	c #9393C4",
"/.	c #8A8ABC",
"(.	c #8383B7",
"_.	c #86EC53",
":.	c #7BE148",
"<.	c #78DE45",
"[.	c #007800",
"}.	c #9C9CC8",
"|.	c #8F8FBD",
"1.	c #8D8DC1",
"2.	c #7F7FB2",
"3.	c #008700",
"4.	c #008500",
"5.	c #007A00",
"6.	c #007500",
"7.	c #007000",
"8.	c #7777A4",
"9.	c #ACACD6",
"0.	c #9898C1",
"a.	c #636393",
"b.	c #3D3D79",
"c.	c #44447E",
"d.	c #6B6BA0",
"e.	c #8181B4",
"f.	c #7D7DB0",
"g.	c #505086",
"h.	c #F5F5F5",
"i.	c #77DD44",
"j.	c #007200",
"k.	c #4E4E81",
"l.	c #6B6B9A",
"m.	c #434375",
"n.	c #3C3C6C",
"o.	c #35356C",
"p.	c #48487B",
"q.	c #4F4F81",
"r.	c #41417B",
"s.	c #006D00",
"            . + @ # $ % & * = - ",
"            ; > , ' ) ! ~ { ] ^ ",
"            / , ( _ : < [ } | 1 ",
"      2 3 4 5 , 6 7 8 9 0 a b c ",
"    2 d e f g , h i j k l m n o ",
"    p q r s t u 2 v w x y a z A ",
"  B s C D E F G 2 w i i i i a H ",
"  I J K L M N O P 2 i Q R S i T ",
"s B U V W X Y Z ` 2 2  ...+.i k ",
"@.#.$.%.&.*.=.-.k R S ;.>.,.'.).",
"!.s ~.{.].^./.(.k S ..>._.:.<.[.",
"@.] {.}.|.1.y 2.k 3.4.'.:.5.6.7.",
"8.9.0.a.b.c.d.e.f.g.h.).i.j.    ",
"k.l.m.n.    o.p.q.r.  6.7.s.    "};
