/* XPM */
char *odbcs_xpm[] = {
"16 16 67 3",
"000 c #686898",
"001 c #D0D0E0",
"002 c None",
"003 c #E8E8F0",
"004 c #2870C0",
"005 c #C8C8D8",
"006 c #A0A8B8",
"007 c #E0E0E8",
"008 c #8888B0",
"009 c #B8B8C0",
"010 c #B0B0C8",
"011 c #F0F0F8",
"012 c #A0C0E8",
"013 c gray72",
"014 c #7070A0",
"015 c #B8B0D8",
"016 c #8098B8",
"017 c #9898B8",
"018 c #B0B0B8",
"019 c #98A8C0",
"020 c black",
"021 c #58A0E0",
"022 c #6078B0",
"023 c #B0C0D8",
"024 c #6888B8",
"025 c #6080B8",
"026 c #5890D0",
"027 c #9090B8",
"028 c #A8B8C0",
"029 c #585080",
"030 c #3078B8",
"031 c #7080B0",
"032 c #A0B0C0",
"033 c #5070A8",
"034 c #5080B8",
"035 c #A8A0B0",
"036 c #90B0D8",
"037 c #606090",
"038 c #3878B8",
"039 c #7090B8",
"040 c #A8A8C0",
"041 c #5868A0",
"042 c #6088C8",
"043 c #9088A8",
"044 c #A8B0C0",
"045 c #2070C0",
"046 c #A0A0B8",
"047 c #6068A0",
"048 c #4880C0",
"049 c #88A8E0",
"050 c #3068B0",
"051 c #585888",
"052 c #2878C0",
"053 c #4878B0",
"054 c #9890A8",
"055 c #5888B8",
"056 c #90A0C8",
"057 c #4068B0",
"058 c #5898E0",
"059 c #3080C0",
"060 c #505080",
"061 c #2078C0",
"062 c #4060A0",
"063 c #484878",
"064 c #88A0B8",
"065 c #5068A0",
"066 c black",
"002002002002002002002002002002002002002002002002",
"002044028032006046017046010007002002002002002002",
"002009011003001005009040017014002002002002002002",
"002032020007009018035054043014002002002002002002",
"002019021023064039044028032006046017046010007002",
"002016012036034025009011003001005009040017014002",
"002016049026004004032020007009018035054043014002",
"002027058056031022019021023064039055048059033002",
"002008015042050057016012036034025024031025047002",
"002003008027000000016049026004004045052030065002",
"002002003014014008027058056031022053038061062002",
"002002002002002002008015042050057033041037029002",
"002002002002002002003008027000000037051060063002",
"002002002002002002002003014014008017010001003002",
"002002002002002002002002002002002002002002002002",
"002002002002002002002002002002002002002002002002"
};
