/* XPM */
char *odbc_nonactive_xpm[] = {
"16 16 124 3",
"000 c #585888",
"001 c #C0C0C8",
"002 c #9080A0",
"003 c None",
"004 c #0060D0",
"005 c #C0C0D0",
"006 c #8090B0",
"007 c #585080",
"008 c #C8C0D0",
"009 c #8888A8",
"010 c #1070D0",
"011 c #E0E0F8",
"012 c #B8A8B0",
"013 c #5070A8",
"014 c #C8C8C8",
"015 c #9090B8",
"016 c #0078D0",
"017 c #D0D0F0",
"018 c #7898D0",
"019 c #706898",
"020 c #C8C8F0",
"021 c #9090A8",
"022 c #3888D8",
"023 c #E0D8E8",
"024 c #B8B0D8",
"025 c #606090",
"026 c gray72",
"027 c #707090",
"028 c #0060C8",
"029 c #E0E8F0",
"030 c #A8A8B8",
"031 c #686890",
"032 c #C8C8E8",
"033 c #9088A8",
"034 c #0868D0",
"035 c #D8D8F8",
"036 c #A0A0B8",
"037 c #585070",
"038 c #C0B8B8",
"039 c #8080A8",
"040 c #0070D0",
"041 c #D8D0E8",
"042 c #98A8D8",
"043 c #6880B0",
"044 c #C8C8D8",
"045 c #A890A0",
"046 c #5078B0",
"047 c gray88",
"048 c #B0B0B8",
"049 c #386090",
"050 c #8880A8",
"051 c #2070C0",
"052 c #9898B0",
"053 c #504870",
"054 c #C0C0E0",
"055 c #8890B0",
"056 c #6098D8",
"057 c #A8A8D0",
"058 c #406098",
"059 c #B8B8C8",
"060 c #8088B0",
"061 c #0878D0",
"062 c #98A0B8",
"063 c #6070A0",
"064 c #B898A8",
"065 c #3078C8",
"066 c #B0B0C0",
"067 c #808090",
"068 c #0078D8",
"069 c #D0C8D8",
"070 c #605880",
"071 c #B8B8E8",
"072 c #907090",
"073 c #1068C0",
"074 c #E8E8F0",
"075 c #A0A0B0",
"076 c #4868A0",
"077 c #C0B0B8",
"078 c #9090C8",
"079 c #0068D0",
"080 c #C8D8E8",
"081 c #A098C0",
"082 c #707098",
"083 c #8890B8",
"084 c #50A0E8",
"085 c #8880B0",
"086 c #686090",
"087 c #4068B0",
"088 c #8080B0",
"089 c #A0A0D0",
"090 c #4090E8",
"091 c #C0C8E8",
"092 c #706890",
"093 c #0070D8",
"094 c #988098",
"095 c #3070C0",
"096 c #A8A0B8",
"097 c #505078",
"098 c #9898A8",
"099 c #7078A8",
"100 c #9890B0",
"101 c #586890",
"102 c #787098",
"103 c #505088",
"104 c #A898A8",
"105 c #1078C8",
"106 c #B0A0B0",
"107 c #2068B8",
"108 c #606098",
"109 c #5098E8",
"110 c #A8A0D0",
"111 c #786890",
"112 c #0068C8",
"113 c #686080",
"114 c #9880A0",
"115 c #0870C8",
"116 c #F8F0F8",
"117 c #3870B8",
"118 c #686898",
"119 c #0870D0",
"120 c #A8B0E0",
"121 c #9890A8",
"122 c #6090D0",
"123 c black",
"003003003003003003003003003003003003003003003003",
"003003001014048030096036052021100030069003003003",
"003003048035011011011017017020071089039015003003",
"003003048003074020001059048036052021009031003003",
"003003062003116020026048030036052021009031003003",
"003003055090080041038077012106100060043101003003",
"003003062029010022073004004004040016105076003003",
"003003055109023042006052104064045002099025003003",
"003003055091034056095051079079040016061058003003",
"003003060084054122046043039094094072102070003003",
"003003033120115018046117051115040016016049003003",
"003003050024057065107087013063019111086037003003",
"003003044050110081027027019031025000103053003003",
"003003003008039078025025025000007097113067003003",
"003003003003001019027021030001047003003003003003",
"003003003003003003003003003003003003003003003003"
};
