/* XPM */
char *odbc_active_xpm[] = {
"16 16 141 3",
"000 c #4068B0",
"001 c None",
"002 c #8888A8",
"003 c gray88",
"004 c #606090",
"005 c #F0C0A0",
"006 c #9090B8",
"007 c #E0C8D8",
"008 c #0078D0",
"009 c #F0B090",
"010 c #988098",
"011 c #707098",
"012 c #D0C0B0",
"013 c #C0C0C8",
"014 c #3880D0",
"015 c #E8A088",
"016 c #9090A8",
"017 c #686898",
"018 c #D09898",
"019 c #A8B0E0",
"020 c #3880C8",
"021 c #D8B090",
"022 c #D0A0A0",
"023 c #7078A8",
"024 c #E8B0B0",
"025 c #C0C0E0",
"026 c #505088",
"027 c #F8E068",
"028 c #9880A0",
"029 c #686080",
"030 c #90A8D0",
"031 c #0078D8",
"032 c #C05050",
"033 c #606098",
"034 c #C0B0B8",
"035 c #406098",
"036 c #9088A8",
"037 c #706898",
"038 c #A0A0D0",
"039 c #0070D0",
"040 c #B8A8B0",
"041 c #7880B0",
"042 c #F0A0A0",
"043 c #C8C8F0",
"044 c #5070A8",
"045 c #F8A060",
"046 c #8080A8",
"047 c #9098B8",
"048 c #1078C8",
"049 c #9080A0",
"050 c #6890C0",
"051 c #B0B0B8",
"052 c #5878B0",
"053 c #9898A8",
"054 c #707090",
"055 c #9890B0",
"056 c #2070C0",
"057 c #B8A8B8",
"058 c #8088B0",
"059 c #C8C0D0",
"060 c #585080",
"061 c #E08070",
"062 c #706890",
"063 c #605880",
"064 c #9090C8",
"065 c #0878D0",
"066 c #C098A0",
"067 c #686890",
"068 c #D0C8C8",
"069 c #3870B8",
"070 c #9898B0",
"071 c #808090",
"072 c #A8A8D0",
"073 c #0870D0",
"074 c #D0B8B0",
"075 c #6880B0",
"076 c #D0C8D8",
"077 c #504870",
"078 c #F89858",
"079 c #8080B0",
"080 c #D89890",
"081 c #0870C8",
"082 c #A0A0B8",
"083 c #50A0E8",
"084 c #6070A0",
"085 c #C8C8D8",
"086 c #505078",
"087 c #8880A8",
"088 c #585070",
"089 c #90A0D0",
"090 c #0068D0",
"091 c #A098B0",
"092 c #5078B0",
"093 c #B8B8E8",
"094 c #6890D0",
"095 c #C0C0D0",
"096 c #4868A0",
"097 c #F88060",
"098 c #8890B8",
"099 c #1870D8",
"100 c #C898A0",
"101 c #586890",
"102 c #A8A8B8",
"103 c #2068B8",
"104 c #686090",
"105 c #A098C0",
"106 c #3078C8",
"107 c #C8D0E8",
"108 c #386090",
"109 c #D87878",
"110 c #907090",
"111 c #585888",
"112 c #8880B0",
"113 c #A890A0",
"114 c #C0B8C0",
"115 c #0868C8",
"116 c #786890",
"117 c #A8A0D0",
"118 c #0070D8",
"119 c #B898A8",
"120 c #787098",
"121 c #B8B0D8",
"122 c #E88848",
"123 c #F87858",
"124 c #F86848",
"125 c #F0A858",
"126 c #7898D0",
"127 c #F89848",
"128 c #F87830",
"129 c #F8E858",
"130 c #F8D858",
"131 c #F8F060",
"132 c #E89048",
"133 c #F8A858",
"134 c #F8C800",
"135 c #F8E850",
"136 c #D85840",
"137 c #F07038",
"138 c #F8E838",
"139 c #F8E018",
"140 c black",
"001001001001001001001001001001001001001001001001",
"001001013068012022022040082016055102076001001001",
"001001114024097078124005007043093038046006001001",
"001001074123127131027137080051053016002017001001",
"001001018045129134138128061040053016002017001001",
"001001066136130139129133015034091058075101001001",
"001001040009122125132032041099039008048096001001",
"001001047030042109021100040119113049023004001001",
"001001098107014089050014115090039008065035001001",
"001001058083025094052075046010010110120063001001",
"001001036019073126092069056073039008008108001001",
"001001087121072106103000044084037116104088001001",
"001001085087117105011011037017004111026077001001",
"001001001059046064004004004111060086029071001001",
"001001001001013037011016102013003001001001001001",
"001001001001001001001001001001001001001001001001"
};
