/* XPM */
static char *optcond_xpm[] = {
"16 16 16 2",
"00 c black",
"01 c #800000",
"02 c #008000",
"03 c #808000",
"04 c #000080",
"05 c #800080",
"06 c none",
"07 c #C0C0C0",
"08 c #808080",
"09 c blue",
"10 c green",
"11 c cyan",
"12 c red",
"13 c magenta",
"14 c yellow",
"15 c gray100",
"06060606060606060606060606060606",
"06060606060606060606060606060606",
"06060000000000000000000000060606",
"06060015151515151515151500060606",
"06060015000000080715151500060606",
"06060015151515151515151500060606",
"06060015150700000000151500060606",
"06060015151515151515151500060606",
"06060015150700000000151500060606",
"06060015151515151515151500060606",
"06060015150700000000151500060606",
"06060015151515151515151500060606",
"06060000000000000000000000060606",
"06060606060606060606060606060606",
"06060606060606060606060606060606",
"06060606060606060606060606060606"
};
