/* XPM */
char *page_preferences_xpm[] = {
"16 16 256 3",
"000 c #0040A8",
"001 c None",
"002 c #F8F8F8",
"003 c #E8F0F8",
"004 c #8898B8",
"005 c #C0C0C0",
"006 c #D8E0F0",
"007 c #7080A0",
"008 c #C8D0E0",
"009 c #F0F8F8",
"010 c #C0C0D8",
"011 c #E0E8F0",
"012 c #0068C8",
"013 c #B8C0D8",
"014 c #687898",
"015 c #D0D8E8",
"016 c #7088A8",
"017 c #C8D8F0",
"018 c #F0F0F8",
"019 c #8090B0",
"020 c #E0E0F0",
"021 c #2060B0",
"022 c #808080",
"023 c #708098",
"024 c #C0C8D0",
"025 c #98C0E8",
"026 c #3870C0",
"027 c #B0C0D8",
"028 c #B8C0D0",
"029 c #7888B0",
"030 c #C8C8D8",
"031 c #80A8E0",
"032 c #0058C0",
"033 c #8088A8",
"034 c #305898",
"035 c #C0C0D0",
"036 c #6090D0",
"037 c #0070D8",
"038 c #909090",
"039 c #7880A8",
"040 c #3870B0",
"041 c #A8B8D8",
"042 c #C0C8D8",
"043 c #7888A8",
"044 c #3868B8",
"045 c #2860B0",
"046 c #889090",
"047 c #607098",
"048 c #4870B0",
"049 c #9898A0",
"050 c #0860C0",
"051 c #B0B8C8",
"052 c #6878A0",
"053 c #0068D0",
"054 c gray47",
"055 c #707078",
"056 c #4068A8",
"057 c #90A8D0",
"058 c #3060B0",
"059 c #0078D8",
"060 c #6090B8",
"061 c #5090D0",
"062 c black",
"063 c black",
"064 c black",
"065 c black",
"066 c black",
"067 c black",
"068 c black",
"069 c black",
"070 c black",
"071 c black",
"072 c black",
"073 c black",
"074 c black",
"075 c black",
"076 c black",
"077 c black",
"078 c black",
"079 c black",
"080 c black",
"081 c black",
"082 c black",
"083 c black",
"084 c black",
"085 c black",
"086 c black",
"087 c black",
"088 c black",
"089 c black",
"090 c black",
"091 c black",
"092 c black",
"093 c black",
"094 c black",
"095 c black",
"096 c black",
"097 c black",
"098 c black",
"099 c black",
"100 c black",
"101 c black",
"102 c black",
"103 c black",
"104 c black",
"105 c black",
"106 c black",
"107 c black",
"108 c black",
"109 c black",
"110 c black",
"111 c black",
"112 c black",
"113 c black",
"114 c black",
"115 c black",
"116 c black",
"117 c black",
"118 c black",
"119 c black",
"120 c black",
"121 c black",
"122 c black",
"123 c black",
"124 c black",
"125 c black",
"126 c black",
"127 c black",
"128 c black",
"129 c black",
"130 c black",
"131 c black",
"132 c black",
"133 c black",
"134 c black",
"135 c black",
"136 c black",
"137 c black",
"138 c black",
"139 c black",
"140 c black",
"141 c black",
"142 c black",
"143 c black",
"144 c black",
"145 c black",
"146 c black",
"147 c black",
"148 c black",
"149 c black",
"150 c black",
"151 c black",
"152 c black",
"153 c black",
"154 c black",
"155 c black",
"156 c black",
"157 c black",
"158 c black",
"159 c black",
"160 c black",
"161 c black",
"162 c black",
"163 c black",
"164 c black",
"165 c black",
"166 c black",
"167 c black",
"168 c black",
"169 c black",
"170 c black",
"171 c black",
"172 c black",
"173 c black",
"174 c black",
"175 c black",
"176 c black",
"177 c black",
"178 c black",
"179 c black",
"180 c black",
"181 c black",
"182 c black",
"183 c black",
"184 c black",
"185 c black",
"186 c black",
"187 c black",
"188 c black",
"189 c black",
"190 c black",
"191 c black",
"192 c black",
"193 c black",
"194 c black",
"195 c black",
"196 c black",
"197 c black",
"198 c black",
"199 c black",
"200 c black",
"201 c black",
"202 c black",
"203 c black",
"204 c black",
"205 c black",
"206 c black",
"207 c black",
"208 c black",
"209 c black",
"210 c black",
"211 c black",
"212 c black",
"213 c black",
"214 c black",
"215 c black",
"216 c black",
"217 c black",
"218 c black",
"219 c black",
"220 c black",
"221 c black",
"222 c black",
"223 c black",
"224 c black",
"225 c black",
"226 c black",
"227 c black",
"228 c black",
"229 c black",
"230 c black",
"231 c black",
"232 c black",
"233 c black",
"234 c black",
"235 c black",
"236 c black",
"237 c black",
"238 c black",
"239 c black",
"240 c black",
"241 c black",
"242 c black",
"243 c black",
"244 c black",
"245 c black",
"246 c black",
"247 c black",
"248 c black",
"249 c black",
"250 c black",
"251 c black",
"252 c black",
"253 c black",
"254 c black",
"255 c black",
"001001001001001001001001001001001001001001001001",
"001001004004019019029029016016007010001001001001",
"001001004002002002002002002002007029010001001001",
"001001004002002002002002002002007006029010001001",
"001001019002002002002002002002007007007007001001",
"001001019002002002002002002002009003011007001001",
"001001033002030030024010013027041041003014001001",
"001001033002002002002002002009009018003013061001",
"001001029002010013013013015041041041009036037001",
"001001029002010010013015025006006006031012059001",
"001001039002010010013020058040005060050012008001",
"001001007002013013013020048000044021032057001001",
"001001014002027027027006046045000000056024001001",
"001001047002003003003009022017000026022010001001",
"001001014014014014014051049054034055038051001001",
"001001001001001001001001001001001001001001001001"
};
