/* XPM */
char *params_xpm[] = {
"16 16 15 3",
"000 c None",
"001 c #808080",
"002 c #2068C0",
"003 c #78D840",
"004 c #88F058",
"005 c #008000",
"006 c #78E048",
"007 c #90F058",
"008 c #007000",
"009 c #80E850",
"010 c #008800",
"011 c #007800",
"012 c #009000",
"013 c #006800",
"014 c black",
"000000000000000000000000000000000000000000000000",
"000001001001001001001001001001001001001001001000",
"000001000000000000000000000000000000000000001000",
"000001000002002002002002000000000000000000001000",
"000001000000002002000002002000000000000000001000",
"000001000000002002000002002000000000000000001000",
"000001000000002002000002002000000000000000001000",
"000001000000002002002002000000012012010000001000",
"000001000000002002000000000000010007010000000000",
"000001000000002002000000012010010004005005011000",
"000001000002002002002000010007004009006003011000",
"000001000000000000000000005005005006011008008000",
"000001000000000000000000000000005009005000000000",
"000001000000000000000000000000008008013000000000",
"000001001001001001001001001001000000000000000000",
"000000000000000000000000000000000000000000000000"
};
