/* XPM */
static char * plug_edit_xpm[] = {
"16 16 170 2",
"  	c None",
". 	c #B7B7B7",
"+ 	c #DBDBDB",
"@ 	c #E3E3E3",
"# 	c #B2B2B2",
"$ 	c #C0C0C0",
"% 	c #BBBBBB",
"& 	c #A8A8A8",
"* 	c #AAAAAA",
"= 	c #A9A9A9",
"- 	c #D6D6D6",
"; 	c #CFCFCF",
"> 	c #F7F7F7",
", 	c #F5F5F5",
"' 	c #E4E4E4",
") 	c #C9C9C9",
"! 	c #B5B5B5",
"~ 	c #A1A1A1",
"{ 	c #8A8A8A",
"] 	c #BDBDBD",
"^ 	c #E5E5E5",
"/ 	c #EBEBEB",
"( 	c #EEEEEE",
"_ 	c #DDDDDD",
": 	c #CACACA",
"< 	c #B3B3B3",
"[ 	c #949494",
"} 	c #7B7B7B",
"| 	c #959595",
"1 	c #C7C7C7",
"2 	c #D5D5D5",
"3 	c #CECECE",
"4 	c #DFDFDF",
"5 	c #DADADA",
"6 	c #D1D1D1",
"7 	c #7D7D7D",
"8 	c #8B8B8B",
"9 	c #A5A5A5",
"0 	c #AEAEAE",
"a 	c #CBCBCB",
"b 	c #E0E1E4",
"c 	c #D7D7DD",
"d 	c #D1D1D3",
"e 	c #C6C6C8",
"f 	c #BDC0C9",
"g 	c #BABBC5",
"h 	c #A5A5A9",
"i 	c #6D6D6E",
"j 	c #7A7A7A",
"k 	c #797979",
"l 	c #9E9E9E",
"m 	c #E2E3E7",
"n 	c #DBD3BA",
"o 	c #E7D789",
"p 	c #CAC8C7",
"q 	c #C4C4C7",
"r 	c #BCBEC4",
"s 	c #EDCE4B",
"t 	c #F7E464",
"u 	c #BAB298",
"v 	c #70727C",
"w 	c #E0431E",
"x 	c #D43518",
"y 	c #BA2D24",
"z 	c #9A575D",
"A 	c #D7DAE6",
"B 	c #E7BC1D",
"C 	c #FFF564",
"D 	c #F4DD59",
"E 	c #BAB9B9",
"F 	c #B3B0B0",
"G 	c #E9B100",
"H 	c #FFF054",
"I 	c #FFF46E",
"J 	c #C2A53F",
"K 	c #E34621",
"L 	c #FBD2D0",
"M 	c #CAF8C9",
"N 	c #8BD477",
"O 	c #77B865",
"P 	c #D4D6DF",
"Q 	c #B18E32",
"R 	c #F3C100",
"S 	c #FFF97B",
"T 	c #F0D652",
"U 	c #B0AFB1",
"V 	c #8D723B",
"W 	c #D4A200",
"X 	c #FEE553",
"Y 	c #FFFE83",
"Z 	c #EEC11D",
"` 	c #D83F23",
" .	c #AED3B8",
"..	c #84FB52",
"+.	c #8DFB5D",
"@.	c #72E74B",
"#.	c #5DC53B",
"$.	c #A6A8B0",
"%.	c #9E7305",
"&.	c #E5BA08",
"*.	c #FFFE97",
"=.	c #DEC44A",
"-.	c #9095A7",
";.	c #886E3E",
">.	c #B88C00",
",.	c #E9D774",
"'.	c #BDAD4D",
").	c #B53A2B",
"!.	c #628F5F",
"~.	c #69E745",
"{.	c #89F55C",
"].	c #92FB62",
"^.	c #78EB51",
"/.	c #5ACB38",
"(.	c #8FCF7D",
"_.	c #936700",
":.	c #D1B231",
"<.	c #BBAB44",
"[.	c #979493",
"}.	c #747883",
"|.	c #784A00",
"1.	c #836100",
"2.	c #926C0E",
"3.	c #478639",
"4.	c #45C02B",
"5.	c #67E045",
"6.	c #84F158",
"7.	c #94FC63",
"8.	c #7CEE53",
"9.	c #5AD53B",
"0.	c #5FBD4C",
"a.	c #6C4A05",
"b.	c #785B1B",
"c.	c #63656B",
"d.	c #585859",
"e.	c #5F0000",
"f.	c #31A118",
"g.	c #3FBA28",
"h.	c #63DE43",
"i.	c #7FEF55",
"j.	c #8DFE5F",
"k.	c #BCE276",
"l.	c #E1D487",
"m.	c #D3AC6A",
"n.	c #2C9C17",
"o.	c #35B422",
"p.	c #5DDE40",
"q.	c #A5C85E",
"r.	c #FFCE99",
"s.	c #FFDB9F",
"t.	c #FFBB80",
"u.	c #DABABA",
"v.	c #289514",
"w.	c #1CAB14",
"x.	c #E8AA70",
"y.	c #FFC187",
"z.	c #EAC390",
"A.	c #AFA092",
"B.	c #A39293",
"C.	c #1A8C0F",
"D.	c #C69351",
"E.	c #FFAD75",
"F.	c #786960",
"G.	c #7A7D7F",
"H.	c #767879",
"I.	c #D45F31",
"J.	c #D26732",
"K.	c #4D3C33",
"L.	c #363738",
"M.	c #585858",
"    . + @ # $ % & *             ",
"    = - ; >   , ' ) ! ~         ",
"    { ] ^ / ( _ : $ < [ }       ",
"    | 1 2 ) 3 4 5 2 6 3 ! 7     ",
"    8 9 0 a b c d a e f g h i   ",
"    j k l m n o p q r s t u v   ",
"w x y z # A B C D E F G H I J   ",
"K L M N O P Q R S T U V W X Y Z ",
"`  ...+.@.#.$.%.&.*.=.-.;.>.,.'.",
").!.~.{.].^./.(._.:.<.[.}.|.1.2.",
"  3.4.5.6.7.8.9.0.a.b.c.d.  e.  ",
"    f.g.h.i.j.k.l.m.            ",
"      n.o.p.q.r.s.t.u.          ",
"        v.w.x.y.z.A.B.          ",
"          C.D.E.F.G.H.          ",
"            I.J.K.L.M.          "};
