/* XPM */
static char * plug_xpm[] = {
"16 16 120 2",
"  	c None",
". 	c #B7B7B7",
"+ 	c #DBDBDB",
"@ 	c #E3E3E3",
"# 	c #B2B2B2",
"$ 	c #C0C0C0",
"% 	c #BBBBBB",
"& 	c #A8A8A8",
"* 	c #AAAAAA",
"= 	c #A9A9A9",
"- 	c #D6D6D6",
"; 	c #CFCFCF",
"> 	c #F7F7F7",
", 	c #F5F5F5",
"' 	c #E4E4E4",
") 	c #C9C9C9",
"! 	c #B5B5B5",
"~ 	c #A1A1A1",
"{ 	c #8A8A8A",
"] 	c #BDBDBD",
"^ 	c #E5E5E5",
"/ 	c #EBEBEB",
"( 	c #EEEEEE",
"_ 	c #DDDDDD",
": 	c #CACACA",
"< 	c #B3B3B3",
"[ 	c #949494",
"} 	c #7B7B7B",
"| 	c #959595",
"1 	c #C7C7C7",
"2 	c #D5D5D5",
"3 	c #CECECE",
"4 	c #DFDFDF",
"5 	c #DADADA",
"6 	c #D1D1D1",
"7 	c #7D7D7D",
"8 	c #8B8B8B",
"9 	c #A5A5A5",
"0 	c #AEAEAE",
"a 	c #CBCBCB",
"b 	c #E0E1E4",
"c 	c #D7D7DD",
"d 	c #D1D1D3",
"e 	c #C6C6C8",
"f 	c #BDC0C9",
"g 	c #BABBC5",
"h 	c #A5A5A9",
"i 	c #6D6D6E",
"j 	c #7A7A7A",
"k 	c #797979",
"l 	c #9E9E9E",
"m 	c #E2E3E7",
"n 	c #DBD3BA",
"o 	c #E7D789",
"p 	c #CAC8C7",
"q 	c #C4C4C7",
"r 	c #BCBEC4",
"s 	c #EDCE4B",
"t 	c #F7E464",
"u 	c #BAB298",
"v 	c #70727C",
"w 	c #717171",
"x 	c #616161",
"y 	c #D7DAE6",
"z 	c #E7BC1D",
"A 	c #FFF564",
"B 	c #F4DD59",
"C 	c #BAB9B9",
"D 	c #B3B0B0",
"E 	c #E9B100",
"F 	c #FFF054",
"G 	c #FFF46E",
"H 	c #C2A53F",
"I 	c #676767",
"J 	c #A4A4A4",
"K 	c #D4D6DF",
"L 	c #B18E32",
"M 	c #F3C100",
"N 	c #FFF97B",
"O 	c #F0D652",
"P 	c #B0AFB1",
"Q 	c #8D723B",
"R 	c #D4A200",
"S 	c #FEE553",
"T 	c #FFFE83",
"U 	c #EEC11D",
"V 	c #727272",
"W 	c #787878",
"X 	c #D2D3D4",
"Y 	c #A6A8B0",
"Z 	c #9E7305",
"` 	c #E5BA08",
" .	c #FFFE97",
"..	c #DEC44A",
"+.	c #9095A7",
"@.	c #886E3E",
"#.	c #B88C00",
"$.	c #E9D774",
"%.	c #BDAD4D",
"&.	c #6E6E6E",
"*.	c #898989",
"=.	c #B9BABD",
"-.	c #A6A2A3",
";.	c #936700",
">.	c #D1B231",
",.	c #BBAB44",
"'.	c #979493",
").	c #747883",
"!.	c #784A00",
"~.	c #836100",
"{.	c #926C0E",
"].	c #626262",
"^.	c #6D6D6D",
"/.	c #878A8D",
"(.	c #77706B",
"_.	c #6C4A05",
":.	c #785B1B",
"<.	c #63656B",
"[.	c #585859",
"}.	c #5F0000",
"                                ",
"                                ",
"                                ",
"  . + @ # $ % & *               ",
"  = - ; >   , ' ) ! ~           ",
"  { ] ^ / ( _ : $ < [ }         ",
"  | 1 2 ) 3 4 5 2 6 3 ! 7       ",
"  8 9 0 a b c d a e f g h i     ",
"  j k l m n o p q r s t u v     ",
"  w x # y z A B C D E F G H     ",
"    I J K L M N O P Q R S T U   ",
"    V W X Y Z `  ...+.@.#.$.%.  ",
"      &.*.=.-.;.>.,.'.).!.~.{.  ",
"        ].^./.(._.:.<.[.  }.    ",
"                                ",
"                                "};
