/* XPM */
char *prevpage_xpm[] = {
"19 19 256 3",
"000 c #888888",
"001 c #2850A0",
"002 c #3050A0",
"003 c #3858A0",
"004 c #3858A8",
"005 c #4060A8",
"006 c #4868B0",
"007 c #5870B0",
"008 c #6078B8",
"009 c #6880C0",
"010 c None",
"011 c #001927",
"012 c #CCBDE0",
"013 c #030001",
"014 c #408E75",
"015 c #E016C7",
"016 c #000002",
"017 c #00BFF5",
"018 c #D40082",
"019 c #0016C7",
"020 c #E0BFF5",
"021 c #040002",
"022 c #C40CD4",
"023 c #FA0000",
"024 c #9734F1",
"025 c black",
"026 c black",
"027 c #E00082",
"028 c #270002",
"029 c #008A7C",
"030 c #F50006",
"031 c #27FFFF",
"032 c #060000",
"033 c #578A7C",
"034 c #E08A18",
"035 c #100000",
"036 c #9750E8",
"037 c black",
"038 c black",
"039 c #E00082",
"040 c #ED0002",
"041 c #D08A2C",
"042 c #0017BF",
"043 c black",
"044 c #820000",
"045 c #060CD4",
"046 c #7CBFF5",
"047 c #C70000",
"048 c #9C0038",
"049 c #560157",
"050 c #4F1D0B",
"051 c #278A4A",
"052 c #278A4E",
"053 c #278A52",
"054 c #67004E",
"055 c #160157",
"056 c #000147",
"057 c #810003",
"058 c #7E5F40",
"059 c #4F1DB9",
"060 c #0012AE",
"061 c #4E0003",
"062 c #276267",
"063 c #7629A8",
"064 c black",
"065 c black",
"066 c black",
"067 c black",
"068 c black",
"069 c black",
"070 c black",
"071 c black",
"072 c black",
"073 c black",
"074 c black",
"075 c black",
"076 c black",
"077 c black",
"078 c black",
"079 c black",
"080 c black",
"081 c #762958",
"082 c #6FEB2C",
"083 c #6FEB1C",
"084 c #F77362",
"085 c #6FEB3E",
"086 c #4D1C58",
"087 c #000104",
"088 c #6FEC64",
"089 c #FA191F",
"090 c #0000F3",
"091 c #6FEB1C",
"092 c #761E80",
"093 c #6FEDE0",
"094 c #6FEC48",
"095 c #F773D3",
"096 c #6FEB3E",
"097 c #6FEC64",
"098 c #FA191F",
"099 c #0000F1",
"100 c #6FEC48",
"101 c #761E80",
"102 c #6FEDE0",
"103 c #6FEB3E",
"104 c #00207F",
"105 c #080000",
"106 c #00207F",
"107 c #5E0000",
"108 c #370000",
"109 c #7FBB4F",
"110 c #001448",
"111 c #00BB5E",
"112 c #4D0337",
"113 c #2F46AF",
"114 c #000011",
"115 c #070080",
"116 c #3720A7",
"117 c #48010C",
"118 c #7F0000",
"119 c #000011",
"120 c #C2BBDC",
"121 c #01032F",
"122 c #2FBB5E",
"123 c #0016CF",
"124 c #00149E",
"125 c #00207F",
"126 c black",
"127 c black",
"128 c black",
"129 c #0C0000",
"130 c #0014AF",
"131 c #D80000",
"132 c #00019D",
"133 c black",
"134 c black",
"135 c black",
"136 c black",
"137 c black",
"138 c black",
"139 c black",
"140 c black",
"141 c black",
"142 c black",
"143 c black",
"144 c black",
"145 c black",
"146 c black",
"147 c black",
"148 c black",
"149 c black",
"150 c black",
"151 c black",
"152 c #200000",
"153 c #000020",
"154 c black",
"155 c #1814AF",
"156 c #C5BBF0",
"157 c #CA17A7",
"158 c #C717A7",
"159 c #00149E",
"160 c #750000",
"161 c #0C16C7",
"162 c #3F4D2F",
"163 c #0017A7",
"164 c #750167",
"165 c #0014AF",
"166 c #003C0C",
"167 c #AE14AF",
"168 c #AFBC1E",
"169 c #6717A7",
"170 c #9E12A7",
"171 c #AE7F24",
"172 c #68102A",
"173 c #970028",
"174 c #F728A2",
"175 c black",
"176 c black",
"177 c #000001",
"178 c #6FEDD0",
"179 c #762958",
"180 c #6FEDD0",
"181 c #00001B",
"182 c #F52D9D",
"183 c #6F3000",
"184 c #F7B99F",
"185 c #953284",
"186 c #4D0138",
"187 c #F7B9B6",
"188 c #953284",
"189 c #4876C8",
"190 c #4017DD",
"191 c #4D01A8",
"192 c #40522D",
"193 c #000002",
"194 c #761E80",
"195 c #401936",
"196 c #75E74C",
"197 c #461EC0",
"198 c #458DA0",
"199 c #762958",
"200 c #761EA4",
"201 c #F7A0FE",
"202 c #F7B317",
"203 c #17A000",
"204 c #820020",
"205 c #820020",
"206 c black",
"207 c #762934",
"208 c #4876C8",
"209 c #000001",
"210 c #00207F",
"211 c #080000",
"212 c #00207F",
"213 c #060000",
"214 c #370000",
"215 c #7FBCF7",
"216 c #001448",
"217 c #00BD06",
"218 c #F50337",
"219 c #2F46AF",
"220 c #000011",
"221 c #070080",
"222 c #3720A7",
"223 c #48010C",
"224 c #7F0000",
"225 c #000011",
"226 c #C2BD84",
"227 c #01032F",
"228 c #2FBD06",
"229 c #0016CF",
"230 c #0014AE",
"231 c #00207F",
"232 c #000013",
"233 c #000013",
"234 c #000013",
"235 c #0C0013",
"236 c #00149F",
"237 c #C80013",
"238 c #13018D",
"239 c #761EA4",
"240 c #7F2363",
"241 c #D40000",
"242 c black",
"243 c #E08216",
"244 c #000002",
"245 c #D40002",
"246 c black",
"247 c black",
"248 c #C591F5",
"249 c #9D01D8",
"250 c #C80000",
"251 c #C80003",
"252 c #000003",
"253 c #180000",
"254 c #18BD88",
"255 c #02BDE0",
"010010010010010010010010010010010010010010010010010010010",
"010010010010010010010010010010010010010010010010010010010",
"010010010010010010010010010010010010010010010010010010010",
"010010010010010010010010010010010010010010010010010010010",
"010010010010010010010010010009010010010010010009010010010",
"010010010010010010010010009009000010010010009009000010010",
"010010010010010010010008008008000010010008008008000010010",
"010010010010010010007007007007000010007007007007000010010",
"010010010010010006006006006006000006006006006006000010010",
"010010010010005005005005005005005005005005005005000010010",
"010010010010000004004004004004000004004004004004000010010",
"010010010010010000003003003003000000003003003003000010010",
"010010010010010010000002002002000010000002002002000010010",
"010010010010010010010000001001000010010000001001000010010",
"010010010010010010010010000001000010010010000001000010010",
"010010010010010010010010010000000010010010010000000010010",
"010010010010010010010010010010010010010010010010010010010",
"010010010010010010010010010010010010010010010010010010010",
"010010010010010010010010010010010010010010010010010010010"
};
