/* XPM */
char *print_preview_xpm[] = {
"16 16 256 3",
"000 c None",
"001 c gray88",
"002 c #D8D8D8",
"003 c #E8F8F8",
"004 c #C8C8C8",
"005 c #C0D8D8",
"006 c #A8D8F0",
"007 c #F8F8F8",
"008 c gray69",
"009 c #98D8F8",
"010 c #F0F8F8",
"011 c gray72",
"012 c #E0F0F8",
"013 c gray94",
"014 c gray66",
"015 c #90D0F8",
"016 c #C0C0C0",
"017 c #C0E8F8",
"018 c #A8A0A8",
"019 c #A0E0F8",
"020 c #E8F0F8",
"021 c #D8F0F8",
"022 c #A0D8F0",
"023 c #989898",
"024 c #D0D0D0",
"025 c #D0D8E0",
"026 c #90A8B8",
"027 c #C8F0F8",
"028 c #A0A0A0",
"029 c #80D0F8",
"030 c #A8B0C0",
"031 c #B8E8F8",
"032 c #98A0A8",
"033 c #98D0F0",
"034 c #888888",
"035 c #90D0F0",
"036 c #A8A8B0",
"037 c #F0B090",
"038 c #A8B0B0",
"039 c #D8E8F8",
"040 c #A0A0A8",
"041 c #90D8F8",
"042 c #90A0B0",
"043 c gray44",
"044 c #80C8F0",
"045 c #889098",
"046 c #90C8E8",
"047 c #808080",
"048 c #98D0F8",
"049 c #908890",
"050 c #F88830",
"051 c #808888",
"052 c #707878",
"053 c #787880",
"054 c #48C028",
"055 c #D89878",
"056 c #A87858",
"057 c #909090",
"058 c gray47",
"059 c #F8E070",
"060 c #F88038",
"061 c #D0C088",
"062 c #F07828",
"063 c #707078",
"064 c #686868",
"065 c #686870",
"066 c #B07858",
"067 c #E09870",
"068 c #B87858",
"069 c #F88030",
"070 c #78C870",
"071 c #F8D878",
"072 c black",
"073 c black",
"074 c black",
"075 c black",
"076 c black",
"077 c black",
"078 c black",
"079 c black",
"080 c black",
"081 c black",
"082 c black",
"083 c black",
"084 c black",
"085 c black",
"086 c black",
"087 c black",
"088 c black",
"089 c black",
"090 c black",
"091 c black",
"092 c black",
"093 c black",
"094 c black",
"095 c black",
"096 c black",
"097 c black",
"098 c black",
"099 c black",
"100 c black",
"101 c black",
"102 c black",
"103 c black",
"104 c black",
"105 c black",
"106 c black",
"107 c black",
"108 c black",
"109 c black",
"110 c black",
"111 c black",
"112 c black",
"113 c black",
"114 c black",
"115 c black",
"116 c black",
"117 c black",
"118 c black",
"119 c black",
"120 c black",
"121 c black",
"122 c black",
"123 c black",
"124 c black",
"125 c black",
"126 c black",
"127 c black",
"128 c black",
"129 c black",
"130 c black",
"131 c black",
"132 c black",
"133 c black",
"134 c black",
"135 c black",
"136 c black",
"137 c black",
"138 c black",
"139 c black",
"140 c black",
"141 c black",
"142 c black",
"143 c black",
"144 c black",
"145 c black",
"146 c black",
"147 c black",
"148 c black",
"149 c black",
"150 c black",
"151 c black",
"152 c black",
"153 c black",
"154 c black",
"155 c black",
"156 c black",
"157 c black",
"158 c black",
"159 c black",
"160 c black",
"161 c black",
"162 c black",
"163 c black",
"164 c black",
"165 c black",
"166 c black",
"167 c black",
"168 c black",
"169 c black",
"170 c black",
"171 c black",
"172 c black",
"173 c black",
"174 c black",
"175 c black",
"176 c black",
"177 c black",
"178 c black",
"179 c black",
"180 c black",
"181 c black",
"182 c black",
"183 c black",
"184 c black",
"185 c black",
"186 c black",
"187 c black",
"188 c black",
"189 c black",
"190 c black",
"191 c black",
"192 c black",
"193 c black",
"194 c black",
"195 c black",
"196 c black",
"197 c black",
"198 c black",
"199 c black",
"200 c black",
"201 c black",
"202 c black",
"203 c black",
"204 c black",
"205 c black",
"206 c black",
"207 c black",
"208 c black",
"209 c black",
"210 c black",
"211 c black",
"212 c black",
"213 c black",
"214 c black",
"215 c black",
"216 c black",
"217 c black",
"218 c black",
"219 c black",
"220 c black",
"221 c black",
"222 c black",
"223 c black",
"224 c black",
"225 c black",
"226 c black",
"227 c black",
"228 c black",
"229 c black",
"230 c black",
"231 c black",
"232 c black",
"233 c black",
"234 c black",
"235 c black",
"236 c black",
"237 c black",
"238 c black",
"239 c black",
"240 c black",
"241 c black",
"242 c black",
"243 c black",
"244 c black",
"245 c black",
"246 c black",
"247 c black",
"248 c black",
"249 c black",
"250 c black",
"251 c black",
"252 c black",
"253 c black",
"254 c black",
"255 c black",
"000000000000000000000000000000000000000000000000",
"000000001024011008011014014000000000000000000000",
"000000011000007007007007028004000000000000000000",
"000000001014007003020012003034000000000000000000",
"000000000011025020012039021030024000000000000000",
"000000000001038012028053052052034024000000000000",
"000000001016023032005010027019042057023016000000",
"000011011024011052003003017022041047001008008000",
"000014000002001052031031006015015043054070034000",
"000028013000001053041033046044009053018049043000",
"000028001004002028026029029033045034066047053000",
"000014007007001016057043064064051061060068043000",
"000008016007007007007023053064056062059050067000",
"000000002008028002007023047047023055060071045000",
"000000000000001011023034014002000000037045014000",
"000000000000000000000000000000000000000000000000"
};
