/* XPM */
char *print_preferences_xpm[] = {
"16 16 256 3",
"000 c #2860B0",
"001 c None",
"002 c #C0C0C0",
"003 c #F0E8F0",
"004 c #A0A0A0",
"005 c #F8F8F8",
"006 c gray94",
"007 c #888880",
"008 c gray88",
"009 c gray72",
"010 c #E8F8F8",
"011 c #0068D0",
"012 c #D8D8D8",
"013 c gray69",
"014 c #D0E8F8",
"015 c #7890B0",
"016 c #D0D0D0",
"017 c gray66",
"018 c #E0F0F8",
"019 c #0040A8",
"020 c #C8C8C8",
"021 c #989898",
"022 c #686860",
"023 c #C8F0F8",
"024 c #C0E0F8",
"025 c #0860C0",
"026 c #A0A0A8",
"027 c #E0E8E8",
"028 c #3870B0",
"029 c #D0D8E0",
"030 c #A0C0E0",
"031 c #3870C0",
"032 c #808080",
"033 c #E8F0F8",
"034 c #0068C8",
"035 c #888888",
"036 c #C8D8F0",
"037 c #70A0D8",
"038 c #3068B0",
"039 c gray47",
"040 c #98A8B8",
"041 c #0880E0",
"042 c #98A0A0",
"043 c #D8E8F8",
"044 c #4090D0",
"045 c #98B0C8",
"046 c #305898",
"047 c #3868A8",
"048 c #0078D8",
"049 c #4870A8",
"050 c #707078",
"051 c #3868B8",
"052 c #C0E8B8",
"053 c #787880",
"054 c #0048B0",
"055 c #889090",
"056 c #2880D8",
"057 c #909088",
"058 c #D8F0F8",
"059 c #4898D8",
"060 c #606868",
"061 c #0058C0",
"062 c #C8D8E8",
"063 c #7090B8",
"064 c #788890",
"065 c #2060B8",
"066 c #C8E8F8",
"067 c black",
"068 c black",
"069 c black",
"070 c black",
"071 c black",
"072 c black",
"073 c black",
"074 c black",
"075 c black",
"076 c black",
"077 c black",
"078 c black",
"079 c black",
"080 c black",
"081 c black",
"082 c black",
"083 c black",
"084 c black",
"085 c black",
"086 c black",
"087 c black",
"088 c black",
"089 c black",
"090 c black",
"091 c black",
"092 c black",
"093 c black",
"094 c black",
"095 c black",
"096 c black",
"097 c black",
"098 c black",
"099 c black",
"100 c black",
"101 c black",
"102 c black",
"103 c black",
"104 c black",
"105 c black",
"106 c black",
"107 c black",
"108 c black",
"109 c black",
"110 c black",
"111 c black",
"112 c black",
"113 c black",
"114 c black",
"115 c black",
"116 c black",
"117 c black",
"118 c black",
"119 c black",
"120 c black",
"121 c black",
"122 c black",
"123 c black",
"124 c black",
"125 c black",
"126 c black",
"127 c black",
"128 c black",
"129 c black",
"130 c black",
"131 c black",
"132 c black",
"133 c black",
"134 c black",
"135 c black",
"136 c black",
"137 c black",
"138 c black",
"139 c black",
"140 c black",
"141 c black",
"142 c black",
"143 c black",
"144 c black",
"145 c black",
"146 c black",
"147 c black",
"148 c black",
"149 c black",
"150 c black",
"151 c black",
"152 c black",
"153 c black",
"154 c black",
"155 c black",
"156 c black",
"157 c black",
"158 c black",
"159 c black",
"160 c black",
"161 c black",
"162 c black",
"163 c black",
"164 c black",
"165 c black",
"166 c black",
"167 c black",
"168 c black",
"169 c black",
"170 c black",
"171 c black",
"172 c black",
"173 c black",
"174 c black",
"175 c black",
"176 c black",
"177 c black",
"178 c black",
"179 c black",
"180 c black",
"181 c black",
"182 c black",
"183 c black",
"184 c black",
"185 c black",
"186 c black",
"187 c black",
"188 c black",
"189 c black",
"190 c black",
"191 c black",
"192 c black",
"193 c black",
"194 c black",
"195 c black",
"196 c black",
"197 c black",
"198 c black",
"199 c black",
"200 c black",
"201 c black",
"202 c black",
"203 c black",
"204 c black",
"205 c black",
"206 c black",
"207 c black",
"208 c black",
"209 c black",
"210 c black",
"211 c black",
"212 c black",
"213 c black",
"214 c black",
"215 c black",
"216 c black",
"217 c black",
"218 c black",
"219 c black",
"220 c black",
"221 c black",
"222 c black",
"223 c black",
"224 c black",
"225 c black",
"226 c black",
"227 c black",
"228 c black",
"229 c black",
"230 c black",
"231 c black",
"232 c black",
"233 c black",
"234 c black",
"235 c black",
"236 c black",
"237 c black",
"238 c black",
"239 c black",
"240 c black",
"241 c black",
"242 c black",
"243 c black",
"244 c black",
"245 c black",
"246 c black",
"247 c black",
"248 c black",
"249 c black",
"250 c black",
"251 c black",
"252 c black",
"253 c black",
"254 c black",
"255 c black",
"001001001001001001001001001001001001001001001001",
"001001008016009013009017017001001001001001001001",
"001001009001005005005005004020001001001001001001",
"001001008017005010033018010007001001001001001001",
"001001001009029018043014014040016001001001001001",
"001001001008042058014066023030057016001001001001",
"001001008002039024045064060022017002004012001001",
"001009009016004022007009008006005005003008056001",
"001017001012012001005005005006001008052059048001",
"001004006001008012012006036027001008037011041001",
"001004008020012001001001038028002063025011044001",
"001017005005008002020012049019051065061015021001",
"001013002005005005005012055000019054047013002001",
"001001012013004012005012032036019031032001001001",
"001001001001008009004020004039046050004001001001",
"001001001001001001001001001001001001001001001001"
};
