/* XPM */
char * privil_obj_xpm[] = {
"16 16 105 2",
"  	c None",
". 	c #DFA600",
"+ 	c #DDB420",
"@ 	c #DAB93C",
"# 	c #C29004",
"$ 	c #BF8A00",
"% 	c #F0C519",
"& 	c #FFFFB5",
"* 	c #EADE70",
"= 	c #DABB4C",
"- 	c #C18D00",
"; 	c #C79200",
"> 	c #F2D03B",
", 	c #F1ED8D",
"' 	c #E1CD5A",
") 	c #D2B037",
"! 	c #C99F2A",
"~ 	c #CE9400",
"{ 	c #EDC00F",
"] 	c #ECE789",
"^ 	c #E1D169",
"/ 	c #D1B33C",
"( 	c #D2B048",
"_ 	c #CC9400",
": 	c #FFC600",
"< 	c #ECCD3E",
"[ 	c #E2D679",
"} 	c #DBC659",
"| 	c #D4B849",
"1 	c #C6950F",
"2 	c #CEA600",
"3 	c #FFD500",
"4 	c #ECC72F",
"5 	c #E3D775",
"6 	c #DAC454",
"7 	c #CDA82F",
"8 	c #BE8300",
"9 	c #ECB300",
"0 	c #E7AB00",
"a 	c #DDBB00",
"b 	c #FFD400",
"c 	c #EEBF12",
"d 	c #E4D66B",
"e 	c #E0CB59",
"f 	c #EAC732",
"g 	c #E2C63E",
"h 	c #D8B022",
"i 	c #C59100",
"j 	c #D08800",
"k 	c #FABA00",
"l 	c #F0C71E",
"m 	c #FDFE9C",
"n 	c #F7EF83",
"o 	c #EBD85F",
"p 	c #E0C23D",
"q 	c #D4AC1B",
"r 	c #B48200",
"s 	c #A76F00",
"t 	c #FFD604",
"u 	c #FEFC8F",
"v 	c #FFFF9F",
"w 	c #FEFC95",
"x 	c #F2E977",
"y 	c #E7D958",
"z 	c #D2AA20",
"A 	c #CF8102",
"B 	c #9C6B00",
"C 	c #FFD221",
"D 	c #F6F087",
"E 	c #FFFF9E",
"F 	c #FFFFA3",
"G 	c #ECE16A",
"H 	c #E5731D",
"I 	c #C52A1D",
"J 	c #94122D",
"K 	c #965E03",
"L 	c #F5BD02",
"M 	c #E9D65C",
"N 	c #FFFF9A",
"O 	c #E6C453",
"P 	c #D24F2C",
"Q 	c #94212B",
"R 	c #BE452E",
"S 	c #782F30",
"T 	c #A27200",
"U 	c #EAAF00",
"V 	c #DEBD2E",
"W 	c #DAAA30",
"X 	c #CB3C25",
"Y 	c #B03324",
"Z 	c #B83E2F",
"` 	c #8B3A2C",
" .	c #A26B04",
"..	c #E3AA00",
"+.	c #C89C05",
"@.	c #CE480E",
"#.	c #85152C",
"$.	c #A13531",
"%.	c #9A5118",
"&.	c #AC7200",
"*.	c #C08C00",
"=.	c #A26A04",
"-.	c #773C15",
";.	c #936403",
">.	c #AA6D00",
"                                ",
"    . + @ # $                   ",
"    % & * = - ;                 ",
"    > , ' ) ! ~                 ",
"    { ] ^ / ( _                 ",
"    : < [ } | 1 2               ",
"      3 4 5 6 7 8 9 0 a         ",
"        b c d e f g h i j       ",
"          k l m n o p q r s     ",
"          t u v w x y z A B     ",
"          C D E F G H I J K     ",
"          L M N O P Q R S T     ",
"          U V W X Y Z `  .      ",
"          ..+.@.#.$.%.&.        ",
"            *.=.-.;.>.          ",
"                                "};
