/* XPM */
char * privil_dat_xpm[] = {
"16 16 126 2",
"  	c None",
". 	c #0099FF",
"+ 	c #DFA600",
"@ 	c #DDB420",
"# 	c #DAB93C",
"$ 	c #C29004",
"% 	c #BF8A00",
"& 	c #F0C519",
"* 	c #FFFFB5",
"= 	c #EADE70",
"- 	c #DABB4C",
"; 	c #C18D00",
"> 	c #C79200",
", 	c #99CCFF",
"' 	c #3DADFF",
") 	c #F2D03B",
"! 	c #F1ED8D",
"~ 	c #E1CD5A",
"{ 	c #D2B037",
"] 	c #C99F2A",
"^ 	c #CE9400",
"/ 	c #0085EB",
"( 	c #0091F7",
"_ 	c #EDC00F",
": 	c #ECE789",
"< 	c #E1D169",
"[ 	c #D1B33C",
"} 	c #D2B048",
"| 	c #CC9400",
"1 	c #FFC600",
"2 	c #ECCD3E",
"3 	c #E2D679",
"4 	c #DBC659",
"5 	c #D4B849",
"6 	c #C6950F",
"7 	c #CEA600",
"8 	c #EAEAFF",
"9 	c #C5C5DB",
"0 	c #E0E0FF",
"a 	c #BCBCDB",
"b 	c #D6D6FF",
"c 	c #DBDBDB",
"d 	c #FFD500",
"e 	c #ECC72F",
"f 	c #E3D775",
"g 	c #DAC454",
"h 	c #CDA82F",
"i 	c #BE8300",
"j 	c #ECB300",
"k 	c #E7AB00",
"l 	c #DDBB00",
"m 	c #B8B8DB",
"n 	c #FFD400",
"o 	c #EEBF12",
"p 	c #E4D66B",
"q 	c #E0CB59",
"r 	c #EAC732",
"s 	c #E2C63E",
"t 	c #D8B022",
"u 	c #C59100",
"v 	c #D08800",
"w 	c #FABA00",
"x 	c #F0C71E",
"y 	c #FDFE9C",
"z 	c #F7EF83",
"A 	c #EBD85F",
"B 	c #E0C23D",
"C 	c #D4AC1B",
"D 	c #B48200",
"E 	c #A76F00",
"F 	c #D8D8DB",
"G 	c #FBFBFF",
"H 	c #FFD604",
"I 	c #FEFC8F",
"J 	c #FFFF9F",
"K 	c #FEFC95",
"L 	c #F2E977",
"M 	c #E7D958",
"N 	c #D2AA20",
"O 	c #CF8102",
"P 	c #9C6B00",
"Q 	c #D2D2DB",
"R 	c #FFD221",
"S 	c #F6F087",
"T 	c #FFFF9E",
"U 	c #FFFFA3",
"V 	c #ECE16A",
"W 	c #E5731D",
"X 	c #C52A1D",
"Y 	c #94122D",
"Z 	c #965E03",
"` 	c #CECEDB",
" .	c #F0F0FF",
"..	c #F5BD02",
"+.	c #E9D65C",
"@.	c #FFFF9A",
"#.	c #E6C453",
"$.	c #D24F2C",
"%.	c #94212B",
"&.	c #BE452E",
"*.	c #782F30",
"=.	c #A27200",
"-.	c #C9C9DB",
";.	c #EAAF00",
">.	c #DEBD2E",
",.	c #DAAA30",
"'.	c #CB3C25",
").	c #B03324",
"!.	c #B83E2F",
"~.	c #8B3A2C",
"{.	c #A26B04",
"].	c #B2B2DB",
"^.	c #E5E5FF",
"/.	c #E3AA00",
"(.	c #C89C05",
"_.	c #CE480E",
":.	c #85152C",
"<.	c #A13531",
"[.	c #9A5118",
"}.	c #AC7200",
"|.	c #CCCCFF",
"1.	c #C08C00",
"2.	c #A26A04",
"3.	c #773C15",
"4.	c #936403",
"5.	c #AA6D00",
"                                ",
"  . + @ # $ % . . . . . . . .   ",
"  . & * = - ; > , , , , , ' .   ",
"  . ) ! ~ { ] ^ / / / / / ( .   ",
"  . _ : < [ } | . . . . . . .   ",
"  . 1 2 3 4 5 6 7 8 9 0 a b .   ",
"  . c d e f g h i j k l a m .   ",
"  . c   n o p q r s t u v b .   ",
"  . c c c w x y z A B C D E .   ",
"  . F G F H I J K L M N O P .   ",
"  . Q Q Q R S T U V W X Y Z .   ",
"  . `  .` ..+.@.#.$.%.&.*.=..   ",
"  . -.-.-.;.>.,.'.).!.~.{.]..   ",
"  . 9 ^.9 /.(._.:.<.[.}.].|..   ",
"  . . . . . 1.2.3.4.5.. . . .   ",
"                                "};
