/* XPM */
char *profile_xpm[] = {
"16 16 54 3",
"000 c #A8A8B8",
"001 c None",
"002 c #2080D0",
"003 c #B0C8F8",
"004 c #A0A0B0",
"005 c #B8B8C0",
"006 c #A0C0F8",
"007 c #A8C8F8",
"008 c #50A848",
"009 c #4090F8",
"010 c #0050C8",
"011 c #90B0F0",
"012 c #A8A8B0",
"013 c #30B020",
"014 c #0048E0",
"015 c #80C068",
"016 c #78B868",
"017 c #38B828",
"018 c #6898E8",
"019 c #A0A0B8",
"020 c #9898B0",
"021 c #60D010",
"022 c #0060D0",
"023 c #80A8E8",
"024 c #60B058",
"025 c #3080F0",
"026 c #3080F8",
"027 c #1870E0",
"028 c #70B058",
"029 c #78A0E8",
"030 c #30B828",
"031 c #2078E8",
"032 c #50D000",
"033 c #1870F0",
"034 c #3888F8",
"035 c #0058E0",
"036 c #70B860",
"037 c #0868E8",
"038 c #50C808",
"039 c #1878D0",
"040 c #2078F0",
"041 c #0060E8",
"042 c #30B028",
"043 c #3890E8",
"044 c #10A800",
"045 c #0868E0",
"046 c #2888D0",
"047 c #38B800",
"048 c #40C000",
"049 c #009800",
"050 c #28B000",
"051 c #20A800",
"052 c #00A000",
"053 c black",
"001001001001001001001001001001001001001001001001",
"001004000000004004004004004004004004004004004001",
"001005001001001001001001001001001001001001004001",
"001000001001001001001001032049001001001001020001",
"001000001001001001001001032049001001001001004001",
"001000001001001001003014032049001001001001020001",
"001000001001001001003035032052003014001001004001",
"001004001001001001006041030044003010001001020001",
"001000001001032008006037013051007022001001004001",
"001000001001032024011033013050006037032024000001",
"001000001001032036023031013047011027032036000001",
"001000011039032028018025013048023031032028000001",
"001000029002048016018034013038029025048016000001",
"001000043046032015009009017021018009032015000001",
"001000000000000000000000000000000000000000000001",
"001001001001001001001001001001001001001001001001"
};
