/* XPM */
static char * profil_new_xpm[] = {
"16 16 154 2",
"  	c None",
". 	c #8888CD",
"+ 	c #8D8DE0",
"@ 	c #9E9EDD",
"# 	c #A3A3DF",
"$ 	c #9292D3",
"% 	c #8585D3",
"& 	c #A4A4FF",
"* 	c #A0A0E9",
"= 	c #C1C1EF",
"- 	c #CACAF4",
"; 	c #CECEFC",
"> 	c #D3D3FF",
", 	c #ABABE4",
"' 	c #9797D7",
") 	c #97978A",
"! 	c #9C9CF4",
"~ 	c #C1C1EA",
"{ 	c #C4C4F3",
"] 	c #C8C8F9",
"^ 	c #CCCCFF",
"/ 	c #CECEFF",
"( 	c #D1D2FF",
"_ 	c #B8B8F1",
": 	c #9999D7",
"< 	c #B4B4FD",
"[ 	c #9191DD",
"} 	c #C7BDB7",
"| 	c #CEC3BE",
"1 	c #CCC0BC",
"2 	c #CBBEBB",
"3 	c #CBC0BC",
"4 	c #CABFBB",
"5 	c #CAC2BD",
"6 	c #C9C0BD",
"7 	c #CBC2BF",
"8 	c #CDC8C4",
"9 	c #9C9CBC",
"0 	c #8F8FE9",
"a 	c #9C9DB9",
"b 	c #D6CBC0",
"c 	c #FFFFF6",
"d 	c #FFFEF3",
"e 	c #FFFFF3",
"f 	c #FFFFF5",
"g 	c #FFFFF0",
"h 	c #A2A2C1",
"i 	c #8F8FC1",
"j 	c #9F9FE1",
"k 	c #A8A8E1",
"l 	c #D4C5B9",
"m 	c #FFF8D6",
"n 	c #FFF1D6",
"o 	c #FFF0D6",
"p 	c #FFF6D6",
"q 	c #FDEDCD",
"r 	c #AEADCA",
"s 	c #E0E0ED",
"t 	c #9F9FD6",
"u 	c #CBCAF0",
"v 	c #C0B8CD",
"w 	c #FFEDB8",
"x 	c #FFEFBB",
"y 	c #FFEEB9",
"z 	c #FFECBA",
"A 	c #FFF0BA",
"B 	c #C6B9BD",
"C 	c #C4C4E0",
"D 	c #2083DF",
"E 	c #9B9BD4",
"F 	c #009300",
"G 	c #009100",
"H 	c #008D00",
"I 	c #B7B4DA",
"J 	c #C5B2B2",
"K 	c #B3B0D9",
"L 	c #CDCDEB",
"M 	c #B4AABB",
"N 	c #A9A4C8",
"O 	c #F2F2FE",
"P 	c #4E9BE6",
"Q 	c #0376DC",
"R 	c #9C9CD2",
"S 	c #008F00",
"T 	c #91F75E",
"U 	c #008900",
"V 	c #B1B2E9",
"W 	c #E1E3F7",
"X 	c #CADCF3",
"Y 	c #F6F9FD",
"Z 	c #E3E4EF",
"` 	c #E7E7F2",
" .	c #71A6E3",
"..	c #016AD1",
"+.	c #0980E2",
"@.	c #008B00",
"#.	c #8DF35A",
"$.	c #008300",
"%.	c #008100",
"&.	c #007D00",
"*.	c #3268B6",
"=.	c #3972B3",
"-.	c #C6C6C7",
";.	c #7496BE",
">.	c #0A61C3",
",.	c #056BCF",
"'.	c #5FB0F1",
").	c #86EC53",
"!.	c #7BE148",
"~.	c #78DE45",
"{.	c #007800",
"].	c #F2F2FF",
"^.	c #4B75B0",
"/.	c #0046AB",
"(.	c #3B6EB9",
"_.	c #2165BB",
":.	c #045CC0",
"<.	c #97B9EB",
"[.	c #B7B7D2",
"}.	c #008700",
"|.	c #008500",
"1.	c #007A00",
"2.	c #007500",
"3.	c #007000",
"4.	c #E1E1FF",
"5.	c #8D8E91",
"6.	c #2E65B6",
"7.	c #0344A9",
"8.	c #014CB2",
"9.	c #3A6DB0",
"0.	c #D0D0E9",
"a.	c #AAAABF",
"b.	c #9898C9",
"c.	c #77DD44",
"d.	c #007200",
"e.	c #D9D9FF",
"f.	c #D2D2FF",
"g.	c #DBDBF5",
"h.	c #848484",
"i.	c #CFDCF1",
"j.	c #0543A8",
"k.	c #3A72C6",
"l.	c #7E7E7E",
"m.	c #B8B8C7",
"n.	c #B5B5B9",
"o.	c #8181BD",
"p.	c #006D00",
"q.	c #7A7AA9",
"r.	c #6E6E9A",
"s.	c #959595",
"t.	c #797979",
"u.	c #33599A",
"v.	c #70737A",
"w.	c #858585",
"                                ",
"          . + @ # $ %           ",
"        & * = - ; > , '         ",
"    ) ! # ~ { ] ^ / ( _ :       ",
"  < [ } | 1 2 3 4 5 6 7 8 9     ",
"  0 a b c d e e e e e f g h i   ",
"  j k l m n o o o o n p q r s   ",
"  t   u v w x y z x A B C   D   ",
"  E F G H I J K L M N O   P Q   ",
"  R S T U V W   X Y Z `  ...+.  ",
"G H @.#.$.%.&.  *.=.-.;.>.,.'.  ",
"H T #.).!.~.{.].^./.(._.:.<.[.  ",
"}.|.%.!.1.2.3.4.5.6.7.8.9.0.a.  ",
"  b.&.c.d.e.f.g.h.i.j.k.l.m.n.  ",
"  o.2.3.p.q.r.  s.t.u.v.w.      ",
"                                "};
