/* XPM */
static char * profil_delete_xpm[] = {
"16 16 163 2",
"  	c None",
". 	c #8888CD",
"+ 	c #8D8DE0",
"@ 	c #9E9EDD",
"# 	c #A3A3DF",
"$ 	c #9292D3",
"% 	c #8585D3",
"& 	c #A4A4FF",
"* 	c #A0A0E9",
"= 	c #C1C1EF",
"- 	c #CACAF4",
"; 	c #CECEFC",
"> 	c #D3D3FF",
", 	c #ABABE4",
"' 	c #9797D7",
") 	c #97978A",
"! 	c #9C9CF4",
"~ 	c #C1C1EA",
"{ 	c #C4C4F3",
"] 	c #C8C8F9",
"^ 	c #CCCCFF",
"/ 	c #CECEFF",
"( 	c #D1D2FF",
"_ 	c #B8B8F1",
": 	c #9999D7",
"< 	c #B4B4FD",
"[ 	c #9191DD",
"} 	c #C7BDB7",
"| 	c #CEC3BE",
"1 	c #CCC0BC",
"2 	c #CBBEBB",
"3 	c #CBC0BC",
"4 	c #CABFBB",
"5 	c #CAC2BD",
"6 	c #C9C0BD",
"7 	c #CBC2BF",
"8 	c #CDC8C4",
"9 	c #9C9CBC",
"0 	c #8F8FE9",
"a 	c #9C9DB9",
"b 	c #D6CBC0",
"c 	c #FFFFF6",
"d 	c #FFFEF3",
"e 	c #FFFFF3",
"f 	c #FFFFF5",
"g 	c #FFFFF0",
"h 	c #A2A2C1",
"i 	c #8F8FC1",
"j 	c #9F9FE1",
"k 	c #A8A8E1",
"l 	c #D4C5B9",
"m 	c #FFF8D6",
"n 	c #FFF1D6",
"o 	c #FFF0D7",
"p 	c #FFF0D6",
"q 	c #FFF6D6",
"r 	c #FDEDCD",
"s 	c #908FB7",
"t 	c #9696C5",
"u 	c #9F9FD6",
"v 	c #E5E4F7",
"w 	c #C0B8CD",
"x 	c #FFEFC1",
"y 	c #FFF7DF",
"z 	c #FFF4D0",
"A 	c #FFECBA",
"B 	c #FFEFBB",
"C 	c #FFF0BA",
"D 	c #C6B9BD",
"E 	c #C4C4E0",
"F 	c #2083DF",
"G 	c #ABABDB",
"H 	c #F1BDBD",
"I 	c #C44242",
"J 	c #D7BDCA",
"K 	c #BC3030",
"L 	c #E4B5BD",
"M 	c #CDCDEB",
"N 	c #B4AABB",
"O 	c #A9A4C8",
"P 	c #F2F2FE",
"Q 	c #4E9BE6",
"R 	c #0376DC",
"S 	c #D5D5EC",
"T 	c #C21E16",
"U 	c #FF6D39",
"V 	c #D2898B",
"W 	c #B33738",
"X 	c #FF6D2B",
"Y 	c #C02D2A",
"Z 	c #CADCF3",
"` 	c #F6F9FD",
" .	c #E3E4EF",
"..	c #E7E7F2",
"+.	c #71A6E3",
"@.	c #016AD1",
"#.	c #0980E2",
"$.	c #CDCDE7",
"%.	c #AF2D2D",
"&.	c #FF7D3F",
"*.	c #DD3F1C",
"=.	c #FF6129",
"-.	c #C52313",
";.	c #F3DFDF",
">.	c #3268B6",
",.	c #3972B3",
"'.	c #C6C6C7",
").	c #7496BE",
"!.	c #0A61C3",
"~.	c #056BCF",
"{.	c #5FB0F1",
"].	c #BFBFE0",
"^.	c #BF2210",
"/.	c #FF662D",
"(.	c #F4491C",
"_.	c #CC7778",
":.	c #F8F8FF",
"<.	c #4B75B0",
"[.	c #0046AB",
"}.	c #3B6EB9",
"|.	c #2165BB",
"1.	c #045CC0",
"2.	c #97B9EB",
"3.	c #B7B7D2",
"4.	c #D08692",
"5.	c #C62513",
"6.	c #FF672C",
"7.	c #FF5D25",
"8.	c #FF5B20",
"9.	c #BB2015",
"0.	c #E9D5DF",
"a.	c #8D8E91",
"b.	c #2E65B6",
"c.	c #0344A9",
"d.	c #014CB2",
"e.	c #3A6DB0",
"f.	c #D0D0E9",
"g.	c #AAAABF",
"h.	c #B4272A",
"i.	c #FF722C",
"j.	c #D43415",
"k.	c #C43521",
"l.	c #FF4E17",
"m.	c #FF5C15",
"n.	c #C23635",
"o.	c #848484",
"p.	c #CFDCF1",
"q.	c #0543A8",
"r.	c #3A72C6",
"s.	c #7E7E7E",
"t.	c #B8B8C7",
"u.	c #B5B5B9",
"v.	c #C64349",
"w.	c #AF140A",
"x.	c #C1818E",
"y.	c #B6292A",
"z.	c #BB2220",
"A.	c #DFB9BF",
"B.	c #959595",
"C.	c #797979",
"D.	c #33599A",
"E.	c #70737A",
"F.	c #858585",
"                                ",
"          . + @ # $ %           ",
"        & * = - ; > , '         ",
"    ) ! # ~ { ] ^ / ( _ :       ",
"  < [ } | 1 2 3 4 5 6 7 8 9     ",
"  0 a b c d e e e e e f g h i   ",
"  j k l m n o p p p n q r s t   ",
"  u   v w x y z A B C D E   F   ",
"  G H I   J K L M N O P   Q R   ",
"  S T U V W X Y Z `  ...+.@.#.  ",
"  $.%.&.*.=.-.;.>.,.'.).!.~.{.  ",
"  ].  ^./.(._.:.<.[.}.|.1.2.3.  ",
"  4.5.6.7.8.9.0.a.b.c.d.e.f.g.  ",
"  h.i.j.k.l.m.n.o.p.q.r.s.t.u.  ",
"  v.w.x.  y.z.A.B.C.D.E.F.      ",
"                                "};
