/* XPM */
static char * profil_mail_xpm[] = {
"16 16 155 2",
"  	c None",
". 	c #8888CD",
"+ 	c #8D8DE0",
"@ 	c #9E9EDD",
"# 	c #A3A3DF",
"$ 	c #9292D3",
"% 	c #8585D3",
"& 	c #A4A4FF",
"* 	c #A0A0E9",
"= 	c #C1C1EF",
"- 	c #CACAF4",
"; 	c #CECEFC",
"> 	c #D3D3FF",
", 	c #ABABE4",
"' 	c #9797D7",
") 	c #97978A",
"! 	c #9C9CF4",
"~ 	c #C1C1EA",
"{ 	c #C4C4F3",
"] 	c #C8C8F9",
"^ 	c #CCCCFF",
"/ 	c #CECEFF",
"( 	c #D1D2FF",
"_ 	c #B8B8F1",
": 	c #9999D7",
"< 	c #B4B4FD",
"[ 	c #9191DD",
"} 	c #C7BDB7",
"| 	c #CEC3BE",
"1 	c #CCC0BC",
"2 	c #CBBEBB",
"3 	c #CBC0BC",
"4 	c #CABFBB",
"5 	c #CAC2BD",
"6 	c #C9C0BD",
"7 	c #CBC2BF",
"8 	c #CDC8C4",
"9 	c #9C9CBC",
"0 	c #8F8FE9",
"a 	c #9C9DB9",
"b 	c #D6CBC0",
"c 	c #FFFFF6",
"d 	c #FFFEF3",
"e 	c #FFFFF3",
"f 	c #FFFFF5",
"g 	c #FFFFF0",
"h 	c #A2A2C1",
"i 	c #8F8FC1",
"j 	c #9F9FE1",
"k 	c #A8A8E1",
"l 	c #D4C5B9",
"m 	c #FFF8D6",
"n 	c #FFF1D6",
"o 	c #FFF0D6",
"p 	c #FFF6D6",
"q 	c #FDEDCD",
"r 	c #AEADCA",
"s 	c #E0E0ED",
"t 	c #9F9FD6",
"u 	c #CBCAF0",
"v 	c #C0B8CD",
"w 	c #FFEDB8",
"x 	c #FFEFBB",
"y 	c #FFEEB9",
"z 	c #FFECBA",
"A 	c #FFF0BA",
"B 	c #C6B9BD",
"C 	c #C4C4E0",
"D 	c #2083DF",
"E 	c #9B9BD4",
"F 	c #F5F7FF",
"G 	c #B7B4DA",
"H 	c #C5B2B2",
"I 	c #C3C0E1",
"J 	c #CDCDEB",
"K 	c #B4AABB",
"L 	c #A9A4C8",
"M 	c #F2F2FE",
"N 	c #4E9BE6",
"O 	c #0376DC",
"P 	c #9C9CD2",
"Q 	c #F4F4FF",
"R 	c #EFEFFF",
"S 	c #B1B2E9",
"T 	c #E1E3F7",
"U 	c #CADCF3",
"V 	c #F6F9FD",
"W 	c #E3E4EF",
"X 	c #E7E7F2",
"Y 	c #71A6E3",
"Z 	c #016AD1",
"` 	c #0980E2",
" .	c #9B9BD0",
"..	c #E9E9FF",
"+.	c #A7A7E3",
"@.	c #EFEFF6",
"#.	c #3268B6",
"$.	c #3972B3",
"%.	c #C6C6C7",
"&.	c #7496BE",
"*.	c #0A61C3",
"=.	c #056BCF",
"-.	c #5FB0F1",
";.	c #9A9ACE",
">.	c #F8F8FF",
",.	c #B2B2E8",
"'.	c #E0E0F3",
").	c #F5F5FF",
"!.	c #FAFAFF",
"~.	c #4B75B0",
"{.	c #0046AB",
"].	c #3B6EB9",
"^.	c #2165BB",
"/.	c #045CC0",
"(.	c #97B9EB",
"_.	c #B7B7D2",
":.	c #9B9BCD",
"<.	c #C7C5E6",
"[.	c #BDBCE4",
"}.	c #ECECFF",
"|.	c #E4E4FF",
"1.	c #E0E0FF",
"2.	c #F3F3FF",
"3.	c #8D8E91",
"4.	c #2E65B6",
"5.	c #0344A9",
"6.	c #014CB2",
"7.	c #3A6DB0",
"8.	c #D0D0E9",
"9.	c #AAAABF",
"0.	c #9898C9",
"a.	c #ACABDB",
"b.	c #E2E2FF",
"c.	c #DADAFF",
"d.	c #D9D9FF",
"e.	c #D2D2FF",
"f.	c #DBDBF5",
"g.	c #848484",
"h.	c #CFDCF1",
"i.	c #0543A8",
"j.	c #3A72C6",
"k.	c #7E7E7E",
"l.	c #B8B8C7",
"m.	c #B5B5B9",
"n.	c #8181BD",
"o.	c #9393CC",
"p.	c #8E8EC7",
"q.	c #8989BF",
"r.	c #7A7AA9",
"s.	c #6E6E9A",
"t.	c #959595",
"u.	c #797979",
"v.	c #33599A",
"w.	c #70737A",
"x.	c #858585",
"                                ",
"          . + @ # $ %           ",
"        & * = - ; > , '         ",
"    ) ! # ~ { ] ^ / ( _ :       ",
"  < [ } | 1 2 3 4 5 6 7 8 9     ",
"  0 a b c d e e e e e f g h i   ",
"  j k l m n o o o o n p q r s   ",
"  t   u v w x y z x A B C   D   ",
"  E     F G H I J K L M   N O   ",
"  P   Q R S T   U V W X Y Z `   ",
"   .  ..+.@.    #.$.%.&.*.=.-.  ",
"  ;.>.,.'.  ).!.~.{.].^./.(._.  ",
"  :.<.[.}.|.1.2.3.4.5.6.7.8.9.  ",
"  0.a.b.c.d.e.f.g.h.i.j.k.l.m.  ",
"  n.o.p.q.r.s.  t.u.v.w.x.      ",
"                                "};
