/* XPM */
static char * profil_edit_xpm[] = {
"16 16 171 2",
"  	c None",
". 	c #8888CD",
"+ 	c #8D8DE0",
"@ 	c #9E9EDD",
"# 	c #A3A3DF",
"$ 	c #9292D3",
"% 	c #8585D3",
"& 	c #A4A4FF",
"* 	c #A0A0E9",
"= 	c #C1C1EF",
"- 	c #CACAF4",
"; 	c #CECEFC",
"> 	c #D3D3FF",
", 	c #ABABE4",
"' 	c #9797D7",
") 	c #97978A",
"! 	c #9C9CF4",
"~ 	c #C1C1EA",
"{ 	c #C4C4F3",
"] 	c #C8C8F9",
"^ 	c #CCCCFF",
"/ 	c #CECEFF",
"( 	c #D1D2FF",
"_ 	c #B8B8F1",
": 	c #9999D7",
"< 	c #B4B4FD",
"[ 	c #9191DD",
"} 	c #C7BDB7",
"| 	c #CEC3BE",
"1 	c #CCC0BC",
"2 	c #CBBEBB",
"3 	c #CBC0BC",
"4 	c #CABFBB",
"5 	c #CAC2BD",
"6 	c #C9C0BD",
"7 	c #CBC2BF",
"8 	c #CDC8C4",
"9 	c #9C9CBC",
"0 	c #8F8FE9",
"a 	c #9C9DB9",
"b 	c #D6CBC0",
"c 	c #FFFFF6",
"d 	c #FFFEF3",
"e 	c #FFFFF3",
"f 	c #FFFFF5",
"g 	c #FFFFF0",
"h 	c #A2A2C1",
"i 	c #8F8FC1",
"j 	c #E0431E",
"k 	c #D43518",
"l 	c #BA2D24",
"m 	c #9A575D",
"n 	c #FFF8D6",
"o 	c #FFF1D6",
"p 	c #FFF0D6",
"q 	c #FFF6D6",
"r 	c #FDEDCD",
"s 	c #AEADCA",
"t 	c #E0E0ED",
"u 	c #E34621",
"v 	c #FBD2D0",
"w 	c #CAF8C9",
"x 	c #8BD477",
"y 	c #77B865",
"z 	c #FFEDB8",
"A 	c #FFEFBB",
"B 	c #FFEEB9",
"C 	c #FFECBA",
"D 	c #FFF0BA",
"E 	c #C6B9BD",
"F 	c #C4C4E0",
"G 	c #2083DF",
"H 	c #D83F23",
"I 	c #AED3B8",
"J 	c #84FB52",
"K 	c #8DFB5D",
"L 	c #72E74B",
"M 	c #5DC53B",
"N 	c #C5B2B2",
"O 	c #C3C0E1",
"P 	c #CDCDEB",
"Q 	c #B4AABB",
"R 	c #A9A4C8",
"S 	c #F2F2FE",
"T 	c #4E9BE6",
"U 	c #0376DC",
"V 	c #B53A2B",
"W 	c #628F5F",
"X 	c #69E745",
"Y 	c #89F55C",
"Z 	c #92FB62",
"` 	c #78EB51",
" .	c #5ACB38",
"..	c #8FCF7D",
"+.	c #CADCF3",
"@.	c #F6F9FD",
"#.	c #E3E4EF",
"$.	c #E7E7F2",
"%.	c #71A6E3",
"&.	c #016AD1",
"*.	c #0980E2",
"=.	c #478639",
"-.	c #45C02B",
";.	c #67E045",
">.	c #84F158",
",.	c #94FC63",
"'.	c #7CEE53",
").	c #5AD53B",
"!.	c #5FBD4C",
"~.	c #3972B3",
"{.	c #C6C6C7",
"].	c #7496BE",
"^.	c #0A61C3",
"/.	c #056BCF",
"(.	c #5FB0F1",
"_.	c #9A9ACE",
":.	c #31A118",
"<.	c #3FBA28",
"[.	c #63DE43",
"}.	c #7FEF55",
"|.	c #8DFE5F",
"1.	c #BCE276",
"2.	c #E1D487",
"3.	c #D3AC6A",
"4.	c #3B6EB9",
"5.	c #2165BB",
"6.	c #045CC0",
"7.	c #97B9EB",
"8.	c #B7B7D2",
"9.	c #9B9BCD",
"0.	c #C7C5E6",
"a.	c #2C9C17",
"b.	c #35B422",
"c.	c #5DDE40",
"d.	c #A5C85E",
"e.	c #FFCE99",
"f.	c #FFDB9F",
"g.	c #FFBB80",
"h.	c #DABABA",
"i.	c #014CB2",
"j.	c #3A6DB0",
"k.	c #D0D0E9",
"l.	c #AAAABF",
"m.	c #9898C9",
"n.	c #ACABDB",
"o.	c #E2E2FF",
"p.	c #289514",
"q.	c #1CAB14",
"r.	c #E8AA70",
"s.	c #FFC187",
"t.	c #EAC390",
"u.	c #AFA092",
"v.	c #A39293",
"w.	c #7E7E7E",
"x.	c #B8B8C7",
"y.	c #B5B5B9",
"z.	c #8181BD",
"A.	c #9393CC",
"B.	c #8E8EC7",
"C.	c #008F00",
"D.	c #1A8C0F",
"E.	c #C69351",
"F.	c #FFAD75",
"G.	c #786960",
"H.	c #7A7D7F",
"I.	c #363738",
"J.	c #858585",
"K.	c #008A00",
"L.	c #D45F31",
"M.	c #D26732",
"N.	c #4D3C33",
"                                ",
"          . + @ # $ %           ",
"        & * = - ; > , '         ",
"    ) ! # ~ { ] ^ / ( _ :       ",
"  < [ } | 1 2 3 4 5 6 7 8 9     ",
"  0 a b c d e e e e e f g h i   ",
"j k l m n o p p p p o q r s t   ",
"u v w x y z A B C A D E F   G   ",
"H I J K L M N O P Q R S   T U   ",
"V W X Y Z `  ...+.@.#.$.%.&.*.  ",
"  =.-.;.>.,.'.).!.~.{.].^./.(.  ",
"  _.:.<.[.}.|.1.2.3.4.5.6.7.8.  ",
"  9.0.a.b.c.d.e.f.g.h.i.j.k.l.  ",
"  m.n.o.p.q.r.s.t.u.v.8.w.x.y.  ",
"  z.A.B.C.D.E.F.G.H.I.8.J.      ",
"          K.L.M.N.I.I.          "};
