/* XPM */
static char * profils_xpm[] = {
"16 16 153 2",
"  	c None",
". 	c #D7D7E3",
"+ 	c #A4A4C6",
"@ 	c #9F9FC6",
"# 	c #9B9BC4",
"$ 	c #9494C0",
"% 	c #8E8EBC",
"& 	c #8A8AB5",
"* 	c #8B8BB2",
"= 	c #8D8DB0",
"- 	c #C7C7D3",
"; 	c #A8A8CF",
"> 	c #F1F1FF",
", 	c #E8E8FF",
"' 	c #E0E0FB",
") 	c #DADAF9",
"! 	c #D5D5F7",
"~ 	c #C4C4E9",
"{ 	c #ACACD7",
"] 	c #555585",
"^ 	c #A6A6D3",
"/ 	c #DBDBFF",
"( 	c #CACAF0",
"_ 	c #B7B7E3",
": 	c #B4B4E1",
"< 	c #A3A3D2",
"[ 	c #8F8FBE",
"} 	c #7E7EAE",
"| 	c #4F4F83",
"1 	c #404071",
"2 	c #DEDEFF",
"3 	c #C0C0ED",
"4 	c #A6A6DB",
"5 	c #A5A5D8",
"6 	c #9696CA",
"7 	c #8686BA",
"8 	c #7575A8",
"9 	c #555587",
"0 	c #464674",
"a 	c #9596F3",
"b 	c #787995",
"c 	c #CBD8F3",
"d 	c #DADAF0",
"e 	c #D2D2EA",
"f 	c #CBCBE8",
"g 	c #B5B5DB",
"h 	c #A2A2CF",
"i 	c #8B8BBD",
"j 	c #7777AA",
"k 	c #474779",
"l 	c #A6A6FF",
"m 	c #9A9AEA",
"n 	c #B8B8ED",
"o 	c #C6C6F7",
"p 	c #D0D0FF",
"q 	c #8E95DA",
"r 	c #A5A5D9",
"s 	c #9797CA",
"t 	c #8787BA",
"u 	c #545487",
"v 	c #3C3C6C",
"w 	c #9A9AFF",
"x 	c #A1A0B0",
"y 	c #D0D0CA",
"z 	c #C8C9C6",
"A 	c #C5C5C6",
"B 	c #C3C4C6",
"C 	c #C4C5C9",
"D 	c #C8C7CD",
"E 	c #8E94B0",
"F 	c #8484B7",
"G 	c #7171A4",
"H 	c #4B4B7D",
"I 	c #9091E7",
"J 	c #B0AAA8",
"K 	c #FFFFEB",
"L 	c #FFFEE9",
"M 	c #FFFDE9",
"N 	c #FFFFED",
"O 	c #C6C1B5",
"P 	c #8280B5",
"Q 	c #A4A4D1",
"R 	c #8E8EC1",
"S 	c #565689",
"T 	c #393969",
"U 	c #A0A0E9",
"V 	c #D4D4F9",
"W 	c #CFC3CE",
"X 	c #FFF0BC",
"Y 	c #FFEDBE",
"Z 	c #FFEABE",
"` 	c #FFF3BD",
" .	c #CFC1BF",
"..	c #BEBEDD",
"+.	c #9192C2",
"@.	c #8484B8",
"#.	c #7171A5",
"$.	c #5E5E91",
"%.	c #4D4D7E",
"&.	c #9FA0E8",
"*.	c #EDEFFF",
"=.	c #A39FCD",
"-.	c #BABAE1",
";.	c #C2C5E8",
">.	c #8E8BB8",
",.	c #E9EBFD",
"'.	c #A1A1D0",
").	c #8F8FBF",
"!.	c #7F7FB2",
"~.	c #6D6DA0",
"{.	c #3B3B6B",
"].	c #9F9FE5",
"^.	c #FAFAFF",
"/.	c #B9B9ED",
"(.	c #DBDCF1",
"_.	c #B1B1D0",
":.	c #C1C1EC",
"<.	c #9F9FC0",
"[.	c #E3E3FF",
"}.	c #A4A4D3",
"|.	c #9595C4",
"1.	c #7A7AAD",
"2.	c #4C4C80",
"3.	c #8484A5",
"4.	c #9D9DE5",
"5.	c #CACAF2",
"6.	c #CFCFEC",
"7.	c #F2F2FF",
"8.	c #EFEFFF",
"9.	c #EEEEFF",
"0.	c #F3F3FF",
"a.	c #9B9BBE",
"b.	c #71719E",
"c.	c #707095",
"d.	c #A7A7BC",
"e.	c #9898E3",
"f.	c #B7B7E8",
"g.	c #EAEAFF",
"h.	c #E2E2FF",
"i.	c #CFCFFC",
"j.	c #BCBCFA",
"k.	c #B1B2F2",
"l.	c #A8A9E7",
"m.	c #A2A2DD",
"n.	c #8483BE",
"o.	c #9595DE",
"p.	c #908FDA",
"q.	c #8C8CD7",
"r.	c #8686CD",
"s.	c #8888D4",
"t.	c #656582",
"u.	c #6C6C7C",
"v.	c #696985",
"                                ",
"          . + @ # $ % & * = -   ",
"          ;   > , ' ) ! ~ { ]   ",
"          ^ / ( _ : < [ } | 1   ",
"          ! 2 3 4 5 6 7 8 9 0   ",
"      a b b c d e f g h i j k   ",
"  l m n o p b q c r s t 8 u v   ",
"w x y z A B C D E c s F G 8 H   ",
"I J K L M M L N O P c Q R S T   ",
"U V W X Y Z `  ...+.g @.#.$.%.  ",
"&.  *.=.-.;.>.,.g b '.).!.~.{.  ",
"].^./.(.  _.:.<.[.b }.|.1.2.3.  ",
"4.5.6.  7.8.9.0.a.b g b.c.d.    ",
"e.f.g.h.i.j.k.l.m.b             ",
"n.o.p.q.r.s.t.u.v.              ",
"                                "};
