/* XPM */
char *protocols_xpm[] = {
"16 16 58 3",
"000 c #404050",
"001 c None",
"002 c #8080B8",
"003 c #E0E0F8",
"004 c #7070A8",
"005 c gray88",
"006 c #A8A8D0",
"007 c #383868",
"008 c #C8C8F0",
"009 c #A0A0D0",
"010 c #8080A8",
"011 c #F0F0F8",
"012 c #C0C0E8",
"013 c gray19",
"014 c #8888B8",
"015 c #606098",
"016 c #D0D0E8",
"017 c #A0A0C8",
"018 c #484878",
"019 c #C0C0E0",
"020 c #9090C8",
"021 c #7070A0",
"022 c #E8E8F8",
"023 c #B0B0D8",
"024 c #484868",
"025 c #A0A0D8",
"026 c #6868A0",
"027 c #B0B0E0",
"028 c #303068",
"029 c #D0D0F0",
"030 c #8888A8",
"031 c #B8B8E8",
"032 c #8888C0",
"033 c #505088",
"034 c #9898C0",
"035 c #505080",
"036 c #C8C8E8",
"037 c #9898C8",
"038 c #8080B0",
"039 c #D8D8F8",
"040 c #404070",
"041 c #484880",
"042 c #686890",
"043 c #8888B0",
"044 c #D8D8F0",
"045 c #A8A8D8",
"046 c #606060",
"047 c #C8C8E0",
"048 c #686898",
"049 c #303060",
"050 c #7878A8",
"051 c #606090",
"052 c #505070",
"053 c #9090C0",
"054 c #404058",
"055 c #404078",
"056 c #7878B0",
"057 c #585890",
"001001001014010009034020014014014014030001001001",
"001001001009001011022003039016012006018001001001",
"001001001009039008023023009014050018007001001001",
"001001001009039012009009020002004033040001001001",
"001001001009022039016008023009014004040001001001",
"001001001034039012006009020002004033007001001001",
"001001001009003023009009020002004004040001001001",
"001001001034003039036012023009014033028001001001",
"001001001009039031009009020002004057018001001001",
"001001001034022008023006009014050026028001001001",
"001001001002012008023023009020050018052001001001",
"001001001001004004050050004015007028001001001001",
"001001001001001001001005013001001001001001001001",
"001001001001001026015015015042042001001001001001",
"001001001046013015016023023009000013013001001001",
"001001001013013052024024024024000013013001001001"
};
