/* XPM */
char * querypreview_xpm[] = {
"16 16 82 1",
" 	c None",
".	c #0099FF",
"+	c #99CCFF",
"@	c #3DADFF",
"#	c #0085EB",
"$	c #0091F7",
"%	c #DBDBDB",
"&	c #FFFFFF",
"*	c #EAEAEC",
"=	c #F8F8FF",
"-	c #CECEDB",
";	c #EAEAFF",
">	c #C5C5DB",
",	c #E0E0FF",
"'	c #BCBCDB",
")	c #D6D6FF",
"!	c #ECECEC",
"~	c #449142",
"{	c #459143",
"]	c #B2CEB2",
"^	c #E5E5EC",
"/	c #C9C9DB",
"(	c #C0C0DB",
"_	c #B8B8DB",
":	c #EDEDED",
"<	c #3B8C38",
"[	c #9FD291",
"}	c #74B56D",
"|	c #6CAD6C",
"1	c #F4F4FF",
"2	c #CDCDE0",
"3	c #32862E",
"4	c #95CD83",
"5	c #7DC761",
"6	c #55BC28",
"7	c #4AA43F",
"8	c #A2C6AA",
"9	c #C9C9E0",
"0	c #D8D8DB",
"a	c #FBFBFF",
"b	c #EBEBED",
"c	c #30882D",
"d	c #6BC14A",
"e	c #56BF27",
"f	c #6BD035",
"g	c #8BED4F",
"h	c #3FA22E",
"i	c #EEEEFF",
"j	c #BABADB",
"k	c #D4D4FF",
"l	c #D2D2DB",
"m	c #E8E8ED",
"n	c #308A2B",
"o	c #72CA46",
"p	c #6ED433",
"q	c #84E94D",
"r	c #45AD37",
"s	c #9DC6A6",
"t	c #C7C7E0",
"u	c #B9B9DB",
"v	c #B4B4DB",
"w	c #F0F0FF",
"x	c #E6E6ED",
"y	c #348F2F",
"z	c #94E960",
"A	c #5BC33B",
"B	c #54A653",
"C	c #D9D9FF",
"D	c #D1D1FF",
"E	c #E2E2EC",
"F	c #358E33",
"G	c #379033",
"H	c #94C099",
"I	c #DCDCEB",
"J	c #BFBFDB",
"K	c #B2B2DB",
"L	c #E5E5FF",
"M	c #F1F1FF",
"N	c #DFDFEC",
"O	c #E7E7FF",
"P	c #DBDBFF",
"Q	c #CCCCFF",
"                ",
"  ............  ",
" .+++++++++++@. ",
" .+##########$. ",
" .@............ ",
" .%&%&*=-;>,'). ",
" .%%!~{]^/>('_. ",
" .%&:<[}|12,'). ",
" .%%:3456789'_. ",
" .0abcdefghijk. ",
" .llmnopqrstuv. ",
" .-wxyzABw9C_D. ",
" .//EFGHIJ'_vK. ",
" .>L>MNOJPukKQ. ",
"  ............  ",
"                "};
