/* XPM */
char *question_xpm[] = {
/* columns rows colors chars-per-pixel */
"32 32 620 2",
"   c none",
"c  c #CED5DB",
"wX c #CBD4DC",
"~o c #AAC3DB",
"1@ c #797877",
">  c #E0E4E7",
"7@ c #95BCE3",
"N+ c #9EC2E6",
"$  c #E9EAEB",
"++ c #A4C7E9",
"0  c #E0E7ED",
"8+ c #89B2E8",
"So c #707882",
"n  c #F2F3F5",
"Lo c #B3CFF2",
"!+ c #A7CEF4",
"J. c #E9F0F8",
"2  c #F8F8F9",
"M+ c #AACFF5",
"N  c #EFF5FA",
"<@ c #97948F",
"B. c #EFFBFF",
"dX c #ECFAFF",
"V. c #FBFFFF",
">. c #F2F9FF",
"U. c #ECF7FF",
":. c #F5FAFF",
"N. c #E3F1FF",
"HX c #E0F0FF",
"WX c #DAEEFF",
"~X c #D7EDFF",
"`O c #BFDFFE",
"IO c #B6D9FD",
":O c #CBE6FF",
"*o c #D1E8FF",
"to c #CEE7FF",
".+ c #B9DDFF",
"jO c #BCDEFF",
"6O c #BFDFFF",
"J+ c #A0A09D",
"%. c #A3A19D",
"i@ c #A9A69F",
"BX c #A9A6A1",
"NX c #919BA4",
"SO c #345899",
"f+ c #6D89A5",
",X c #284E99",
")X c #91A1AB",
"nO c #C4C1B9",
"}  c #2B55A8",
"y. c #9AAAB9",
"P+ c #7F9BB8",
",@ c #CAC6BF",
"I+ c #85A0BB",
"h+ c #8EA6C0",
"/+ c #82A2C1",
"z  c #D3CFC7",
"z. c #708ABC",
"D@ c #4E565D",
"0O c #8EACC8",
"*  c #CACCCC",
"U  c #7993C3",
"@@ c #8BAED0",
"8X c #A9BED2",
"ho c #B8C6D5",
"(X c #ACC2D5",
"!. c #9AB0D2",
"dO c #00155B",
"aO c #001B5D",
"9O c #A0BBD7",
",+ c #A0BBD8",
".X c #D0D7DD",
"S  c #D0D7DF",
":@ c #7E7B76",
"D  c #E2E3E4",
"Zo c #B2CAE2",
"2@ c #697178",
".. c #0F2C6D",
"2. c #001266",
"mX c #C1D5E9",
"W  c #DFE5ED",
"c. c #001B6E",
"UO c #A9CAEC",
">X c #002172",
"4@ c #667684",
"u+ c #516982",
"@. c #DFE8F3",
"r. c #D9E6F3",
"GO c #002176",
"8. c #002478",
"Co c #C1DBF6",
"v+ c #ACD1F6",
"Y. c #E2ECF9",
"OO c #BBD9F8",
"h. c #E8F1FB",
"+. c #F1F7FC",
"e. c #EBF5FC",
";X c #F4FEFF",
"_  c #FAFDFF",
"9X c #909091",
"O. c #F1FAFF",
"/. c #00247D",
" @ c #5D768F",
"K+ c #6C7E90",
"1O c #BEDDFC",
"%X c #E8F4FF",
"uX c #E5F3FF",
"ko c #D9ECFE",
"P. c #EEF6FF",
"iO c #CAE7FF",
"{o c #CDE8FF",
"S. c #848C93",
"{X c #DFEEFF",
"5o c #DCEDFF",
"xX c #D9ECFF",
"7o c #D6EBFF",
"ZO c #C4E2FF",
"]o c #CDE5FF",
"Ro c #C7E3FF",
"No c #CAE4FF",
"[  c #002781",
"l. c #002480",
"LO c #BBDCFF",
"}. c #A29F9B",
"n@ c #ABA8A2",
"do c #8793A0",
"R. c #002D8F",
"n. c #305296",
"QO c #B4B1AA",
"^. c #003094",
"q@ c #474643",
"A+ c #668BAD",
"i+ c #4A4A48",
"MO c #819AB4",
"vO c #47494B",
"l@ c #C3C2BE",
"NO c #96AABD",
"*O c #93A9BE",
"z@ c #789DC0",
"y+ c #789ABF",
"x  c #D2D0CA",
"6@ c #81A3C5",
"=  c #CFCFCB",
"C+ c #8AA9C7",
"#+ c #8DAAC7",
"b@ c #53595F",
"xO c #93AFCA",
"S+ c #475867",
" X c #BDCCD6",
"Do c #747371",
"&  c #CFD8E0",
"TX c #396ACE",
")O c #ABC6E1",
"Io c #8AACDE",
"t  c #DEE3E7",
"v  c #E4E5E7",
"F+ c #83817C",
"/X c #BDD2E7",
"j  c #DBE2EA",
"t. c #D2DFEA",
"W+ c #9FC2E7",
"x+ c #A8CBED",
"ZX c #D8E4F0",
"_X c #898986",
"j. c #143578",
"4. c #CCDAF0",
"8  c #F3F3F4",
"4  c #F9FBFB",
"5  c #F9FBFC",
";o c #CCE3F9",
"oX c #EDF7FC",
"CO c #C0DCF9",
"m. c #DEECFB",
"d  c #F9FBFD",
"*+ c #9B9892",
" + c #AED3F9",
"o. c #F3FCFF",
"aX c #C6DBF9",
"2+ c #B7D9FB",
",. c #F3F9FF",
"g. c #F0F8FF",
"L. c #EDF7FF",
"PX c #E4F4FF",
"Xo c #E1F3FF",
"b+ c #AED3FB",
"4o c #DEEFFF",
"$o c #D8EDFF",
"-o c #D2EBFF",
"rX c #E7F2FF",
"[X c #E1F0FF",
"AO c #C3E3FF",
"&o c #D2E8FF",
"ro c #CFE7FF",
"uo c #CCE6FF",
"n+ c #B4DBFF",
"PO c #BADDFF",
"hO c #BDDEFF",
"2O c #C3E0FF",
">@ c #AAA6A0",
"G@ c #5F7E9C",
"u. c #B3AFA9",
"-+ c #929EA8",
"#O c #748BA5",
"u@ c #BCB8B1",
"-@ c #404244",
"G+ c #BFBCB4",
"]  c #5C77AA",
"g+ c #809BB5",
"&+ c #4F4D4B",
"Po c #204EA6",
"k@ c #C8C5BD",
"/O c #92A7BC",
"Z+ c #7D9DBC",
"|. c #CECAC3",
"x. c #8095BD",
"Y+ c #83A5C5",
"WO c #615F5C",
".  c #D4D2CC",
"V@ c #4F565D",
"T+ c #86A9CB",
"$O c #616262",
"BO c #A1B8CE",
"tO c #A4B9CE",
"@O c #9EB7CF",
"R+ c #8CAECF",
"q  c #CBCFD3",
"Y  c #9EAECD",
"f@ c #7DA6CF",
"V+ c #8FAFD0",
"r+ c #92B3D1",
"YO c #9BB9D8",
"=X c #3E6DC9",
"7X c #B3C7DA",
"~+ c #98BBE0",
"+O c #AAC7E3",
"(o c #85837E",
"L  c #C8D4E9",
"y  c #ECECED",
"#. c #DAE3EC",
"8@ c #9BC2EA",
"w+ c #A4C8EC",
"]X c #D4E1EF",
"i  c #F5F5F6",
"g  c #EFF3F6",
"B  c #E9EEF5",
"1+ c #B3D3F3",
"=@ c #4F6B87",
"pX c #BFD4F3",
"EX c #C5DCF6",
"uO c #C5DFF8",
"po c #C8E0F9",
"K. c #F8FFFF",
"m  c #FEFEFF",
";. c #FBFDFF",
"sX c #DDEDFD",
"7O c #BCDCFC",
"#X c #E9F4FF",
"tX c #E6F3FF",
"4X c #DDF0FF",
"3+ c #B9DBFD",
"Qo c #C5E2FE",
"zo c #D4EAFF",
"io c #CEE8FF",
".o c #DAECFF",
"vX c #D7EBFF",
"9+ c #B9DEFF",
"3O c #C2E1FF",
" O c #C5E2FF",
"To c #C8E3FF",
"Mo c #CBE4FF",
"o+ c #B6DAFF",
"@o c #8FB5F7",
"d+ c #919699",
"J@ c #A6A39D",
"(. c #224792",
"K@ c #BEBAB3",
"m@ c #ACB1B3",
"y@ c #C7C3BB",
"X@ c #7696B5",
"[O c #436AAC",
"o@ c #7997B7",
"O@ c #7997B8",
"eO c #94A9BE",
"&@ c #7699BD",
"'+ c #5A5855",
"U+ c #85A1BE",
"-  c #D0CCC4",
"&O c #BEC3C5",
"Fo c #9DB2C5",
"H@ c #54595B",
";  c #D3D0CA",
"i. c #D0CFCB",
">+ c #97B0C9",
"=O c #A6B8CA",
"k  c #BEC6CD",
"qX c #B8C4CF",
"(O c #9DB5CE",
"x@ c #85AAD0",
"oo c #85A1CF",
"%@ c #8BAFD4",
":  c #D9DBDC",
"G. c #D0D5DB",
"E+ c #94B5D8",
"o  c #D0D8DD",
"N@ c #8BB2D9",
"A. c #BBCEDE",
"e@ c #7E7C77",
"e+ c #9ABDDF",
":o c #B8D0E5",
"9. c #001C69",
"ao c #B5CCE5",
"DO c #001F6C",
"F  c #E8E9EB",
"(  c #E5E8EB",
"lO c #ACCCEB",
"Z. c #D3DFED",
"bO c #8D8A85",
"'o c #C4DAEF",
"~. c #002574",
"eX c #DCE5F1",
"T. c #032977",
"_O c #B8D6F3",
"). c #CADCF4",
"'  c #EBF0F8",
"|  c #001C76",
"HO c #09317D",
"C. c #DFECF9",
"^X c #D0E7F9",
"nX c #D6E9FA",
"d. c #F7FAFD",
"8o c #D6ECFD",
")  c #FDFFFF",
"M. c #E8F5FF",
"LX c #E5F4FF",
"wo c #D6ECFE",
"DX c #E2F0FF",
"JX c #DFEFFF",
"2X c #DCEEFF",
"xo c #D6ECFF",
"]O c #C1E2FF",
"%O c #9F9C96",
"Vo c #CAE5FF",
"yo c #CDE6FF",
"%o c #D3E8FF",
"=o c #D0E7FF",
".O c #C4E0FF",
"Oo c #001F7F",
"FO c #002B87",
"E. c #002888",
"r@ c #AEAAA4",
"jX c #063394",
"v. c #003194",
"0o c #0C3B9C",
"[+ c #C3C0B8",
"{O c #0F3FA1",
"1. c #6981AE",
"M@ c #6990B6",
"s+ c #C9C5BE",
"*X c #2452AB",
":+ c #8DA5BC",
"(+ c #7E9DBD",
"$+ c #7B9CBD",
"+@ c #7E9DBE",
"^o c #8DA8C0",
"!O c #D2CEC6",
"a@ c #81A4C4",
"g@ c #53575B",
"t+ c #8AA7C5",
"go c #A8B7C9",
"VX c #B7C2CC",
"0. c #87A0C8",
"9@ c #84A8CC",
":X c #8DA5CA",
"wO c #6E6C69",
"[. c #AEC2D6",
"`o c #B1C3D7",
"3@ c #626B74",
">O c #90AFDB",
"-O c #B4CAE0",
"=. c #E1E5E9",
"c@ c #96C0E9",
"#@ c #9CC2E9",
"XX c #DBE3ED",
"$@ c #9CC2EA",
"T  c #DBE3EF",
"h  c #EAEEF2",
"9  c #EDEFF2",
"E  c #E4ECF4",
"IX c #C9DDF3",
"p  c #F9F9FA",
"JO c #A8CCF5",
"#o c #C9E0FA",
"lX c #E4F5FF",
"`  c #F6FBFF",
"yX c #E4F2FF",
"KX c #E1F1FF",
"Ko c #D2E9FF",
"3X c #DBECFF",
"cX c #D8EBFF",
"QX c #D5EAFF",
"5O c #C0E0FF",
"XO c #C3E1FF",
"Eo c #C6E2FF",
"Yo c #C9E3FF",
"UX c #1A3E88",
"p@ c #8C97A2",
"|O c #1D489A",
"0X c #BFBDB5",
"5+ c #3258A5",
"fX c #5F7CAC",
"D. c #C2BEB7",
";+ c #7A97B3",
"mO c #BCBCB9",
"H+ c #CBC7BF",
"{. c #9BAEBF",
")o c #AAB9C6",
"I  c #718EC5",
"C  c #B9C7D2",
"&. c #CBD0D4",
"B@ c #71A0CF",
"v@ c #74A1CF",
"P  c #8099CB",
"r  c #D4D6D6",
"'X c #BFCCD8",
"p. c #C8D2DA",
">o c #B0C4D9",
"zO c #9EBBD9",
"B+ c #95B8DB",
"a. c #DADEE1",
"fo c #737574",
"VO c #B0CAE3",
"|+ c #5E6B79",
"H. c #DAE1E8",
"<+ c #AAC8E7",
"p+ c #888580",
",  c #ECEDEE",
"!o c #B6D2ED",
"}+ c #888886",
"]. c #D1E1F2",
"_+ c #526D86",
"-. c #ECF0F6",
"7  c #F5F6F8",
"G  c #F2F5F8",
"c+ c #B0D3F5",
"6  c #F8FAFB",
"q+ c #ADD2F7",
"Q+ c #AAD1F8",
"'. c #E9F8FE",
"bX c #E0F5FF",
"iX c #DDEBFC",
"J  c #FEFFFF",
"Uo c #D7EFFF",
"1X c #E3F3FF",
"I. c #ECF6FF",
"w. c #E9F5FF",
"kO c #B9DCFD",
"}o c #BFDBFC",
"_. c #E0EFFF",
"|X c #DDEEFF",
"zX c #DAEDFF",
"KO c #BFE1FF",
"|o c #C5E3FF",
"mo c #CBE5FF",
"F@ c #949BA0",
"!  c #A6AAA9",
"{+ c #B5B2AB",
".@ c #6D8BA8",
"hX c #07399B",
"9o c #1F4A9F",
"W. c #3A5FA6",
"fO c #496DAB",
"~  c #CDC9C1",
"`+ c #454C52",
"=+ c #CDC9C2",
"A@ c #6A96C1",
",O c #6A8ABF",
"`X c #B8C2CC",
"X  c #D3D4D1",
"MX c #A9BDD0",
"sO c #001757",
"+o c #3162C2",
"so c #ACC1D5",
"pO c #7FA0D0",
"CX c #C4CFD9",
"@+ c #97B7D7",
"^  c #CDD5DB",
" . c #00175F",
"l+ c #9DBCDC",
"/  c #DFE1E3",
"Ho c #BED0E3",
"@  c #EBEBEA",
"#  c #EBEBEB",
"jo c #CADAEC",
"<  c #F1F0EF",
"V  c #E2E8EE",
"3o c #D0DFEE",
"qo c #97B7E7",
"h@ c #8D8B85",
"d@ c #9AC4EE",
"1  c #F4F4F4",
"7. c #002073",
"b. c #001D74",
"gX c #001A74",
";O c #C7DFF7",
"6X c #D3E6F8",
"f  c #F4F7FA",
"Jo c #D0E5F9",
"<X c #CDE1F8",
"O+ c #AFD4F8",
"a  c #FDFDFE",
"M  c #FAFCFE",
"q. c #F4FDFF",
"Q. c #EEFBFF",
"+X c #EBF4FF",
"$X c #E8F3FF",
"SX c #E5F2FF",
"FX c #E2F1FF",
"`. c #DFF0FF",
"0+ c #B2D8FD",
"gO c #C4E4FF",
"lo c #D6EAFF",
"!X c #D3E9FF",
"no c #D0E8FF",
"m+ c #B5DCFF",
"'O c #BEDFFF",
"4O c #C1E0FF",
"k. c #002985",
"YX c #032D8D",
"*@ c #5D7E9F",
"Z@ c #96A0A5",
"j@ c #BDB9B2",
"L+ c #6F90B1",
";@ c #504E4B",
"{  c #2A52A6",
"a+ c #C6C2BB",
"l  c #C3C1BC",
")+ c #6C92B7",
"}O c #1B4AAB",
"A  c #CFCBC3",
"w  c #C3C4C3",
"_o c #A2B3C3",
"kX c #5A7DBA",
"w@ c #62605D",
"TO c #90ADC8",
"j+ c #93AECA",
"Ao c #9CB4CD",
"$. c #B1C1D1",
"-X c #7896CB",
"k+ c #99B6D5",
"<O c #84A3D2",
"Q  c #C0CCD9",
"RX c #5A83D0",
"*. c #D8DDE0",
"s@ c #8DB5DC",
"0@ c #536475",
"yO c #B4CBE2",
"<o c #7A7A79",
"z+ c #A2C2E3",
"O  c #DEE2E7",
"+  c #E7E8EA",
"%  c #E1E6EB",
"%+ c #50667C",
"b  c #EDEDED",
"8O c #AECCEA",
"qO c #596C7F",
"u  c #F0F1F1",
"s. c #E4EAF0",
"4+ c #9FC4F0",
"co c #B7D2F2",
"]+ c #95928C",
"3  c #F9FAFB",
"R  c #F3F8FC",
"5. c #E4EDFA",
"5X c #EAFBFF",
"K  c #F9FDFF",
"<. c #F6FCFF",
"OX c #F0FAFF",
"bo c #DEF4FF",
"s  c #FFFFFF",
"H  c #FCFEFF",
"f. c #F0F7FF",
"@X c #EAF5FF",
"AX c #E7F4FF",
"GX c #E1EFFF",
"}X c #DEEEFF",
" o c #DBEDFF",
"6o c #D8ECFF",
"eo c #D5EBFF",
"oO c #C3E2FF",
"[o c #CCE5FF",
"Wo c #C6E3FF",
"Bo c #C9E4FF",
"X+ c #B7DBFF",
"7+ c #81AEF7",
"3. c #143D90",
"6. c #355495",
"C@ c #B0ADA6",
",o c #92A0AC",
"~O c #A4ACB2",
"5@ c #7A95B1",
"D+ c #4C4B48",
"Z  c #B3B7B6",
"^O c #809AB4",
"t@ c #C8C4BC",
"cO c #7192B5",
"rO c #98ABBD",
"e  c #D1CDC5",
"RO c #7D9FC1",
"&X c #6886BC",
"X. c #8097BF",
"EO c #46525B",
"1o c #B3C0CB",
"Go c #B0BFCE",
"F. c #C8CDD1",
"^+ c #8CADCE",
"vo c #6287C8",
"6+ c #4170C6",
"/o c #64686B",
"2o c #BCC9D7",
"S@ c #71A1D3",
/* pixels */
"                . X o O + @ @ @ # $ % & * = -                   ",
"            ; : > , < 1 2 3 4 4 5 6 7 8 9 0 q w e               ",
"          r t y u i p a s s s s s s s d f g h j k l z           ",
"      x c v b n 3 m s s s s s s s s s s s M N B V C Z A         ",
"    x S D F G H s J H J K L P I U Y T J s s J R E W Q ! ~       ",
"    ^ / ( g ) J _ ` _ ' ] [ { } |  ...X.o.O._ s +.@.#.$.%.-     ",
"  &.*.=.-.;.J :.>.,.<.1.2.3.4.5.6.7.8.9.0.q.w.o.s e.r.t.y.u.z   ",
"i.p.a.s.d.H ,.f.g.g.h.j.k.l.z.s x.c.v.b.n.m.M.N.B.V.C.Z.A.S.D.  ",
"F.G.H.J.K.g.L.P.I.U.Y.T.R.E.W.Q.!.~.^./.(.).M._.`.B.'.].[.{.}.|.",
" X.XXXoXOX+X@X#X$X%Xw.&X*X=X-X;X:X>X^.l.,X<X1X2X3X4X5X6X7X8X9X0X",
"qXwXeXU.@XrXtXtXyXyXuXiXpXaXsXdXfXgXhXjXkXlXzXxXcXvXbXnXmXMXNXBX",
"VXCXZXAXSXyXDXFXGXHXJXKXLX1XPXIXUXYXTXRXEXWXQXQXQX!X~X^X/X(X)X_X",
"`X'X]XN.[XJX{XJX}X|X o o.oxXXoooOo+o@o#o$o%o&o*o*o=o-o;o:o>o,o<o",
"1o2o3o4o|X5o5o o.oxX6ovX7o7o8o9o0oqowoeo=orototoyouoiopoaosodofo",
"gohojokoxXxXvX7olozozo!X&oxoco^.vobonoyoyomomoMoNoBoVoCoZoAoSoDo",
"FoGoHoJo7oQXzo!XKo*o*onoro-oLoPoIoUomoVoYoToToRoEoWoQo!o~o^o/o(o",
")o_o`o'o&o*orororotouo]omo[o{o}oBouoRoRo|o O O.OXOoOOO+O@O#O$O%O",
"&O*O=O-O;Orouo[oVoNoYoToBo:O>O,O<O1O|o2O3O4O5O6O6O7O8O9O0OqOwOu.",
"- eOrOtOyOuOVoYoToRoWoEoiOpOaOsOdOfOgO6O6OhOhOjOkOlOzOxOcOvObOnO",
"  mOMONOBOVOCOWoZOXOXO4OAOSODOFOGOHOJOKOLOPOPOIOUOYOTOROEOWOQO!O",
"  !O~O^O/O(O)O_O`O4O6O'O]O[Ob.{O}O|O +.+X+o+O+++@+#+$+%+&+*+|.  ",
"    =+-+;+:+>+,+<+1+2+3+'O4+5+6+7+8+9+0+q+w+e+r+t+y+u+i+p+a+    ",
"      s+d+f+g+h+j+k+l+z+x+c+v+b+n+m+M+N+B+V+C+Z+A+S+D+F+G+z     ",
"        H+J+K+L+P+I+U+Y+T+R+E+W+Q+!+~+^+/+(+)+_+`+'+]+[+z       ",
"          - {+}+|+ @.@X@o@O@+@@@#@$@%@&@*@=@-@;@:@>@,@          ",
"            z ,@{+<@1@2@3@4@5@6@7@8@9@0@q@w@e@r@t@e             ",
"                z =+y@u@i@%Op@a@s@d@f@g@h@j@k@!O                ",
"                      z - |.l@z@x@c@v@b@n@!O                    ",
"                            z m@M@N@B@V@C@e                     ",
"                              e Z@A@S@D@C@e                     ",
"                                =+F@G@H@C@e                     ",
"                                  ~ J@p+K@!O                    "
};
