/* XPM */
char *Redo_xpm[] = {
"16 16 256 3",
"000 c None",
"001 c #B0C0D8",
"002 c #E0E8E8",
"003 c #A0C0E0",
"004 c #E0E0E8",
"005 c #98D0F8",
"006 c #C0D0E0",
"007 c #A8D0F8",
"008 c #98C8F8",
"009 c #A8D8F8",
"010 c #A0B8D8",
"011 c #D0D8E8",
"012 c #B0E0F8",
"013 c #88C0F8",
"014 c #B0D0E8",
"015 c #A0D0F8",
"016 c #B0D8F8",
"017 c #98B8E0",
"018 c #A0C8F8",
"019 c #B0C8E0",
"020 c #80B0D8",
"021 c #80C0F8",
"022 c #80A0D0",
"023 c #88C8F8",
"024 c #80B0E0",
"025 c #90C8F8",
"026 c #78B8F8",
"027 c #80C8F8",
"028 c #78B8F0",
"029 c #78C0F8",
"030 c #68A0D8",
"031 c #78A8D8",
"032 c #68B8F8",
"033 c #70B8F8",
"034 c #58B0F8",
"035 c #78A0D0",
"036 c #6898D0",
"037 c #68A8E0",
"038 c #5090D0",
"039 c #60A0D8",
"040 c #5880C0",
"041 c #5898D8",
"042 c #48A0E8",
"043 c #6890D0",
"044 c #60B0F8",
"045 c #50A0E8",
"046 c #68A0E0",
"047 c #4080C8",
"048 c #50A8F8",
"049 c #4090E0",
"050 c #5078B8",
"051 c #4890D0",
"052 c #5080C0",
"053 c #3088E8",
"054 c #4888C8",
"055 c #4090D8",
"056 c #48A8F8",
"057 c #2880D0",
"058 c #3880D0",
"059 c #40A0F8",
"060 c #3080D0",
"061 c #3888D0",
"062 c #4090D0",
"063 c #2878C8",
"064 c #3890E0",
"065 c #3068B8",
"066 c #3088D8",
"067 c #1068D0",
"068 c #3880D8",
"069 c #2898F8",
"070 c #2888D8",
"071 c #3088D0",
"072 c #3090E0",
"073 c #2068C0",
"074 c #3070C0",
"075 c #1868D0",
"076 c #20A0F8",
"077 c #3090D8",
"078 c #2068C8",
"079 c #2890E0",
"080 c #1080E8",
"081 c #2878D0",
"082 c #1868C8",
"083 c #2078D0",
"084 c #1070D8",
"085 c #1878E0",
"086 c black",
"087 c black",
"088 c black",
"089 c black",
"090 c black",
"091 c black",
"092 c black",
"093 c black",
"094 c black",
"095 c black",
"096 c black",
"097 c black",
"098 c black",
"099 c black",
"100 c black",
"101 c black",
"102 c black",
"103 c black",
"104 c black",
"105 c black",
"106 c black",
"107 c black",
"108 c black",
"109 c black",
"110 c black",
"111 c black",
"112 c black",
"113 c black",
"114 c black",
"115 c black",
"116 c black",
"117 c black",
"118 c black",
"119 c black",
"120 c black",
"121 c black",
"122 c black",
"123 c black",
"124 c black",
"125 c black",
"126 c black",
"127 c black",
"128 c black",
"129 c black",
"130 c black",
"131 c black",
"132 c black",
"133 c black",
"134 c black",
"135 c black",
"136 c black",
"137 c black",
"138 c black",
"139 c black",
"140 c black",
"141 c black",
"142 c black",
"143 c black",
"144 c black",
"145 c black",
"146 c black",
"147 c black",
"148 c black",
"149 c black",
"150 c black",
"151 c black",
"152 c black",
"153 c black",
"154 c black",
"155 c black",
"156 c black",
"157 c black",
"158 c black",
"159 c black",
"160 c black",
"161 c black",
"162 c black",
"163 c black",
"164 c black",
"165 c black",
"166 c black",
"167 c black",
"168 c black",
"169 c black",
"170 c black",
"171 c black",
"172 c black",
"173 c black",
"174 c black",
"175 c black",
"176 c black",
"177 c black",
"178 c black",
"179 c black",
"180 c black",
"181 c black",
"182 c black",
"183 c black",
"184 c black",
"185 c black",
"186 c black",
"187 c black",
"188 c black",
"189 c black",
"190 c black",
"191 c black",
"192 c black",
"193 c black",
"194 c black",
"195 c black",
"196 c black",
"197 c black",
"198 c black",
"199 c black",
"200 c black",
"201 c black",
"202 c black",
"203 c black",
"204 c black",
"205 c black",
"206 c black",
"207 c black",
"208 c black",
"209 c black",
"210 c black",
"211 c black",
"212 c black",
"213 c black",
"214 c black",
"215 c black",
"216 c black",
"217 c black",
"218 c black",
"219 c black",
"220 c black",
"221 c black",
"222 c black",
"223 c black",
"224 c black",
"225 c black",
"226 c black",
"227 c black",
"228 c black",
"229 c black",
"230 c black",
"231 c black",
"232 c black",
"233 c black",
"234 c black",
"235 c black",
"236 c black",
"237 c black",
"238 c black",
"239 c black",
"240 c black",
"241 c black",
"242 c black",
"243 c black",
"244 c black",
"245 c black",
"246 c black",
"247 c black",
"248 c black",
"249 c black",
"250 c black",
"251 c black",
"252 c black",
"253 c black",
"254 c black",
"255 c black",
"000000000000000000000000000000000000000000000000",
"000000000000000000000000000000000000000000000000",
"000000000022065075073052019000000000000000000000",
"000000043053029029023027063017000000000000000000",
"000001085069069059056048027060003000000000000000",
"000050076084047054083034044033058004002049030000",
"000073080010000000011063032033032038035007066000",
"000067058000000000000006070026021066049009061000",
"000075043000000000000000038033021026008008066000",
"000074022000000000020041054057021021013026051000",
"000040036000000004064012005008008013025045031000",
"000035036000000000030070042023023013018079003000",
"000004020000000000000004039072064015016072000000",
"000000000000000000000000000000014055066037000000",
"000000000000000000000000000000000000000000000000",
"000000000000000000000000000000000000000000000000"
};
