/* XPM */
char *refrpanel_xpm[] = {
"16 16 256 3",
"000 c None",
"001 c #E0E0E8",
"002 c #D8D8E8",
"003 c #D0E0E8",
"004 c #E0F0F8",
"005 c #A0D0F8",
"006 c #D8E0E8",
"007 c #C0D0E0",
"008 c #D0E8F8",
"009 c #A0B8D8",
"010 c #B8E0F8",
"011 c #B0D8F8",
"012 c #C0E0F8",
"013 c #D0D8E0",
"014 c #98B8D8",
"015 c #A0D8F8",
"016 c #C8D0E0",
"017 c #98B0D8",
"018 c #B0C8E0",
"019 c #B8D0E0",
"020 c #88A0D0",
"021 c #A0B0D0",
"022 c #A8C8E0",
"023 c #98C8F8",
"024 c #A0C0E0",
"025 c #B0E0F8",
"026 c #80A8D8",
"027 c #90C8F8",
"028 c #B8C8E0",
"029 c #70B8F8",
"030 c #80C0F8",
"031 c #78C0F8",
"032 c #88C8F8",
"033 c #6880B8",
"034 c #80A0D0",
"035 c #80B0D8",
"036 c #90B8E0",
"037 c #70B0F8",
"038 c #90B0D8",
"039 c #6090C8",
"040 c #7898C8",
"041 c #78B0E0",
"042 c #7898D0",
"043 c #6098D0",
"044 c #68A8D8",
"045 c #6898D0",
"046 c #58B0F8",
"047 c #6090D0",
"048 c #60A0D0",
"049 c #60A0D8",
"050 c #50B0F8",
"051 c #60B0F8",
"052 c #5088D0",
"053 c #60A0E8",
"054 c #60A8E0",
"055 c #48A8F8",
"056 c #5890D0",
"057 c #4880D0",
"058 c #5088C0",
"059 c #48A0E0",
"060 c #5098E0",
"061 c #4880C0",
"062 c #4870B8",
"063 c #4098E0",
"064 c #4898D8",
"065 c #4890D0",
"066 c #50A0E0",
"067 c #4070B8",
"068 c #4098E8",
"069 c #3088E0",
"070 c #4080C8",
"071 c #3890D8",
"072 c #4080D0",
"073 c #2880D8",
"074 c #4078C0",
"075 c #38A0F8",
"076 c #40A0F8",
"077 c #2078D8",
"078 c #3070C8",
"079 c #2878D0",
"080 c #3878C8",
"081 c #3870C0",
"082 c #4088D0",
"083 c #0850B0",
"084 c #2890F8",
"085 c #1878E8",
"086 c #3888D0",
"087 c #2880D0",
"088 c #3888D8",
"089 c #2078C8",
"090 c #2078D0",
"091 c #2888E0",
"092 c #1058B8",
"093 c #2080D0",
"094 c #1890F8",
"095 c #1068C8",
"096 c #1880D8",
"097 c #1070C0",
"098 c #1868C8",
"099 c black",
"100 c black",
"101 c black",
"102 c black",
"103 c black",
"104 c black",
"105 c black",
"106 c black",
"107 c black",
"108 c black",
"109 c black",
"110 c black",
"111 c black",
"112 c black",
"113 c black",
"114 c black",
"115 c black",
"116 c black",
"117 c black",
"118 c black",
"119 c black",
"120 c black",
"121 c black",
"122 c black",
"123 c black",
"124 c black",
"125 c black",
"126 c black",
"127 c black",
"128 c black",
"129 c black",
"130 c black",
"131 c black",
"132 c black",
"133 c black",
"134 c black",
"135 c black",
"136 c black",
"137 c black",
"138 c black",
"139 c black",
"140 c black",
"141 c black",
"142 c black",
"143 c black",
"144 c black",
"145 c black",
"146 c black",
"147 c black",
"148 c black",
"149 c black",
"150 c black",
"151 c black",
"152 c black",
"153 c black",
"154 c black",
"155 c black",
"156 c black",
"157 c black",
"158 c black",
"159 c black",
"160 c black",
"161 c black",
"162 c black",
"163 c black",
"164 c black",
"165 c black",
"166 c black",
"167 c black",
"168 c black",
"169 c black",
"170 c black",
"171 c black",
"172 c black",
"173 c black",
"174 c black",
"175 c black",
"176 c black",
"177 c black",
"178 c black",
"179 c black",
"180 c black",
"181 c black",
"182 c black",
"183 c black",
"184 c black",
"185 c black",
"186 c black",
"187 c black",
"188 c black",
"189 c black",
"190 c black",
"191 c black",
"192 c black",
"193 c black",
"194 c black",
"195 c black",
"196 c black",
"197 c black",
"198 c black",
"199 c black",
"200 c black",
"201 c black",
"202 c black",
"203 c black",
"204 c black",
"205 c black",
"206 c black",
"207 c black",
"208 c black",
"209 c black",
"210 c black",
"211 c black",
"212 c black",
"213 c black",
"214 c black",
"215 c black",
"216 c black",
"217 c black",
"218 c black",
"219 c black",
"220 c black",
"221 c black",
"222 c black",
"223 c black",
"224 c black",
"225 c black",
"226 c black",
"227 c black",
"228 c black",
"229 c black",
"230 c black",
"231 c black",
"232 c black",
"233 c black",
"234 c black",
"235 c black",
"236 c black",
"237 c black",
"238 c black",
"239 c black",
"240 c black",
"241 c black",
"242 c black",
"243 c black",
"244 c black",
"245 c black",
"246 c black",
"247 c black",
"248 c black",
"249 c black",
"250 c black",
"251 c black",
"252 c black",
"253 c black",
"254 c black",
"255 c black",
"000000000000000000000000000000000000000000000000",
"000000000000000035071093073070009000000000000000",
"000000000000054094084075076029077038000000000000",
"000000000036096041024044091050031079007052070000",
"000000000048003000000000018069029032083023078000",
"000000000000000000000000000034037027023011067000",
"000000001000000000000000002040080005005025062000",
"000014059066063063064019039015010012010010033000",
"000043004012011005031048028056057057061074021000",
"000065008005023073026006000000000000000001000000",
"000082010023027053026000000000000000000000000000",
"000086030097032029073018000000000013040000000000",
"000086060007089051046077045017040092017000000000",
"000000000000022077055055075084085039000000000000",
"000000000000000016058098095081020000000000000000",
"000000000000000000000000000000000000000000000000"
};
