/* XPM */
static char * reg_srv_xpm[] = {
"16 16 141 2",
"  	c None",
". 	c #D7D7E3",
"+ 	c #A4A4C6",
"@ 	c #9F9FC6",
"# 	c #9B9BC4",
"$ 	c #9494C0",
"% 	c #8E8EBC",
"& 	c #8A8AB5",
"* 	c #8B8BB2",
"= 	c #8D8DB0",
"- 	c #C7C7D3",
"; 	c #A8A8CF",
"> 	c #F1F1FF",
", 	c #E8E8FF",
"' 	c #E0E0FB",
") 	c #DADAF9",
"! 	c #D5D5F7",
"~ 	c #C4C4E9",
"{ 	c #ACACD7",
"] 	c #555585",
"^ 	c #A6A6D3",
"/ 	c #DBDBFF",
"( 	c #CACAF0",
"_ 	c #B7B7E3",
": 	c #B4B4E1",
"< 	c #A3A3D2",
"[ 	c #8F8FBE",
"} 	c #7E7EAE",
"| 	c #4F4F83",
"1 	c #404071",
"2 	c #A2A2CD",
"3 	c #DEDEFF",
"4 	c #C0C0ED",
"5 	c #A6A6DB",
"6 	c #A5A5D8",
"7 	c #9696CA",
"8 	c #8686BA",
"9 	c #7575A8",
"0 	c #555587",
"a 	c #464674",
"b 	c #A8A8D0",
"c 	c #E8E8F9",
"d 	c #DADAF0",
"e 	c #D2D2EA",
"f 	c #CBCBE8",
"g 	c #B5B5DB",
"h 	c #A2A2CF",
"i 	c #8B8BBD",
"j 	c #7777AA",
"k 	c #474779",
"l 	c #CBCBDE",
"m 	c #C0C0EE",
"n 	c #A8A8DC",
"o 	c #BABAE2",
"p 	c #D8D8EB",
"q 	c #C7C7DF",
"r 	c #B9B9D3",
"s 	c #A0A0BD",
"t 	c #6D6D91",
"u 	c #009300",
"v 	c #009100",
"w 	c #008D00",
"x 	c #CACAE7",
"y 	c #949495",
"z 	c #BFBFC1",
"A 	c #9B9B9F",
"B 	c #B5B5B9",
"C 	c #ADADB3",
"D 	c #AFAFB8",
"E 	c #E9E9E9",
"F 	c #008F00",
"G 	c #91F75E",
"H 	c #008900",
"I 	c #B1B1B1",
"J 	c #C4C4C4",
"K 	c #8F8F8F",
"L 	c #7E7E7E",
"M 	c #D7D7D7",
"N 	c #008B00",
"O 	c #8DF35A",
"P 	c #008300",
"Q 	c #007D00",
"R 	c #DEDEDE",
"S 	c #BBBBBC",
"T 	c #A1A1A2",
"U 	c #E0E0E1",
"V 	c #E3E3E4",
"W 	c #DADBDE",
"X 	c #8E8E93",
"Y 	c #CBCBCC",
"Z 	c #86EC53",
"` 	c #7BE148",
" .	c #78DE45",
"..	c #A5A6A9",
"+.	c #E6E7EA",
"@.	c #E1E1E9",
"#.	c #DBDCE2",
"$.	c #E0BC35",
"%.	c #E0C662",
"&.	c #8C8F9F",
"*.	c #008700",
"=.	c #008500",
"-.	c #008100",
";.	c #007A00",
">.	c #007000",
",.	c #E9EAF3",
"'.	c #F8CA0E",
").	c #F5D237",
"!.	c #D1D5E2",
"~.	c #C2930F",
"{.	c #FFFF58",
"].	c #CAAD30",
"^.	c #EAE9E6",
"/.	c #77DD44",
"(.	c #007200",
"_.	c #C8C8C8",
":.	c #E5E9F2",
"<.	c #B98400",
"[.	c #FFF351",
"}.	c #EACA43",
"|.	c #958570",
"1.	c #C59000",
"2.	c #FFFF85",
"3.	c #EBCD59",
"4.	c #007500",
"5.	c #006D00",
"6.	c #7F8182",
"7.	c #A8A4A7",
"8.	c #AF7A00",
"9.	c #FEEA67",
"0.	c #BCA554",
"a.	c #6E6053",
"b.	c #A98006",
"c.	c #AE953C",
"d.	c #8B8D92",
"e.	c #675A54",
"f.	c #7D570F",
"g.	c #8D826E",
"h.	c #CECFD2",
"i.	c #D1C7C1",
"j.	c #D9D1CB",
"                                ",
"    . + @ # $ % & * = -         ",
"    ;   > , ' ) ! ~ { ]         ",
"    ^ / ( _ : < [ } | 1         ",
"    2 3 4 5 6 7 8 9 0 a         ",
"    b c d e f g h i j k         ",
"    l 3 m n o p q r s t         ",
"    u v w x y z A B C D E       ",
"    F G H x x I     J K L M     ",
"v w N O P Q Q R S T U V W X Y   ",
"w G O Z `  .Q ....+.@.#.$.%.&.  ",
"*.=.-.` ;.>.Q ..,.'.).!.~.{.].^.",
"    Q /.(.  _...:.<.[.}.|.1.2.3.",
"    4.>.5.    _.6.7.8.9.0.a.b.c.",
"                _.d.e.f.g.h.i.j.",
"                                "};
