/* XPM */
static char *replay_xpm[] = {
/* columns rows colors chars-per-pixel */
"16 16 156 2",
"H  c #905E00",
"<  c #DAD6C8",
"n. c #B57D00",
"]  c #87F35B",
"F  c #FFFF97",
"m  c #9B7B43",
"/  c #CDCF88",
"j  c #996400",
"|  c #F8F07E",
"Y  c #1D9B10",
">  c #DDB823",
"G  c #D5B341",
"5  c #FFFF9C",
"q  c #B99A3E",
";  c #DCDCC3",
"9  c #D8B440",
"I  c #D4C68B",
"@. c #5CDC3D",
"#  c #BA8A00",
"$. c #83F157",
"Z. c #B17B00",
"<. c #4A9949",
"T  c #1D9B1C",
":  c #E6C733",
"-  c #E7F0FF",
"c. c #B4850C",
"O. c #619C56",
"Z  c #B6AE70",
".. c #E3C945",
"(  c #0D800A",
"v. c #DFBB29",
"X. c #DDBB46",
"e. c #A8A7A2",
"V. c #B38107",
"n  c #7F4B06",
"N. c #B37B00",
"w. c #A0916A",
"7  c #E6CD54",
"m. c #93835C",
"P  c #B2B279",
"B  c #8B5807",
"p. c #B98C11",
"6. c #ABB87C",
"p  c #F9F27F",
"d. c #CFA626",
"J  c #8A6246",
",. c #CAC2AB",
"b  c #845202",
"B. c #DCC292",
"'  c #37B525",
"   c None",
"e  c #BB8600",
"D  c #CEA51E",
"W  c #C19107",
"2. c #2AA71B",
"F. c #996500",
"f  c #B57E06",
"L  c #628C42",
":. c #D8B53F",
"!  c #F1E268",
"&  c #EBDA69",
"a. c #E7CC49",
"3. c #36B423",
"~  c #F8E87C",
"z  c #8D5B13",
"8. c #E7CF4F",
"U  c #CBCDA9",
"-. c #E7D254",
"[  c #16990F",
"k  c #895600",
"u. c #B9B66C",
"}  c #B17900",
"l. c #16960F",
"c  c #BE992B",
";. c #E0C33E",
"O  c #D6B86C",
"4  c #D6AD1E",
"g  c #9E8C6C",
"y  c #A47401",
"8  c #D5A605",
"C  c #239515",
"x. c #B5872C",
"^  c #E5D27B",
"S. c #83662F",
"l  c #B7986B",
"k. c #D6BB79",
"o. c #D8AF50",
"+  c #D3BA84",
"%. c #9FFF69",
"#. c #6EE64A",
" . c #E9D55B",
"x  c #D2AB21",
"+. c #31B420",
"6  c #F6EC7B",
"S  c #A37000",
">. c #C28A02",
"K  c #436A23",
"g. c #998961",
"R  c #BEC07E",
"C. c #CB9C0E",
"i  c #DBB72C",
"=  c #F8F4B5",
"M  c #A27A42",
"Q  c #FCF78A",
"V  c #BFA06D",
"o  c #C29316",
"r. c #D1BE78",
"*  c #F3E889",
"9. c #DEBE37",
"b. c #CB9F1B",
"f. c #B88000",
"d  c #BB8400",
"w  c #C18C00",
"4. c #8AF65C",
",  c #DAB01D",
"D. c #9F6B00",
"A. c #917943",
"1  c #C5BA93",
"j. c #BB8408",
"$  c #A57000",
"{  c #B0B473",
"a  c #F4E466",
"s. c #DDBA2E",
"%  c #EAD14B",
"1. c #209B15",
"0  c #AEB9DA",
"A  c #BE9121",
"s  c #F0DC57",
"@  c #C3A35B",
"3  c #9E6D00",
"t  c #9DA6BA",
"5. c #1C9C11",
"q. c #BD8400",
"_  c #1C9C13",
"N  c #895713",
"*. c #1C9614",
"y. c #12920C",
"7. c #E6CF53",
"z. c #9AAC97",
"i. c #B28D43",
"&. c #85F35A",
"M. c #6E6F6A",
")  c #1B9E13",
"E  c #B78B27",
"v  c #915F05",
"h  c #98742A",
".  c #CCA11F",
"u  c #A06D00",
"t. c #96B15A",
"`  c #21A316",
"2  c #C58C00",
"h. c #77756E",
"r  c #BC8C12",
"X  c #CC9E24",
"=. c #EFDE68",
"0. c #D2AF34",
/* pixels */
"                                ",
"          . X   o O + @ # $     ",
"    % & * = - ; : > , < 1 2 3   ",
"  4 5 6 7 8 9 0 q w e r t y u   ",
"  i p a s d f g h j k l z       ",
"  x c v b n m M N B V C Z A S   ",
"  D F G H J K L P I U Y T R E   ",
"  W Q ! ~ ^ / ( ) _ ` ' ] [ {   ",
"  } |  ...X.o.O.+.@.#.$.%.&.*.  ",
"    =.-.;.:.>.,.<.1.2.3.4.5.6.  ",
"    7.8.9.0.q.w.e.r.t.y.T u.i.  ",
"    p.a.s.d.f.g.h.j.k.l.z.x.    ",
"      c.v.b.n.m.M.N.$ B.        ",
"        V.C.Z.A.S.              ",
"          D.F.                  ",
"                                "
};
