/* XPM */
char *replace_xpm[] = {
"16 16 106 3",
"000 c #288820",
"001 c #A0B0C8",
"002 c #C02818",
"003 c None",
"004 c #109810",
"005 c #F8F8F8",
"006 c #A0A0A0",
"007 c gray47",
"008 c #A0D8F8",
"009 c #F8A848",
"010 c #888888",
"011 c #E0F0F8",
"012 c #D8D8D8",
"013 c gray44",
"014 c #98C8F8",
"015 c #C84040",
"016 c #60D840",
"017 c #D0F0F8",
"018 c #E0C0C0",
"019 c #687070",
"020 c #A0D0F8",
"021 c gray69",
"022 c #98A0B0",
"023 c #E8F8F8",
"024 c #A8C0D8",
"025 c #484848",
"026 c #90A8C8",
"027 c #F85820",
"028 c #208818",
"029 c #B8C0C0",
"030 c #687080",
"031 c #C0E0F8",
"032 c #F87828",
"033 c #88B888",
"034 c #D8E0F8",
"035 c #E0C8C8",
"036 c gray25",
"037 c #A8E0F8",
"038 c #F86038",
"039 c #40B038",
"040 c #C0E8F8",
"041 c #A0A8A0",
"042 c #686868",
"043 c #B0B8B8",
"044 c #7888A8",
"045 c #F8F0F8",
"046 c #D0D0D0",
"047 c #484040",
"048 c #E83810",
"049 c #209020",
"050 c gray66",
"051 c #687888",
"052 c #A0F868",
"053 c #606060",
"054 c #D06058",
"055 c #30B028",
"056 c #B8D0B8",
"057 c #708090",
"058 c #D88888",
"059 c #909090",
"060 c #C0D8C0",
"061 c #505050",
"062 c #E03008",
"063 c #28A028",
"064 c #B0B0C8",
"065 c #F86030",
"066 c #68B860",
"067 c #C8C8C8",
"068 c #E85830",
"069 c #28B018",
"070 c #C0C0C0",
"071 c #606068",
"072 c gray72",
"073 c #989898",
"074 c gray88",
"075 c #403840",
"076 c #F85010",
"077 c #18A010",
"078 c #B84840",
"079 c #409840",
"080 c #586060",
"081 c #289020",
"082 c #887888",
"083 c #C83020",
"084 c #409040",
"085 c #A0A098",
"086 c #788080",
"087 c #60A060",
"088 c #506060",
"089 c #D84028",
"090 c #686870",
"091 c #98F868",
"092 c #787070",
"093 c #F06840",
"094 c #B8B0B8",
"095 c #7088A8",
"096 c #F88030",
"097 c #A0B8D8",
"098 c #F04018",
"099 c #F87020",
"100 c #70E848",
"101 c #30B030",
"102 c #989890",
"103 c #D8D0D8",
"104 c #686060",
"105 c black",
"003003003003003003003003003003003003003003003003",
"003003003003003003003003018078002083054003093003",
"003003003003003003003003058015062099032048098003",
"003003003003003003046021012003035089096009027003",
"003012073059059010013042042007103003076009027003",
"003013013067070072050073010007075068038038038003",
"003025006072021010061036025007005045082094003003",
"003050013010007005005053104061012006064024010003",
"003003021036006070022034097047073001023017030003",
"003003003043088059031011040061053026037008019003",
"003039063049000080008020014092012086095057006003",
"003055091069003029051044042046003074050072003003",
"003055052100049060067041012003003003003003003003",
"003063004016016077079033003003003003003003003003",
"003066003087081028084056003003003003003003003003",
"003003003003003003003003003003003003003003003003"
};
