/* XPM */
char *rows_del_xpm[] = {
"16 16 62 3",
"000 c #686868",
"001 c #808080",
"002 c #F8A038",
"003 c None",
"004 c #F89830",
"005 c #888888",
"006 c #F89838",
"007 c #F0B098",
"008 c #B07028",
"009 c #A0A0A0",
"010 c #F8A840",
"011 c #F86828",
"012 c gray72",
"013 c gray47",
"014 c #D8B0B8",
"015 c #C02010",
"016 c #909090",
"017 c #F0A880",
"018 c #F85820",
"019 c #A0A0B8",
"020 c #F8C078",
"021 c #B08038",
"022 c gray44",
"023 c #F87028",
"024 c #F8D8A0",
"025 c #F8C058",
"026 c #B82010",
"027 c #F8D0A0",
"028 c #C07878",
"029 c #C0C0C0",
"030 c #F8C870",
"031 c #C03830",
"032 c #F8B850",
"033 c #F86028",
"034 c #F8B048",
"035 c #C87078",
"036 c #F87838",
"037 c #F8D8A8",
"038 c #C01810",
"039 c #F85810",
"040 c #F8A848",
"041 c #C03838",
"042 c #B02828",
"043 c #D0A088",
"044 c #B07070",
"045 c #F8C880",
"046 c #C02820",
"047 c #F04818",
"048 c #D08070",
"049 c #F86838",
"050 c #A82020",
"051 c #D03010",
"052 c #F84810",
"053 c #B02020",
"054 c #C8B8C0",
"055 c #B8A0A0",
"056 c #B89050",
"057 c #B82828",
"058 c #D83818",
"059 c #A81008",
"060 c #B03028",
"061 c #C03020",
"003003003003003003003003003003003003003003003003",
"003016016016016016016016016016016005005005005003",
"003016004004004008002004004004008002004004005003",
"003016004004004008002004004004008002004004001003",
"003005025025004008002004004004008002004004001003",
"003005001001001001001001001001001001001001001003",
"003001025025032021032034034010008002002004013003",
"003001030024032056024045010010008002004004013003",
"003016017031024043057007020010008002004004013003",
"003029038049048060011046027010008002004004022003",
"003012050036058033015054019001001001001001022003",
"003009014026033047035027024004008002004004022003",
"003028015033018018026007024004008002004004000003",
"003053023051061052039031027004008002004004000003",
"003031059044012042053055013000000000000000000003",
"003003003003003003003003003003003003003003003003"
};
