/* XPM */
char *run2_xpm[] = {
"16 16 256 3",
"000 c None",
"001 c #D8E0D8",
"002 c #B8D0B8",
"003 c #E0E8E0",
"004 c #B8D8B8",
"005 c #C8D8C8",
"006 c #D0E0C8",
"007 c #B0C8B0",
"008 c #C8E0C8",
"009 c #98C898",
"010 c #A8D0A0",
"011 c #78B878",
"012 c #B0E090",
"013 c #78B870",
"014 c #A0C898",
"015 c #98D878",
"016 c #A0C890",
"017 c #80C868",
"018 c #88C078",
"019 c #88C870",
"020 c #90C090",
"021 c #589858",
"022 c #88C080",
"023 c #80A880",
"024 c #88D068",
"025 c #70B070",
"026 c #90C880",
"027 c #60B848",
"028 c #90D070",
"029 c #80D058",
"030 c #90D868",
"031 c #70C048",
"032 c #70C850",
"033 c #80E048",
"034 c #70B860",
"035 c #78D840",
"036 c #60B060",
"037 c #68B050",
"038 c #70B858",
"039 c #68C048",
"040 c #68B850",
"041 c #68B848",
"042 c #60A850",
"043 c #389038",
"044 c #60B040",
"045 c #60C030",
"046 c #68C838",
"047 c #80D848",
"048 c #60C830",
"049 c #58B040",
"050 c #308030",
"051 c #40A840",
"052 c #70D840",
"053 c #58C028",
"054 c #58C830",
"055 c #50B030",
"056 c #68D030",
"057 c #50B028",
"058 c #68D038",
"059 c #58B838",
"060 c #60C028",
"061 c #70D838",
"062 c #30A030",
"063 c #68C830",
"064 c #28A028",
"065 c #50B828",
"066 c #58B830",
"067 c #308828",
"068 c #58B828",
"069 c #208820",
"070 c #50C028",
"071 c #48B020",
"072 c #287828",
"073 c #209818",
"074 c #289028",
"075 c #207820",
"076 c #40B020",
"077 c #188810",
"078 c #187818",
"079 c #289020",
"080 c #209820",
"081 c #188018",
"082 c #188818",
"083 c #28A818",
"084 c #289018",
"085 c #38B020",
"086 c #209018",
"087 c #20A010",
"088 c #189018",
"089 c black",
"090 c black",
"091 c black",
"092 c black",
"093 c black",
"094 c black",
"095 c black",
"096 c black",
"097 c black",
"098 c black",
"099 c black",
"100 c black",
"101 c black",
"102 c black",
"103 c black",
"104 c black",
"105 c black",
"106 c black",
"107 c black",
"108 c black",
"109 c black",
"110 c black",
"111 c black",
"112 c black",
"113 c black",
"114 c black",
"115 c black",
"116 c black",
"117 c black",
"118 c black",
"119 c black",
"120 c black",
"121 c black",
"122 c black",
"123 c black",
"124 c black",
"125 c black",
"126 c black",
"127 c black",
"128 c black",
"129 c black",
"130 c black",
"131 c black",
"132 c black",
"133 c black",
"134 c black",
"135 c black",
"136 c black",
"137 c black",
"138 c black",
"139 c black",
"140 c black",
"141 c black",
"142 c black",
"143 c black",
"144 c black",
"145 c black",
"146 c black",
"147 c black",
"148 c black",
"149 c black",
"150 c black",
"151 c black",
"152 c black",
"153 c black",
"154 c black",
"155 c black",
"156 c black",
"157 c black",
"158 c black",
"159 c black",
"160 c black",
"161 c black",
"162 c black",
"163 c black",
"164 c black",
"165 c black",
"166 c black",
"167 c black",
"168 c black",
"169 c black",
"170 c black",
"171 c black",
"172 c black",
"173 c black",
"174 c black",
"175 c black",
"176 c black",
"177 c black",
"178 c black",
"179 c black",
"180 c black",
"181 c black",
"182 c black",
"183 c black",
"184 c black",
"185 c black",
"186 c black",
"187 c black",
"188 c black",
"189 c black",
"190 c black",
"191 c black",
"192 c black",
"193 c black",
"194 c black",
"195 c black",
"196 c black",
"197 c black",
"198 c black",
"199 c black",
"200 c black",
"201 c black",
"202 c black",
"203 c black",
"204 c black",
"205 c black",
"206 c black",
"207 c black",
"208 c black",
"209 c black",
"210 c black",
"211 c black",
"212 c black",
"213 c black",
"214 c black",
"215 c black",
"216 c black",
"217 c black",
"218 c black",
"219 c black",
"220 c black",
"221 c black",
"222 c black",
"223 c black",
"224 c black",
"225 c black",
"226 c black",
"227 c black",
"228 c black",
"229 c black",
"230 c black",
"231 c black",
"232 c black",
"233 c black",
"234 c black",
"235 c black",
"236 c black",
"237 c black",
"238 c black",
"239 c black",
"240 c black",
"241 c black",
"242 c black",
"243 c black",
"244 c black",
"245 c black",
"246 c black",
"247 c black",
"248 c black",
"249 c black",
"250 c black",
"251 c black",
"252 c black",
"253 c black",
"254 c black",
"255 c black",
"000000000000000000000000000000000000000000000000",
"000000023050072007000000000000000000000000000000",
"000000075006014067021001000000000000000000000000",
"000000078010018018042078020000000000000000000000",
"000000078014011034037027079043005000000000000000",
"000000078026034037049055055071077025003000000000",
"000000078018040044055071065053048076069002000000",
"000000078019040059065066053048048056052074000000",
"000000081017040059066045048056056052035074000000",
"000000081017039045045046056052033070073004000000",
"000000077024031045048056035052087011003000000000",
"000000077028032046056035085051008000000000000000",
"000000088015029047054073009000000000000000000000",
"000000086012030083036001000000000000000000000000",
"000000020064062004000000000000000000000000000000",
"000000000000000000000000000000000000000000000000"
};
