/* XPM */
static char * runprop_xpm[] = {
"16 16 124 2",
"  	c None",
". 	c #7F7FB3",
"+ 	c #9090BF",
"@ 	c #9494C1",
"# 	c #9191BE",
"$ 	c #8B8BBA",
"% 	c #8383B1",
"& 	c #7979A8",
"* 	c #606094",
"= 	c #A5A5CE",
"- 	c #FDFDFF",
"; 	c #F1F1FF",
"> 	c #E8E8FF",
", 	c #E0E0FB",
"' 	c #DADAF9",
") 	c #D5D5F7",
"! 	c #C4C4E9",
"~ 	c #ACACD7",
"{ 	c #48487C",
"] 	c #A6A6D3",
"^ 	c #DBDBFF",
"/ 	c #CACAF0",
"( 	c #B7B7E3",
"_ 	c #B4B4E1",
": 	c #A3A3D2",
"< 	c #8F8FBE",
"[ 	c #7E7EAE",
"} 	c #4F4F83",
"| 	c #37376A",
"1 	c #A0A0CC",
"2 	c #DEDEFF",
"3 	c #C0C0ED",
"4 	c #A6A6DB",
"5 	c #A5A5D8",
"6 	c #9696CA",
"7 	c #8686BA",
"8 	c #7575A8",
"9 	c #555587",
"0 	c #3A3A6C",
"a 	c #A7A7D0",
"b 	c #E8E8F9",
"c 	c #DADAF0",
"d 	c #D2D2EA",
"e 	c #CBCBE8",
"f 	c #B5B5DB",
"g 	c #A2A2CF",
"h 	c #8B8BBD",
"i 	c #7777AA",
"j 	c #3F3F74",
"k 	c #9D9DCD",
"l 	c #C0C0EE",
"m 	c #A8A8DC",
"n 	c #A5A5D9",
"o 	c #9797CA",
"p 	c #8787BA",
"q 	c #545487",
"r 	c #67678D",
"s 	c #FFFFFF",
"t 	c #0176DE",
"u 	c #A4A4CC",
"v 	c #E1E1F9",
"w 	c #B6B6E0",
"x 	c #B8B8E2",
"y 	c #B5B5D9",
"z 	c #8484B7",
"A 	c #7171A4",
"B 	c #8C8CB6",
"C 	c #B4B4C9",
"D 	c #378EE2",
"E 	c #0076DC",
"F 	c #9B9BCB",
"G 	c #E3E3FF",
"H 	c #DEDEF6",
"I 	c #CACAE7",
"J 	c #E6E6F3",
"K 	c #ABBDE3",
"L 	c #CFD2EA",
"M 	c #D2D2E6",
"N 	c #BABACF",
"O 	c #578DCE",
"P 	c #006AD1",
"Q 	c #007CE2",
"R 	c #A0A0C8",
"S 	c #DADAF7",
"T 	c #BEBEEB",
"U 	c #A7A7DB",
"V 	c #2E64B4",
"W 	c #3871B2",
"X 	c #C2C2C4",
"Y 	c #7496BE",
"Z 	c #0A61C3",
"` 	c #0068CE",
" .	c #008DF4",
"..	c #9B9BC9",
"+.	c #EFEFFF",
"@.	c #CDCDE9",
"#.	c #DDDDEF",
"$.	c #4974B0",
"%.	c #0046AB",
"&.	c #3B6EB9",
"*.	c #2165BB",
"=.	c #045CC0",
"-.	c #8383BA",
";.	c #C1C1EC",
">.	c #CFCFF6",
",.	c #B5B5E3",
"'.	c #E0E0F3",
").	c #8D8E92",
"!.	c #2E65B6",
"~.	c #0344A9",
"{.	c #014CB2",
"].	c #3A6DAF",
"^.	c #7A7AAB",
"/.	c #BDBDD6",
"(.	c #848485",
"_.	c #CFDCF1",
":.	c #0543A8",
"<.	c #3A72C6",
"[.	c #7E7E7E",
"}.	c #959595",
"|.	c #797979",
"1.	c #33599A",
"2.	c #70737A",
"3.	c #858585",
"                                ",
"                                ",
"        . + @ # $ % & *         ",
"      = - ; > , ' ) ! ~ {       ",
"      ] ^ / ( _ : < [ } |       ",
"      1 2 3 4 5 6 7 8 9 0       ",
"      a b c d e f g h i j       ",
"      k 2 l m n o p 8 q r s t   ",
"      u v w n x y z A B C D E   ",
"      F G H I J K L M N O P Q   ",
"      R S T U c V W X Y Z `  .  ",
"      ..+.@.f #.$.%.&.*.=.      ",
"      -.;.>.,.'.).!.~.{.].      ",
"          A ^./.(._.:.<.[.      ",
"                }.|.1.2.3.      ",
"                                "};
