/* XPM */
char *runu_xpm[] = {
"16 16 256 3",
"000 c #1058B8",
"001 c None",
"002 c #4868B0",
"003 c #E0E0E8",
"004 c #2078D0",
"005 c gray88",
"006 c #88A0D0",
"007 c #1868C8",
"008 c #D8D8E0",
"009 c #3888D8",
"010 c #0080E0",
"011 c #D8E0E8",
"012 c #A8B0D0",
"013 c #0068C8",
"014 c #5888D0",
"015 c #1078D0",
"016 c #88B0E0",
"017 c #3868B8",
"018 c #D0D8E8",
"019 c #78A0D8",
"020 c #0088F0",
"021 c #D0D0E0",
"022 c #0850B0",
"023 c #5080C8",
"024 c #1070D0",
"025 c #6890D0",
"026 c #1848A0",
"027 c #B8C0D8",
"028 c #48A8F0",
"029 c #0080E8",
"030 c #98B8E0",
"031 c #0068D0",
"032 c #5888C8",
"033 c #3078D0",
"034 c #80A8E0",
"035 c #0860C0",
"036 c #B8C8E8",
"037 c #50A0E0",
"038 c #1090F0",
"039 c #A0C0E0",
"040 c #0070D8",
"041 c #2850A8",
"042 c #7898D0",
"043 c #1870C8",
"044 c #4888D0",
"045 c #3080D0",
"046 c #A0B0D0",
"047 c #0060C8",
"048 c #3880D0",
"049 c #2878D0",
"050 c #80A0D8",
"051 c #2070C0",
"052 c #C0C8E0",
"053 c #70A0D8",
"054 c #2898E8",
"055 c #A8B8D8",
"056 c #0848A8",
"057 c #5070B0",
"058 c #0870D0",
"059 c #6090D0",
"060 c #1850A8",
"061 c #C8D0E0",
"062 c #50A8F0",
"063 c #90B0D8",
"064 c #0070D0",
"065 c #5088C8",
"066 c #0078E0",
"067 c #78C0F8",
"068 c #3070C0",
"069 c #B8C8E0",
"070 c #60A0D8",
"071 c #30A8F0",
"072 c #B0C0E0",
"073 c #4070B8",
"074 c #2068C0",
"075 c #80B0E8",
"076 c #5088D0",
"077 c #2078C8",
"078 c #2050B0",
"079 c #D0D8E0",
"080 c #1860C0",
"081 c #7098D0",
"082 c #38A8F0",
"083 c #98B0E0",
"084 c #58A8E0",
"085 c #1870D0",
"086 c #0888E8",
"087 c #6898D0",
"088 c #A0B8D8",
"089 c #1068C8",
"090 c #78C0F0",
"091 c #2070D0",
"092 c #5890C8",
"093 c #C0C0D8",
"094 c #1050B0",
"095 c #3858A8",
"096 c #2068C8",
"097 c #4888C8",
"098 c #88A8D8",
"099 c #2858A8",
"100 c #60B8F8",
"101 c #A0C0E8",
"102 c #58B8F8",
"103 c #1858B8",
"104 c #2870C8",
"105 c black",
"106 c black",
"107 c black",
"108 c black",
"109 c black",
"110 c black",
"111 c black",
"112 c black",
"113 c black",
"114 c black",
"115 c black",
"116 c black",
"117 c black",
"118 c black",
"119 c black",
"120 c black",
"121 c black",
"122 c black",
"123 c black",
"124 c black",
"125 c black",
"126 c black",
"127 c black",
"128 c black",
"129 c black",
"130 c black",
"131 c black",
"132 c black",
"133 c black",
"134 c black",
"135 c black",
"136 c black",
"137 c black",
"138 c black",
"139 c black",
"140 c black",
"141 c black",
"142 c black",
"143 c black",
"144 c black",
"145 c black",
"146 c black",
"147 c black",
"148 c black",
"149 c black",
"150 c black",
"151 c black",
"152 c black",
"153 c black",
"154 c black",
"155 c black",
"156 c black",
"157 c black",
"158 c black",
"159 c black",
"160 c black",
"161 c black",
"162 c black",
"163 c black",
"164 c black",
"165 c black",
"166 c black",
"167 c black",
"168 c black",
"169 c black",
"170 c black",
"171 c black",
"172 c black",
"173 c black",
"174 c black",
"175 c black",
"176 c black",
"177 c black",
"178 c black",
"179 c black",
"180 c black",
"181 c black",
"182 c black",
"183 c black",
"184 c black",
"185 c black",
"186 c black",
"187 c black",
"188 c black",
"189 c black",
"190 c black",
"191 c black",
"192 c black",
"193 c black",
"194 c black",
"195 c black",
"196 c black",
"197 c black",
"198 c black",
"199 c black",
"200 c black",
"201 c black",
"202 c black",
"203 c black",
"204 c black",
"205 c black",
"206 c black",
"207 c black",
"208 c black",
"209 c black",
"210 c black",
"211 c black",
"212 c black",
"213 c black",
"214 c black",
"215 c black",
"216 c black",
"217 c black",
"218 c black",
"219 c black",
"220 c black",
"221 c black",
"222 c black",
"223 c black",
"224 c black",
"225 c black",
"226 c black",
"227 c black",
"228 c black",
"229 c black",
"230 c black",
"231 c black",
"232 c black",
"233 c black",
"234 c black",
"235 c black",
"236 c black",
"237 c black",
"238 c black",
"239 c black",
"240 c black",
"241 c black",
"242 c black",
"243 c black",
"244 c black",
"245 c black",
"246 c black",
"247 c black",
"248 c black",
"249 c black",
"250 c black",
"251 c black",
"252 c black",
"253 c black",
"254 c black",
"255 c black",
"001001001001001001001001001001001001001001001001",
"001001016044001001001001053019001001001001001001",
"001039048023025001001075065068083001001001001001",
"001004042014074006011043042014103072001001001001",
"001036074044045022046063104044033094061001001001",
"001001039080049024056027081051004058078008001001",
"001001001034035040040026021023089040040095003001",
"001001001001059047066010041008017013066040057001",
"001001001001014013010010099003073040010066002001",
"001001001019024086020026021014015010010041003001",
"001001030043054038056093050004054038060018001001",
"001036091062082000012088049028071000052001001001",
"001043067100004006018004067102007055001001001001",
"001030009037025001001070084009098001001001001001",
"001001016065001001001001092087001001001001001001",
"001001001001001001001001001001001001001001001001"
};
