/* XPM */
static char *security_xpm[] = {
/* columns rows colors chars-per-pixel */
"16 16 110 2",
"O  c Black",
"Y  c #6A6A69",
"[  c #4D4D4D",
"C  c #333433",
"e  c #FF9247",
"0  c #000914",
"X. c #606060",
".. c #434343",
":. c #262626",
"&. c #090909",
")  c #737373",
"K  c #393939",
"=  c #0C1012",
"`  c #56565C",
"+  c #1F2020",
"-. c #2F2F2E",
"z  c #1F1D1D",
"}  c #2F2F2F",
"h  c #AF623B",
",  c #020304",
":  c #B78244",
"Q  c #424242",
"~  c #252525",
"E  c #72726F",
"x  c #4E3724",
"5  c #9D6C39",
"/  c #4B4B4B",
">  c #110B07",
"*. c #2E2E2E",
"1  c #CC9850",
"i  c #E3954F",
"D  c #7B7B7B",
"V  c #4E4F50",
"G  c #8787B8",
"|  c #242424",
"@  c #7E7F7F",
"t  c #CC924F",
"4  c #CF934D",
"n  c #545454",
"+. c #414148",
"!  c #373737",
"l  c #2A2F31",
"H  c #D1D1CF",
"=. c #2D2D2D",
"   c None",
"O. c #5D5D5B",
"L  c #232323",
"d  c #332F2D",
"8  c #00010C",
"7  c #CF6F32",
"%. c #191919",
"Z  c #2C2C29",
"m  c #838383",
"_  c #666666",
"P  c #494949",
"{  c #3F3F3F",
"M  c #A9A9A7",
"&  c #050505",
"J  c #525252",
"q  c #BB6A38",
"-  c #0B0A07",
"o  c #181818",
"#  c #727374",
"U  c #828282",
"*  c #1E1107",
"o. c #656565",
"a  c #94728E",
"b  c #49495D",
"j  c #FF7E4D",
" . c #0E0E0E",
"A  c #5B5B5B",
"r  c #FFB860",
"$. c #212121",
"@. c #515150",
"(  c #6E6E6E",
"v  c #513024",
"T  c #787883",
"%  c #171718",
"N  c #62647B",
"]  c #3D3D3A",
"w  c #814B42",
"X  c #202020",
"<  c #B56F2F",
"k  c #6973AB",
"6  c #090503",
"$  c #434547",
"F  c #CDCDCC",
"u  c #CE8D4A",
"I  c #767676",
"g  c #1C1B1C",
"s  c #8C5135",
"p  c #FF8849",
"y  c #D49552",
".  c #020202",
"c  c #15120F",
"^  c #151515",
"#. c #454545",
"3  c #D69E51",
",. c #0B0B0B",
"9  c #C38B46",
"S  c #929292",
"W  c #3B3B3B",
">. c #1E1E1E",
"'  c #646495",
";  c #4A371C",
"B  c #B8B8B8",
"2  c #D29C50",
";. c #272727",
"R  c #7777AF",
"f  c #704E35",
/* pixels */
"                                ",
"            . X o O             ",
"          + @ # $ % &           ",
"        * = - ; : > , O         ",
"        < 1 2 3 4 5 6 O         ",
"        7 8 O 9 0 O q w         ",
"        e r t y u i p a         ",
"          s d f g h j k         ",
"          l z x c v b           ",
"        n m M N B V C Z         ",
"      A S D F G H J K K L       ",
"    P I U Y T R E W Q ! ~ ^     ",
"    / ( ) _ ` ' ] [ { } |  .    ",
"    ..P X.o.O.+.@.#.K $.%.&.    ",
"        *.=.-.;.:.>.^ ,.        ",
"                                "
};
