/* XPM */
static char * server_edit_data_xpm[] = {
"16 16 150 2",
"  	c None",
". 	c #8C8CC3",
"+ 	c #7F7FB3",
"@ 	c #9090BF",
"# 	c #9494C1",
"$ 	c #9191BE",
"% 	c #8B8BBA",
"& 	c #8383B1",
"* 	c #7979A8",
"= 	c #606094",
"- 	c #4F4F82",
"; 	c #A5A5CE",
"> 	c #F1F1FF",
", 	c #E8E8FF",
"' 	c #E0E0FB",
") 	c #DADAF9",
"! 	c #D5D5F7",
"~ 	c #C4C4E9",
"{ 	c #ACACD7",
"] 	c #48487C",
"^ 	c #A6A6D3",
"/ 	c #DBDBFF",
"( 	c #CACAF0",
"_ 	c #B7B7E3",
": 	c #B4B4E1",
"< 	c #A3A3D2",
"[ 	c #8F8FBE",
"} 	c #7E7EAE",
"| 	c #4F4F83",
"1 	c #37376A",
"2 	c #A2A2CD",
"3 	c #DEDEFF",
"4 	c #C0C0ED",
"5 	c #A6A6DB",
"6 	c #A5A5D8",
"7 	c #9696CA",
"8 	c #8686BA",
"9 	c #7575A8",
"0 	c #555587",
"a 	c #3A3A6C",
"b 	c #E0431E",
"c 	c #D43518",
"d 	c #BA2D24",
"e 	c #9A575D",
"f 	c #D0D0E4",
"g 	c #EAEAFA",
"h 	c #DADAF0",
"i 	c #D2D2EA",
"j 	c #CBCBE8",
"k 	c #B5B5DB",
"l 	c #A2A2CF",
"m 	c #8B8BBD",
"n 	c #7777AA",
"o 	c #3F3F74",
"p 	c #E34621",
"q 	c #FBD2D0",
"r 	c #CAF8C9",
"s 	c #8BD477",
"t 	c #77B865",
"u 	c #D8EADF",
"v 	c #CFCFF2",
"w 	c #A8A8DC",
"x 	c #A5A5D9",
"y 	c #9797CA",
"z 	c #8787BA",
"A 	c #545487",
"B 	c #313164",
"C 	c #D83F23",
"D 	c #AED3B8",
"E 	c #84FB52",
"F 	c #8DFB5D",
"G 	c #72E74B",
"H 	c #5DC53B",
"I 	c #B0D5AD",
"J 	c #C8C8E8",
"K 	c #8484B7",
"L 	c #7171A4",
"M 	c #444478",
"N 	c #B53A2B",
"O 	c #628F5F",
"P 	c #69E745",
"Q 	c #89F55C",
"R 	c #92FB62",
"S 	c #78EB51",
"T 	c #5ACB38",
"U 	c #8FCF7D",
"V 	c #DCDEEC",
"W 	c #B8B8DB",
"X 	c #A4A4D1",
"Y 	c #8E8EC1",
"Z 	c #565689",
"` 	c #313163",
" .	c #478639",
"..	c #45C02B",
"+.	c #67E045",
"@.	c #84F158",
"#.	c #94FC63",
"$.	c #7CEE53",
"%.	c #5AD53B",
"&.	c #5FBD4C",
"*.	c #BCCCCD",
"=.	c #8E8EBE",
"-.	c #7171A5",
";.	c #5E5E91",
">.	c #464679",
",.	c #31A118",
"'.	c #3FBA28",
").	c #63DE43",
"!.	c #7FEF55",
"~.	c #8DFE5F",
"{.	c #BCE276",
"].	c #E1D487",
"^.	c #D3AC6A",
"/.	c #C8C5DB",
"(.	c #8181B3",
"_.	c #6D6DA0",
":.	c #323265",
"<.	c #2C9C17",
"[.	c #35B422",
"}.	c #5DDE40",
"|.	c #A5C85E",
"1.	c #FFCE99",
"2.	c #FFDB9F",
"3.	c #FFBB80",
"4.	c #DABABA",
"5.	c #8F8FBA",
"6.	c #4C4C80",
"7.	c #35356E",
"8.	c #289514",
"9.	c #1CAB14",
"0.	c #E8AA70",
"a.	c #FFC187",
"b.	c #EAC390",
"c.	c #AFA092",
"d.	c #A39293",
"e.	c #8787A8",
"f.	c #33336B",
"g.	c #008F00",
"h.	c #1A8C0F",
"i.	c #C69351",
"j.	c #FFAD75",
"k.	c #786960",
"l.	c #7A7D7F",
"m.	c #767879",
"n.	c #008A00",
"o.	c #D45F31",
"p.	c #D26732",
"q.	c #4D3C33",
"r.	c #363738",
"s.	c #585858",
"                                ",
"          . + @ # $ % & * = -   ",
"          ;   > , ' ) ! ~ { ]   ",
"          ^ / ( _ : < [ } | 1   ",
"          2 3 4 5 6 7 8 9 0 a   ",
"  b c d e f g h i j k l m n o   ",
"  p q r s t u v w x y z 9 A B   ",
"  C D E F G H I J 5 y K L 9 M   ",
"  N O P Q R S T U V W X Y Z `   ",
"     ...+.@.#.$.%.&.*.=.-.;.>.  ",
"      ,.'.).!.~.{.].^./.(._.:.  ",
"        <.[.}.|.1.2.3.4.5.6.7.  ",
"          8.9.0.a.b.c.d.e.f.    ",
"          g.h.i.j.k.l.m.        ",
"            n.o.p.q.r.s.        ",
"                                "};
