/* XPM */
char * server_rename_xpm[] = {
"16 16 94 2",
"  	c None",
". 	c #D7D7E3",
"+ 	c #A4A4C6",
"@ 	c #9F9FC6",
"# 	c #9B9BC4",
"$ 	c #9494C0",
"% 	c #8E8EBC",
"& 	c #8A8AB5",
"* 	c #8B8BB2",
"= 	c #8D8DB0",
"- 	c #C7C7D3",
"; 	c #A8A8CF",
"> 	c #F1F1FF",
", 	c #E8E8FF",
"' 	c #E0E0FB",
") 	c #DADAF9",
"! 	c #D5D5F7",
"~ 	c #C4C4E9",
"{ 	c #ACACD7",
"] 	c #555585",
"^ 	c #A6A6D3",
"/ 	c #DBDBFF",
"( 	c #CACAF0",
"_ 	c #B7B7E3",
": 	c #B4B4E1",
"< 	c #A3A3D2",
"[ 	c #8F8FBE",
"} 	c #7E7EAE",
"| 	c #4F4F83",
"1 	c #404071",
"2 	c #A2A2CD",
"3 	c #DEDEFF",
"4 	c #C0C0ED",
"5 	c #A6A6DB",
"6 	c #A5A5D8",
"7 	c #9696CA",
"8 	c #8686BA",
"9 	c #7575A8",
"0 	c #555587",
"a 	c #464674",
"b 	c #A8A8D0",
"c 	c #E8E8F9",
"d 	c #DADAF0",
"e 	c #D2D2EA",
"f 	c #CBCBE8",
"g 	c #B5B5DB",
"h 	c #A2A2CF",
"i 	c #8B8BBD",
"j 	c #7777AA",
"k 	c #474779",
"l 	c #A0A0CE",
"m 	c #C0C0EE",
"n 	c #A8A8DC",
"o 	c #A5A5D9",
"p 	c #9797CA",
"q 	c #8787BA",
"r 	c #545487",
"s 	c #3C3C6C",
"t 	c #A8A8CE",
"u 	c #E1E1F9",
"v 	c #B6B6E0",
"w 	c #A5A5DA",
"x 	c #8484B7",
"y 	c #7171A4",
"z 	c #4B4B7D",
"A 	c #9F9FCC",
"B 	c #E3E3FF",
"C 	c #DEDEF6",
"D 	c #CACAE7",
"E 	c #C4C4E3",
"F 	c #B2B2D8",
"G 	c #A4A4D1",
"H 	c #8E8EC1",
"I 	c #565689",
"J 	c #393969",
"K 	c #A6A6CB",
"L 	c #DADAF7",
"M 	c #BEBEEB",
"N 	c #A3A3CC",
"O 	c #EFEFFF",
"P 	c #CDCDE9",
"Q 	c #666666",
"R 	c #B1B1D0",
"S 	c #C1C1EC",
"T 	c #CFCFF6",
"U 	c #B5B5E3",
"V 	c #CCCCCC",
"W 	c #686868",
"X 	c #7E7E7E",
"Y 	c #BFBFD4",
"Z 	c #9696B9",
"` 	c #333333",
" .	c #797979",
"..	c #979797",
"                                ",
"    . + @ # $ % & * = -         ",
"    ;   > , ' ) ! ~ { ]         ",
"    ^ / ( _ : < [ } | 1         ",
"    2 3 4 5 6 7 8 9 0 a         ",
"    b c d e f g h i j k         ",
"    l 3 m n o p q 9 r s         ",
"    t u v o w p x y 9 z         ",
"    A B C D E F G H I J         ",
"    K L M g g g g g g g         ",
"    N O P g Q Q Q Q Q Q Q Q Q   ",
"    R S T U Q V W X W V V V Q   ",
"      Y Z g Q V   `         Q   ",
"            Q V  ... .      Q   ",
"            Q Q Q Q Q Q Q Q Q   ",
"                                "};
