/* XPM */
char *showSQLtext_xpm[] = {
"16 16 256 3",
"000 c None",
"001 c #F8F8F8",
"002 c #98A8B0",
"003 c #E8F0F8",
"004 c #7888B0",
"005 c #E0F0F8",
"006 c #A0A8B8",
"007 c #E8F8F8",
"008 c gray66",
"009 c #C8F0F8",
"010 c #A8A8B0",
"011 c #8090B0",
"012 c #D8E0F0",
"013 c #90A8B8",
"014 c #F0F8F8",
"015 c #7888A8",
"016 c #A0A8C0",
"017 c #A0A8A8",
"018 c #E0E8F0",
"019 c #687898",
"020 c #A0E0F8",
"021 c #A0A0A8",
"022 c #7088A8",
"023 c #C0C0D0",
"024 c #8088A8",
"025 c #808890",
"026 c #8898B8",
"027 c #C0D8D8",
"028 c #7080A0",
"029 c #98D0F8",
"030 c #7880A8",
"031 c #C0E8F8",
"032 c #E8B090",
"033 c #B8E8F8",
"034 c #6878A0",
"035 c #607098",
"036 c #80D0F8",
"037 c #A0D8F0",
"038 c #E0B098",
"039 c #98D0F0",
"040 c #F8D878",
"041 c #708098",
"042 c #90D8F8",
"043 c #A0A0A0",
"044 c #788080",
"045 c #889098",
"046 c #90C8E8",
"047 c #A8D8F0",
"048 c #E8B898",
"049 c #F88030",
"050 c #888890",
"051 c #90D0F0",
"052 c gray47",
"053 c #80C8F0",
"054 c #D0C088",
"055 c #707878",
"056 c #F88038",
"057 c #D09078",
"058 c #98D8F8",
"059 c #F0A880",
"060 c #808080",
"061 c #F8E070",
"062 c #F88830",
"063 c #90D0F8",
"064 c #C08878",
"065 c gray44",
"066 c black",
"067 c black",
"068 c black",
"069 c black",
"070 c black",
"071 c black",
"072 c black",
"073 c black",
"074 c black",
"075 c black",
"076 c black",
"077 c black",
"078 c black",
"079 c black",
"080 c black",
"081 c black",
"082 c black",
"083 c black",
"084 c black",
"085 c black",
"086 c black",
"087 c black",
"088 c black",
"089 c black",
"090 c black",
"091 c black",
"092 c black",
"093 c black",
"094 c black",
"095 c black",
"096 c black",
"097 c black",
"098 c black",
"099 c black",
"100 c black",
"101 c black",
"102 c black",
"103 c black",
"104 c black",
"105 c black",
"106 c black",
"107 c black",
"108 c black",
"109 c black",
"110 c black",
"111 c black",
"112 c black",
"113 c black",
"114 c black",
"115 c black",
"116 c black",
"117 c black",
"118 c black",
"119 c black",
"120 c black",
"121 c black",
"122 c black",
"123 c black",
"124 c black",
"125 c black",
"126 c black",
"127 c black",
"128 c black",
"129 c black",
"130 c black",
"131 c black",
"132 c black",
"133 c black",
"134 c black",
"135 c black",
"136 c black",
"137 c black",
"138 c black",
"139 c black",
"140 c black",
"141 c black",
"142 c black",
"143 c black",
"144 c black",
"145 c black",
"146 c black",
"147 c black",
"148 c black",
"149 c black",
"150 c black",
"151 c black",
"152 c black",
"153 c black",
"154 c black",
"155 c black",
"156 c black",
"157 c black",
"158 c black",
"159 c black",
"160 c black",
"161 c black",
"162 c black",
"163 c black",
"164 c black",
"165 c black",
"166 c black",
"167 c black",
"168 c black",
"169 c black",
"170 c black",
"171 c black",
"172 c black",
"173 c black",
"174 c black",
"175 c black",
"176 c black",
"177 c black",
"178 c black",
"179 c black",
"180 c black",
"181 c black",
"182 c black",
"183 c black",
"184 c black",
"185 c black",
"186 c black",
"187 c black",
"188 c black",
"189 c black",
"190 c black",
"191 c black",
"192 c black",
"193 c black",
"194 c black",
"195 c black",
"196 c black",
"197 c black",
"198 c black",
"199 c black",
"200 c black",
"201 c black",
"202 c black",
"203 c black",
"204 c black",
"205 c black",
"206 c black",
"207 c black",
"208 c black",
"209 c black",
"210 c black",
"211 c black",
"212 c black",
"213 c black",
"214 c black",
"215 c black",
"216 c black",
"217 c black",
"218 c black",
"219 c black",
"220 c black",
"221 c black",
"222 c black",
"223 c black",
"224 c black",
"225 c black",
"226 c black",
"227 c black",
"228 c black",
"229 c black",
"230 c black",
"231 c black",
"232 c black",
"233 c black",
"234 c black",
"235 c black",
"236 c black",
"237 c black",
"238 c black",
"239 c black",
"240 c black",
"241 c black",
"242 c black",
"243 c black",
"244 c black",
"245 c black",
"246 c black",
"247 c black",
"248 c black",
"249 c black",
"250 c black",
"251 c black",
"252 c black",
"253 c black",
"254 c black",
"255 c black",
"000000000000000000000000000000000000000000000000",
"000000026026011011004004022022028023000000000000",
"000000026001001001001001001001028004023000000000",
"000000026001001001001001001001004012004023000000",
"000000011001001001001001001001006004028028000000",
"000000011001001001008044055044008003018028000000",
"000000024001001008027014009020002017003019000000",
"000000024001001044007007031037042060003019000000",
"000000004001001055033033047051051052003019000000",
"000000004001001044042029046053058060003019000000",
"000000030001014021013036036029045050032006000000",
"000000028001014014021052065052050054062057000000",
"000000019001003003003003003003038049061049059000",
"000000035001003003003003005005005048049040045000",
"000000019019019019019019019019019006064025008000",
"000000000000000000000000000000000000000000000000"
};
