/* XPM */
char * source_xpm[] = {
"16 16 104 2",
"  	c None",
". 	c #8898B8",
"+ 	c #8393B4",
"@ 	c #7D8EB0",
"# 	c #7788AC",
"$ 	c #7082A7",
"% 	c #FFFFFF",
"& 	c #7E8EB1",
"* 	c #FEFEFE",
"= 	c #FDFEFE",
"- 	c #FAFCFE",
"; 	c #F9FBFD",
"> 	c #D9E2F5",
", 	c #8797B7",
"' 	c #FBFDFE",
") 	c #8090B1",
"! 	c #F8FBFD",
"~ 	c #F4F9FC",
"{ 	c #EEF4F9",
"] 	c #E0E8F0",
"^ 	c #70809F",
"/ 	c #808FAF",
"( 	c #CCCEDF",
"_ 	c #CBCDDF",
": 	c #C6CADE",
"< 	c #C0C6DE",
"[ 	c #BAC4DE",
"} 	c #B4C1DE",
"| 	c #ADBEDE",
"1 	c #ABBEDE",
"2 	c #EEF6FC",
"3 	c #6D7C9C",
"4 	c #FDFDFE",
"5 	c #FBFCFE",
"6 	c #F6FAFD",
"7 	c #F3F9FC",
"8 	c #F0F7FC",
"9 	c #EDF6FC",
"0 	c #6C7C9B",
"a 	c #7F8EAF",
"b 	c #C0C5DC",
"c 	c #BFC5DC",
"d 	c #BDC4DB",
"e 	c #B9C2DB",
"f 	c #B4BFDB",
"g 	c #AFBDDB",
"h 	c #AABADB",
"i 	c #A9BBDD",
"j 	c #ECF5FB",
"k 	c #6B7C9B",
"l 	c #7A89AB",
"m 	c #C3C7DB",
"n 	c #C2C7DB",
"o 	c #BEC5DB",
"p 	c #B4C0DB",
"q 	c #A9BADB",
"r 	c #A9BCDC",
"s 	c #EAF5FB",
"t 	c #6B7C9A",
"u 	c #7887A9",
"v 	c #C1C6DB",
"w 	c #BCC4DB",
"x 	c #B7C1DB",
"y 	c #B2BFDB",
"z 	c #ADBCDB",
"A 	c #A8BADA",
"B 	c #A7BBDC",
"C 	c #E8F4FB",
"D 	c #6B7B99",
"E 	c #7080A3",
"F 	c #BBC3DB",
"G 	c #BAC3DB",
"H 	c #B8C2DB",
"I 	c #B3BFDB",
"J 	c #AABBDA",
"K 	c #A5B8DA",
"L 	c #A5B9DC",
"M 	c #E6F3FA",
"N 	c #6A7A99",
"O 	c #6F7FA2",
"P 	c #B5C2DD",
"Q 	c #B5C2DC",
"R 	c #B1BFDC",
"S 	c #AEBEDC",
"T 	c #A9BBDC",
"U 	c #A5BADC",
"V 	c #A3BADC",
"W 	c #E2F1FA",
"X 	c #687998",
"Y 	c #66779B",
"Z 	c #E9F4FA",
"` 	c #E8F3FA",
" .	c #E7F3FA",
"..	c #E6F2FA",
"+.	c #E4F1FA",
"@.	c #E0EFF9",
"#.	c #DAEDF8",
"$.	c #677997",
"%.	c #6D7E9D",
"&.	c #6D7E9C",
"*.	c #6D7D9C",
"=.	c #6C7D9C",
"-.	c #6A7C9A",
";.	c #687B99",
"                                ",
"    . . + + @ @ # # $           ",
"    . % % % % % % % $ &         ",
"    . % % % * = - ; $ > &       ",
"    , % % % % * ' ; $ $ $ $     ",
"    ) % % % % * ' ! ~ { ] ^     ",
"    / % ( _ : < [ } | 1 2 3     ",
"    / % * * 4 5 ! 6 7 8 9 0     ",
"    a % b c d e f g h i j k     ",
"    l % m n o e p g q r s t     ",
"    u % n v w x y z A B C D     ",
"    E % F G H I g J K L M N     ",
"    O % P P Q R S T U V W X     ",
"    Y % Z Z Z `  ...+.@.#.$.    ",
"    k %.&.&.&.*.=.k k -.;.k     ",
"                                "};
