/* XPM */
char * sql_console_xpm[] = {
"16 16 19 1",
" 	c None",
".	c #969696",
"+	c #939393",
"@	c #909090",
"#	c #8D8D8D",
"$	c #8A8A8A",
"%	c #878787",
"&	c #858585",
"*	c #828282",
"=	c #7F7F7F",
"-	c #7D7D7D",
";	c #7A7A7A",
">	c #777777",
",	c #747474",
"'	c #717171",
")	c #8C8A8C",
"!	c #848684",
"~	c #000000",
"{	c #C6C7C6",
"                ",
"..+@#$%&*=-;>,' ",
".             ')",
". ! !!! !!!   ')",
".             ')",
".             ')",
".+@#$%&*=-;>,'')",
" )))))))))))))))",
"                ",
"  ~~~ ~~~~ ~    ",
"  ~)))~))~)~)   ",
"  ~~~)~){~)~)   ",
"    ~)~)~~)~)   ",
"  ~~~)~~~~)~~~  ",
"   ))) )))~)))) ",
"                "};
