/* XPM */
char * srvcert_xpm[] = {
"16 16 98 2",
"  	c None",
". 	c #F13907",
"+ 	c #EF3D09",
"@ 	c #E83205",
"# 	c #ED3604",
"$ 	c #D81E00",
"% 	c #FF5914",
"& 	c #FF9B31",
"* 	c #E44A11",
"= 	c #DD3609",
"- 	c #EA3204",
"; 	c #FF3500",
"> 	c #DA1E00",
", 	c #FF3301",
"' 	c #FF8929",
") 	c #D6370C",
"! 	c #DD4D13",
"~ 	c #AE2B08",
"{ 	c #BF2704",
"] 	c #E02700",
"^ 	c #F02B00",
"/ 	c #FF3F06",
"( 	c #FF6719",
"_ 	c #DA3409",
": 	c #BC330B",
"< 	c #B42605",
"[ 	c #B61E01",
"} 	c #BB1900",
"| 	c #F13D06",
"1 	c #C71300",
"2 	c #FF4D0C",
"3 	c #E43105",
"4 	c #C52A04",
"5 	c #C12101",
"6 	c #C21D00",
"7 	c #BB1500",
"8 	c #EF4A0F",
"9 	c #C21300",
"0 	c #FE3501",
"a 	c #F72E00",
"b 	c #EF2D00",
"c 	c #CD1E00",
"d 	c #C81800",
"e 	c #E84C12",
"f 	c #D62D07",
"g 	c #B60C00",
"h 	c #D61B00",
"i 	c #E72300",
"j 	c #F32D01",
"k 	c #F43C08",
"l 	c #F0490F",
"m 	c #D22705",
"n 	c #B30800",
"o 	c #FD4717",
"p 	c #E9491B",
"q 	c #D52208",
"r 	c #CD1000",
"s 	c #BF0B00",
"t 	c #B61101",
"u 	c #DE3615",
"v 	c #FF2E05",
"w 	c #FF3404",
"x 	c #FF5B1C",
"y 	c #FF5D1E",
"z 	c #FB350C",
"A 	c #FF3905",
"B 	c #FF5722",
"C 	c #FF6518",
"D 	c #FA3D11",
"E 	c #FC3307",
"F 	c #FF640A",
"G 	c #FC3C0E",
"H 	c #F72701",
"I 	c #FC3B0D",
"J 	c #FF660A",
"K 	c #FF3A09",
"L 	c #EC2101",
"M 	c #FE2F00",
"N 	c #FD6300",
"O 	c #F52E01",
"P 	c #EE1D00",
"Q 	c #F62B01",
"R 	c #FF5901",
"S 	c #FF4400",
"T 	c #E52300",
"U 	c #D01A00",
"V 	c #DB2000",
"W 	c #D42100",
"X 	c #E11500",
"Y 	c #F02000",
"Z 	c #E62E00",
"` 	c #CA1800",
" .	c #D01E00",
"..	c #B70E00",
"+.	c #C21100",
"@.	c #D81500",
"#.	c #C41300",
"$.	c #CC1700",
"                                ",
"          . + @ # $             ",
"        % & * = - ; >           ",
"      , ' ) ! ~ { ] ^           ",
"      / ( _ : < [ } | 1         ",
"        2 3 4 5 6 7 8 9         ",
"        0 a b c d e f g         ",
"        h i j k l m n           ",
"        o p q r s t u v         ",
"      w x y z   A B C D         ",
"      E F G H     I J K L       ",
"      M N O P     Q R S T       ",
"    U V U W X     Y Z `  ...    ",
"    +.@.  #.        $.          ",
"                                ",
"                                "};
