/* XPM */
char *sts_pref_xpm[] = {
"16 16 61 3",
"000 c None",
"001 c #E8F0F8",
"002 c #D8E0F0",
"003 c #F0F8F8",
"004 c #C0C8D0",
"005 c #E0E0F0",
"006 c #C0C8D8",
"007 c #B8C0D8",
"008 c #D0D8E8",
"009 c #C0C0C0",
"010 c #F0F0F8",
"011 c #C0C0D8",
"012 c #B0C0D8",
"013 c #C0C0D0",
"014 c #E0E8F0",
"015 c #C8C8D8",
"016 c #C8D8F0",
"017 c #B8C0D0",
"018 c #909090",
"019 c #B0B8C8",
"020 c #90A8D0",
"021 c #A8B8D8",
"022 c #889090",
"023 c #9898A0",
"024 c gray47",
"025 c #7888B0",
"026 c #98C0E8",
"027 c #7080A0",
"028 c #808080",
"029 c #7888A8",
"030 c #8088A8",
"031 c #6090B8",
"032 c #8898B8",
"033 c #7880A8",
"034 c #6878A0",
"035 c #8090B0",
"036 c #3870B0",
"037 c #80A8E0",
"038 c #708098",
"039 c #4068A8",
"040 c #687898",
"041 c #2060B0",
"042 c #607098",
"043 c #305898",
"044 c #707078",
"045 c #4870B0",
"046 c #0040A8",
"047 c #3868B8",
"048 c #6090D0",
"049 c #2860B0",
"050 c #3870C0",
"051 c #7088A8",
"052 c #0058C0",
"053 c #3060B0",
"054 c #0068C8",
"055 c #0070D8",
"056 c #0078D8",
"057 c #0860C0",
"058 c #0068D0",
"059 c #0060C8",
"060 c black",
"000000000000000000000000000000000000000000000000",
"000000032032035035025025051051027027000000000000",
"000000032001001001001001001001027025027000000000",
"000000032001001001001001001001027002025027000000",
"000000035001001001001001001001027027027027000000",
"000000035001001001001001001001003001014027000000",
"000000030001015015004011007012021021001034000000",
"000000030001001001001001001001001010001007059000",
"000000025001011007007007008021021021003048055000",
"000000025001001001001008026002002002037054056000",
"000000033001011011007005053036009031057054052000",
"000000027001001001001005045046047041052020000000",
"000000034001012012012002022049046046039004000000",
"000000042001001001001003028016046050028011000000",
"000000034034034034034019023024043044018019000000",
"000000000000000000000000000000000000000000000000"
};
