/* XPM */
char *stylesheet_xpm[] = {
"16 16 28 3",
"000 c None",
"001 c #E0F0F8",
"002 c #C0C0D8",
"003 c #E8F0F8",
"004 c #B0B8D8",
"005 c #D8E8F8",
"006 c #C8C8D8",
"007 c #A8B8D8",
"008 c #B8C0D8",
"009 c #E0E8F8",
"010 c #C0C8D8",
"011 c #7080A0",
"012 c #B0C0D8",
"013 c #8088A8",
"014 c #D8E0F0",
"015 c #7888B0",
"016 c #687898",
"017 c #8898B8",
"018 c #A0B8D8",
"019 c #607098",
"020 c #8090B0",
"021 c #7888A8",
"022 c #7088A8",
"023 c #6878A0",
"024 c #7880A8",
"025 c #607890",
"026 c #708098",
"027 c black",
"000000000000000000000000000000000000000000000000",
"000000017017020020015015022022011011000000000000",
"000000017003003003003003003003011015011000000000",
"000000017003003003003003003003011014015011000000",
"000000020003003003003003003003011011011011000000",
"000000020003003003003003003003003003003011000000",
"000000013003006006010002008012007007003016000000",
"000000013003003003003003003003003003003016000000",
"000000015003002008008008004007007007003016000000",
"000000015003003003003003003003003003003016000000",
"000000024003002002008012004007007018003016000000",
"000000011003003003003003003003003003001016000000",
"000000016003012012012004007007018018001016000000",
"000000019003003003003003001001001009005025000000",
"000000016016016016016016016016016016016016000000",
"000000000000000000000000000000000000000000000000"
};
