/* XPM */
static char *ta_xpm[] = {
"16 16 16 2",
"00 c none",
"01 c black",
"02 c #00F8F8",
"03 c #F80000",
"04 c gray47",
"05 c #0000F8",
"06 c gray72",
"07 c black",
"08 c black",
"09 c black",
"10 c black",
"11 c black",
"12 c black",
"13 c black",
"14 c black",
"15 c black",
"01010101010101010101010100000000",
"04050505060505050605050400000000",
"01050505060505050605050100000000",
"04020202040202020402020400000000",
"01040404040404040404040100000000",
"04020202040202020402020400000000",
"01040404040404040401010101000000",
"04020202040202020401030301000000",
"01040404040404040401030301000000",
"04020202040201010101030301010101",
"01010101010101030303030303030301",
"00000000000001030303030303030301",
"00000000000001010101030301010101",
"00000000000000000001030301000000",
"00000000000000000001030301000000",
"00000000000000000001010101000000"
};
