/* XPM */
static char *td_xpm[] = {
"16 16 16 2",
"00 c none",
"01 c black",
"02 c #00F8F8",
"03 c gray72",
"04 c #0000F8",
"05 c #007800",
"06 c gray47",
"07 c black",
"08 c black",
"09 c black",
"10 c black",
"11 c black",
"12 c black",
"13 c black",
"14 c black",
"15 c black",
"01010101010101010101010100000000",
"06040404030404040304040600000000",
"01040404030404040304040100000000",
"06020202060202020602020600000000",
"01060606060606060606060100000000",
"06020202060202020602020600000000",
"01060606060606060606060100000000",
"06020202060202020602020600000000",
"01060606060606010601060100000000",
"06020202060201010101010101010101",
"01010101010101050505050505050501",
"00000000000001050505050505050501",
"00000000000001010101010101010101",
"00000000000000000000000000000000",
"00000000000000000000000000000000",
"00000000000000000000000000000000"
};
