/* XPM */
static char * trace_xpm[] = {
"16 16 104 2",
"  	c None",
". 	c #A7A7C1",
"+ 	c #ABABC3",
"@ 	c #9393AA",
"# 	c #D0D0FB",
"$ 	c #F8F8FB",
"% 	c #D8D8E0",
"& 	c #D3D3E0",
"* 	c #C1C1D1",
"= 	c #A8A8B9",
"- 	c #91919E",
"; 	c #E8E8FF",
"> 	c #FFFFFF",
", 	c #FCFCFD",
"' 	c #F7F7FB",
") 	c #F9F9FF",
"! 	c #CCCCD7",
"~ 	c #8F8FB0",
"{ 	c #7B7B94",
"] 	c #E3E3EF",
"^ 	c #7C7C9B",
"/ 	c #7A7A89",
"( 	c #D6D6FF",
"_ 	c #7F7F91",
": 	c #E6E6EE",
"< 	c #BABABF",
"[ 	c #6E6E83",
"} 	c #88889C",
"| 	c #D4D4FF",
"1 	c #72727A",
"2 	c #EFEFF3",
"3 	c #BDBDC3",
"4 	c #A5A5A7",
"5 	c #F7F7F9",
"6 	c #B1B1B9",
"7 	c #0176DE",
"8 	c #ECECF3",
"9 	c #EFEFF4",
"0 	c #F7F7F8",
"a 	c #FBFBFC",
"b 	c #A2A2A9",
"c 	c #378EE2",
"d 	c #0076DC",
"e 	c #C1C1DF",
"f 	c #FBFBFF",
"g 	c #E2E2F9",
"h 	c #9696B3",
"i 	c #D3D3E4",
"j 	c #DCDCE8",
"k 	c #F2F2F7",
"l 	c #C3D4EE",
"m 	c #F3F6FD",
"n 	c #E0E0E2",
"o 	c #5D9ADE",
"p 	c #006AD1",
"q 	c #007CE2",
"r 	c #B5B5CE",
"s 	c #DBDBE6",
"t 	c #FDFDFE",
"u 	c #C8C8D5",
"v 	c #A0A0B1",
"w 	c #3066B5",
"x 	c #3872B3",
"y 	c #C3C3C4",
"z 	c #7496BE",
"A 	c #0961C3",
"B 	c #0068CE",
"C 	c #008DF4",
"D 	c #9898B0",
"E 	c #9F9FB8",
"F 	c #ADADC4",
"G 	c #D6D6E5",
"H 	c #F3F3F8",
"I 	c #F6F6FA",
"J 	c #E4E4E6",
"K 	c #4973AF",
"L 	c #0046AB",
"M 	c #3B6EB9",
"N 	c #2165BB",
"O 	c #045CC0",
"P 	c #9191A6",
"Q 	c #9393AD",
"R 	c #B6B6D5",
"S 	c #93939E",
"T 	c #E6E6EC",
"U 	c #8D8E92",
"V 	c #2E65B6",
"W 	c #0344A9",
"X 	c #014CB2",
"Y 	c #3A6DB0",
"Z 	c #7D7D8C",
"` 	c #767682",
" .	c #E3E3EC",
"..	c #848484",
"+.	c #CFDCF1",
"@.	c #0543A8",
"#.	c #3A72C6",
"$.	c #7E7E7E",
"%.	c #BDBDC2",
"&.	c #8F8F93",
"*.	c #797979",
"=.	c #33599A",
"-.	c #70737A",
";.	c #858585",
"                                ",
"            . + @               ",
"          # $ % & * = -         ",
"          ; > > , ' ) ! ~ {     ",
"          ] > > > > > ^ / ( _   ",
"          : > > > > < [ } | 1   ",
"          2 > > > > 3     4     ",
"          5 > > > > 6     > 7   ",
"          8 9 0 a > b   > c d   ",
"  e f g h i j k l m n > o p q   ",
"  r s k t u v 9 w x y z A B C   ",
"  D E F G H I J K L M N O       ",
"      P Q R S T U V W X Y       ",
"          Z `  ...+.@.#.$.      ",
"              %.&.*.=.-.;.      ",
"                                "};
