/* XPM */
char *Undo_xpm[] = {
"16 16 256 3",
"000 c None",
"001 c gray88",
"002 c #98C8F8",
"003 c #E0E0E8",
"004 c #90B8E0",
"005 c #C0D0E0",
"006 c #B0D8F8",
"007 c #D8E0E8",
"008 c #90C0F8",
"009 c #C0D0E8",
"010 c #A0C0E0",
"011 c #E0E8E8",
"012 c #98B8E0",
"013 c #D0D8E0",
"014 c #B8E0F8",
"015 c #88C8F8",
"016 c #B8C8E0",
"017 c #C0E0F8",
"018 c #90D0F8",
"019 c #90C8F8",
"020 c #78B8F8",
"021 c #88C0F8",
"022 c #A8D0F8",
"023 c #90C0F0",
"024 c #78A0D0",
"025 c #80C0F8",
"026 c #78A8D8",
"027 c #80C8F8",
"028 c #A8D8F8",
"029 c #6088C8",
"030 c #80A8D8",
"031 c #88B0D8",
"032 c #70C0F8",
"033 c #80A0D0",
"034 c #88A8D8",
"035 c #58A8F8",
"036 c #68B8F8",
"037 c #5888C8",
"038 c #88A8D0",
"039 c #70A8E0",
"040 c #48A8F8",
"041 c #6098D8",
"042 c #70B8F8",
"043 c #50A0E8",
"044 c #6888C0",
"045 c #60B0F8",
"046 c #70A0D0",
"047 c #4080C8",
"048 c #5898D8",
"049 c #40A0E8",
"050 c #4890D0",
"051 c #58A0E8",
"052 c #78B8E0",
"053 c #3898E8",
"054 c #4870B8",
"055 c #48A0E8",
"056 c #5090D0",
"057 c #4090D0",
"058 c #58B0F8",
"059 c #4088D8",
"060 c #5098E0",
"061 c #3888E0",
"062 c #38A8F8",
"063 c #30A0F8",
"064 c #40A8F8",
"065 c #3878C8",
"066 c #4078C0",
"067 c #2878C8",
"068 c #3888D8",
"069 c #2868C0",
"070 c #3068B8",
"071 c #2888E0",
"072 c #3088D8",
"073 c #0860C8",
"074 c #3080C8",
"075 c #2880D8",
"076 c #2878D0",
"077 c #2060B8",
"078 c #2098F8",
"079 c #3078D0",
"080 c #2880E0",
"081 c #3090D8",
"082 c #1860C0",
"083 c #2078D0",
"084 c #20A0F8",
"085 c #1078E8",
"086 c #0870E0",
"087 c #1070D8",
"088 c #1060C8",
"089 c black",
"090 c black",
"091 c black",
"092 c black",
"093 c black",
"094 c black",
"095 c black",
"096 c black",
"097 c black",
"098 c black",
"099 c black",
"100 c black",
"101 c black",
"102 c black",
"103 c black",
"104 c black",
"105 c black",
"106 c black",
"107 c black",
"108 c black",
"109 c black",
"110 c black",
"111 c black",
"112 c black",
"113 c black",
"114 c black",
"115 c black",
"116 c black",
"117 c black",
"118 c black",
"119 c black",
"120 c black",
"121 c black",
"122 c black",
"123 c black",
"124 c black",
"125 c black",
"126 c black",
"127 c black",
"128 c black",
"129 c black",
"130 c black",
"131 c black",
"132 c black",
"133 c black",
"134 c black",
"135 c black",
"136 c black",
"137 c black",
"138 c black",
"139 c black",
"140 c black",
"141 c black",
"142 c black",
"143 c black",
"144 c black",
"145 c black",
"146 c black",
"147 c black",
"148 c black",
"149 c black",
"150 c black",
"151 c black",
"152 c black",
"153 c black",
"154 c black",
"155 c black",
"156 c black",
"157 c black",
"158 c black",
"159 c black",
"160 c black",
"161 c black",
"162 c black",
"163 c black",
"164 c black",
"165 c black",
"166 c black",
"167 c black",
"168 c black",
"169 c black",
"170 c black",
"171 c black",
"172 c black",
"173 c black",
"174 c black",
"175 c black",
"176 c black",
"177 c black",
"178 c black",
"179 c black",
"180 c black",
"181 c black",
"182 c black",
"183 c black",
"184 c black",
"185 c black",
"186 c black",
"187 c black",
"188 c black",
"189 c black",
"190 c black",
"191 c black",
"192 c black",
"193 c black",
"194 c black",
"195 c black",
"196 c black",
"197 c black",
"198 c black",
"199 c black",
"200 c black",
"201 c black",
"202 c black",
"203 c black",
"204 c black",
"205 c black",
"206 c black",
"207 c black",
"208 c black",
"209 c black",
"210 c black",
"211 c black",
"212 c black",
"213 c black",
"214 c black",
"215 c black",
"216 c black",
"217 c black",
"218 c black",
"219 c black",
"220 c black",
"221 c black",
"222 c black",
"223 c black",
"224 c black",
"225 c black",
"226 c black",
"227 c black",
"228 c black",
"229 c black",
"230 c black",
"231 c black",
"232 c black",
"233 c black",
"234 c black",
"235 c black",
"236 c black",
"237 c black",
"238 c black",
"239 c black",
"240 c black",
"241 c black",
"242 c black",
"243 c black",
"244 c black",
"245 c black",
"246 c black",
"247 c black",
"248 c black",
"249 c black",
"250 c black",
"251 c black",
"252 c black",
"253 c black",
"254 c black",
"255 c black",
"000000000000000000000000000000000000000000000000",
"000000000000000000000000000000000000000000000000",
"000000000000000000000013044069082070024000000000",
"000000000000000000016067002018032062085029000000",
"000000000000000005067006035040064063078086034000",
"000039060011001074014045058083047065087084054000",
"000059019024046002020036067010000000030085082000",
"000057006061072028042061012000000000000079073000",
"000050006025025025042056000000000000000037088000",
"000026002021025002075047050004000000000033077000",
"000031043022021002002025027075007000000034066000",
"000000053006008015015051075048000000000034024000",
"000000049017008055071041007000000000000005001000",
"000000052081057004000000000000000000000000000000",
"000000000000000000000000000000000000000000000000",
"000000000000000000000000000000000000000000000000"
};
