/* XPM */
static char * unreg_srv_xpm[] = {
"16 16 163 2",
"  	c None",
". 	c #8C8CC3",
"+ 	c #7F7FB3",
"@ 	c #9090BF",
"# 	c #9494C1",
"$ 	c #9191BE",
"% 	c #8B8BBA",
"& 	c #8383B1",
"* 	c #7979A8",
"= 	c #606094",
"- 	c #4F4F82",
"; 	c #A5A5CE",
"> 	c #F1F1FF",
", 	c #E8E8FF",
"' 	c #E0E0FB",
") 	c #DADAF9",
"! 	c #D5D5F7",
"~ 	c #C4C4E9",
"{ 	c #ACACD7",
"] 	c #48487C",
"^ 	c #A6A6D3",
"/ 	c #DBDBFF",
"( 	c #CACAF0",
"_ 	c #B7B7E3",
": 	c #B4B4E1",
"< 	c #A3A3D2",
"[ 	c #8F8FBE",
"} 	c #7E7EAE",
"| 	c #4F4F83",
"1 	c #37376A",
"2 	c #A0A0CC",
"3 	c #DEDEFF",
"4 	c #C0C0ED",
"5 	c #A6A6DB",
"6 	c #A5A5D8",
"7 	c #9696CA",
"8 	c #8686BA",
"9 	c #7575A8",
"0 	c #555587",
"a 	c #3A3A6C",
"b 	c #A7A7D0",
"c 	c #E8E8F9",
"d 	c #DADAF0",
"e 	c #D3D3EA",
"f 	c #CBCBE8",
"g 	c #B5B5DB",
"h 	c #A2A2CF",
"i 	c #8B8BBD",
"j 	c #7777AA",
"k 	c #3F3F74",
"l 	c #C8C8F0",
"m 	c #D6D6EE",
"n 	c #C2C2E5",
"o 	c #9797CA",
"p 	c #8787BA",
"q 	c #545487",
"r 	c #313164",
"s 	c #CFCFE6",
"t 	c #BFBFC1",
"u 	c #9B9B9F",
"v 	c #B5B5B9",
"w 	c #ADADB3",
"x 	c #AFAFB8",
"y 	c #E9E9E9",
"z 	c #C90000",
"A 	c #BD3B3D",
"B 	c #F2F2FC",
"C 	c #D7BECB",
"D 	c #BA2F32",
"E 	c #E1B3BD",
"F 	c #B1B1B1",
"G 	c #DBDBED",
"H 	c #A4A4D1",
"I 	c #C4C4C4",
"J 	c #8F8F8F",
"K 	c #7E7E7E",
"L 	c #D7D7D7",
"M 	c #BF120A",
"N 	c #FF6D39",
"O 	c #D0878B",
"P 	c #B63939",
"Q 	c #FF6D2B",
"R 	c #BD2A29",
"S 	c #DEDEDE",
"T 	c #BBBBBC",
"U 	c #A1A1A2",
"V 	c #E0E0E1",
"W 	c #E3E3E4",
"X 	c #DADBDE",
"Y 	c #8E8E93",
"Z 	c #CBCBCC",
"` 	c #9E0000",
" .	c #FF7D3F",
"..	c #DD3F1C",
"+.	c #FF6129",
"@.	c #C42212",
"#.	c #D4C0D2",
"$.	c #919191",
"%.	c #A5A6A9",
"&.	c #E6E7EA",
"*.	c #E1E1E9",
"=.	c #DBDCE2",
"-.	c #E0BC35",
";.	c #E0C662",
">.	c #8C8F9F",
",.	c #BF2210",
"'.	c #FF662D",
").	c #F4491C",
"!.	c #C46F74",
"~.	c #686868",
"{.	c #E9EAF3",
"].	c #F8CA0E",
"^.	c #F5D237",
"/.	c #D1D5E2",
"(.	c #C2930F",
"_.	c #FFFF58",
":.	c #CAAD30",
"<.	c #EAE9E6",
"[.	c #C40000",
"}.	c #C5220F",
"|.	c #FF672C",
"1.	c #FF5D25",
"2.	c #FF5B20",
"3.	c #BA1F14",
"4.	c #D9C5D5",
"5.	c #6D6D6D",
"6.	c #E5E9F2",
"7.	c #B98400",
"8.	c #FFF351",
"9.	c #EACA43",
"0.	c #958570",
"a.	c #C59000",
"b.	c #FFFF85",
"c.	c #EBCD59",
"d.	c #AD0302",
"e.	c #FF722C",
"f.	c #D43314",
"g.	c #C3311D",
"h.	c #FF4E17",
"i.	c #FF5C15",
"j.	c #BE3231",
"k.	c #C8C8C8",
"l.	c #7F8182",
"m.	c #A8A4A7",
"n.	c #AF7A00",
"o.	c #FEEA67",
"p.	c #BCA554",
"q.	c #6E6053",
"r.	c #A98006",
"s.	c #AE953C",
"t.	c #C30502",
"u.	c #AE0F04",
"v.	c #A20000",
"w.	c #AE0200",
"x.	c #B50501",
"y.	c #C80000",
"z.	c #8B8D92",
"A.	c #675A54",
"B.	c #7D570F",
"C.	c #8D826E",
"D.	c #CECFD2",
"E.	c #D1C7C1",
"F.	c #D9D1CB",
"                                ",
"      . + @ # $ % & * = -       ",
"      ;   > , ' ) ! ~ { ]       ",
"      ^ / ( _ : < [ } | 1       ",
"      2 3 4 5 6 7 8 9 0 a       ",
"      b c d e f g h i j k       ",
"      b 3 l m n o p 9 q r       ",
"      s   l m t u v w x y       ",
"  z A B C D E F G H I J K L     ",
"  M N O P Q R S T U V W X Y Z   ",
"  `  ...+.@.#.$.%.&.*.=.-.;.>.  ",
"    ,.'.).!.e ~.{.].^./.(._.:.<.",
"[.}.|.1.2.3.4.5.6.7.8.9.0.a.b.c.",
"d.e.f.g.h.i.j.k.l.m.n.o.p.q.r.s.",
"t.u.v.  w.x.y.  k.z.A.B.C.D.E.F.",
"                                "};
