/* XPM */
char * validateSQL_xpm[] = {
"16 16 256 3",
"000 c #087018",
"001 c None",
"002 c #F8F8F8",
"003 c #F0F8F8",
"004 c #90D088",
"005 c #F0E8F0",
"006 c #E8F0F8",
"007 c #F8F0F8",
"008 c #309030",
"009 c #E8E8F0",
"010 c #E8F0F0",
"011 c #607098",
"012 c #D8E0F0",
"013 c #009800",
"014 c #C0C0D8",
"015 c #7888B0",
"016 c #50C028",
"017 c #C8C8D8",
"018 c #7880A8",
"019 c #187830",
"020 c #88D068",
"021 c #78C860",
"022 c #50B048",
"023 c #C0C8D8",
"024 c #7080A0",
"025 c #009000",
"026 c #C0C0D0",
"027 c #78B080",
"028 c #60C058",
"029 c #D8E0E8",
"030 c #7888A8",
"031 c #20A800",
"032 c #78B078",
"033 c #48B038",
"034 c #D8D8E8",
"035 c #00A000",
"036 c #B8D0C0",
"037 c #687898",
"038 c #48B820",
"039 c #C8D0E0",
"040 c #8898B8",
"041 c #207830",
"042 c #8090B0",
"043 c #78C080",
"044 c #38A040",
"045 c #E0E8E0",
"046 c #18A008",
"047 c #B0C0D8",
"048 c #609870",
"049 c #40A838",
"050 c #E0E0E8",
"051 c #7088A8",
"052 c #007030",
"053 c #80C088",
"054 c #38B028",
"055 c #48C020",
"056 c #208028",
"057 c #A0D898",
"058 c #58B848",
"059 c #48A840",
"060 c #20A808",
"061 c #B8C0D8",
"062 c #78D048",
"063 c #6878A0",
"064 c #008808",
"065 c #60B858",
"066 c #38B018",
"067 c #008810",
"068 c #B0B8C0",
"069 c #708098",
"070 c #58C028",
"071 c #188028",
"072 c #A8B8C0",
"073 c #80D068",
"074 c #40A840",
"075 c #78A878",
"076 c #68C840",
"077 c #8088A8",
"078 c #007028",
"079 c #90D870",
"080 c #58B850",
"081 c #609068",
"082 c #28B008",
"083 c #40B818",
"084 c #287838",
"085 c #68C830",
"086 c black",
"087 c black",
"088 c black",
"089 c black",
"090 c black",
"091 c black",
"092 c black",
"093 c black",
"094 c black",
"095 c black",
"096 c black",
"097 c black",
"098 c black",
"099 c black",
"100 c black",
"101 c black",
"102 c black",
"103 c black",
"104 c black",
"105 c black",
"106 c black",
"107 c black",
"108 c black",
"109 c black",
"110 c black",
"111 c black",
"112 c black",
"113 c black",
"114 c black",
"115 c black",
"116 c black",
"117 c black",
"118 c black",
"119 c black",
"120 c black",
"121 c black",
"122 c black",
"123 c black",
"124 c black",
"125 c black",
"126 c black",
"127 c black",
"128 c black",
"129 c black",
"130 c black",
"131 c black",
"132 c black",
"133 c black",
"134 c black",
"135 c black",
"136 c black",
"137 c black",
"138 c black",
"139 c black",
"140 c black",
"141 c black",
"142 c black",
"143 c black",
"144 c black",
"145 c black",
"146 c black",
"147 c black",
"148 c black",
"149 c black",
"150 c black",
"151 c black",
"152 c black",
"153 c black",
"154 c black",
"155 c black",
"156 c black",
"157 c black",
"158 c black",
"159 c black",
"160 c black",
"161 c black",
"162 c black",
"163 c black",
"164 c black",
"165 c black",
"166 c black",
"167 c black",
"168 c black",
"169 c black",
"170 c black",
"171 c black",
"172 c black",
"173 c black",
"174 c black",
"175 c black",
"176 c black",
"177 c black",
"178 c black",
"179 c black",
"180 c black",
"181 c black",
"182 c black",
"183 c black",
"184 c black",
"185 c black",
"186 c black",
"187 c black",
"188 c black",
"189 c black",
"190 c black",
"191 c black",
"192 c black",
"193 c black",
"194 c black",
"195 c black",
"196 c black",
"197 c black",
"198 c black",
"199 c black",
"200 c black",
"201 c black",
"202 c black",
"203 c black",
"204 c black",
"205 c black",
"206 c black",
"207 c black",
"208 c black",
"209 c black",
"210 c black",
"211 c black",
"212 c black",
"213 c black",
"214 c black",
"215 c black",
"216 c black",
"217 c black",
"218 c black",
"219 c black",
"220 c black",
"221 c black",
"222 c black",
"223 c black",
"224 c black",
"225 c black",
"226 c black",
"227 c black",
"228 c black",
"229 c black",
"230 c black",
"231 c black",
"232 c black",
"233 c black",
"234 c black",
"235 c black",
"236 c black",
"237 c black",
"238 c black",
"239 c black",
"240 c black",
"241 c black",
"242 c black",
"243 c black",
"244 c black",
"245 c black",
"246 c black",
"247 c black",
"248 c black",
"249 c black",
"250 c black",
"251 c black",
"252 c black",
"253 c black",
"254 c black",
"255 c black",
"001001001001001001001001001001001001001001001001",
"001001040040042042015015051051024014001001001001",
"001001040002002002002002002002024015014001001001",
"001001040002002002002002002002024012015014001001",
"001001042002002002002002002002024024024024001001",
"001001042002002002002002002002002003001024001001",
"001001077002017017023034043058033059053072001001",
"001001077002002002002028079062016066031008045001",
"001001015002014039043079085070038031004058027001",
"001001015002014012022076083055082057002021056001",
"001001018002014050049065036031057002073025000001",
"001001024002061034049054005007002020013064041001",
"001001037002047039027046054002020013025052075001",
"001001011002006006006044013035025064052084045001",
"001001037037037037024068048071000019081072001001",
"001001001001001001001001001001001001001001001001"
};
