/* XPM */
char *Vlozit_xpm[] = {
"16 16 256 3",
"000 c black",
"001 c gray100",
"002 c #1D52A6",
"003 c #1F54A9",
"004 c #2055A9",
"005 c #BFD6EF",
"006 c #C0D6EF",
"007 c #C2D8F0",
"008 c #C6DAF1",
"009 c #DDEBFA",
"010 c #004F9C",
"011 c #0755A1",
"012 c #0957A3",
"013 c #BCDEFF",
"014 c #B7D2EE",
"015 c #C5E2FF",
"016 c #C6DCF2",
"017 c #E5F1FD",
"018 c linen",
"019 c #00539E",
"020 c #01539E",
"021 c #0556A0",
"022 c #0758A1",
"023 c #0B5CA5",
"024 c #1A68AE",
"025 c #1D67AA",
"026 c #2B71B0",
"027 c #3B8BD4",
"028 c #428ED4",
"029 c #4590D4",
"030 c #478ED1",
"031 c #4A93D7",
"032 c #639DD3",
"033 c #669FD3",
"034 c #9FD0FF",
"035 c #A5D3FF",
"036 c #ABD6FF",
"037 c #ACD7FF",
"038 c #B3DAFF",
"039 c #B5DCFF",
"040 c #BEE0FF",
"041 c #C7E4FF",
"042 c #CEE7FF",
"043 c #D6EBFF",
"044 c #DAEDFF",
"045 c #D3E6F7",
"046 c #E2F1FF",
"047 c #4E95D2",
"048 c #5496CB",
"049 c #6BA5D6",
"050 c #8AB4D8",
"051 c #89B1D3",
"052 c #D0E9FF",
"053 c #E1F1FF",
"054 c #E8F4FE",
"055 c #EBF6FF",
"056 c #6AB3E8",
"057 c #85C4F0",
"058 c #868889",
"059 c #FFFFD9",
"060 c #FFFFE4",
"061 c #FFFFEC",
"062 c #FFFFF1",
"063 c #FFFFF2",
"064 c #FDFAD6",
"065 c #FDFBDD",
"066 c #FDFBDF",
"067 c #FFFEF0",
"068 c #FFFACD",
"069 c #FEF9D0",
"070 c #FFF290",
"071 c #FFF29C",
"072 c #FFF39E",
"073 c #FFF4A8",
"074 c #FFF5AC",
"075 c #FCF2AC",
"076 c #FFF6B5",
"077 c #FEF5B8",
"078 c #FFF7BB",
"079 c #FFF8C1",
"080 c #FEF7C4",
"081 c #FEF7C6",
"082 c #FEF8C8",
"083 c #FFF9CA",
"084 c #FEF9D2",
"085 c #FDF8D4",
"086 c #FEFADA",
"087 c #FFFBE0",
"088 c #FFFCE6",
"089 c #FFFCE7",
"090 c #FFFDEE",
"091 c #FEF4BA",
"092 c #FFFCE9",
"093 c None",
"094 c gray53",
"095 c #868686",
"096 c gray52",
"097 c #797979",
"098 c #C2D8F0",
"099 c #C6DAF1",
"100 c #DDEBFA",
"101 c #004F9C",
"102 c #0755A1",
"103 c #0957A3",
"104 c #BCDEFF",
"105 c #B7D2EE",
"106 c #C5E2FF",
"107 c #C6DCF2",
"108 c #E5F1FD",
"109 c linen",
"110 c #00539E",
"111 c #01539E",
"112 c #0556A0",
"113 c #0758A1",
"114 c #0B5CA5",
"115 c #1A68AE",
"116 c #1D67AA",
"117 c #2B71B0",
"118 c #3B8BD4",
"119 c #428ED4",
"120 c #4590D4",
"121 c #478ED1",
"122 c #4A93D7",
"123 c #639DD3",
"124 c #669FD3",
"125 c #9FD0FF",
"126 c #A5D3FF",
"127 c #ABD6FF",
"128 c #ACD7FF",
"129 c #B3DAFF",
"130 c #B5DCFF",
"131 c #BEE0FF",
"132 c #C7E4FF",
"133 c #CEE7FF",
"134 c #D6EBFF",
"135 c #DAEDFF",
"136 c #D3E6F7",
"137 c #E2F1FF",
"138 c #4E95D2",
"139 c #000003",
"140 c black",
"141 c #000001",
"142 c #89B1D3",
"143 c #D0E9FF",
"144 c #E1F1FF",
"145 c #E8F4FE",
"146 c #EBF6FF",
"147 c #6AB3E8",
"148 c gray100",
"149 c black",
"150 c #000080",
"151 c black",
"152 c #FFFFEC",
"153 c black",
"154 c black",
"155 c black",
"156 c black",
"157 c black",
"158 c black",
"159 c black",
"160 c black",
"161 c #000005",
"162 c #FFF29C",
"163 c #6FDA07",
"164 c gray100",
"165 c #F7FF38",
"166 c #6FDA07",
"167 c #54504C",
"168 c black",
"169 c #FFFFFE",
"170 c #A20001",
"171 c #000080",
"172 c #700000",
"173 c #000001",
"174 c #000001",
"175 c #6FDD00",
"176 c black",
"177 c #6FD90C",
"178 c #F7B76C",
"179 c #6FDD00",
"180 c black",
"181 c #6FD91C",
"182 c #F7B76C",
"183 c #F741FB",
"184 c #FC9490",
"185 c #F7B787",
"186 c #F713E2",
"187 c #00015F",
"188 c #F712C5",
"189 c #004201",
"190 c yellow",
"191 c #F741FB",
"192 c #FC9490",
"193 c #F7B83F",
"194 c black",
"195 c #000001",
"196 c #BBCB90",
"197 c #6FD96C",
"198 c #F8C7D7",
"199 c #6FDD00",
"200 c cyan",
"201 c black",
"202 c #97A24C",
"203 c black",
"204 c #0003CC",
"205 c black",
"206 c #97A24C",
"207 c black",
"208 c #6FD984",
"209 c #9BE448",
"210 c #000068",
"211 c cyan",
"212 c black",
"213 c #000001",
"214 c #6FD998",
"215 c #9B3DAC",
"216 c #000068",
"217 c cyan",
"218 c #000001",
"219 c #6FDAC4",
"220 c #97CB8F",
"221 c #6FDD00",
"222 c cyan",
"223 c #000001",
"224 c #6FDD00",
"225 c #6FEB84",
"226 c black",
"227 c #C04D42",
"228 c black",
"229 c #BE0000",
"230 c #280000",
"231 c #100000",
"232 c #100000",
"233 c transparent",
"234 c #000008",
"235 c black",
"236 c #120000",
"237 c #120000",
"238 c #620000",
"239 c #620000",
"240 c black",
"241 c blue",
"242 c #A600FF",
"243 c #A9001D",
"244 c #A9001F",
"245 c #EF0020",
"246 c #EF00BF",
"247 c #F000C0",
"248 c #F100C2",
"249 c #FA00C6",
"250 c #9C00DD",
"251 c #A10000",
"252 c #A30007",
"253 c #FF0009",
"254 c #EE00BC",
"255 c #FF00B7",
"093093093093093093093093093093093093093093093093",
"093093093093093093093023024093093093093093093093",
"093093093033020021011056057012019010051093093093",
"093093093027055028027027027027031009050097093093",
"093093093027017014005006007008016018050097093093",
"093093093027046054045026020020020020025058093093",
"093093093027044053030002004004004004003032093093",
"093093093027052043027059060061062063063027097093",
"093093093027041042027083064087092090067027097093",
"093093093027040015027078082085066089090027097093",
"093093093027039013027074091081084065088027097093",
"093093093027037038027072075077080069086027097093",
"093093093027035036027070071073076079068027097093",
"093093093027034035047048027027027027027029097093",
"093093093049022020020020020020020022022097097093",
"093093093093097097097097095095095094096097093093"
};
