/* XPM */
char *xml_properties_xpm[] = {
"16 16 256 3",
"000 c #A8B0B8",
"001 c #F8F8F8",
"002 c None",
"003 c #F0F8F8",
"004 c #2890D8",
"005 c #F0E8E8",
"006 c #E0E8E8",
"007 c #E8F0F8",
"008 c #D80000",
"009 c #E8B8B0",
"010 c #D0D8D8",
"011 c #E8F8F8",
"012 c #D0D0D8",
"013 c #E8E0E0",
"014 c #D8D8D0",
"015 c #E8F0F0",
"016 c #1078D0",
"017 c #F0F0F8",
"018 c #3090D8",
"019 c #E8D8D8",
"020 c #E0F8F8",
"021 c #D87060",
"022 c #F0B8B0",
"023 c #C8D0D8",
"024 c #B8D8D8",
"025 c #E8E8E0",
"026 c #E0E0E8",
"027 c #E8E8F0",
"028 c gray66",
"029 c #0068D0",
"030 c #C87058",
"031 c #E0D8D0",
"032 c #D8E8E8",
"033 c #78B0D8",
"034 c #A0B8C8",
"035 c #2088D8",
"036 c #E0D8D8",
"037 c gray88",
"038 c #B0B0A8",
"039 c #F0D0C8",
"040 c #D0D8E0",
"041 c #D8D8D8",
"042 c #D8E0E0",
"043 c gray94",
"044 c #A8B0B0",
"045 c #2898D8",
"046 c #C03028",
"047 c #C8D8E8",
"048 c #0070D0",
"049 c #3098D8",
"050 c #B88880",
"051 c #C8D0D0",
"052 c #C0C8D0",
"053 c #A87070",
"054 c #1080D0",
"055 c #B04838",
"056 c #38A0D8",
"057 c #0868C8",
"058 c #2090D8",
"059 c gray72",
"060 c #E00800",
"061 c #C0D8D8",
"062 c #D8D0D0",
"063 c #A0A8A8",
"064 c #C82818",
"065 c #0868D0",
"066 c #30A0E0",
"067 c #D89890",
"068 c #1888D8",
"069 c #D86860",
"070 c #B0C0D0",
"071 c #2078D0",
"072 c #1888D0",
"073 c #B0B8C0",
"074 c #A0A8B0",
"075 c #C80000",
"076 c #3898D8",
"077 c #A86860",
"078 c #980000",
"079 c #1880D0",
"080 c #D06850",
"081 c #90B8E0",
"082 c #A0A0A8",
"083 c #C8C8D0",
"084 c #A0C8E0",
"085 c #A8A8A0",
"086 c #0870D0",
"087 c #B0A8A8",
"088 c #B0B8B8",
"089 c #C02818",
"090 c #1070D0",
"091 c #B06058",
"092 c #C04038",
"093 c #90C0E0",
"094 c #1068D0",
"095 c #C81000",
"096 c #30A0D8",
"097 c #C89080",
"098 c #B05040",
"099 c #0870C8",
"100 c #C89090",
"101 c black",
"102 c black",
"103 c black",
"104 c black",
"105 c black",
"106 c black",
"107 c black",
"108 c black",
"109 c black",
"110 c black",
"111 c black",
"112 c black",
"113 c black",
"114 c black",
"115 c black",
"116 c black",
"117 c black",
"118 c black",
"119 c black",
"120 c black",
"121 c black",
"122 c black",
"123 c black",
"124 c black",
"125 c black",
"126 c black",
"127 c black",
"128 c black",
"129 c black",
"130 c black",
"131 c black",
"132 c black",
"133 c black",
"134 c black",
"135 c black",
"136 c black",
"137 c black",
"138 c black",
"139 c black",
"140 c black",
"141 c black",
"142 c black",
"143 c black",
"144 c black",
"145 c black",
"146 c black",
"147 c black",
"148 c black",
"149 c black",
"150 c black",
"151 c black",
"152 c black",
"153 c black",
"154 c black",
"155 c black",
"156 c black",
"157 c black",
"158 c black",
"159 c black",
"160 c black",
"161 c black",
"162 c black",
"163 c black",
"164 c black",
"165 c black",
"166 c black",
"167 c black",
"168 c black",
"169 c black",
"170 c black",
"171 c black",
"172 c black",
"173 c black",
"174 c black",
"175 c black",
"176 c black",
"177 c black",
"178 c black",
"179 c black",
"180 c black",
"181 c black",
"182 c black",
"183 c black",
"184 c black",
"185 c black",
"186 c black",
"187 c black",
"188 c black",
"189 c black",
"190 c black",
"191 c black",
"192 c black",
"193 c black",
"194 c black",
"195 c black",
"196 c black",
"197 c black",
"198 c black",
"199 c black",
"200 c black",
"201 c black",
"202 c black",
"203 c black",
"204 c black",
"205 c black",
"206 c black",
"207 c black",
"208 c black",
"209 c black",
"210 c black",
"211 c black",
"212 c black",
"213 c black",
"214 c black",
"215 c black",
"216 c black",
"217 c black",
"218 c black",
"219 c black",
"220 c black",
"221 c black",
"222 c black",
"223 c black",
"224 c black",
"225 c black",
"226 c black",
"227 c black",
"228 c black",
"229 c black",
"230 c black",
"231 c black",
"232 c black",
"233 c black",
"234 c black",
"235 c black",
"236 c black",
"237 c black",
"238 c black",
"239 c black",
"240 c black",
"241 c black",
"242 c black",
"243 c black",
"244 c black",
"245 c black",
"246 c black",
"247 c black",
"248 c black",
"249 c black",
"250 c black",
"251 c black",
"252 c black",
"253 c black",
"254 c black",
"255 c black",
"002002002002002002002002002002002002002002002002",
"002002093049045045045045045066056066056084002002",
"002002056007001003003011020067030047070076002002",
"002002045001001022001001039008100005023018002002",
"002002045003001069055061075053007002010004002002",
"002002045017001073064046091000002013010035002002",
"002002004017017000001078003000026013012035002002",
"002002058007005059073028073097080002012079002002",
"002002058002002009007007019060050002012079002002",
"002002068006002021055024095077032031012016002002",
"002002068042002000089092098063014031012016002002",
"002002079010026063001078011082014062012086002002",
"002002054012031038028028028087014031012086002002",
"002002079083062014012012023023052052034016002002",
"002002033048048029029029057057094090071081002002",
"002002002002002002002002002002002002002002002002"
};
