/* XPM */
char *xml_export_xpm[] = {
"16 16 256 3",
"000 c None",
"001 c #D8D8D8",
"002 c #E8D8D0",
"003 c #E8E0E0",
"004 c #C0C8C8",
"005 c #D0D0D0",
"006 c gray94",
"007 c gray88",
"008 c gray66",
"009 c #E8E0D8",
"010 c #C8C8C8",
"011 c #C0C0C0",
"012 c #A0A0A0",
"013 c #F8F8F8",
"014 c gray72",
"015 c gray69",
"016 c #D0C8C8",
"017 c #D07068",
"018 c #E8D8C8",
"019 c #989898",
"020 c #E8C8B8",
"021 c #E0B8B0",
"022 c #585858",
"023 c #909090",
"024 c #606060",
"025 c #A8A0A0",
"026 c #F88838",
"027 c #607070",
"028 c #909898",
"029 c #F89840",
"030 c #808080",
"031 c #906860",
"032 c #D8A0A0",
"033 c #F87830",
"034 c gray44",
"035 c #E07838",
"036 c #F88030",
"037 c gray47",
"038 c #F8A048",
"039 c #E8B0A0",
"040 c #F87828",
"041 c #E08048",
"042 c #E07830",
"043 c #E08058",
"044 c #F08030",
"045 c #F09050",
"046 c #C04020",
"047 c #F86820",
"048 c #E8A068",
"049 c #F8B858",
"050 c #F04810",
"051 c #E86820",
"052 c #F86020",
"053 c #F86828",
"054 c #D84008",
"055 c #F85010",
"056 c #F87028",
"057 c #D84808",
"058 c #B03820",
"059 c #E86020",
"060 c #E06028",
"061 c #D02808",
"062 c #F06018",
"063 c #B81800",
"064 c #F06818",
"065 c #F05010",
"066 c #F85818",
"067 c #B02000",
"068 c #D81000",
"069 c #C01000",
"070 c #A00800",
"071 c black",
"072 c black",
"073 c black",
"074 c black",
"075 c black",
"076 c black",
"077 c black",
"078 c black",
"079 c black",
"080 c black",
"081 c black",
"082 c black",
"083 c black",
"084 c black",
"085 c black",
"086 c black",
"087 c black",
"088 c black",
"089 c black",
"090 c black",
"091 c black",
"092 c black",
"093 c black",
"094 c black",
"095 c black",
"096 c black",
"097 c black",
"098 c black",
"099 c black",
"100 c black",
"101 c black",
"102 c black",
"103 c black",
"104 c black",
"105 c black",
"106 c black",
"107 c black",
"108 c black",
"109 c black",
"110 c black",
"111 c black",
"112 c black",
"113 c black",
"114 c black",
"115 c black",
"116 c black",
"117 c black",
"118 c black",
"119 c black",
"120 c black",
"121 c black",
"122 c black",
"123 c black",
"124 c black",
"125 c black",
"126 c black",
"127 c black",
"128 c black",
"129 c black",
"130 c black",
"131 c black",
"132 c black",
"133 c black",
"134 c black",
"135 c black",
"136 c black",
"137 c black",
"138 c black",
"139 c black",
"140 c black",
"141 c black",
"142 c black",
"143 c black",
"144 c black",
"145 c black",
"146 c black",
"147 c black",
"148 c black",
"149 c black",
"150 c black",
"151 c black",
"152 c black",
"153 c black",
"154 c black",
"155 c black",
"156 c black",
"157 c black",
"158 c black",
"159 c black",
"160 c black",
"161 c black",
"162 c black",
"163 c black",
"164 c black",
"165 c black",
"166 c black",
"167 c black",
"168 c black",
"169 c black",
"170 c black",
"171 c black",
"172 c black",
"173 c black",
"174 c black",
"175 c black",
"176 c black",
"177 c black",
"178 c black",
"179 c black",
"180 c black",
"181 c black",
"182 c black",
"183 c black",
"184 c black",
"185 c black",
"186 c black",
"187 c black",
"188 c black",
"189 c black",
"190 c black",
"191 c black",
"192 c black",
"193 c black",
"194 c black",
"195 c black",
"196 c black",
"197 c black",
"198 c black",
"199 c black",
"200 c black",
"201 c black",
"202 c black",
"203 c black",
"204 c black",
"205 c black",
"206 c black",
"207 c black",
"208 c black",
"209 c black",
"210 c black",
"211 c black",
"212 c black",
"213 c black",
"214 c black",
"215 c black",
"216 c black",
"217 c black",
"218 c black",
"219 c black",
"220 c black",
"221 c black",
"222 c black",
"223 c black",
"224 c black",
"225 c black",
"226 c black",
"227 c black",
"228 c black",
"229 c black",
"230 c black",
"231 c black",
"232 c black",
"233 c black",
"234 c black",
"235 c black",
"236 c black",
"237 c black",
"238 c black",
"239 c black",
"240 c black",
"241 c black",
"242 c black",
"243 c black",
"244 c black",
"245 c black",
"246 c black",
"247 c black",
"248 c black",
"249 c black",
"250 c black",
"251 c black",
"252 c black",
"253 c black",
"254 c black",
"255 c black",
"000000000000000000000000000000000000000000000000",
"000000000000000000002035060002000000000000000000",
"000000000000000003035049064043000000000000000000",
"000000000000000041038038029054039000000000000000",
"000000000000048029029026026059046003000000000000",
"000000000000045044036033033033061017000000000000",
"000000000000000020051056047066050063021000000000",
"000000000000011025062047052069067070032000000000",
"000000011005011028057065055068016007014012000000",
"000000008006011034027031058004000006011024000000",
"000000008001007013011023012001011030034022000000",
"000000012010000007000013001023034037034034000000",
"000000000015012006006013034037037024008000000000",
"000000000000007019011013037024030007000000000000",
"000000000000000000010019024010000000000000000000",
"000000000000000000000000000000000000000000000000"
};
