/* XPM */
char *xml_test_xpm[] = {
"16 16 256 3",
"000 c #0080E8",
"001 c None",
"002 c #889098",
"003 c #F0F0F8",
"004 c #0098F8",
"005 c #F8F8F8",
"006 c #98C8F8",
"007 c #E8E8F8",
"008 c #787880",
"009 c #E0A898",
"010 c #8890A0",
"011 c #D0D0D0",
"012 c #D8D8F8",
"013 c #F0F8F8",
"014 c #3080B8",
"015 c #F8E070",
"016 c #888890",
"017 c #E0E0F8",
"018 c #90D0F0",
"019 c gray44",
"020 c #D0C088",
"021 c #A0D8F0",
"022 c #D0D0F8",
"023 c #90D0F8",
"024 c #A0A0A8",
"025 c #90D8F8",
"026 c #6880A0",
"027 c #C0C0D0",
"028 c #D0D0D8",
"029 c #A0E0F8",
"030 c #0090F0",
"031 c #F88030",
"032 c #788080",
"033 c #80D0F8",
"034 c gray47",
"035 c #E8A8A0",
"036 c #A8D8F0",
"037 c #C8F0F8",
"038 c #808080",
"039 c gray66",
"040 c #E8F8F8",
"041 c #E09888",
"042 c #707878",
"043 c #98D0F8",
"044 c #38A8F8",
"045 c #80C8F0",
"046 c #B8B8D0",
"047 c #D8D8D8",
"048 c #A8D0F0",
"049 c #F88838",
"050 c #708898",
"051 c #E8A098",
"052 c #B8E8F8",
"053 c #90A8B8",
"054 c #B0B0D0",
"055 c #C0D8D8",
"056 c #D8D8E0",
"057 c #98D8F8",
"058 c #F88038",
"059 c #98A8B0",
"060 c #F8D878",
"061 c #90C8E8",
"062 c #98D0F0",
"063 c #C0E8F8",
"064 c black",
"065 c black",
"066 c black",
"067 c black",
"068 c black",
"069 c black",
"070 c black",
"071 c black",
"072 c black",
"073 c black",
"074 c black",
"075 c black",
"076 c black",
"077 c black",
"078 c black",
"079 c black",
"080 c black",
"081 c black",
"082 c black",
"083 c black",
"084 c black",
"085 c black",
"086 c black",
"087 c black",
"088 c black",
"089 c black",
"090 c black",
"091 c black",
"092 c black",
"093 c black",
"094 c black",
"095 c black",
"096 c black",
"097 c black",
"098 c black",
"099 c black",
"100 c black",
"101 c black",
"102 c black",
"103 c black",
"104 c black",
"105 c black",
"106 c black",
"107 c black",
"108 c black",
"109 c black",
"110 c black",
"111 c black",
"112 c black",
"113 c black",
"114 c black",
"115 c black",
"116 c black",
"117 c black",
"118 c black",
"119 c black",
"120 c black",
"121 c black",
"122 c black",
"123 c black",
"124 c black",
"125 c black",
"126 c black",
"127 c black",
"128 c black",
"129 c black",
"130 c black",
"131 c black",
"132 c black",
"133 c black",
"134 c black",
"135 c black",
"136 c black",
"137 c black",
"138 c black",
"139 c black",
"140 c black",
"141 c black",
"142 c black",
"143 c black",
"144 c black",
"145 c black",
"146 c black",
"147 c black",
"148 c black",
"149 c black",
"150 c black",
"151 c black",
"152 c black",
"153 c black",
"154 c black",
"155 c black",
"156 c black",
"157 c black",
"158 c black",
"159 c black",
"160 c black",
"161 c black",
"162 c black",
"163 c black",
"164 c black",
"165 c black",
"166 c black",
"167 c black",
"168 c black",
"169 c black",
"170 c black",
"171 c black",
"172 c black",
"173 c black",
"174 c black",
"175 c black",
"176 c black",
"177 c black",
"178 c black",
"179 c black",
"180 c black",
"181 c black",
"182 c black",
"183 c black",
"184 c black",
"185 c black",
"186 c black",
"187 c black",
"188 c black",
"189 c black",
"190 c black",
"191 c black",
"192 c black",
"193 c black",
"194 c black",
"195 c black",
"196 c black",
"197 c black",
"198 c black",
"199 c black",
"200 c black",
"201 c black",
"202 c black",
"203 c black",
"204 c black",
"205 c black",
"206 c black",
"207 c black",
"208 c black",
"209 c black",
"210 c black",
"211 c black",
"212 c black",
"213 c black",
"214 c black",
"215 c black",
"216 c black",
"217 c black",
"218 c black",
"219 c black",
"220 c black",
"221 c black",
"222 c black",
"223 c black",
"224 c black",
"225 c black",
"226 c black",
"227 c black",
"228 c black",
"229 c black",
"230 c black",
"231 c black",
"232 c black",
"233 c black",
"234 c black",
"235 c black",
"236 c black",
"237 c black",
"238 c black",
"239 c black",
"240 c black",
"241 c black",
"242 c black",
"243 c black",
"244 c black",
"245 c black",
"246 c black",
"247 c black",
"248 c black",
"249 c black",
"250 c black",
"251 c black",
"252 c black",
"253 c black",
"254 c black",
"255 c black",
"001001001001001001001001001001001001001001001001",
"001048004004004004004004004004004004004004048001",
"001004006006006006006006006006006006006044004001",
"001004004000000000000000000000000000000030004001",
"001004011011047047047047011027027046046054004001",
"001004005005005039032042008024017017012022004001",
"001004005005039055013037029059024017012022004001",
"001004005005032040040063021025038017012022004001",
"001004005005042052052036018018042017012022004001",
"001004005005032025043061045057038012012022004001",
"001004003003024053033033043002016009022022004001",
"001004003003003024008019008016020031051022004001",
"001004007007007007017017017009031015049041004001",
"001004017017017017017017012012035031060002004001",
"001048004004004004004004004004004026050014048001",
"001001001001001001001001001001001001001001001001"
};
