/* XPM */
char *xml_import_xpm[] = {
"16 16 256 3",
"000 c None",
"001 c #D8D0D8",
"002 c #F8F8F8",
"003 c gray88",
"004 c #C8C8C8",
"005 c gray94",
"006 c #C0C0C0",
"007 c #D8D0E0",
"008 c #C8C0C8",
"009 c #F8E8F8",
"010 c gray66",
"011 c #D8D8D8",
"012 c #989898",
"013 c #D0D0D0",
"014 c gray69",
"015 c #909090",
"016 c gray72",
"017 c #A0A0A0",
"018 c #B8D8B8",
"019 c #808080",
"020 c #90E858",
"021 c #88E850",
"022 c #98F068",
"023 c #78B878",
"024 c #A8F878",
"025 c #88F058",
"026 c gray47",
"027 c #98C890",
"028 c gray44",
"029 c #80E850",
"030 c #78E040",
"031 c #88E858",
"032 c #80E048",
"033 c #689868",
"034 c #78D840",
"035 c #70C070",
"036 c #80E848",
"037 c #606060",
"038 c #78E048",
"039 c #706870",
"040 c #585858",
"041 c #60C050",
"042 c #40B828",
"043 c #60B860",
"044 c #40C020",
"045 c #60C058",
"046 c #30B018",
"047 c #50C828",
"048 c #40B830",
"049 c #50A050",
"050 c #587058",
"051 c #48B040",
"052 c #48B048",
"053 c #18A808",
"054 c #58C040",
"055 c #50C038",
"056 c #18A008",
"057 c #38C018",
"058 c #38B820",
"059 c #309028",
"060 c #009800",
"061 c #28A810",
"062 c black",
"063 c black",
"064 c black",
"065 c black",
"066 c black",
"067 c black",
"068 c black",
"069 c black",
"070 c black",
"071 c black",
"072 c black",
"073 c black",
"074 c black",
"075 c black",
"076 c black",
"077 c black",
"078 c black",
"079 c black",
"080 c black",
"081 c black",
"082 c black",
"083 c black",
"084 c black",
"085 c black",
"086 c black",
"087 c black",
"088 c black",
"089 c black",
"090 c black",
"091 c black",
"092 c black",
"093 c black",
"094 c black",
"095 c black",
"096 c black",
"097 c black",
"098 c black",
"099 c black",
"100 c black",
"101 c black",
"102 c black",
"103 c black",
"104 c black",
"105 c black",
"106 c black",
"107 c black",
"108 c black",
"109 c black",
"110 c black",
"111 c black",
"112 c black",
"113 c black",
"114 c black",
"115 c black",
"116 c black",
"117 c black",
"118 c black",
"119 c black",
"120 c black",
"121 c black",
"122 c black",
"123 c black",
"124 c black",
"125 c black",
"126 c black",
"127 c black",
"128 c black",
"129 c black",
"130 c black",
"131 c black",
"132 c black",
"133 c black",
"134 c black",
"135 c black",
"136 c black",
"137 c black",
"138 c black",
"139 c black",
"140 c black",
"141 c black",
"142 c black",
"143 c black",
"144 c black",
"145 c black",
"146 c black",
"147 c black",
"148 c black",
"149 c black",
"150 c black",
"151 c black",
"152 c black",
"153 c black",
"154 c black",
"155 c black",
"156 c black",
"157 c black",
"158 c black",
"159 c black",
"160 c black",
"161 c black",
"162 c black",
"163 c black",
"164 c black",
"165 c black",
"166 c black",
"167 c black",
"168 c black",
"169 c black",
"170 c black",
"171 c black",
"172 c black",
"173 c black",
"174 c black",
"175 c black",
"176 c black",
"177 c black",
"178 c black",
"179 c black",
"180 c black",
"181 c black",
"182 c black",
"183 c black",
"184 c black",
"185 c black",
"186 c black",
"187 c black",
"188 c black",
"189 c black",
"190 c black",
"191 c black",
"192 c black",
"193 c black",
"194 c black",
"195 c black",
"196 c black",
"197 c black",
"198 c black",
"199 c black",
"200 c black",
"201 c black",
"202 c black",
"203 c black",
"204 c black",
"205 c black",
"206 c black",
"207 c black",
"208 c black",
"209 c black",
"210 c black",
"211 c black",
"212 c black",
"213 c black",
"214 c black",
"215 c black",
"216 c black",
"217 c black",
"218 c black",
"219 c black",
"220 c black",
"221 c black",
"222 c black",
"223 c black",
"224 c black",
"225 c black",
"226 c black",
"227 c black",
"228 c black",
"229 c black",
"230 c black",
"231 c black",
"232 c black",
"233 c black",
"234 c black",
"235 c black",
"236 c black",
"237 c black",
"238 c black",
"239 c black",
"240 c black",
"241 c black",
"242 c black",
"243 c black",
"244 c black",
"245 c black",
"246 c black",
"247 c black",
"248 c black",
"249 c black",
"250 c black",
"251 c black",
"252 c black",
"253 c black",
"254 c black",
"255 c black",
"000000000000000000000000000000000000000000000000",
"000000000000000000042055054041000000000000000000",
"000000000000000000044025024061000000000000000000",
"000000000000041055058029022056000000000000000000",
"000000000000041021021032020060027018000000000000",
"000000000000000042030030029021029042035000000000",
"000000000000000043047034030021046051000000000000",
"000000000000006001051030030053049001000000000000",
"000000006013006015050057053023009003016017000000",
"000000010005006028039059033008000005006037000000",
"000000010011003002006015017011006019028040000000",
"000000017004000003000002011015028026028028000000",
"000000000014017005005002028026026037010000000000",
"000000000000003012006002026037019003000000000000",
"000000000000000000004012037004000000000000000000",
"000000000000000000000000000000000000000000000000"
};
