/* XPM */
char *xml_atribut_xpm[] = {
"16 16 2 3",
"000 c None",
"001 c #004080",
"000000000000000000000000000000000000000000000000",
"000000000000000000000000000000000000000000000000",
"000000000000000000000000000000000000000000000000",
"000000000000000001001001001001001001000000000000",
"000000000000001001000000000000000001001000000000",
"000000000001001000000001001001001000001001000000",
"000000000001001000001001000001001000001001000000",
"000000000001001000001001000001001000001001000000",
"000000000001001000001001000001001000001001000000",
"000000000001001000001001000001001000001001000000",
"000000000001001000000001001001001000001001000000",
"000000000000001001000000000000001001001000000000",
"000000000000000001001001001000000000000000000000",
"000000000000000000000000000000000000000000000000",
"000000000000000000000000000000000000000000000000",
"000000000000000000000000000000000000000000000000"
};
