/* XPM */
char *xmlform_xpm[] = {
"16 16 102 3",
"000 c None",
"001 c #D85030",
"002 c #982828",
"003 c #E0C8B8",
"004 c #786868",
"005 c #D0A080",
"006 c #906060",
"007 c #D8D8D0",
"008 c #C05848",
"009 c #A86058",
"010 c #E0D0C0",
"011 c #786060",
"012 c #D8C0A0",
"013 c #A86860",
"014 c #F8F8F8",
"015 c #D85838",
"016 c #A84840",
"017 c #E8E0C8",
"018 c #706868",
"019 c #D8B8A0",
"020 c #A06860",
"021 c #E0D0C8",
"022 c #B06050",
"023 c #A85848",
"024 c #E8D0B0",
"025 c #805850",
"026 c #E8D8B8",
"027 c #886058",
"028 c #E0E0D8",
"029 c #C86040",
"030 c #986058",
"031 c #D8C8C0",
"032 c #D09880",
"033 c #986060",
"034 c #D8D0C8",
"035 c #D06040",
"036 c #884848",
"037 c #E0D0B8",
"038 c #D8B898",
"039 c #A86858",
"040 c #E0D8D0",
"041 c #D05030",
"042 c #981818",
"043 c #D8C8B8",
"044 c #E0A888",
"045 c #B85848",
"046 c #A06058",
"047 c #E8D8C8",
"048 c #F0C8A0",
"049 c #A09088",
"050 c #D05838",
"051 c #903830",
"052 c #D0C8C0",
"053 c #D8B098",
"054 c #C86048",
"055 c #E8C098",
"056 c #806860",
"057 c #884040",
"058 c #E8D0C0",
"059 c #C8A088",
"060 c #D09878",
"061 c #E0D8C0",
"062 c #E0C8B0",
"063 c #986860",
"064 c #C85840",
"065 c #984038",
"066 c #D8C0A8",
"067 c #B8A090",
"068 c #A86050",
"069 c #F0E0C8",
"070 c #905050",
"071 c #E8D8C0",
"072 c #C8A080",
"073 c #E0D8D8",
"074 c #984840",
"075 c #E8D0B8",
"076 c #D8B090",
"077 c #B07068",
"078 c #E0D8C8",
"079 c #907068",
"080 c #B86048",
"081 c #E0C8A8",
"082 c #D0A088",
"083 c #C8A888",
"084 c #D89070",
"085 c #C05840",
"086 c #D8C8A8",
"087 c #C06050",
"088 c #D0C0B0",
"089 c gray88",
"090 c #D05038",
"091 c #E84820",
"092 c #B86050",
"093 c #C0A088",
"094 c #E8C8A8",
"095 c #B06860",
"096 c #885858",
"097 c #C0A890",
"098 c #A03030",
"099 c #D8A890",
"100 c #D89878",
"101 c #B8B0A0",
"000000000000000000000000000000000000000000000000",
"000000091015015015015015050035035035029029000000",
"000000001044042002051057036025011018101087000000",
"000000041048084100032005059059059097086080000000",
"000000041055032005083012024058010010010080000000",
"000000041055009009077093040014014014040022000000",
"000000041094053019012024003010010010010022000000",
"000000064094053019012024010014014014040009000000",
"000000064053016046079067003062031040034046000000",
"000000008026026026026026024003031028034046000000",
"000000008099098074070027004088034014007030000000",
"000000008017069017026061010031052007034006000000",
"000000045019065096049028014014014014007006000000",
"000000080017017047040034007007007007007006000000",
"000000023095013013013020030063006006006056000000",
"000000000000000000000000000000000000000000000000"
};
