/* XPM */
char *xmlfill_xpm[] = {
"16 16 102 3",
"000 c black",
"001 c #B080C8",
"002 c #383890",
"003 c #E8E0F0",
"004 c #201878",
"005 c #C0B8C0",
"006 c #B078D0",
"007 c #D8C0E0",
"008 c gray3",
"009 c #C090D8",
"010 c #7058B0",
"011 c #F8F0F8",
"012 c #282080",
"013 c #B8B0B8",
"014 c #8880B8",
"015 c #F8F8F8",
"016 c #101878",
"017 c #B070C8",
"018 c #5050A0",
"019 c #E0D0E8",
"020 c #182080",
"021 c #C098D8",
"022 c #A068C0",
"023 c #000870",
"024 c #B888D0",
"025 c #7860B0",
"026 c #F0F0F8",
"027 c #382888",
"028 c #D0C0E0",
"029 c #A870C8",
"030 c #D088E0",
"031 c #283090",
"032 c #283088",
"033 c #C8B8E0",
"034 c #A878C8",
"035 c #001070",
"036 c #C0A0D8",
"037 c #7858B0",
"038 c #202880",
"039 c #D0B0E0",
"040 c #8878B8",
"041 c #000868",
"042 c #C088D8",
"043 c #5850A0",
"044 c #081070",
"045 c #D098E0",
"046 c #8060B8",
"047 c #B8A0D0",
"048 c #7060B0",
"049 c #F0E8F0",
"050 c #403890",
"051 c #C8C0E0",
"052 c #8880C0",
"053 c #B080D0",
"054 c #404098",
"055 c #201880",
"056 c #D090E0",
"057 c #7870B0",
"058 c #383088",
"059 c #A898D8",
"060 c #C888E0",
"061 c #484098",
"062 c #202080",
"063 c #C8A8D8",
"064 c #8858B8",
"065 c #7068B0",
"066 c #483890",
"067 c #D8C8E8",
"068 c #A888C8",
"069 c #484898",
"070 c #B8B8C0",
"071 c #181818",
"072 c #6850A8",
"073 c #282888",
"074 c #909098",
"075 c #B068C8",
"076 c #504898",
"077 c #101070",
"078 c #A070C8",
"079 c #D0A0E0",
"080 c #7058A8",
"081 c #383090",
"082 c #C0C0C8",
"083 c #A880C8",
"084 c #8058B0",
"085 c #5858A8",
"086 c #6858A8",
"087 c #303890",
"088 c #6040A0",
"089 c #302888",
"090 c #6058A8",
"091 c #080870",
"092 c #384098",
"093 c #483090",
"094 c #9088C0",
"095 c #C0B0D8",
"096 c #8060B0",
"097 c #B088D0",
"098 c #282880",
"099 c #A068C8",
"100 c #7868B0",
"101 c #7878B0",
"045079045056030030030060006078006060030009009045",
"042009009075075064027091077012004077093022009009",
"009009017029066023004084029017017029088004022021",
"021006034089023027034006006006006006006046058036",
"036024010058058083001037025097001046037001058036",
"063083016050016048062073035010073073044061072039",
"039076016050043048016036020050076068016090086039",
"007038002065023031054047035040100020065059061007",
"067031031087031069020031002069035031092094018067",
"019095057014028033101014028014014014014085095019",
"011019019019019019019019019019019019019051019011",
"011071013013071003000013003013000003008003003011",
"011070008008070049000008074008000049000049049011",
"011005008008005026000005000005000026000026026011",
"015071082082071015008015015015008015000000008015",
"015015015015015015015015015015015015015015015015"
};
